<svg xmlns="http://www.w3.org/2000/svg" viewBox="0 0 406.52 428.39"><defs><style>.cls-1{fill:#e0e0e0;}.cls-16,.cls-2,.cls-25,.cls-28,.cls-30,.cls-7{fill:#fff;}.cls-3{fill:#ebebeb;}.cls-4{opacity:0.15;}.cls-5{fill:#ba68c8;}.cls-27,.cls-6,.cls-7{opacity:0.2;}.cls-13,.cls-8{fill:none;}.cls-9{fill:#f0f0f0;}.cls-10{fill:#f5f5f5;}.cls-11{isolation:isolate;}.cls-12{fill:#fafafa;}.cls-13{stroke:gray;stroke-linecap:round;stroke-linejoin:round;stroke-width:0;}.cls-14{fill:#cacaca;}.cls-15{fill:#455a64;}.cls-16,.cls-18,.cls-23{opacity:0.3;}.cls-17{opacity:0.4;}.cls-19,.cls-30{opacity:0.5;}.cls-20{fill:#37474f;}.cls-21{fill:#ffa8a7;}.cls-22{fill:#f28f8f;}.cls-24{fill:#263238;}.cls-25,.cls-26{opacity:0.1;}.cls-28{opacity:0.25;}.cls-29{fill:#e6e6e6;}</style></defs><g id="Shadows"><path class="cls-1" d="M115.6,430.28c6.86-4,17.94-4,24.76,0s6.78,10.38-.08,14.34-17.94,4-24.76,0S108.74,434.24,115.6,430.28Z" transform="translate(-40.12 -19.2)"/><polygon class="cls-1" points="257 214.68 11.45 357.67 0 351.06 245.55 208.07 257 214.68"/></g><g id="Plant"><path class="cls-2" d="M111.33,407.5l16.61.48,16.61-.48c.71,11.21-1.48,22.64-4.5,28.22h0a7.56,7.56,0,0,1-3.29,3.35c-4.9,2.82-12.81,2.82-17.68,0a7.35,7.35,0,0,1-3.29-3.44C112.79,430,110.62,418.66,111.33,407.5Z" transform="translate(-40.12 -19.2)"/><path class="cls-3" d="M116.24,400.7c-6.51,3.75-6.54,9.84-.08,13.6s17,3.76,23.48,0,6.54-9.85.08-13.6S122.74,396.94,116.24,400.7Z" transform="translate(-40.12 -19.2)"/><path class="cls-1" d="M118.81,402.19c-5.08,2.93-5.1,7.68-.06,10.61s13.24,2.93,18.32,0,5.1-7.68.06-10.61S123.88,399.26,118.81,402.19Z" transform="translate(-40.12 -19.2)"/><g class="cls-4"><path d="M118.81,402.19c-5.08,2.93-5.1,7.68-.06,10.61s13.24,2.93,18.32,0,5.1-7.68.06-10.61S123.88,399.26,118.81,402.19Z" transform="translate(-40.12 -19.2)"/></g><path class="cls-5" d="M100.64,336.64c37.42,12.25,37.76,37.29,29.32,55.11-2.13,3.61-8.56,5.55-14.17-16.62l9.83,1.26-11.45-5.81-3-8.89,9.55.71-12.12-5.1A180.19,180.19,0,0,0,100.64,336.64Z" transform="translate(-40.12 -19.2)"/><path class="cls-6" d="M100.64,336.64c37.42,12.25,37.76,37.29,29.32,55.11-2.13,3.61-8.56,5.55-14.17-16.62l9.83,1.26-11.45-5.81-3-8.89,9.55.71-12.12-5.1A180.19,180.19,0,0,0,100.64,336.64Z" transform="translate(-40.12 -19.2)"/><path class="cls-2" d="M111.22,342.9c19.74,15,21.52,32.15,15.94,50.07C129.13,377.19,131.27,361.23,111.22,342.9Z" transform="translate(-40.12 -19.2)"/><path class="cls-5" d="M164,362.07c-36.89,5.19-41.36,28.45-36.47,46.46,1.38,3.71,7.06,6.59,16-13.13l-9.36-.46,11.63-3.51,4.25-7.78-9-.93L153.16,380A168.79,168.79,0,0,1,164,362.07Z" transform="translate(-40.12 -19.2)"/><path class="cls-7" d="M164,362.07c-36.89,5.19-41.36,28.45-36.47,46.46,1.38,3.71,7.06,6.59,16-13.13l-9.36-.46,11.63-3.51,4.25-7.78-9-.93L153.16,380A168.79,168.79,0,0,1,164,362.07Z" transform="translate(-40.12 -19.2)"/><path class="cls-2" d="M153.12,366.14c-20.86,10.67-25.38,26.37-23.16,44C130.74,395.1,131.41,379.88,153.12,366.14Z" transform="translate(-40.12 -19.2)"/><path class="cls-5" d="M89.84,370.78c33.83.56,40.47,21,38.07,37.8-.83,3.5-5.62,6.73-15.85-10.05l8.38-1.46-10.87-1.86-4.7-6.54,8-1.85-11.24-1.1A154.48,154.48,0,0,0,89.84,370.78Z" transform="translate(-40.12 -19.2)"/><path class="cls-2" d="M100.12,373.23c20,7.29,25.82,20.93,25.8,37.06C123.53,396.83,121.23,383.19,100.12,373.23Z" transform="translate(-40.12 -19.2)"/></g><g id="Pictures"><polygon class="cls-8" points="367.05 59.85 399.79 78.75 399.71 103.77 366.98 84.87 367.05 59.85"/><polygon class="cls-9" points="367.05 59.85 366.98 84.87 363.95 86.63 364.03 58.11 367.05 59.85"/><polygon class="cls-10" points="399.71 103.77 399.7 107.28 363.95 86.63 366.98 84.87 399.71 103.77"/><path class="cls-1" d="M400.39,107.93l43.09,24.88.1-36.95L400.5,71Zm3.68-2.1.08-28.52,3,1.74L439.91,98l-.07,25v3.51Z" transform="translate(-40.12 -19.2)"/><polygon class="cls-10" points="360.38 51.79 363.41 50.02 406.5 74.9 403.46 76.66 360.38 51.79"/><polygon class="cls-9" points="406.5 74.9 406.39 111.84 403.36 113.61 403.46 76.66 406.5 74.9"/><g class="cls-11"><polygon class="cls-1" points="377.45 69.35 368.52 76.38 368.5 83.25 398.2 100.39 398.22 93.52 392.56 82.28 387.48 86.23 389.27 91.81 386.67 86.86 377.45 69.35"/><path class="cls-1" d="M427.33,92c-1.4-.8-2.54-.16-2.54,1.45a5.54,5.54,0,0,0,2.52,4.37c1.4.81,2.53.16,2.54-1.45A5.61,5.61,0,0,0,427.33,92Z" transform="translate(-40.12 -19.2)"/></g><polygon class="cls-8" points="367.07 116 399.81 134.9 399.74 159.92 367 141.02 367.07 116"/><polygon class="cls-9" points="367.07 116 367 141.02 363.97 142.78 364.05 114.26 367.07 116"/><polygon class="cls-10" points="399.74 159.92 399.73 163.43 363.97 142.78 367 141.02 399.74 159.92"/><path class="cls-1" d="M400.41,164.08,443.5,189l.11-36.94-43.09-24.88Zm3.68-2.09.08-28.53,3,1.74,32.74,18.9-.07,25v3.51Z" transform="translate(-40.12 -19.2)"/><polygon class="cls-10" points="360.4 107.94 363.43 106.18 406.52 131.05 403.48 132.81 360.4 107.94"/><polygon class="cls-9" points="406.52 131.05 406.41 167.99 403.38 169.76 403.48 132.81 406.52 131.05"/><g class="cls-11"><polygon class="cls-1" points="377.47 125.5 368.55 132.53 368.53 139.4 398.22 156.54 398.24 149.68 392.58 138.44 387.5 142.38 389.3 147.96 386.69 143.01 377.47 125.5"/><path class="cls-1" d="M427.35,148.16c-1.4-.8-2.54-.15-2.54,1.45a5.54,5.54,0,0,0,2.52,4.37c1.4.81,2.54.16,2.54-1.45A5.58,5.58,0,0,0,427.35,148.16Z" transform="translate(-40.12 -19.2)"/></g><path class="cls-8" d="M356.59,94.48h0l-1.18-.57h0Z" transform="translate(-40.12 -19.2)"/><path class="cls-8" d="M357,94.69h0l-.43-.21h0Z" transform="translate(-40.12 -19.2)"/><polygon class="cls-8" points="303.12 26.53 312.07 31.7 321.16 36.95 312.07 31.7 303.12 26.53"/><polygon class="cls-8" points="303.03 56.04 303.05 47.74 303.08 40.15 303.05 47.74 303.03 56.04"/><path class="cls-8" d="M355.41,93.91l-.24-.12.24.12Z" transform="translate(-40.12 -19.2)"/><polygon class="cls-8" points="302.93 92.45 302.95 85.51 302.96 79.43 302.95 85.51 302.93 92.45"/><path class="cls-8" d="M360.49,96.12c-1.15-.41-2.31-.89-3.47-1.43h0C358.18,95.23,359.34,95.71,360.49,96.12Z" transform="translate(-40.12 -19.2)"/><polygon class="cls-8" points="329.7 52.16 329.63 78.84 329.58 94.3 329.63 78.84 329.7 52.16"/><path class="cls-3" d="M343.07,104.71l0-6.08.27.16.51.3c4.49,2.71,9,7,13.19,11.57.69.76,1.38,1.54,2.06,2.31,3.53,4,7,8.34,10.55,12.35l0,9.82-4.28-2.47A94.1,94.1,0,0,0,343.07,104.71Z" transform="translate(-40.12 -19.2)"/><path class="cls-3" d="M343,119.77l0-8.12A51.42,51.42,0,0,1,352.16,125Z" transform="translate(-40.12 -19.2)"/><path class="cls-12" d="M352.16,125a51.42,51.42,0,0,0-9.11-13.39l0-6.94a94.1,94.1,0,0,1,22.29,28L352.16,125Z" transform="translate(-40.12 -19.2)"/><path class="cls-13" d="M357,94.69h0" transform="translate(-40.12 -19.2)"/><path class="cls-13" d="M356.59,94.48h0" transform="translate(-40.12 -19.2)"/><path class="cls-12" d="M361.11,96.34l-.62-.22c-1.15-.41-2.31-.89-3.47-1.43l-.43-.21-1.18-.57c-.68-.35-1.35-.71-2-1.09.68.38,1.35.74,2,1.09l-.24-.12c-.6-.31-1.2-.63-1.79-1L353,92.6l-.31-.18a65.45,65.45,0,0,1-9.16-6.57l-.4-.34,0-10.27c6.52,3.34,12.93,4.37,18.1,2.76a15.87,15.87,0,0,0,8.57-6.64L369.75,98A31.6,31.6,0,0,1,361.11,96.34Z" transform="translate(-40.12 -19.2)"/><path class="cls-12" d="M357.06,110.66c-4.2-4.6-8.7-8.86-13.19-11.57l-.51-.3-.27-.16V92.75a127.27,127.27,0,0,1,24,18.27c.87.83,1.73,1.67,2.6,2.48l0,11.82c-3.56-4-7-8.3-10.55-12.35C358.44,112.2,357.75,111.42,357.06,110.66Z" transform="translate(-40.12 -19.2)"/><path class="cls-3" d="M343.1,92.75l0-7.24.4.34a65.45,65.45,0,0,0,9.16,6.57l.31.18.39.22c.59.34,1.19.66,1.79,1l.24.12.17.08h0l-.17-.08,1.18.57.43.21c1.16.54,2.32,1,3.47,1.43l-.65-.24.65.24.62.22a31.6,31.6,0,0,0,8.64,1.7l-.05,15.46c-.87-.81-1.73-1.65-2.6-2.48A127.27,127.27,0,0,0,343.1,92.75Z" transform="translate(-40.12 -19.2)"/><path class="cls-12" d="M343.18,66.94l0-7.59c4.11-1,7.31-4,9-8.45l9.1,5.25A18.8,18.8,0,0,1,343.18,66.94Z" transform="translate(-40.12 -19.2)"/><path class="cls-3" d="M361.25,78c-5.17,1.61-11.58.58-18.1-2.76l0-8.3a18.8,18.8,0,0,0,18.11-10.79l8.56,5,0,10.26A15.87,15.87,0,0,1,361.25,78Z" transform="translate(-40.12 -19.2)"/><path class="cls-2" d="M341.52,120.63l29.62,17.1.22-77.48-29.62-17.1Zm23.84,12L352.16,125h0L343,119.77l0-8.12,0-6.94,0-6.08V92.75l0-7.24,0-10.27,0-8.3,0-7.59,0-13.62,8.95,5.17,9.1,5.25,8.56,5,0,10.26L369.75,98l-.05,15.46,0,11.82,0,9.82Z" transform="translate(-40.12 -19.2)"/><path class="cls-13" d="M355.6,94h0" transform="translate(-40.12 -19.2)"/><path class="cls-13" d="M355.58,94l-.17-.08" transform="translate(-40.12 -19.2)"/><path class="cls-13" d="M353.38,92.82c.68.38,1.35.74,2,1.09" transform="translate(-40.12 -19.2)"/><line class="cls-13" x1="315.29" y1="74.7" x2="315.29" y2="74.7"/><path class="cls-13" d="M360.49,96.12l-.65-.24" transform="translate(-40.12 -19.2)"/><path class="cls-3" d="M343.2,59.35l0-13.62,8.95,5.17C350.51,55.39,347.31,58.38,343.2,59.35Z" transform="translate(-40.12 -19.2)"/><polygon class="cls-14" points="301.4 101.43 331.02 118.53 331.01 120.58 299.62 102.46 301.4 101.43"/><polygon class="cls-9" points="301.62 23.95 301.4 101.43 299.62 102.46 299.85 22.92 301.62 23.95"/><path class="cls-1" d="M335,124.39,375.9,148l.25-90.51L335.21,33.88Zm4.79-2.73L340,42.13l1.77,1,29.62,17.1-.22,77.48v2.06Z" transform="translate(-40.12 -19.2)"/><polygon class="cls-10" points="295.08 14.68 298.46 12.86 339.41 36.5 336.03 38.32 295.08 14.68"/><polygon class="cls-9" points="339.41 36.5 339.15 127.02 335.77 128.83 336.03 38.32 339.41 36.5"/></g><g id="Screen"><polygon class="cls-5" points="7.23 166.41 7.19 153.15 0.27 149.21 0.31 162.17 0.31 162.17 0.31 162.46 7.23 166.41 7.23 166.41"/><path class="cls-5" d="M47.79,339.19l-.44-153.58-6.92-4L40.87,335A2.87,2.87,0,0,0,42,337.54h0l0,0,0,0,6.82,4.16A2.87,2.87,0,0,1,47.79,339.19Z" transform="translate(-40.12 -19.2)"/><path class="cls-7" d="M47.79,339.19l-.44-153.58-6.92-4L40.87,335A2.87,2.87,0,0,0,42,337.54h0l0,0,0,0,6.82,4.16A2.87,2.87,0,0,1,47.79,339.19Z" transform="translate(-40.12 -19.2)"/><path class="cls-15" d="M51.89,341.53a4.29,4.29,0,0,1-.79.37A4.62,4.62,0,0,0,51.89,341.53Z" transform="translate(-40.12 -19.2)"/><path class="cls-15" d="M50.54,342l-.17,0Z" transform="translate(-40.12 -19.2)"/><path class="cls-15" d="M49.12,341.88h0l0,0Z" transform="translate(-40.12 -19.2)"/><path class="cls-5" d="M47.34,172.33l0-7.64a9,9,0,0,1,4.08-7.08L282.82,24a2.89,2.89,0,0,1,2.86-.3l-6.83-4.2h0a2.84,2.84,0,0,0-3,.25L44.48,153.36a9,9,0,0,0-4.08,7.08l0,7.64h0l0,0v.3l6.91,3.94Z" transform="translate(-40.12 -19.2)"/><path class="cls-16" d="M47.34,172.33l0-7.64a9,9,0,0,1,4.08-7.08L282.82,24a2.89,2.89,0,0,1,2.86-.3l-6.83-4.2h0a2.84,2.84,0,0,0-3,.25L44.48,153.36a9,9,0,0,0-4.08,7.08l0,7.64h0l0,0v.3l6.91,3.94Z" transform="translate(-40.12 -19.2)"/><polygon class="cls-6" points="7.23 166.41 7.19 153.15 0.27 149.21 0.31 162.17 0.31 162.17 0.31 162.46 7.23 166.41 7.23 166.41"/><polygon class="cls-7" points="7.23 166.41 7.19 153.15 0.27 149.21 0.31 162.17 0.31 162.17 0.31 162.46 7.23 166.41 7.23 166.41"/><path class="cls-5" d="M282.82,24c2.25-1.3,4.1-.25,4.1,2.35L287,34,47.34,172.33l0-7.64a9,9,0,0,1,4.08-7.08Z" transform="translate(-40.12 -19.2)"/><path class="cls-2" d="M267.3,36.64c1.21-.7,2.2-.14,2.2,1.25a4.79,4.79,0,0,1-2.18,3.78c-1.21.7-2.2.14-2.2-1.25A4.79,4.79,0,0,1,267.3,36.64Z" transform="translate(-40.12 -19.2)"/><path class="cls-2" d="M274,32.78c1.21-.7,2.19-.14,2.2,1.25A4.83,4.83,0,0,1,274,37.81c-1.21.7-2.19.14-2.2-1.25A4.83,4.83,0,0,1,274,32.78Z" transform="translate(-40.12 -19.2)"/><path class="cls-2" d="M280.67,28.92c1.21-.7,2.19-.14,2.19,1.25A4.81,4.81,0,0,1,280.68,34c-1.21.7-2.19.14-2.2-1.26A4.83,4.83,0,0,1,280.67,28.92Z" transform="translate(-40.12 -19.2)"/><path class="cls-1" d="M95.53,136.93c.9-.52,1.73-.43,2.16.24l2.18,3.34c.43.67,1.26.77,2.16.25L286.92,34l0,13.28L47.35,185.63l0-13.28,7.1-4.1a5.41,5.41,0,0,0,2.17-2.74l2.14-5.84a5.36,5.36,0,0,1,2.16-2.73Z" transform="translate(-40.12 -19.2)"/><path class="cls-5" d="M287,47.27l.43,153.58a9,9,0,0,1-4.08,7.07L51.89,341.53c-2.26,1.31-4.1.25-4.1-2.34l-.44-153.58Z" transform="translate(-40.12 -19.2)"/><g class="cls-17"><path class="cls-2" d="M287,47.27l.43,153.58a9,9,0,0,1-4.08,7.07L51.89,341.53c-2.26,1.31-4.1.25-4.1-2.34l-.44-153.58Z" transform="translate(-40.12 -19.2)"/></g><path class="cls-2" d="M277.48,42.17c1.61-.93,2.91-.19,2.92,1.66a6.41,6.41,0,0,1-2.9,5L74.68,166c-1.61.93-2.92.18-2.93-1.66a6.42,6.42,0,0,1,2.91-5Z" transform="translate(-40.12 -19.2)"/><path class="cls-1" d="M51.18,173.53a.28.28,0,0,1,.3,0c.16.1.14.41,0,.68l-1.28,2.09,3.36-1.94c.23-.13.41,0,.41.23a.87.87,0,0,1-.41.71l-3.35,1.94,1.28.61c.17.08.18.37,0,.65a.83.83,0,0,1-.31.33.32.32,0,0,1-.28,0l-2-1-.09-.08v0l0-.17,0-.21v0l.08-.17,2-3.36A.87.87,0,0,1,51.18,173.53Z" transform="translate(-40.12 -19.2)"/><path class="cls-1" d="M58.45,169.34a.29.29,0,0,1,.28,0l2.06,1,.08.09h0l0,.17,0,.2,0,.05-.07.16-2.06,3.37a.75.75,0,0,1-.28.28.28.28,0,0,1-.29,0c-.16-.1-.15-.4,0-.68l1.27-2.08-3.36,1.94c-.22.12-.4,0-.4-.24a.89.89,0,0,1,.4-.71l3.36-1.93-1.28-.62c-.17-.08-.18-.37,0-.65A.78.78,0,0,1,58.45,169.34Z" transform="translate(-40.12 -19.2)"/><path class="cls-1" d="M65.35,165.35a1.84,1.84,0,0,1,1.39-.26l.31-.4a.73.73,0,0,1,.22-.21.36.36,0,0,1,.22,0c.14,0,.21.17.18.37l-.17,1.26a.85.85,0,0,1-.18.43.69.69,0,0,1-.22.2l-.1,0L66,167a.23.23,0,0,1-.3-.21.79.79,0,0,1,.18-.57l.1-.13a1.37,1.37,0,0,0-.63.19,3.27,3.27,0,0,0-1.47,2.55c0,.94.67,1.31,1.48.84a3.24,3.24,0,0,0,1.3-1.62.86.86,0,0,1,.35-.45.31.31,0,0,1,.2-.05c.2,0,.27.25.16.55a5,5,0,0,1-2,2.52c-1.26.72-2.3.14-2.3-1.32A5.08,5.08,0,0,1,65.35,165.35Z" transform="translate(-40.12 -19.2)"/><g class="cls-18"><path d="M51.18,173.53a.28.28,0,0,1,.3,0c.16.1.14.41,0,.68l-1.28,2.09,3.36-1.94c.23-.13.41,0,.41.23a.87.87,0,0,1-.41.71l-3.35,1.94,1.28.61c.17.08.18.37,0,.65a.83.83,0,0,1-.31.33.32.32,0,0,1-.28,0l-2-1-.09-.08v0l0-.17,0-.21v0l.08-.17,2-3.36A.87.87,0,0,1,51.18,173.53Z" transform="translate(-40.12 -19.2)"/></g><g class="cls-18"><path d="M58.45,169.34a.29.29,0,0,1,.28,0l2.06,1,.08.09h0l0,.17,0,.2,0,.05-.07.16-2.06,3.37a.75.75,0,0,1-.28.28.28.28,0,0,1-.29,0c-.16-.1-.15-.4,0-.68l1.27-2.08-3.36,1.94c-.22.12-.4,0-.4-.24a.89.89,0,0,1,.4-.71l3.36-1.93-1.28-.62c-.17-.08-.18-.37,0-.65A.78.78,0,0,1,58.45,169.34Z" transform="translate(-40.12 -19.2)"/></g><g class="cls-18"><path d="M65.35,165.35a1.84,1.84,0,0,1,1.39-.26l.31-.4a.73.73,0,0,1,.22-.21.36.36,0,0,1,.22,0c.14,0,.21.17.18.37l-.17,1.26a.85.85,0,0,1-.18.43.69.69,0,0,1-.22.2l-.1,0L66,167a.23.23,0,0,1-.3-.21.79.79,0,0,1,.18-.57l.1-.13a1.37,1.37,0,0,0-.63.19,3.27,3.27,0,0,0-1.47,2.55c0,.94.67,1.31,1.48.84a3.24,3.24,0,0,0,1.3-1.62.86.86,0,0,1,.35-.45.31.31,0,0,1,.2-.05c.2,0,.27.25.16.55a5,5,0,0,1-2,2.52c-1.26.72-2.3.14-2.3-1.32A5.08,5.08,0,0,1,65.35,165.35Z" transform="translate(-40.12 -19.2)"/></g><polygon class="cls-5" points="151.72 152.3 151.94 230.62 76.3 274.29 76.08 195.96 151.72 152.3"/><polygon class="cls-5" points="237.21 45.77 237.33 89.9 135.08 148.94 134.95 104.81 237.21 45.77"/><g class="cls-19"><polygon class="cls-2" points="151.72 152.3 151.94 230.62 76.3 274.29 76.08 195.96 151.72 152.3"/></g><g class="cls-19"><polygon class="cls-2" points="237.21 45.77 237.33 89.9 135.08 148.94 134.95 104.81 237.21 45.77"/></g><polygon class="cls-5" points="68.7 200.22 68.92 278.55 20.96 306.24 20.74 227.91 68.7 200.22"/><polygon class="cls-5" points="236.57 103.3 236.79 181.63 159.32 226.36 159.09 148.04 236.57 103.3"/><g class="cls-18"><polygon class="cls-2" points="68.7 200.22 68.92 278.55 20.96 306.24 20.74 227.91 68.7 200.22"/></g><g class="cls-18"><polygon class="cls-2" points="236.57 103.3 236.79 181.63 159.32 226.36 159.09 148.04 236.57 103.3"/></g><path class="cls-5" d="M83.87,175.84C96.63,168.48,107,174.39,107,189s-10.26,32.5-23,39.86-23.12,1.45-23.16-13.2S71.12,183.2,83.87,175.84Z" transform="translate(-40.12 -19.2)"/><path class="cls-20" d="M95.55,189.51a6.18,6.18,0,0,0,1.72-8.15,3.37,3.37,0,0,0,1.63-1.53,1.8,1.8,0,0,0-2.33-2.4,2.53,2.53,0,0,0-1-2.94,2.37,2.37,0,0,0-3,.54,1.61,1.61,0,0,0-1.1-1.58,3.22,3.22,0,0,0-2,.13c-.66.23-1.28.55-2,.76a14.6,14.6,0,0,1-3.5.45,7.05,7.05,0,0,0-3.38.9,3,3,0,0,0-1.32,3.43,2,2,0,0,0-1.41-.75,1.88,1.88,0,0,0-1.44.61c.74.46,1.45,1,2.19,1.41a2,2,0,0,0-2.25.89,4.45,4.45,0,0,0-.39,2.37,31.8,31.8,0,0,0,1.62,9.07,7.43,7.43,0,0,0,3.12,4.12Z" transform="translate(-40.12 -19.2)"/><path class="cls-3" d="M93.15,201.09l3.49,3,1.85,10.59a57.83,57.83,0,0,0,4-7.11C100.9,203.52,99.63,201.09,93.15,201.09Z" transform="translate(-40.12 -19.2)"/><path class="cls-5" d="M84,228.9c6-3.46,11.44-9.23,15.54-15.9-.34-5.73-1.19-11.91-6.41-11.91l-15.5.11-3.17.34L73,232.05A20.37,20.37,0,0,0,84,228.9Z" transform="translate(-40.12 -19.2)"/><g class="cls-17"><path class="cls-2" d="M84,228.9c6-3.46,11.44-9.23,15.54-15.9-.34-5.73-1.19-11.91-6.41-11.91l-15.5.11-3.17.34L73,232.05A20.37,20.37,0,0,0,84,228.9Z" transform="translate(-40.12 -19.2)"/></g><path class="cls-3" d="M90.62,203.15c1.45,4.62.54,11,0,13.95-3.67-5-7.11-10.12-8.19-12.1l5.12-2.49Z" transform="translate(-40.12 -19.2)"/><path class="cls-15" d="M88.48,207.39l1.26-.3A40.43,40.43,0,0,1,91.28,212a48,48,0,0,1-.66,5.07c-.72-1-1.43-2-2.12-2.95A33.89,33.89,0,0,0,88.48,207.39Z" transform="translate(-40.12 -19.2)"/><path class="cls-6" d="M88.5,207.66c0-.09,0-.18,0-.27l1.26-.3s0,.07.07.19a1.64,1.64,0,0,1-.71.38A1.73,1.73,0,0,1,88.5,207.66Z" transform="translate(-40.12 -19.2)"/><path class="cls-15" d="M87.8,204.08l-1-.64-2.32,1.26a5.32,5.32,0,0,0,2.74,1.09Z" transform="translate(-40.12 -19.2)"/><path class="cls-15" d="M89.33,203.83l.31-.68,1.17.74a2.13,2.13,0,0,1-.76,1.11Z" transform="translate(-40.12 -19.2)"/><path class="cls-6" d="M87.8,204.08l-1-.64-2.32,1.26a5.32,5.32,0,0,0,2.74,1.09Z" transform="translate(-40.12 -19.2)"/><path class="cls-6" d="M89.33,203.83l.31-.68,1.17.74a2.13,2.13,0,0,1-.76,1.11Z" transform="translate(-40.12 -19.2)"/><path class="cls-15" d="M87.22,205.79a5.41,5.41,0,0,1,.58-1.71l1.53-.25a6.14,6.14,0,0,1,.72,1.17,5.62,5.62,0,0,1-.31,2.09,2.61,2.61,0,0,1-1.26.3A3.26,3.26,0,0,1,87.22,205.79Z" transform="translate(-40.12 -19.2)"/><path class="cls-1" d="M88.34,203.54c-2.44,0-3.93,1.9-6.15,2.56l-4.54-4.9,1.76-2.62a4.49,4.49,0,0,1,1.34-1.3h0l0,.95a1.6,1.6,0,0,0,.8,1.36Z" transform="translate(-40.12 -19.2)"/><path class="cls-1" d="M88.34,203.54c1.35-.42,3.37,1.27,3.37,1.27-.71-3.91-2.84-5.46-3.37-5.46Z" transform="translate(-40.12 -19.2)"/><path class="cls-3" d="M74.48,201.54l-2.1.33a6.21,6.21,0,0,0-5.07,4.88,74.13,74.13,0,0,0-1.37,17.85l9.6-4.43C76.55,212.67,78.52,206.47,74.48,201.54Z" transform="translate(-40.12 -19.2)"/><path class="cls-1" d="M75.44,223.51l0-.84a.58.58,0,0,1,.19-.39.59.59,0,0,0,.19-.43v-1.39a.67.67,0,0,0-.69-.67c-4.34.05-8.57,2.12-9.72,4.55a3.62,3.62,0,0,0,0,2.35c-.75,1-.39,1.49,0,2.2a13.67,13.67,0,0,0,1.25,1C69.51,225.39,75.44,223.51,75.44,223.51Z" transform="translate(-40.12 -19.2)"/><path class="cls-6" d="M70.94,222.54a14.82,14.82,0,0,0-5.49,4.15,4.67,4.67,0,0,1-.17-.79A9.67,9.67,0,0,1,70.94,222.54Z" transform="translate(-40.12 -19.2)"/><path class="cls-6" d="M75.83,222a.54.54,0,0,1-.16.26.58.58,0,0,0-.19.39v.07a14.43,14.43,0,0,0-8,4.06C69.47,223.89,73.88,222.4,75.83,222Z" transform="translate(-40.12 -19.2)"/><path class="cls-21" d="M84,228.9a40.72,40.72,0,0,0,9.88-8.26c-5.56,0-13.33.34-18.42,2.1l0,.77s-5.93,1.88-8.74,6.41C70.94,233,77.14,232.88,84,228.9Z" transform="translate(-40.12 -19.2)"/><path class="cls-6" d="M75.86,223.53l.1-.95-.48.16,0,.77a19.9,19.9,0,0,0-4,1.88,5.86,5.86,0,0,0-.91,1.77c1.16-1.64,2.43-2.3,4.91-2.94,2.25.35,6.17,2,10.16,3.67q.58-.37,1.14-.78C82,225.44,77.11,223.62,75.86,223.53Z" transform="translate(-40.12 -19.2)"/><path class="cls-21" d="M83.55,197.46l-.07,0a4,4,0,0,1-2-2.62c-.13-.56-.24-1.12-.33-1.69s-.46,0-.46,0,0,1.25.06,2.73c0,.79,0,1.63.06,2.4a1.59,1.59,0,0,0,.8,1.36l6.77,3.95v-4.81A12.37,12.37,0,0,1,83.55,197.46Z" transform="translate(-40.12 -19.2)"/><polygon class="cls-21" points="41.78 177.4 41.78 177.39 41.79 177.4 41.78 177.4"/><path class="cls-6" d="M82.58,197.36a4.67,4.67,0,0,1-.83-1.74,4,4,0,0,0,1.73,1.8l.07,0a12.37,12.37,0,0,0,4.79,1.27V200a11.87,11.87,0,0,1-2.84-.6A6.45,6.45,0,0,1,82.58,197.36Z" transform="translate(-40.12 -19.2)"/><path class="cls-21" d="M96,182.06a32.33,32.33,0,0,1-.81,12.54,9.73,9.73,0,0,1-1,2.58,4.16,4.16,0,0,1-2,1.81,6.63,6.63,0,0,1-3.37,0,17.29,17.29,0,0,1-5.92-1.82,5.76,5.76,0,0,1-3-5.09,3.53,3.53,0,0,1-3.39.18,3.59,3.59,0,0,1-1.87-2.88,2.22,2.22,0,0,1,3.71-2.1,7.09,7.09,0,0,1,1.38,1.61,2.45,2.45,0,0,0,.69.74.84.84,0,0,0,1,0,1.25,1.25,0,0,0,.27-1L81.44,186a1.06,1.06,0,0,1,.58-1,2.53,2.53,0,0,0,1.18-1.35,5.3,5.3,0,0,0,.33-1.58.65.65,0,0,1,.89-.55A19.39,19.39,0,0,0,96,182.06Z" transform="translate(-40.12 -19.2)"/><polygon class="cls-22" points="50.07 169.22 52.44 173.2 49.62 173.73 50.07 169.22"/><path class="cls-22" d="M87,194.3l2.14,1a1.4,1.4,0,0,1-1.62.46A1.26,1.26,0,0,1,87,194.3Z" transform="translate(-40.12 -19.2)"/><path class="cls-23" d="M87,194.3l2.14,1a1.4,1.4,0,0,1-1.62.46A1.26,1.26,0,0,1,87,194.3Z" transform="translate(-40.12 -19.2)"/><path class="cls-22" d="M88.29,195.87a1.23,1.23,0,0,1-.74-.07,1.15,1.15,0,0,1-.58-1.13,1.32,1.32,0,0,1,.85.3A1.35,1.35,0,0,1,88.29,195.87Z" transform="translate(-40.12 -19.2)"/><path class="cls-24" d="M86.12,188.58a.81.81,0,1,0,.88-.72A.81.81,0,0,0,86.12,188.58Z" transform="translate(-40.12 -19.2)"/><path class="cls-24" d="M92.9,189a.81.81,0,1,0,.88-.72A.81.81,0,0,0,92.9,189Z" transform="translate(-40.12 -19.2)"/><path class="cls-24" d="M94,185.88l1.66,1.41a1.13,1.13,0,0,0-.22-1.29A1.36,1.36,0,0,0,94,185.88Z" transform="translate(-40.12 -19.2)"/><path class="cls-24" d="M87.13,185.09l-1.91,1a1.13,1.13,0,0,1,.47-1.22A1.38,1.38,0,0,1,87.13,185.09Z" transform="translate(-40.12 -19.2)"/><g class="cls-19"><polygon class="cls-2" points="103.98 150.59 103.99 152.83 75.79 169.03 75.79 166.79 103.98 150.59"/><polygon class="cls-2" points="109.26 161.3 109.27 163.54 75.83 182.76 75.83 180.53 109.26 161.3"/><polygon class="cls-2" points="114.25 153.84 114.26 156.08 75.82 178.2 75.81 175.96 114.25 153.84"/><polygon class="cls-2" points="122.15 135.53 122.16 137.76 75.78 164.46 75.77 162.22 122.15 135.53"/><polygon class="cls-2" points="127.73 127.69 127.74 129.93 75.77 159.86 75.76 157.62 127.73 127.69"/><polygon class="cls-2" points="102.52 133.66 102.53 138.15 75.75 153.62 75.74 149.13 102.52 133.66"/></g><polygon class="cls-5" points="171.7 91.31 171.72 96.54 142.75 113.31 142.73 108.08 171.7 91.31"/><g class="cls-11"><polygon class="cls-5" points="221.28 90.28 221.29 93.48 142.82 138.86 142.81 135.66 221.28 90.28"/><polygon class="cls-5" points="227.54 80.53 227.55 83.72 142.8 132.47 142.79 129.28 227.54 80.53"/><polygon class="cls-5" points="208.29 85.18 208.3 88.37 142.78 126.08 142.77 122.89 208.29 85.18"/></g><polygon class="cls-5" points="227.5 67.75 227.51 70.94 142.76 119.69 142.76 116.5 227.5 67.75"/><g class="cls-18"><polygon class="cls-2" points="171.7 91.31 171.72 96.54 142.75 113.31 142.73 108.08 171.7 91.31"/><g class="cls-11"><polygon class="cls-2" points="221.28 90.28 221.29 93.48 142.82 138.86 142.81 135.66 221.28 90.28"/><polygon class="cls-2" points="227.54 80.53 227.55 83.72 142.8 132.47 142.79 129.28 227.54 80.53"/><polygon class="cls-2" points="208.29 85.18 208.3 88.37 142.78 126.08 142.77 122.89 208.29 85.18"/></g><polygon class="cls-2" points="227.5 67.75 227.51 70.94 142.76 119.69 142.76 116.5 227.5 67.75"/></g><g class="cls-19"><polygon class="cls-2" points="44.8 221.59 44.82 226.37 26.34 237.04 26.33 232.26 44.8 221.59"/><polygon class="cls-2" points="63.21 218.63 63.22 220.88 26.35 242.16 26.35 239.91 63.21 218.63"/><polygon class="cls-2" points="63.22 223.13 63.23 225.38 26.37 246.66 26.36 244.41 63.22 223.13"/><g class="cls-11"><polygon class="cls-2" points="63.35 268.96 63.36 271.21 26.5 292.49 26.49 290.24 63.35 268.96"/><polygon class="cls-2" points="63.34 264.45 63.35 266.7 26.48 287.99 26.48 285.74 63.34 264.45"/><polygon class="cls-2" points="42.47 268.85 42.48 273.62 26.47 282.87 26.46 278.09 42.47 268.85"/><polygon class="cls-2" points="56.74 254.32 56.75 256.57 26.45 274.07 26.44 271.82 56.74 254.32"/><polygon class="cls-2" points="63.29 246.04 63.29 248.29 26.43 269.57 26.43 267.32 63.29 246.04"/><polygon class="cls-2" points="63.27 241.54 63.28 243.79 26.42 265.08 26.41 262.83 63.27 241.54"/></g><polygon class="cls-2" points="52.54 240.08 52.55 244.86 26.41 259.96 26.39 255.17 52.54 240.08"/><polygon class="cls-2" points="44.8 238.27 44.81 240.52 26.38 251.16 26.37 248.91 44.8 238.27"/><polygon class="cls-2" points="36.45 288.99 36.46 291.24 26.51 296.98 26.5 294.74 36.45 288.99"/></g><polygon class="cls-5" points="124.54 191.82 109.51 220.36 105.26 228.44 108.19 219.34 99.91 212.91 90.68 231.23 90.72 242.42 139.12 214.47 139.09 203.28 124.54 191.82"/><path class="cls-5" d="M148.78,226.15A9.1,9.1,0,0,0,152.9,219c0-2.62-1.86-3.67-4.14-2.36a9.1,9.1,0,0,0-4.12,7.13C144.65,226.4,146.51,227.46,148.78,226.15Z" transform="translate(-40.12 -19.2)"/><g class="cls-18"><polygon class="cls-2" points="124.54 191.82 109.51 220.36 105.26 228.44 108.19 219.34 99.91 212.91 90.68 231.23 90.72 242.42 139.12 214.47 139.09 203.28 124.54 191.82"/><path class="cls-2" d="M148.78,226.15A9.1,9.1,0,0,0,152.9,219c0-2.62-1.86-3.67-4.14-2.36a9.1,9.1,0,0,0-4.12,7.13C144.65,226.4,146.51,227.46,148.78,226.15Z" transform="translate(-40.12 -19.2)"/></g><polygon class="cls-5" points="210.2 143.3 195.18 171.83 190.93 179.91 193.85 170.81 185.57 164.38 176.35 182.7 176.38 193.9 224.78 165.95 224.75 154.75 210.2 143.3"/><path class="cls-5" d="M234.45,177.62a9.06,9.06,0,0,0,4.11-7.12c0-2.62-1.86-3.68-4.14-2.36a9,9,0,0,0-4.11,7.12C230.31,177.88,232.17,178.94,234.45,177.62Z" transform="translate(-40.12 -19.2)"/><g class="cls-19"><polygon class="cls-2" points="210.2 143.3 195.18 171.83 190.93 179.91 193.85 170.81 185.57 164.38 176.35 182.7 176.38 193.9 224.78 165.95 224.75 154.75 210.2 143.3"/><path class="cls-2" d="M234.45,177.62a9.06,9.06,0,0,0,4.11-7.12c0-2.62-1.86-3.68-4.14-2.36a9,9,0,0,0-4.11,7.12C230.31,177.88,232.17,178.94,234.45,177.62Z" transform="translate(-40.12 -19.2)"/></g></g><g id="Character"><path class="cls-1" d="M329.06,374h0l2.62,1.67.06,0h0a3,3,0,0,0,2.95-.31,9.23,9.23,0,0,0,4.18-7.24,2.93,2.93,0,0,0-1.18-2.65h0l0,0,0,0-.77-.49,25.09-10.19a1.85,1.85,0,0,0,.95,1.46l-2.26,19.73v2.68a9.33,9.33,0,0,0-3.46,6.73,2.87,2.87,0,0,0,1.31,2.72h0l2.63,1.67.05,0h0a3,3,0,0,0,2.95-.3,9.2,9.2,0,0,0,4.18-7.24,3,3,0,0,0-1.17-2.65h0l0,0,0,0-2.66-1.68h0a2.24,2.24,0,0,0-1.39-.31L365.87,357h0a6.15,6.15,0,0,0,1.83-.3h0l23.76,12.84-1.36.86,0,0,0,0h0a2.93,2.93,0,0,0-1.18,2.65,9.23,9.23,0,0,0,4.18,7.24,3,3,0,0,0,3,.31h0l.06,0,2.62-1.67h0a2.85,2.85,0,0,0,1.31-2.72,9.31,9.31,0,0,0-3.4-6.69v-4.14l-22.13-13.15,11.67-2.94a8.43,8.43,0,0,0-1.24,4.15,2.85,2.85,0,0,0,1.3,2.72h0l2.62,1.67.05,0h0a2.94,2.94,0,0,0,3-.31,9.22,9.22,0,0,0,4.18-7.23,3,3,0,0,0-1.18-2.65h0l0,0a.05.05,0,0,1,0,0L392.07,346h0a2.45,2.45,0,0,0-2-.19v-.67l-1.42-.48-19,1v-3.35a5.34,5.34,0,0,0,.59-.28,3.2,3.2,0,0,0,1.88-2.6V317.47H359.46v21.92a3.15,3.15,0,0,0,1.85,2.6,5.92,5.92,0,0,0,.62.3v2.81l-13.7-3-.65.27v2.52h0l-2.66,1.69,0,0,0,0h0a3,3,0,0,0-1.17,2.65,9.06,9.06,0,0,0,2.06,5.34l-13.23,6v3.13a4.65,4.65,0,0,0-.55.27,9.21,9.21,0,0,0-4.18,7.23A2.85,2.85,0,0,0,329.06,374ZM337,359.82l9.59-4.27h0l-13,5.77Zm17-10.78,1.94,1-1.34.6A10.46,10.46,0,0,0,353.91,349Zm8-.35-7.22,3.21h0Z" transform="translate(-40.12 -19.2)"/><path class="cls-20" d="M392.69,351.28l2.1-3.59L392.07,346h0a2.92,2.92,0,0,0-3,.26,9.18,9.18,0,0,0-4.17,7.23,2.85,2.85,0,0,0,1.3,2.72h0l2.68,1.7,2.21-3.79A9.91,9.91,0,0,0,392.69,351.28Z" transform="translate(-40.12 -19.2)"/><path class="cls-15" d="M391.76,348c2.31-1.34,4.2-.27,4.21,2.39a9.22,9.22,0,0,1-4.18,7.23c-2.31,1.34-4.2.27-4.21-2.39A9.22,9.22,0,0,1,391.76,348Z" transform="translate(-40.12 -19.2)"/><path class="cls-20" d="M346.92,350.26l-2.1-3.6,2.73-1.73h0a2.9,2.9,0,0,1,3,.25,9.25,9.25,0,0,1,4.18,7.23,2.89,2.89,0,0,1-1.31,2.73h0l-2.68,1.71-2.21-3.79A10.15,10.15,0,0,1,346.92,350.26Z" transform="translate(-40.12 -19.2)"/><path class="cls-15" d="M347.85,346.92c-2.31-1.33-4.2-.27-4.2,2.39a9.22,9.22,0,0,0,4.17,7.24c2.32,1.33,4.2.26,4.21-2.4A9.21,9.21,0,0,0,347.85,346.92Z" transform="translate(-40.12 -19.2)"/><path class="cls-3" d="M361.93,341.35h7.78v13.4h0a2,2,0,0,1-1.15,1.59,6.06,6.06,0,0,1-5.5,0,2,2,0,0,1-1.13-1.59h0Z" transform="translate(-40.12 -19.2)"/><polygon class="cls-1" points="349.96 325.9 349.96 329.1 329.59 334.23 329.59 327.47 349.96 325.9"/><polygon class="cls-10" points="349.96 325.9 348.54 325.42 329.59 326.42 329.59 327.47 349.96 325.9"/><path class="cls-20" d="M392.13,374.06l-2.1-3.6,2.72-1.73h0a2.88,2.88,0,0,1,3,.25,9.18,9.18,0,0,1,4.18,7.23,2.85,2.85,0,0,1-1.31,2.72h0L396,380.66l-2.21-3.79A9.91,9.91,0,0,1,392.13,374.06Z" transform="translate(-40.12 -19.2)"/><path class="cls-15" d="M393.06,370.72c-2.32-1.34-4.2-.27-4.21,2.39a9.23,9.23,0,0,0,4.18,7.24c2.31,1.33,4.2.26,4.2-2.4A9.2,9.2,0,0,0,393.06,370.72Z" transform="translate(-40.12 -19.2)"/><path class="cls-20" d="M365,383.19l2.1-3.6-2.73-1.73h0a2.9,2.9,0,0,0-3,.25,9.2,9.2,0,0,0-4.18,7.23,2.87,2.87,0,0,0,1.31,2.72h0l2.68,1.71,2.21-3.79A9.94,9.94,0,0,0,365,383.19Z" transform="translate(-40.12 -19.2)"/><path class="cls-15" d="M364.07,379.85c2.31-1.34,4.19-.27,4.2,2.39a9.2,9.2,0,0,1-4.18,7.24c-2.31,1.33-4.19.26-4.2-2.4A9.17,9.17,0,0,1,364.07,379.85Z" transform="translate(-40.12 -19.2)"/><path class="cls-20" d="M335.58,369.08l2.1-3.6L335,363.75h0a2.88,2.88,0,0,0-3,.25,9.21,9.21,0,0,0-4.18,7.23,2.85,2.85,0,0,0,1.31,2.72h0l2.68,1.71,2.21-3.79A9.91,9.91,0,0,0,335.58,369.08Z" transform="translate(-40.12 -19.2)"/><path class="cls-15" d="M334.65,365.74c2.32-1.34,4.2-.27,4.21,2.39a9.23,9.23,0,0,1-4.18,7.24c-2.31,1.33-4.2.26-4.2-2.4A9.18,9.18,0,0,1,334.65,365.74Z" transform="translate(-40.12 -19.2)"/><polygon class="cls-1" points="354.86 347.07 354.86 352.25 327.58 337.5 327.58 330.37 354.86 347.07"/><polygon class="cls-10" points="356.44 346.19 329.14 329.97 327.58 330.37 354.86 347.07 356.44 346.19"/><polygon class="cls-9" points="356.44 351.36 354.86 352.25 354.86 347.07 356.44 346.19 356.44 351.36"/><polygon class="cls-1" points="325.75 330.37 322.42 356.74 322.42 361.46 325.75 337.8 325.75 330.37"/><rect class="cls-9" x="320.5" y="356.74" width="1.92" height="4.71"/><polygon class="cls-10" points="320.5 356.74 323.52 330.37 325.75 330.37 322.42 356.74 320.5 356.74"/><polygon class="cls-1" points="293.45 342.12 293.45 347.07 321.81 335.55 321.81 329.49 293.45 342.12"/><polygon class="cls-9" points="292.35 346.34 293.45 347.07 293.45 342.12 292.35 341.41 292.35 346.34"/><polygon class="cls-10" points="296.83 340.62 293.45 342.12 292.35 341.41 321.81 328.14 321.81 329.49 296.83 340.62"/><polygon class="cls-1" points="307.46 323.2 307.46 326.45 315.73 330.88 321.81 328.14 321.81 326.81 307.46 323.2"/><polygon class="cls-10" points="307.46 323.2 308.11 322.94 321.81 325.9 321.81 326.81 307.46 323.2"/><path class="cls-1" d="M359.46,317.47h12.72v21.92h0a3.2,3.2,0,0,1-1.88,2.6,9.89,9.89,0,0,1-9,0,3.15,3.15,0,0,1-1.85-2.6h0Z" transform="translate(-40.12 -19.2)"/><path class="cls-5" d="M309.36,282.23a8.36,8.36,0,0,0,2.75,2.6l51.83,27.53a12.14,12.14,0,0,0,11.17.11l36.31-18.39a18.39,18.39,0,0,0,9.44-11.6l17.53-64.73c.29.09.58.19.88.27a7.09,7.09,0,0,0,2.28.35h.11l-20.8,76.81a18.39,18.39,0,0,1-9.44,11.6l-36.31,18.39a12.14,12.14,0,0,1-11.17-.11l-51.83-27.53C306.94,294.57,306.45,286.65,309.36,282.23Z" transform="translate(-40.12 -19.2)"/><path class="cls-23" d="M309.36,282.23a8.36,8.36,0,0,0,2.75,2.6l51.83,27.53a12.14,12.14,0,0,0,11.17.11l36.31-18.39a18.39,18.39,0,0,0,9.44-11.6l17.53-64.73c.29.09.58.19.88.27a7.09,7.09,0,0,0,2.28.35h.11l-20.8,76.81a18.39,18.39,0,0,1-9.44,11.6l-36.31,18.39a12.14,12.14,0,0,1-11.17-.11l-51.83-27.53C306.94,294.57,306.45,286.65,309.36,282.23Z" transform="translate(-40.12 -19.2)"/><path class="cls-5" d="M311.78,279.89l37.56-19.27,49.46,25.45c-1.61.39-3.25.71-4.87,1-4.25.85-8.59,1.79-12.28,4.07s-6.68,6.16-6.71,10.5l1.32,10.2h0l-1.15.59a12.14,12.14,0,0,1-11.17-.11l-51.83-27.53a8.36,8.36,0,0,1-2.75-2.6A7,7,0,0,1,311.78,279.89Z" transform="translate(-40.12 -19.2)"/><path class="cls-6" d="M311.78,279.89l37.56-19.27,49.46,25.45c-1.61.39-3.25.71-4.87,1-4.25.85-8.59,1.79-12.28,4.07s-6.68,6.16-6.71,10.5l1.32,10.2h0l-1.15.59a12.14,12.14,0,0,1-11.17-.11l-51.83-27.53a8.36,8.36,0,0,1-2.75-2.6A7,7,0,0,1,311.78,279.89Z" transform="translate(-40.12 -19.2)"/><path class="cls-5" d="M317.24,247.67s30.15,8.87,38.13,1c9.92-9.74,5.77-34.29,4.58-43.89s0-16.26,2.66-19.07,6.51-6.94,19-1.77c-12.63,6.5-14.26,37.4-10.27,49.81-9.9,10.19-9.22,26-9.41,33.31,0,0-25.76,6.29-39.21,13.68Z" transform="translate(-40.12 -19.2)"/><path class="cls-25" d="M317.24,247.67s30.15,8.87,38.13,1c9.92-9.74,5.77-34.29,4.58-43.89s0-16.26,2.66-19.07,6.51-6.94,19-1.77c-12.63,6.5-14.26,37.4-10.27,49.81-9.9,10.19-9.22,26-9.41,33.31,0,0-25.76,6.29-39.21,13.68Z" transform="translate(-40.12 -19.2)"/><path class="cls-5" d="M322.71,280.78l-6.17-3.33c0-17-2.51-15.29-7.18-21.94s2.49-10.79,7.88-7.84S324.81,259.52,322.71,280.78Z" transform="translate(-40.12 -19.2)"/><path class="cls-7" d="M322.71,280.78l-6.17-3.33c0-17-2.51-15.29-7.18-21.94s2.49-10.79,7.88-7.84S324.81,259.52,322.71,280.78Z" transform="translate(-40.12 -19.2)"/><path class="cls-5" d="M381.6,184s33.77,14.63,50.22,22.76l-1.2,6-53.87-24.45A14.36,14.36,0,0,1,381.6,184Z" transform="translate(-40.12 -19.2)"/><path class="cls-25" d="M381.6,184s33.77,14.63,50.22,22.76l-1.2,6-53.87-24.45A14.36,14.36,0,0,1,381.6,184Z" transform="translate(-40.12 -19.2)"/><path class="cls-5" d="M371.33,233.79c-3.4-10.59-2.71-34.65,5.42-45.51l53.87,24.45-12.31,61.71L398.8,286.07l-36.88-19C362.11,259.77,361.43,244,371.33,233.79Z" transform="translate(-40.12 -19.2)"/><path class="cls-26" d="M371.33,233.79c-3.4-10.59-2.71-34.65,5.42-45.51l53.87,24.45-12.31,61.71L398.8,286.07l-36.88-19C362.11,259.77,361.43,244,371.33,233.79Z" transform="translate(-40.12 -19.2)"/><path class="cls-5" d="M404.67,246.16c-.91-.52-1.66-.1-1.66,1a3.63,3.63,0,0,0,1.65,2.85c.91.53,1.66.11,1.66-.94A3.66,3.66,0,0,0,404.67,246.16Z" transform="translate(-40.12 -19.2)"/><path class="cls-5" d="M396.34,241.26c-.92-.52-1.66-.1-1.67,1a3.66,3.66,0,0,0,1.65,2.86c.92.52,1.66.1,1.66-.95A3.63,3.63,0,0,0,396.34,241.26Z" transform="translate(-40.12 -19.2)"/><path class="cls-5" d="M388,236.37c-.91-.53-1.66-.11-1.66.94a3.66,3.66,0,0,0,1.65,2.86c.91.52,1.66.1,1.66-.95A3.63,3.63,0,0,0,388,236.37Z" transform="translate(-40.12 -19.2)"/><path class="cls-5" d="M379.66,231.47c-.91-.53-1.65-.11-1.66.94a3.66,3.66,0,0,0,1.65,2.86c.92.53,1.66.1,1.66-1A3.58,3.58,0,0,0,379.66,231.47Z" transform="translate(-40.12 -19.2)"/><g class="cls-27"><path class="cls-2" d="M404.67,246.16c-.91-.52-1.66-.1-1.66,1a3.63,3.63,0,0,0,1.65,2.85c.91.53,1.66.11,1.66-.94A3.66,3.66,0,0,0,404.67,246.16Z" transform="translate(-40.12 -19.2)"/><path class="cls-2" d="M396.34,241.26c-.92-.52-1.66-.1-1.67,1a3.66,3.66,0,0,0,1.65,2.86c.92.52,1.66.1,1.66-.95A3.63,3.63,0,0,0,396.34,241.26Z" transform="translate(-40.12 -19.2)"/><path class="cls-2" d="M388,236.37c-.91-.53-1.66-.11-1.66.94a3.66,3.66,0,0,0,1.65,2.86c.91.52,1.66.1,1.66-.95A3.63,3.63,0,0,0,388,236.37Z" transform="translate(-40.12 -19.2)"/><path class="cls-2" d="M379.66,231.47c-.91-.53-1.65-.11-1.66.94a3.66,3.66,0,0,0,1.65,2.86c.92.53,1.66.1,1.66-1A3.58,3.58,0,0,0,379.66,231.47Z" transform="translate(-40.12 -19.2)"/></g><path class="cls-5" d="M381.65,291.18c3.69-2.28,8-3.22,12.28-4.07,1.62-.33,3.26-.65,4.87-1a30.2,30.2,0,0,0,7.53-2.75c6-3.29,9.95-9.44,11.87-16s2-13.46,1.56-20.26-1.25-13.58-1-20.38c.12-4,.72-8.19,3.39-11.11s7.22-3.94,11.26-3.39a22.44,22.44,0,0,1,3.91.91l1.79,2.1-.68,2.53-17.53,64.73a18.37,18.37,0,0,1-8.05,10.8c-.45.28-.91.55-1.39.8l-35.16,17.8-1.32-10.2C375,297.34,378,293.45,381.65,291.18Z" transform="translate(-40.12 -19.2)"/><path class="cls-23" d="M381.65,291.18c3.69-2.28,8-3.22,12.28-4.07,1.62-.33,3.26-.65,4.87-1a30.2,30.2,0,0,0,7.53-2.75c6-3.29,9.95-9.44,11.87-16s2-13.46,1.56-20.26-1.25-13.58-1-20.38c.12-4,.72-8.19,3.39-11.11s7.22-3.94,11.26-3.39a22.44,22.44,0,0,1,3.91.91l1.79,2.1-.68,2.53-17.53,64.73a18.37,18.37,0,0,1-8.05,10.8c-.45.28-.91.55-1.39.8l-35.16,17.8-1.32-10.2C375,297.34,378,293.45,381.65,291.18Z" transform="translate(-40.12 -19.2)"/><path class="cls-5" d="M381.6,284.22c12.86-3.66,25.5-4.14,30.15-13.38s5-22,2.66-44.15a34,34,0,0,1,.21-8.58c1.37-8.3,6.36-11.84,12.1-11.93A22.4,22.4,0,0,1,442.1,212a7,7,0,0,1,1.91,2.51,3,3,0,0,1-.38,3,2.94,2.94,0,0,1-2,.89h-.11a7.09,7.09,0,0,1-2.28-.35c-.3-.08-.59-.18-.88-.27-1.58-.49-3.12-1.08-4.73-1.48a10.33,10.33,0,0,0-5.78,0,6.15,6.15,0,0,0-3.72,4.15c-5.42,17.71,1.45,36.74-4.65,51.37-5,13.3-22.23,18.82-34.39,22.77h0a7.46,7.46,0,0,0,3-2.21,5.12,5.12,0,0,0-.48-6.17A6.72,6.72,0,0,0,381.6,284.22Z" transform="translate(-40.12 -19.2)"/><path class="cls-25" d="M381.6,284.22c12.86-3.66,25.5-4.14,30.15-13.38s5-22,2.66-44.15a34,34,0,0,1,.21-8.58c1.37-8.3,6.36-11.84,12.1-11.93A22.4,22.4,0,0,1,442.1,212a7,7,0,0,1,1.91,2.51,3,3,0,0,1-.38,3,2.94,2.94,0,0,1-2,.89h-.11a7.09,7.09,0,0,1-2.28-.35c-.3-.08-.59-.18-.88-.27-1.58-.49-3.12-1.08-4.73-1.48a10.33,10.33,0,0,0-5.78,0,6.15,6.15,0,0,0-3.72,4.15c-5.42,17.71,1.45,36.74-4.65,51.37-5,13.3-22.23,18.82-34.39,22.77h0a7.46,7.46,0,0,0,3-2.21,5.12,5.12,0,0,0-.48-6.17A6.72,6.72,0,0,0,381.6,284.22Z" transform="translate(-40.12 -19.2)"/><path class="cls-5" d="M372.68,293.32a19.16,19.16,0,0,1,3.29-5.76,9.89,9.89,0,0,1,5.63-3.34,6.72,6.72,0,0,1,6.08,2,5.12,5.12,0,0,1,.48,6.17,7.46,7.46,0,0,1-3,2.21,28.54,28.54,0,0,0-2.83,1.39,12,12,0,0,0-4.86,6.87,36.16,36.16,0,0,0-1.12,8.5l-.05.55-6-3.34A37,37,0,0,1,372.68,293.32Z" transform="translate(-40.12 -19.2)"/><path class="cls-7" d="M372.68,293.32a19.16,19.16,0,0,1,3.29-5.76,9.89,9.89,0,0,1,5.63-3.34,6.72,6.72,0,0,1,6.08,2,5.12,5.12,0,0,1,.48,6.17,7.46,7.46,0,0,1-3,2.21,28.54,28.54,0,0,0-2.83,1.39,12,12,0,0,0-4.86,6.87,36.16,36.16,0,0,0-1.12,8.5l-.05.55-6-3.34A37,37,0,0,1,372.68,293.32Z" transform="translate(-40.12 -19.2)"/><path class="cls-26" d="M444,214.47A7,7,0,0,0,442.1,212a22.17,22.17,0,0,0-10.37-5.27C415.25,198.56,381.6,184,381.6,184a10.48,10.48,0,0,0-1.27.77,10.48,10.48,0,0,1,1.27-.77c-12.48-5.17-16.33-1-19,1.77s-3.84,9.46-2.66,19.07,5.34,34.15-4.58,43.89c-8,7.83-38.13-1-38.13-1h0c-5.39-2.95-12.56,1.19-7.88,7.84s7.18,5,7.18,21.94l-4.76,2.44a7,7,0,0,0-2.42,2.34c-2.91,4.42-2.42,12.34,2.75,15.29l51.83,27.53a12.14,12.14,0,0,0,11.17.11l36.31-18.39a18.39,18.39,0,0,0,9.44-11.6l20.8-76.81a2.94,2.94,0,0,0,2-.89A3,3,0,0,0,444,214.47Zm-24.45,71.42c-.13.26-.28.51-.42.76C419.28,286.4,419.43,286.15,419.56,285.89Zm-.88,1.55c-.18.28-.37.55-.56.82C418.31,288,418.5,287.72,418.68,287.44ZM378.87,185.93c-.33.3-.65.62-1,.95C378.22,186.55,378.54,186.23,378.87,185.93Zm1.17-1c-.32.24-.63.48-.94.75C379.41,185.44,379.72,185.2,380,185Zm-3.29,3.32c-.24.32-.48.67-.71,1a18.48,18.48,0,0,1,1.74-2.28C377.43,187.42,377.08,187.84,376.75,188.28ZM372,198.49a62.59,62.59,0,0,0-1.9,9.27A62.59,62.59,0,0,1,372,198.49Zm4-9.13c-.23.36-.45.72-.67,1.1C375.54,190.08,375.76,189.72,376,189.36Zm-.68,1.11a36.11,36.11,0,0,0-3.31,8A35.91,35.91,0,0,1,375.31,190.47Zm-5.25,17.47c-.06.48-.11.95-.17,1.42C370,208.89,370,208.42,370.06,207.94Zm-.2,1.73c-.05.45-.09.91-.13,1.37C369.77,210.58,369.81,210.12,369.86,209.67Zm-.16,1.68c0,.47-.08.94-.11,1.4C369.62,212.29,369.66,211.82,369.7,211.35Zm-.11,1.48c-.1,1.46-.16,2.91-.17,4.34C369.43,215.74,369.49,214.29,369.59,212.83Zm-.18,4.88v0ZM371,232.66c0-.13-.07-.27-.1-.4C370.93,232.39,371,232.53,371,232.66Zm-.3-1.23c0-.16-.08-.33-.11-.5C370.62,231.1,370.66,231.27,370.7,231.43Zm-.28-1.31c0-.18-.07-.36-.1-.55C370.35,229.76,370.38,229.94,370.42,230.12Zm-.25-1.4-.09-.57Zm-.21-1.5c0-.18,0-.36-.08-.55C369.91,226.86,369.93,227,370,227.22Zm-.23-1.91c0-.22,0-.44-.05-.66C369.7,224.87,369.71,225.09,369.73,225.31Zm-.14-1.69c0-.25,0-.52,0-.78C369.56,223.1,369.57,223.37,369.59,223.62Zm-.09-1.6c0-.29,0-.58,0-.88C369.47,221.44,369.48,221.73,369.5,222Zm-.06-1.64c0-.31,0-.62,0-.94C369.42,219.76,369.43,220.07,369.44,220.38ZM390.79,282h0L361.92,267.1h0ZM414,292.44c-.39.29-.8.58-1.22.84C413.23,293,413.64,292.73,414,292.44Zm.28-.2c.35-.27.68-.55,1-.84C415,291.69,414.66,292,414.31,292.24Zm1.39-1.18c.29-.28.57-.56.84-.85C416.27,290.5,416,290.78,415.7,291.06Zm2-2.18c-.23.29-.46.57-.7.85C417.21,289.45,417.44,289.17,417.67,288.88Zm2.35-4c.09-.21.19-.42.27-.63C420.21,284.44,420.11,284.65,420,284.86Z" transform="translate(-40.12 -19.2)"/><path class="cls-20" d="M353.57,313.89a29.15,29.15,0,0,0,14-12.9c3.05-5.7,4.57-10.72,3.41-17.09l-46.56-18.32c-1.45,13.86-14.18,22.93-14.18,22.93Z" transform="translate(-40.12 -19.2)"/><path class="cls-21" d="M302.77,368.54c0,3.75.13,9.24.13,9.24l2.5.14a6.06,6.06,0,0,1,5.38,4l.06.16a2.38,2.38,0,0,0,2.93,1.46h0a2.38,2.38,0,0,0,1.43-1.24L316.4,370Z" transform="translate(-40.12 -19.2)"/><path class="cls-12" d="M299.22,406c-6.58,2.81-16.64,3.36-20.82-3.35v1.81c4.18,6.71,14.24,6.16,20.82,3.36s5.13-7.4,11-9.86a16,16,0,0,0,5.75-3.63c0-.53.11-1.21.2-2a19.82,19.82,0,0,1-5.95,3.79C304.35,398.59,305.79,403.17,299.22,406Z" transform="translate(-40.12 -19.2)"/><path class="cls-5" d="M316.19,386.37a9.46,9.46,0,0,1,0-3.88,2.1,2.1,0,0,0-.3-1.72l-.53-.52-.2,2a2.36,2.36,0,0,1-4.36-.22l-.06-.16a6.06,6.06,0,0,0-5.38-4l-2.55-.14a1.81,1.81,0,0,0-1.79,1.12c-2.63,6.33-9.22,13.36-14.3,16.57-3.74-.08-8.36,3-8.36,6.78v.38c4.18,6.71,14.24,6.16,20.82,3.35s5.13-7.39,11-9.86a19.82,19.82,0,0,0,5.95-3.79A21,21,0,0,0,316.19,386.37Z" transform="translate(-40.12 -19.2)"/><path class="cls-6" d="M316.19,386.37a9.46,9.46,0,0,1,0-3.88,2.1,2.1,0,0,0-.3-1.72l-.53-.52-.2,2a2.36,2.36,0,0,1-4.36-.22l-.06-.16a6.06,6.06,0,0,0-5.38-4l-2.55-.14a1.81,1.81,0,0,0-1.79,1.12c-2.63,6.33-9.22,13.36-14.3,16.57-3.74-.08-8.36,3-8.36,6.78v.38c4.18,6.71,14.24,6.16,20.82,3.35s5.13-7.39,11-9.86a19.82,19.82,0,0,0,5.95-3.79A21,21,0,0,0,316.19,386.37Z" transform="translate(-40.12 -19.2)"/><path class="cls-28" d="M316.19,386.37a9.46,9.46,0,0,1,0-3.88,2.1,2.1,0,0,0-.3-1.72l-.53-.52-.2,2a2.36,2.36,0,0,1-4.36-.22l-.06-.16a6.06,6.06,0,0,0-5.38-4l-2.55-.14a1.81,1.81,0,0,0-1.79,1.12c-2.63,6.33-9.22,13.36-14.3,16.57-3.74-.08-8.36,3-8.36,6.78v.38c4.18,6.71,14.24,6.16,20.82,3.35s5.13-7.39,11-9.86a19.82,19.82,0,0,0,5.95-3.79A21,21,0,0,0,316.19,386.37Z" transform="translate(-40.12 -19.2)"/><path class="cls-2" d="M303.47,391.56a.84.84,0,0,0,1.3-1.05,9.52,9.52,0,0,0-8.58-3.77c-.36.44-.71.87-1.08,1.29A9.17,9.17,0,0,1,303.47,391.56Z" transform="translate(-40.12 -19.2)"/><path class="cls-2" d="M306.06,388.66a.84.84,0,0,0,1.3-1.05,10,10,0,0,0-8.95-3.86c-.32.47-.65.93-1,1.4C300.63,384.92,303.5,385.53,306.06,388.66Z" transform="translate(-40.12 -19.2)"/><path class="cls-2" d="M300.78,394.39a.81.81,0,0,0,1.16.11.82.82,0,0,0,.14-1.15,9.53,9.53,0,0,0-8.36-3.79c-.43.45-.86.88-1.29,1.3A9.23,9.23,0,0,1,300.78,394.39Z" transform="translate(-40.12 -19.2)"/><path class="cls-2" d="M286.76,395.47c-3.74-.08-8.36,3-8.36,6.78v.38c4.12,6.61,13.94,6.17,20.51,3.47C298.41,397.07,289.74,395.44,286.76,395.47Z" transform="translate(-40.12 -19.2)"/><path class="cls-2" d="M298,397.1a.83.83,0,0,0,1.3-1,9.49,9.49,0,0,0-8.37-3.79c-.53.47-1.05.91-1.57,1.32C292.57,393.37,295.44,394,298,397.1Z" transform="translate(-40.12 -19.2)"/><path class="cls-20" d="M322.32,345.65c-.52,8.31-2.64,14.33-4.27,25.65,0,0-9.94,3-16.14-1.36l-.25-17.44Z" transform="translate(-40.12 -19.2)"/><path class="cls-21" d="M267.52,355.85c-.83,3.63-2.49,8.47-2.49,8.47l2.51.14a6.08,6.08,0,0,1,5.38,4l.05.16a2.36,2.36,0,0,0,2.93,1.45h0a2.32,2.32,0,0,0,1.43-1.24l3.78-9.91Z" transform="translate(-40.12 -19.2)"/><path class="cls-12" d="M261.35,392.53c-6.58,2.8-16.64,3.35-20.82-3.36V391c4.18,6.71,14.24,6.16,20.82,3.35s5.13-7.39,11-9.86a15.88,15.88,0,0,0,5.75-3.63c0-.53.11-1.2.2-2a20,20,0,0,1-5.95,3.8C266.48,385.13,267.92,389.72,261.35,392.53Z" transform="translate(-40.12 -19.2)"/><path class="cls-5" d="M278.33,372.91a9.3,9.3,0,0,1,0-3.87,2.1,2.1,0,0,0-.3-1.72l-.1-.14-.63,1.65a2.32,2.32,0,0,1-1.43,1.24,2.36,2.36,0,0,1-2.93-1.45l-.05-.16a6.08,6.08,0,0,0-5.38-4l-2.55-.14a1.84,1.84,0,0,0-1.8,1.13c-2.62,6.32-9.22,13.35-14.3,16.57-3.73-.09-8.36,3-8.36,6.78v.37c4.18,6.71,14.24,6.16,20.82,3.36s5.13-7.4,11-9.86a20,20,0,0,0,5.95-3.8A21.33,21.33,0,0,0,278.33,372.91Z" transform="translate(-40.12 -19.2)"/><path class="cls-6" d="M278.33,372.91a9.3,9.3,0,0,1,0-3.87,2.1,2.1,0,0,0-.3-1.72l-.1-.14-.63,1.65a2.32,2.32,0,0,1-1.43,1.24,2.36,2.36,0,0,1-2.93-1.45l-.05-.16a6.08,6.08,0,0,0-5.38-4l-2.55-.14a1.84,1.84,0,0,0-1.8,1.13c-2.62,6.32-9.22,13.35-14.3,16.57-3.73-.09-8.36,3-8.36,6.78v.37c4.18,6.71,14.24,6.16,20.82,3.36s5.13-7.4,11-9.86a20,20,0,0,0,5.95-3.8A21.33,21.33,0,0,0,278.33,372.91Z" transform="translate(-40.12 -19.2)"/><path class="cls-28" d="M278.33,372.91a9.3,9.3,0,0,1,0-3.87,2.1,2.1,0,0,0-.3-1.72l-.1-.14-.63,1.65a2.32,2.32,0,0,1-1.43,1.24,2.36,2.36,0,0,1-2.93-1.45l-.05-.16a6.08,6.08,0,0,0-5.38-4l-2.55-.14a1.84,1.84,0,0,0-1.8,1.13c-2.62,6.32-9.22,13.35-14.3,16.57-3.73-.09-8.36,3-8.36,6.78v.37c4.18,6.71,14.24,6.16,20.82,3.36s5.13-7.4,11-9.86a20,20,0,0,0,5.95-3.8A21.33,21.33,0,0,0,278.33,372.91Z" transform="translate(-40.12 -19.2)"/><path class="cls-2" d="M265.6,378.1a.83.83,0,0,0,1.3-1,9.52,9.52,0,0,0-8.58-3.77c-.35.43-.71.86-1.08,1.28A9.19,9.19,0,0,1,265.6,378.1Z" transform="translate(-40.12 -19.2)"/><path class="cls-2" d="M268.19,375.2a.85.85,0,0,0,1.17.11.83.83,0,0,0,.13-1.15,10,10,0,0,0-8.95-3.87c-.32.47-.65.94-1,1.4C262.76,371.47,265.63,372.07,268.19,375.2Z" transform="translate(-40.12 -19.2)"/><path class="cls-2" d="M262.91,380.94a.84.84,0,0,0,1.3-1.05,9.49,9.49,0,0,0-8.36-3.78c-.42.44-.85.88-1.28,1.3A9.17,9.17,0,0,1,262.91,380.94Z" transform="translate(-40.12 -19.2)"/><path class="cls-2" d="M248.89,382c-3.73-.09-8.36,3-8.36,6.78v.37c4.12,6.61,13.94,6.17,20.52,3.47C260.54,383.61,251.87,382,248.89,382Z" transform="translate(-40.12 -19.2)"/><path class="cls-2" d="M260.14,383.65a.82.82,0,0,0,1.16.1.81.81,0,0,0,.13-1.15,9.48,9.48,0,0,0-8.37-3.78c-.53.46-1.05.9-1.57,1.32C254.7,379.91,257.57,380.52,260.14,383.65Z" transform="translate(-40.12 -19.2)"/><path class="cls-20" d="M290.51,336.33c-1.92,8.1-5,13.67-8.54,24.55,0,0-10.31,1.24-15.68-4.07l4.63-28.44Z" transform="translate(-40.12 -19.2)"/><polygon class="cls-15" points="125.42 258.64 125.42 344.42 128.45 342.67 128.45 256.89 125.42 258.64"/><polygon class="cls-20" points="125.42 258.64 125.42 344.42 122.39 342.67 122.39 256.89 125.42 258.64"/><polygon class="cls-15" points="128.45 281.52 199.44 240.53 199.44 237.27 128.45 278.26 128.45 281.52"/><polygon class="cls-20" points="128.45 274.82 196.41 235.52 199.44 237.27 128.45 278.26 128.45 274.82"/><polygon class="cls-15" points="339.69 296.96 339.69 382.74 342.72 380.99 342.72 295.21 339.69 296.96"/><polygon class="cls-20" points="339.69 296.96 339.69 382.74 336.66 380.99 336.66 295.21 339.69 296.96"/><polygon class="cls-15" points="265.67 339.72 265.67 425.5 268.7 423.74 268.7 337.96 265.67 339.72"/><polygon class="cls-20" points="265.67 339.72 265.67 425.5 262.63 423.74 262.63 337.96 265.67 339.72"/><polygon class="cls-15" points="268.7 362.59 339.69 321.6 339.69 318.34 268.7 359.33 268.7 362.59"/><polygon class="cls-20" points="268.7 355.89 336.66 316.59 339.69 318.34 268.7 359.33 268.7 355.89"/><g class="cls-27"><polygon class="cls-2" points="339.69 296.96 339.69 382.74 342.72 380.99 342.72 295.21 339.69 296.96"/><polygon class="cls-2" points="339.69 296.96 339.69 382.74 336.66 380.99 336.66 295.21 339.69 296.96"/><polygon class="cls-2" points="265.67 339.72 265.67 425.5 268.7 423.74 268.7 337.96 265.67 339.72"/><polygon class="cls-2" points="265.67 339.72 265.67 425.5 262.63 423.74 262.63 337.96 265.67 339.72"/><polygon class="cls-2" points="268.7 362.59 339.69 321.6 339.69 318.34 268.7 359.33 268.7 362.59"/><polygon class="cls-2" points="268.7 355.89 336.66 316.59 339.69 318.34 268.7 359.33 268.7 355.89"/></g><g class="cls-27"><polygon class="cls-2" points="125.42 258.64 125.42 344.42 128.45 342.67 128.45 256.89 125.42 258.64"/><polygon class="cls-2" points="125.42 258.64 125.42 344.42 122.39 342.67 122.39 256.89 125.42 258.64"/><polygon class="cls-2" points="128.45 281.52 199.44 240.53 199.44 237.27 128.45 278.26 128.45 281.52"/><polygon class="cls-2" points="128.45 274.82 196.41 235.52 199.44 237.27 128.45 278.26 128.45 274.82"/></g><polygon class="cls-15" points="265.67 331.43 122.38 248.85 199.44 204.34 342.72 286.92 265.67 331.43"/><polygon class="cls-15" points="265.67 339.72 122.38 256.89 122.38 248.85 265.67 331.43 265.67 339.72"/><polygon class="cls-15" points="265.67 331.42 342.72 286.92 342.72 295.21 265.67 339.72 265.67 331.42"/><polygon class="cls-16" points="265.67 331.43 122.38 248.85 199.44 204.34 342.72 286.92 265.67 331.43"/><polygon class="cls-25" points="265.67 331.42 342.72 286.92 342.72 295.21 265.67 339.72 265.67 331.42"/><polygon class="cls-7" points="265.67 339.72 122.38 256.89 122.38 248.85 265.67 331.43 265.67 339.72"/><polygon class="cls-29" points="206.62 224 195.14 249.12 165.15 244.47 176.63 219.34 206.62 224"/><polygon class="cls-9" points="217.89 228.86 191.93 250.04 166.61 239.6 192.57 218.43 217.89 228.86"/><polygon class="cls-2" points="223.21 221.78 238.76 237.36 199.92 250.33 184.35 234.76 223.21 221.78"/><path class="cls-1" d="M240.19,283.42l31.44-18.28a7.14,7.14,0,0,1,6.46,0L330,295.09a2.32,2.32,0,0,1,1.33,1.78h0v2h0a2,2,0,0,1,0,.42s0,0,0,0a2.26,2.26,0,0,1-.22.44l0,0a2.24,2.24,0,0,1-.39.44l0,0a3.76,3.76,0,0,1-.58.42L298.55,319a5.2,5.2,0,0,1-.9.39l-.35.11-.46.11-.56.1-.13,0c-.25,0-.51,0-.77,0h-.12c-.26,0-.51,0-.76,0l-.11,0c-.25,0-.5-.07-.74-.12l-.13,0a5.8,5.8,0,0,1-.63-.2l-.12,0a6.3,6.3,0,0,1-.69-.33L240.21,289a3.43,3.43,0,0,1-.59-.42c-.06-.05-.1-.11-.15-.16a2.44,2.44,0,0,1-.27-.3.87.87,0,0,1-.1-.19,2.19,2.19,0,0,1-.16-.3,1.52,1.52,0,0,1,0-.21,1.57,1.57,0,0,1,0-.3v-1.84A2.26,2.26,0,0,1,240.19,283.42Z" transform="translate(-40.12 -19.2)"/><path class="cls-23" d="M331.29,296.87a1.58,1.58,0,0,1-.05.57s0,0,0,0a2.26,2.26,0,0,1-.22.44l0,.05a2.53,2.53,0,0,1-.39.43l0,0a3.76,3.76,0,0,1-.58.42l-31.44,18.27a5.2,5.2,0,0,1-.9.39l-.35.11-.46.11a5,5,0,0,1-.56.1l-.13,0c-.25,0-.51,0-.77,0h-.12c-.26,0-.51,0-.76,0h-.11c-.25,0-.5-.08-.74-.13l-.13,0a5.8,5.8,0,0,1-.63-.2l-.12,0a6.3,6.3,0,0,1-.69-.33l-51.87-29.95a3.43,3.43,0,0,1-.59-.42,1.14,1.14,0,0,1-.15-.16,1.88,1.88,0,0,1-.27-.3.87.87,0,0,1-.1-.19,2.19,2.19,0,0,1-.16-.3,1.52,1.52,0,0,1,0-.21,1.57,1.57,0,0,1,0-.3v1.84a1.57,1.57,0,0,0,0,.3,1.52,1.52,0,0,0,0,.21,2.19,2.19,0,0,0,.16.3.87.87,0,0,0,.1.19,2.44,2.44,0,0,0,.27.3c.05.05.09.11.15.16a3.43,3.43,0,0,0,.59.42L292.08,319a6.3,6.3,0,0,0,.69.33l.12,0a5.8,5.8,0,0,0,.63.2l.13,0c.24,0,.49.09.74.12l.11,0c.25,0,.5,0,.76,0h.12c.26,0,.52,0,.77,0l.13,0,.56-.1.46-.11.35-.11a5.2,5.2,0,0,0,.9-.39L330,300.68a3.76,3.76,0,0,0,.58-.42l0,0a2.24,2.24,0,0,0,.39-.44l0,0a2.26,2.26,0,0,0,.22-.44s0,0,0,0a2,2,0,0,0,0-.42h0v-2Z" transform="translate(-40.12 -19.2)"/><path class="cls-1" d="M243.26,285.28l50.4,29.1a1,1,0,0,0,.2.09l.11,0a2.34,2.34,0,0,0,.39.12l.28.05.19,0c.13,0,.28,0,.49,0h0a3.46,3.46,0,0,0,.52,0l.33-.05.41-.11a2.17,2.17,0,0,0,.35-.15L313.18,305,261.12,274.9Z" transform="translate(-40.12 -19.2)"/><path class="cls-24" d="M295.38,314.73h0Z" transform="translate(-40.12 -19.2)"/><path class="cls-1" d="M291.21,277.28l-9.49,5.58a1,1,0,0,0,0,1.65l14.18,8.19a1.57,1.57,0,0,0,1.58,0l9.48-5.57a1,1,0,0,0,0-1.66l-14.18-8.19A1.57,1.57,0,0,0,291.21,277.28Z" transform="translate(-40.12 -19.2)"/><path class="cls-6" d="M243.26,285.28l50.4,29.1a1,1,0,0,0,.2.09l.11,0a2.34,2.34,0,0,0,.39.12l.28.05.19,0c.13,0,.28,0,.49,0h0a3.46,3.46,0,0,0,.52,0l.33-.05.41-.11a2.17,2.17,0,0,0,.35-.15L313.18,305,261.12,274.9Z" transform="translate(-40.12 -19.2)"/><path class="cls-6" d="M291.21,277.28l-9.49,5.58a1,1,0,0,0,0,1.65l14.18,8.19a1.57,1.57,0,0,0,1.58,0l9.48-5.57a1,1,0,0,0,0-1.66l-14.18-8.19A1.57,1.57,0,0,0,291.21,277.28Z" transform="translate(-40.12 -19.2)"/><path class="cls-21" d="M316.2,233.37l-6.34,16-25,10.31a10.34,10.34,0,0,1-4.79.74l-9.63-.79a5.46,5.46,0,0,0-3.23.76l-5.51,3.34a5.92,5.92,0,0,0-1.47,1.26l-2.7,3.2a2,2,0,0,0,.37,2.95l1.7,1.22a6,6,0,0,0,6.23.48l4.26-2.15,8.81,1V274L276.5,276a2.53,2.53,0,0,0,.06,3.9h0s5.89-1.74,11.22-10.29L319.09,263a10.49,10.49,0,0,0,7.72-6.77l6-17Z" transform="translate(-40.12 -19.2)"/><path class="cls-5" d="M333.44,206.24c-4.26-.48-6.84-.3-10.88,6.49-4.9,8.23-9.59,24-9.59,24,9.41,4.6,20.47,5.35,20.47,5.35C335.83,236.06,333.44,206.24,333.44,206.24Z" transform="translate(-40.12 -19.2)"/><g class="cls-18"><path class="cls-2" d="M333.44,206.24c-4.26-.48-6.84-.3-10.88,6.49-4.9,8.23-9.59,24-9.59,24,9.41,4.6,20.47,5.35,20.47,5.35C335.83,236.06,333.44,206.24,333.44,206.24Z" transform="translate(-40.12 -19.2)"/></g><path class="cls-5" d="M367.8,213.72c-13.39-6.28-23.42-7-34.36-7.48-16.38,10.54-10.25,19.32-10,33.4.24,11.86,2.45,19.77-2.69,30.71l31.74,18.3c9.21-.11,16.6-2.28,19.6-4.19C376.3,245.5,375.07,216.72,367.8,213.72Z" transform="translate(-40.12 -19.2)"/><path class="cls-30" d="M367.8,213.72c-13.39-6.28-23.42-7-34.36-7.48-16.38,10.54-10.25,19.32-10,33.4.24,11.86,2.45,19.77-2.69,30.71l31.74,18.3c9.21-.11,16.6-2.28,19.6-4.19C376.3,245.5,375.07,216.72,367.8,213.72Z" transform="translate(-40.12 -19.2)"/><path class="cls-21" d="M354.55,250.38l-4,17.7L323,279.44a11.44,11.44,0,0,1-5.27.82l-10.61-.87a5.92,5.92,0,0,0-3.56.83l-6.08,3.68a6.53,6.53,0,0,0-1.62,1.39l-3,3.52a2.23,2.23,0,0,0,.41,3.25l1.87,1.34a6.63,6.63,0,0,0,6.86.53l4.7-2.37,7.71,1.4a15.43,15.43,0,0,0,10.19-1.68l1.62-.9,33.62-7.1a11.53,11.53,0,0,0,8.86-8.72L373.23,255Z" transform="translate(-40.12 -19.2)"/><path class="cls-5" d="M367.8,213.72c16,6,12.38,20.24,6.46,42.8-9.53,2.64-20.82-5.66-20.82-5.66C356.57,233,357.76,213.44,367.8,213.72Z" transform="translate(-40.12 -19.2)"/><path class="cls-16" d="M367.8,213.72c16,6,12.38,20.24,6.46,42.8-9.53,2.64-20.82-5.66-20.82-5.66C356.57,233,357.76,213.44,367.8,213.72Z" transform="translate(-40.12 -19.2)"/><path class="cls-1" d="M231.72,246.79h0l1.24-.62h0a1.56,1.56,0,0,1,1.39.09l52.23,30.37a6.29,6.29,0,0,1,3.06,4.47L295,315.25a1.55,1.55,0,0,1-.88,1.65h0l-1.21.59h0a1.55,1.55,0,0,1-1.35-.11L239.37,287a6.3,6.3,0,0,1-3.06-4.47l-5.37-34.15A1.55,1.55,0,0,1,231.72,246.79Z" transform="translate(-40.12 -19.2)"/><path class="cls-2" d="M260.21,278a11.53,11.53,0,0,1,5.18,7.46c.34,2.67-1.42,3.66-3.95,2.2a11.59,11.59,0,0,1-5.18-7.47C255.92,277.57,257.69,276.58,260.21,278Z" transform="translate(-40.12 -19.2)"/><path class="cls-23" d="M294,315.77l-5.37-34.14a6.31,6.31,0,0,0-3.06-4.48l-52.23-30.36a1.55,1.55,0,0,0-1.57,0h0l1.24-.62h0a1.56,1.56,0,0,1,1.39.09l52.23,30.37a6.29,6.29,0,0,1,3.06,4.47L295,315.25a1.55,1.55,0,0,1-.88,1.65h0l-1.21.59h0A1.57,1.57,0,0,0,294,315.77Z" transform="translate(-40.12 -19.2)"/><path class="cls-20" d="M324,189.41a11.72,11.72,0,0,1-3.26-15.47,6.38,6.38,0,0,1-3.09-2.91,3.41,3.41,0,0,1,4.43-4.54A4.8,4.8,0,0,1,324,160.9a4.5,4.5,0,0,1,5.61,1,3.09,3.09,0,0,1,2.09-3,6.23,6.23,0,0,1,3.9.25c1.25.43,2.43,1,3.69,1.45a28.9,28.9,0,0,0,6.64.85,13.36,13.36,0,0,1,6.41,1.7c1.87,1.22,3.53,4.06,2.52,6.5a3.7,3.7,0,0,1,2.66-1.41,3.57,3.57,0,0,1,2.73,1.16c-1.4.87-2.75,1.8-4.14,2.66,1.4-.63,3.5.36,4.26,1.7a8.59,8.59,0,0,1,.75,4.5A60,60,0,0,1,358,195.5c-.95,2.87-2.33,5.91-5,7.24Z" transform="translate(-40.12 -19.2)"/><path class="cls-21" d="M338.8,203.23l.62,6.86a2.61,2.61,0,0,1-.39,1.51,3.91,3.91,0,0,0,.6,4.49,5.11,5.11,0,0,0,3.07,1A14.81,14.81,0,0,0,354,212.75a3.24,3.24,0,0,0,.9-2.35l-.45-17.4Z" transform="translate(-40.12 -19.2)"/><path class="cls-23" d="M353.11,193.9l-14.31,9.33.55,6.08c3.32-.78,6.67-1.74,9.3-3.88A12.74,12.74,0,0,0,353.11,193.9Z" transform="translate(-40.12 -19.2)"/><path class="cls-21" d="M323.21,175.27a61.42,61.42,0,0,0,1.54,23.8,18.51,18.51,0,0,0,1.89,4.89,7.84,7.84,0,0,0,3.86,3.42c2,.76,4.26.39,6.38,0,3.89-.68,7.87-1.41,11.24-3.45s6.05-5.73,5.72-9.66a6.74,6.74,0,0,0,6.45.36,6.87,6.87,0,0,0,3.54-5.47c.15-2.2-1.12-4.65-3.28-5.08a4.73,4.73,0,0,0-3.76,1.09,14,14,0,0,0-2.62,3.06,4.62,4.62,0,0,1-1.31,1.4,1.58,1.58,0,0,1-1.8,0,2.35,2.35,0,0,1-.51-2l.22-5a2,2,0,0,0-1.1-1.85,4.87,4.87,0,0,1-2.23-2.57,9.85,9.85,0,0,1-.63-3,1.23,1.23,0,0,0-1.68-1.05C338.44,176.92,330.11,177,323.21,175.27Z" transform="translate(-40.12 -19.2)"/><polygon class="cls-22" points="294.05 168.15 289.57 175.69 294.91 176.69 294.05 168.15"/><path class="cls-22" d="M340.18,198.49l-4.06,2a2.66,2.66,0,0,0,3.08.88A2.42,2.42,0,0,0,340.18,198.49Z" transform="translate(-40.12 -19.2)"/><path class="cls-23" d="M340.18,198.49l-4.06,2a2.66,2.66,0,0,0,3.08.88A2.42,2.42,0,0,0,340.18,198.49Z" transform="translate(-40.12 -19.2)"/><path class="cls-22" d="M337.79,201.47a2.4,2.4,0,0,0,1.41-.13,2.17,2.17,0,0,0,1.08-2.14,2.44,2.44,0,0,0-2.49,2.27Z" transform="translate(-40.12 -19.2)"/><path class="cls-24" d="M341.9,187.65a1.53,1.53,0,1,1-1.68-1.38A1.54,1.54,0,0,1,341.9,187.65Z" transform="translate(-40.12 -19.2)"/><path class="cls-24" d="M329,188.44a1.53,1.53,0,1,1-1.68-1.37A1.53,1.53,0,0,1,329,188.44Z" transform="translate(-40.12 -19.2)"/><path class="cls-24" d="M326.94,182.52l-3.15,2.68a2.19,2.19,0,0,1,.42-2.46A2.58,2.58,0,0,1,326.94,182.52Z" transform="translate(-40.12 -19.2)"/><path class="cls-24" d="M340,181l3.62,2a2.19,2.19,0,0,0-.9-2.33A2.6,2.6,0,0,0,340,181Z" transform="translate(-40.12 -19.2)"/></g></svg>