<svg xmlns="http://www.w3.org/2000/svg" viewBox="0 0 421.1 425.22"><defs><style>.cls-1{isolation:isolate;}.cls-2{fill:#f0f0f0;}.cls-3{fill:#f5f5f5;}.cls-4{fill:#e0e0e0;}.cls-5{fill:#ebebeb;}.cls-6{fill:#ba68c8;}.cls-7{fill:#37474f;}.cls-15,.cls-8{opacity:0.3;}.cls-12,.cls-14,.cls-22,.cls-9{fill:#fff;}.cls-19,.cls-9{opacity:0.1;}.cls-10{fill:#263238;}.cls-11{fill:#455a64;}.cls-12,.cls-16{opacity:0.2;}.cls-13{fill:none;}.cls-17{fill:#ffa8a7;}.cls-18{fill:#f28f8f;}.cls-20{fill:#916160;}.cls-21{fill:#7a4c4a;}.cls-22{opacity:0.7;}.cls-23{opacity:0.4;}.cls-24,.cls-25{opacity:0.15;}</style></defs><g id="Window"><g class="cls-1"><polygon class="cls-2" points="300.28 16.66 303.4 14.85 303.21 137.57 300.1 139.38 300.28 16.66"/><polygon class="cls-3" points="300.1 139.38 303.21 137.57 339.12 158.18 336 159.99 300.1 139.38"/><path class="cls-4" d="M354.86,37.3l43.08,24.75-.21,131-43.08-24.75Zm39.29,149.53.19-122.73-35.9-20.61-.19,122.73,35.9,20.61" transform="translate(-58.16 -26.84)"/><polygon class="cls-3" points="296.7 10.46 299.82 8.65 342.9 33.4 339.78 35.21 296.7 10.46"/><polygon class="cls-2" points="339.78 35.21 342.9 33.4 342.69 164.38 339.57 166.19 339.78 35.21"/></g><polygon class="cls-3" points="300.1 51.3 303.22 49.48 336.18 68.44 336.18 72.05 300.1 51.3"/><polygon class="cls-4" points="300.1 51.3 300.1 51.3 300.1 51.3 336.18 72.05 336.18 76.17 300.1 55.44 300.1 51.3"/><rect class="cls-4" x="376.3" y="67.7" height="41.62" transform="translate(53.8 343.73) rotate(-60.09)"/><g class="cls-1"><polygon class="cls-2" points="339.78 39.36 342.9 37.54 342.71 160.27 339.6 162.09 339.78 39.36"/><polygon class="cls-3" points="339.6 162.09 342.71 160.27 378.62 180.88 375.5 182.69 339.6 162.09"/><path class="cls-4" d="M394.36,60l43.08,24.75-.21,131L394.15,191Zm39.3,149.53.18-122.73-35.9-20.61-.19,122.73,35.91,20.61" transform="translate(-58.16 -26.84)"/><polygon class="cls-3" points="336.2 33.16 339.32 31.35 382.4 56.1 379.28 57.91 336.2 33.16"/><polygon class="cls-2" points="379.28 57.91 382.4 56.1 382.19 187.07 379.07 188.89 379.28 57.91"/></g><polygon class="cls-3" points="339.6 74 342.72 72.19 375.68 91.14 375.68 94.75 339.6 74"/><polygon class="cls-4" points="339.6 74 339.6 74 339.6 74 375.68 94.75 375.68 98.87 339.6 78.14 339.6 74"/><rect class="cls-4" x="415.8" y="90.4" height="41.62" transform="translate(53.93 389.36) rotate(-60.09)"/></g><g id="Shadows"><path class="cls-5" d="M453.61,359.56c-6.83-3.94-17.86-3.94-24.64,0s-6.75,10.34.08,14.28,17.86,3.94,24.64,0S460.44,363.5,453.61,359.56Z" transform="translate(-58.16 -26.84)"/><path class="cls-5" d="M390,330.25c-30-17.34-78.59-17.34-108.44,0-26.37,15.33-29.31,39.06-8.91,56.35-16.46-1-33.51,2.12-46.08,9.42-22.06,12.82-21.94,33.6.26,46.42s58.08,12.82,80.14,0c17.55-10.2,21-25.44,10.57-37.7,25.29,3.66,53.12-.23,72.82-11.67C420.2,375.72,420.05,347.6,390,330.25Z" transform="translate(-58.16 -26.84)"/><path class="cls-5" d="M229.06,337.21,108.9,406.58a4,4,0,0,1-4,0l-8.59-5a1.39,1.39,0,0,1,0-2.41l120.29-69.34a4,4,0,0,1,4,0l8.46,4.92A1.39,1.39,0,0,1,229.06,337.21Z" transform="translate(-58.16 -26.84)"/><path class="cls-5" d="M218.58,321.4,71.86,405.48a4.12,4.12,0,0,1-4.13,0l-8.86-5.11a1.44,1.44,0,0,1,0-2.48l146.85-84a4.13,4.13,0,0,1,4.15,0l8.71,5.07A1.43,1.43,0,0,1,218.58,321.4Z" transform="translate(-58.16 -26.84)"/></g><g id="Device"><path class="cls-6" d="M211.13,36.17h0c-.92-3.26-7.54-9.45-14.12-9.32a5.93,5.93,0,0,0-1.85.36L67.32,99.94a12.41,12.41,0,0,0-6.19,10.63V387.13c0,7,8.13,13.77,15.75,10.53l.06,0a3.37,3.37,0,0,0,.49-.2l127.86-72.86a12.25,12.25,0,0,0,6.17-10.63V37.5A2.94,2.94,0,0,0,211.13,36.17Z" transform="translate(-58.16 -26.84)"/><path class="cls-7" d="M79,139.8a6.1,6.1,0,0,1,3.09-5.31L200.78,67a3.06,3.06,0,0,1,4.57,2.65v223a6.16,6.16,0,0,1-3.09,5.32L83.54,365.57A3.05,3.05,0,0,1,79,362.92Z" transform="translate(-58.16 -26.84)"/><path class="cls-8" d="M61.13,110.57V387.13c0,7,8.13,13.77,15.75,10.53l.06,0a3,3,0,0,1-4.09-2.86V118.21a12.19,12.19,0,0,1,2.07-6.75L62.4,105.21A12.22,12.22,0,0,0,61.13,110.57Z" transform="translate(-58.16 -26.84)"/><path class="cls-9" d="M197,26.84a5.93,5.93,0,0,0-1.85.36L67.32,99.94a12.14,12.14,0,0,0-4.92,5.27l12.52,6.25A12.17,12.17,0,0,1,79,107.58L206.89,34.84a3,3,0,0,1,4.24,1.33h0C210.22,32.9,203.6,26.71,197,26.84Z" transform="translate(-58.16 -26.84)"/><path class="cls-10" d="M157.92,80.51c.89-.52,1.64-.11,1.64.92a3.66,3.66,0,0,1-1.63,2.83L132.84,98.74c-.9.52-1.62.08-1.62-.95a3.53,3.53,0,0,1,1.61-2.8Z" transform="translate(-58.16 -26.84)"/><path class="cls-10" d="M126.39,98.71c.9-.51,1.62-.1,1.63.93a3.6,3.6,0,0,1-1.62,2.82c-.9.52-1.64.09-1.64-.94A3.57,3.57,0,0,1,126.39,98.71Z" transform="translate(-58.16 -26.84)"/><path class="cls-10" d="M142.45,78.41c1.79-1,3.24-.22,3.24,1.85a7.17,7.17,0,0,1-3.22,5.63c-1.8,1-3.28.19-3.29-1.87A7.12,7.12,0,0,1,142.45,78.41Z" transform="translate(-58.16 -26.84)"/><path class="cls-10" d="M142.45,338.76c3.66-2.11,6.61-.43,6.62,3.77A14.63,14.63,0,0,1,142.5,354c-3.66,2.1-6.68.38-6.7-3.82A14.62,14.62,0,0,1,142.45,338.76Z" transform="translate(-58.16 -26.84)"/></g><g id="Screen"><path class="cls-11" d="M230.36,47.23h0c-.84-3-6.84-8.58-12.82-8.46a5.27,5.27,0,0,0-1.67.33l-116.06,66a11.25,11.25,0,0,0-5.61,9.65v251c0,6.4,7.38,12.5,14.3,9.56,0,0,0,0,0,0a2.72,2.72,0,0,0,.44-.18L225.05,309a11.12,11.12,0,0,0,5.6-9.65V48.44A2.8,2.8,0,0,0,230.36,47.23Z" transform="translate(-58.16 -26.84)"/><path class="cls-9" d="M94.2,114.76v251c0,6.4,7.38,12.5,14.3,9.56,0,0,0,0,0,0a2.76,2.76,0,0,1-3.71-2.59v-251a11.08,11.08,0,0,1,1.88-6.13l-11.37-5.68A11.11,11.11,0,0,0,94.2,114.76Z" transform="translate(-58.16 -26.84)"/><path class="cls-12" d="M217.54,38.76a5.27,5.27,0,0,0-1.67.33l-116.06,66a11.17,11.17,0,0,0-4.46,4.78l11.37,5.68a11.14,11.14,0,0,1,3.73-3.52L226.5,46a2.77,2.77,0,0,1,3.86,1.2h0C229.52,44.26,223.52,38.64,217.54,38.76Z" transform="translate(-58.16 -26.84)"/><path class="cls-11" d="M230.36,47.23A2.77,2.77,0,0,0,226.5,46l-116,66a11.3,11.3,0,0,0-5.61,9.65v251a2.76,2.76,0,0,0,3.71,2.59,2.72,2.72,0,0,0,.44-.18L225.05,309a11.12,11.12,0,0,0,5.6-9.65V48.44A2.8,2.8,0,0,0,230.36,47.23Z" transform="translate(-58.16 -26.84)"/><path class="cls-11" d="M110.58,137.31a5.35,5.35,0,0,1,.92-3,5.18,5.18,0,0,1,1.79-1.7L224.91,69.14V295.46a5.37,5.37,0,0,1-2.7,4.66L110.58,363.73Z" transform="translate(-58.16 -26.84)"/><path class="cls-8" d="M110.58,137.31a5.35,5.35,0,0,1,.92-3,5.18,5.18,0,0,1,1.79-1.7L224.91,69.14V295.46a5.37,5.37,0,0,1-2.7,4.66L110.58,363.73Z" transform="translate(-58.16 -26.84)"/><polygon class="cls-13" points="56.14 93.38 56.15 97.44 56.15 97.44 56.14 93.38 55.19 93.93 55.19 93.93 56.14 93.38"/><polygon class="cls-13" points="52.97 99.27 52.97 99.27 52.96 96.93 52.02 97.48 52.02 97.48 52.96 96.93 52.97 99.27"/><polygon class="cls-13" points="53.6 95.7 53.6 95.7 54.3 95.3 53.6 95.7"/><polygon class="cls-13" points="54.31 98.5 54.56 98.36 54.55 95.15 54.55 95.15 54.56 98.36 54.31 98.5"/><polygon class="cls-13" points="155.66 35.23 155.68 39.98 155.68 39.98 155.66 35.23 148.65 39.28 148.65 39.28 155.66 35.23"/><polygon class="cls-13" points="166.91 31.87 166.91 33.49 159.17 37.96 159.17 37.96 166.91 33.49 166.91 31.87 167.46 31.55 167.46 30.04 167.46 30.05 167.46 31.55 166.91 31.87"/><polygon class="cls-13" points="68.12 90.53 68.12 90.53 68.1 85.78 60.36 90.25 60.36 90.25 68.1 85.78 68.12 90.53"/><polygon class="cls-13" points="119.62 56.04 119.63 60.79 119.63 60.79 119.62 56.04 100.63 67 100.63 67 119.62 56.04"/><polygon class="cls-13" points="56.77 92.32 56.77 92.32 57.73 91.77 56.77 92.32"/><polygon class="cls-13" points="57.36 96.74 57.74 96.52 57.73 91.77 57.74 96.52 57.36 96.74"/><polygon class="cls-13" points="70.22 84.56 70.22 84.56 71.97 83.55 70.22 84.56"/><polygon class="cls-6" points="159.99 33.69 160 36.53 163.6 34.45 163.59 31.61 159.99 33.69"/><path class="cls-14" d="M225.06,55.58l-7.74,4.47v4.74l7.74-4.47V58.7l.55-.32v-1.5l-.2.12-.35.2Zm-3.3,5.7-3.6,2.08V60.52h0l3.6-2.08v2.84Z" transform="translate(-58.16 -26.84)"/><polygon class="cls-14" points="100.63 67 100.64 71.75 119.63 60.79 119.62 56.04 100.63 67"/><polygon class="cls-14" points="148.65 39.28 148.66 44.03 155.68 39.98 155.66 35.23 148.65 39.28"/><polygon class="cls-14" points="55.19 93.93 55.2 97.99 56.15 97.44 56.14 93.38 55.19 93.93"/><polygon class="cls-14" points="70.24 89.31 74.38 86.92 74.36 82.17 74.36 82.17 71.97 83.55 70.22 84.56 70.22 84.56 70.24 89.31"/><polygon class="cls-14" points="60.38 95 68.12 90.53 68.12 90.53 68.1 85.78 60.36 90.25 60.36 90.25 60.38 95"/><polygon class="cls-14" points="56.79 97.07 57.36 96.74 57.74 96.52 57.73 91.77 56.77 92.32 56.77 92.32 56.79 97.07"/><polygon class="cls-14" points="53.61 98.91 54.31 98.5 54.56 98.36 54.55 95.15 54.55 95.15 54.3 95.3 53.6 95.7 53.6 95.7 53.61 98.91"/><polygon class="cls-14" points="52.02 99.82 52.97 99.27 52.97 99.27 52.96 96.93 52.02 97.48 52.02 97.48 52.02 99.82"/><path class="cls-11" d="M215.25,212.78l9.66-5.51v-4.56l-9.77,5.58-.53-21.18,10.3-6.21v-4.56l-10.41,6.28-.37-14.81,10.78-7.08v-4.58L214,163.31,213.64,148l-4.72-17,16-14.52v-7.92l-17.23,15.65L205,99.7l19.9-15.35V79.71L204.53,95.43,203,81.6l-4,2.27,1.69,15.44L182.1,127.54,167,102.09l-7.43,4.23,3.75,6.31-7.82,9.27-2.9-5.61-16,15,1.5,16-27.47,15.86v4.56l31.86-18.39-1.62-17.23,9.64-9,3.2,6.19,11.46-13.61,2.53,4.27-37,57.42-20.11,18v4.74l20.14-18,12.48,16.79-10.57,18-22,23V248l11.86-12.36,4,14.82.06,19.38-15.94,7.69v4.58l15.75-7.6-2.11,26-6.38,8.89-.9,23.14-6.36,4.14v7.62l56.56-36.8L166.26,332l4-2.26,1.23-34.26L192.4,283l1.87,33,6.63-3.78-.81-14.35,24.82-16.18v-4.58l-25.07,16.34-1.53-26.83,18.85-10.88-1.37-24.4,9.12-4.4v-4.59l-9.31,4.5Zm-14-108.42,2.55,23.25L189.73,140.4l-5.79-9.75ZM162.59,233.93l-5.82,3.36-5.36,3.09-3.35-22.28,14.2-11.63,3.84,25.43Zm4.15,2.16,2,13.4-4.9,2.36-1-13.54ZM147.43,214l-1.4-9.28L167,169l.88-.79,1.6,9-6.34,6.63,1.52,3.35,15.09-15.82L178.23,168l-5,5.26-1.52-8.59L185,152.63l1.66,29.18Zm39.47-27.68,3,53-6.14,3-5.34-49.05Zm-26.65-48.86,4.47,6.28-14.16,21.92-4.47-6.19Zm-26,40.46L143,164.18l6.52,9,20.28-31.42-6.51-9.12,6.18-9.6,13.78,23.22-18.91,17.18-.8.72-17.45,29.71Zm-8.07,53.94,10.19-10.63,6.23-10.6L148,246.9l8.75-5.05,2.15-1.25.94,13.18L130.47,268l0-18.13,7.68-5.88-.66-4.13-7.56,5.8Zm8.6,89.22-13.82,9,.79-20.34,6.28-8.74,2.3-28.3,6.7-3.23Zm32.68-21.26-28.69,18.67L141,267.5l28.11-13.57Zm-1.28-96.49,8.41-6.88,5.2,47.79-6.92,3.34Zm5.49,87.54L173,252l17.15-8.28,2,34.88Zm19.86-144.1,13.63-12.37,4.57,16.54.37,15L193.22,177Zm2,34.68,16.7-11,.37,14.59-16.31,9.83Zm1,17.85,16.17-9.75.52,21.05-15.55,8.88Zm1.39,24.6,15.41-8.8.35,13.76-15.06,7.27Zm2.19,38.4-1.23-21.72,15-7.23,1.14,20.36Z" transform="translate(-58.16 -26.84)"/><g class="cls-15"><path class="cls-14" d="M215.25,212.78l9.66-5.51v-4.56l-9.77,5.58-.53-21.18,10.3-6.21v-4.56l-10.41,6.28-.37-14.81,10.78-7.08v-4.58L214,163.31,213.64,148l-4.72-17,16-14.52v-7.92l-17.23,15.65L205,99.7l19.9-15.35V79.71L204.53,95.43,203,81.6l-4,2.27,1.69,15.44L182.1,127.54,167,102.09l-7.43,4.23,3.75,6.31-7.82,9.27-2.9-5.61-16,15,1.5,16-27.47,15.86v4.56l31.86-18.39-1.62-17.23,9.64-9,3.2,6.19,11.46-13.61,2.53,4.27-37,57.42-20.11,18v4.74l20.14-18,12.48,16.79-10.57,18-22,23V248l11.86-12.36,4,14.82.06,19.38-15.94,7.69v4.58l15.75-7.6-2.11,26-6.38,8.89-.9,23.14-6.36,4.14v7.62l56.56-36.8L166.26,332l4-2.26,1.23-34.26L192.4,283l1.87,33,6.63-3.78-.81-14.35,24.82-16.18v-4.58l-25.07,16.34-1.53-26.83,18.85-10.88-1.37-24.4,9.12-4.4v-4.59l-9.31,4.5Zm-14-108.42,2.55,23.25L189.73,140.4l-5.79-9.75ZM162.59,233.93l-5.82,3.36-5.36,3.09-3.35-22.28,14.2-11.63,3.84,25.43Zm4.15,2.16,2,13.4-4.9,2.36-1-13.54ZM147.43,214l-1.4-9.28L167,169l.88-.79,1.6,9-6.34,6.63,1.52,3.35,15.09-15.82L178.23,168l-5,5.26-1.52-8.59L185,152.63l1.66,29.18Zm39.47-27.68,3,53-6.14,3-5.34-49.05Zm-26.65-48.86,4.47,6.28-14.16,21.92-4.47-6.19Zm-26,40.46L143,164.18l6.52,9,20.28-31.42-6.51-9.12,6.18-9.6,13.78,23.22-18.91,17.18-.8.72-17.45,29.71Zm-8.07,53.94,10.19-10.63,6.23-10.6L148,246.9l8.75-5.05,2.15-1.25.94,13.18L130.47,268l0-18.13,7.68-5.88-.66-4.13-7.56,5.8Zm8.6,89.22-13.82,9,.79-20.34,6.28-8.74,2.3-28.3,6.7-3.23Zm32.68-21.26-28.69,18.67L141,267.5l28.11-13.57Zm-1.28-96.49,8.41-6.88,5.2,47.79-6.92,3.34Zm5.49,87.54L173,252l17.15-8.28,2,34.88Zm19.86-144.1,13.63-12.37,4.57,16.54.37,15L193.22,177Zm2,34.68,16.7-11,.37,14.59-16.31,9.83Zm1,17.85,16.17-9.75.52,21.05-15.55,8.88Zm1.39,24.6,15.41-8.8.35,13.76-15.06,7.27Zm2.19,38.4-1.23-21.72,15-7.23,1.14,20.36Z" transform="translate(-58.16 -26.84)"/></g></g><g id="Location_3" data-name="Location 3"><path class="cls-6" d="M247.86,221.15c.91-.52,1.63-.1,1.64.93l.06,22.31a3.58,3.58,0,0,1-1.62,2.81l-52.8,30.48-.07-26.05Z" transform="translate(-58.16 -26.84)"/><g class="cls-15"><path class="cls-14" d="M247.86,221.15c.91-.52,1.63-.1,1.64.93l.06,22.31a3.58,3.58,0,0,1-1.62,2.81l-52.8,30.48-.07-26.05Z" transform="translate(-58.16 -26.84)"/></g><polygon class="cls-14" points="187.78 212.79 187.78 214.59 148.89 237.04 148.88 235.25 187.78 212.79"/><polygon class="cls-14" points="164.71 229.94 164.72 231.73 148.9 240.87 148.9 239.07 164.71 229.94"/><polygon class="cls-14" points="187.76 208.98 187.77 210.77 148.88 233.23 148.87 231.43 187.76 208.98"/><polygon class="cls-14" points="187.75 205.16 187.76 206.95 148.87 229.4 148.86 227.61 187.75 205.16"/><polygon class="cls-14" points="177.35 205.53 177.36 209.12 148.86 225.58 148.85 221.99 177.35 205.53"/><path class="cls-6" d="M180.93,242.67c6.18-3.57,12.37-4.43,17.11-1.73,8.72,5,9.54,20.43,1.91,35.89l-18.82,38.11-18.95-16.3c-7.71-6.61-7-23,1.69-38C168.57,252.52,174.75,246.24,180.93,242.67Z" transform="translate(-58.16 -26.84)"/><ellipse class="cls-11" cx="181.03" cy="270.3" rx="28.96" ry="16.77" transform="translate(-201.79 264.17) rotate(-59.84)"/><path class="cls-6" d="M181.1,293.91c5.77-3.34,11-9.09,14.7-15.66a8.6,8.6,0,0,0-7.33-1.73l-2.75.62L177,279l-7.85,5.9a11.71,11.71,0,0,0-4.65,8.77v.12C168.24,297.51,174.28,297.84,181.1,293.91Z" transform="translate(-58.16 -26.84)"/><path class="cls-16" d="M181.1,293.91c5.77-3.34,11-9.09,14.7-15.66a8.6,8.6,0,0,0-7.33-1.73l-2.75.62L177,279l-7.85,5.9a11.71,11.71,0,0,0-4.65,8.77v.12C168.24,297.51,174.28,297.84,181.1,293.91Z" transform="translate(-58.16 -26.84)"/><path class="cls-10" d="M193.23,269.41a6.56,6.56,0,0,0,1.83-8.65,3.65,3.65,0,0,0,1.73-1.63,2,2,0,0,0-.38-2.12,2,2,0,0,0-2.1-.43,2.7,2.7,0,0,0-1.07-3.13,2.54,2.54,0,0,0-3.15.58,1.7,1.7,0,0,0-1.17-1.68,3.48,3.48,0,0,0-2.18.14c-.7.24-1.36.59-2.07.81a15.84,15.84,0,0,1-3.71.47,7.52,7.52,0,0,0-3.59,1,3.22,3.22,0,0,0-1.41,3.64,2.07,2.07,0,0,0-1.49-.79,2,2,0,0,0-1.53.65c.78.48,1.53,1,2.32,1.49a2.11,2.11,0,0,0-2.39.95,4.7,4.7,0,0,0-.42,2.52,33.71,33.71,0,0,0,1.73,9.64c.53,1.61,1.31,3.31,2.83,4.05Z" transform="translate(-58.16 -26.84)"/><path class="cls-17" d="M184.94,277.15,184.6,281a1.46,1.46,0,0,0,.21.84,2.18,2.18,0,0,1-.33,2.52,3,3,0,0,1-1.72.58,8.31,8.31,0,0,1-6.35-2.45,1.79,1.79,0,0,1-.5-1.32l.25-9.74Z" transform="translate(-58.16 -26.84)"/><path class="cls-8" d="M176.93,271.93l8,5.22-.3,3.41a12.44,12.44,0,0,1-5.21-2.17A7.13,7.13,0,0,1,176.93,271.93Z" transform="translate(-58.16 -26.84)"/><path class="cls-17" d="M193.67,261.5a34.25,34.25,0,0,1-.86,13.33,10.31,10.31,0,0,1-1.06,2.73,4.39,4.39,0,0,1-2.16,1.92,6.76,6.76,0,0,1-3.57,0,18,18,0,0,1-6.3-1.93,6.09,6.09,0,0,1-3.2-5.41,3.62,3.62,0,0,1-5.59-2.86,2.36,2.36,0,0,1,3.94-2.23,7.81,7.81,0,0,1,1.47,1.71,2.48,2.48,0,0,0,.73.78.89.89,0,0,0,1,0,1.32,1.32,0,0,0,.28-1.1l-.12-2.79a1.1,1.1,0,0,1,.62-1,2.77,2.77,0,0,0,1.25-1.44,5.92,5.92,0,0,0,.35-1.67.69.69,0,0,1,.94-.59A20.57,20.57,0,0,0,193.67,261.5Z" transform="translate(-58.16 -26.84)"/><polygon class="cls-18" points="129.38 241.43 131.89 245.65 128.9 246.21 129.38 241.43"/><path class="cls-18" d="M184.17,274.5l2.27,1.11a1.49,1.49,0,0,1-1.72.49A1.35,1.35,0,0,1,184.17,274.5Z" transform="translate(-58.16 -26.84)"/><path class="cls-8" d="M184.17,274.5l2.27,1.11a1.49,1.49,0,0,1-1.72.49A1.35,1.35,0,0,1,184.17,274.5Z" transform="translate(-58.16 -26.84)"/><path class="cls-18" d="M185.51,276.17a1.41,1.41,0,0,1-.79-.07,1.22,1.22,0,0,1-.61-1.2,1.37,1.37,0,0,1,1.4,1.27Z" transform="translate(-58.16 -26.84)"/><path class="cls-10" d="M183.21,268.43a.85.85,0,0,0,.76.94.86.86,0,1,0,.18-1.71A.85.85,0,0,0,183.21,268.43Z" transform="translate(-58.16 -26.84)"/><path class="cls-10" d="M190.41,268.88a.86.86,0,1,0,.94-.77A.86.86,0,0,0,190.41,268.88Z" transform="translate(-58.16 -26.84)"/><path class="cls-10" d="M191.58,265.56l1.77,1.5a1.23,1.23,0,0,0-.24-1.38A1.45,1.45,0,0,0,191.58,265.56Z" transform="translate(-58.16 -26.84)"/><path class="cls-10" d="M184.28,264.72c-.68.37-1.36.74-2,1.12a1.25,1.25,0,0,1,.5-1.31A1.45,1.45,0,0,1,184.28,264.72Z" transform="translate(-58.16 -26.84)"/></g><g id="Location_2" data-name="Location 2"><path class="cls-6" d="M187.66,159.77c.91-.52,1.63-.1,1.64.93l.06,22.31a3.6,3.6,0,0,1-1.62,2.81l-52.8,30.48-.07-26.05Z" transform="translate(-58.16 -26.84)"/><g class="cls-15"><path class="cls-14" d="M187.66,159.77c.91-.52,1.63-.1,1.64.93l.06,22.31a3.6,3.6,0,0,1-1.62,2.81l-52.8,30.48-.07-26.05Z" transform="translate(-58.16 -26.84)"/></g><polygon class="cls-14" points="127.58 151.41 127.58 153.21 88.69 175.66 88.69 173.86 127.58 151.41"/><polygon class="cls-14" points="104.51 168.56 104.52 170.35 88.7 179.48 88.7 177.69 104.51 168.56"/><polygon class="cls-14" points="127.56 147.6 127.57 149.39 88.68 171.84 88.67 170.05 127.56 147.6"/><polygon class="cls-14" points="127.55 143.77 127.56 145.57 88.67 168.02 88.66 166.22 127.55 143.77"/><polygon class="cls-14" points="117.15 144.15 117.16 147.74 88.66 164.2 88.65 160.61 117.15 144.15"/><path class="cls-6" d="M120.73,180c6.18-3.57,12.37-4.43,17.11-1.73,8.72,5,9.54,20.43,1.9,35.89L120.93,252.3,102,236c-7.7-6.61-7-23,1.7-38C108.37,189.88,114.55,183.6,120.73,180Z" transform="translate(-58.16 -26.84)"/><ellipse class="cls-11" cx="120.83" cy="207.66" rx="28.96" ry="16.77" transform="translate(-177.59 180.96) rotate(-59.84)"/><path class="cls-14" d="M120.9,231.27c6-3.46,11.36-9.53,15.1-16.41a11.13,11.13,0,0,0-7.83-1.09l-4.68,1.06-9.61,2.06-8.32,6.26a20.32,20.32,0,0,0-3.93,3.93C104.58,234.32,112.1,236.35,120.9,231.27Z" transform="translate(-58.16 -26.84)"/><path class="cls-17" d="M108.85,204.7a2.73,2.73,0,0,1,1.34-1.4,1.93,1.93,0,0,1,.4-.15,2.51,2.51,0,0,1,2.23.75,4.32,4.32,0,0,1,1.08,2.15,16.58,16.58,0,0,1,.27,2.43,29.32,29.32,0,0,0,.67,4.28,5.46,5.46,0,0,0,2.77,3.63l.1.05a16.82,16.82,0,0,0,6.47,1.72v2.45c1.79,2.43,2.29,7.08-2.42,5.69s-7.77-4.52-7.77-7.59c0-1.3-.06-3-.1-4.46,0-2-.08-3.69-.08-3.69a2.64,2.64,0,0,1-1.72.9,2.45,2.45,0,0,1-.9-.05,3.41,3.41,0,0,1-2-1.72,6.36,6.36,0,0,1-.64-2.62A5.16,5.16,0,0,1,108.85,204.7Z" transform="translate(-58.16 -26.84)"/><path class="cls-8" d="M108.85,204.7a2.73,2.73,0,0,1,1.34-1.4,1.93,1.93,0,0,1,.4-.15,2.51,2.51,0,0,1,2.23.75,4.32,4.32,0,0,1,1.08,2.15,16.58,16.58,0,0,1,.27,2.43,29.32,29.32,0,0,0,.67,4.28,5.46,5.46,0,0,0,2.77,3.63l.1.05a16.82,16.82,0,0,0,6.47,1.72v2.45c1.79,2.43,2.29,7.08-2.42,5.69s-7.77-4.52-7.77-7.59c0-1.3-.06-3-.1-4.46,0-2-.08-3.69-.08-3.69a2.64,2.64,0,0,1-1.72.9,2.45,2.45,0,0,1-.9-.05,3.41,3.41,0,0,1-2-1.72,6.36,6.36,0,0,1-.64-2.62A5.16,5.16,0,0,1,108.85,204.7Z" transform="translate(-58.16 -26.84)"/><path class="cls-10" d="M110.38,196.2a5.81,5.81,0,0,1,3.7-2L133.41,196c2.23,4.73.45,7.85.45,7.85.3,7.2.55,11.78-2.62,13.3a14.87,14.87,0,0,1-7.06,1,16.82,16.82,0,0,1-6.47-1.72l-.1-.06a5.43,5.43,0,0,1-2.77-3.64,29.05,29.05,0,0,1-.67-4.26,16.58,16.58,0,0,0-.27-2.43,4.32,4.32,0,0,0-1.08-2.15,2.51,2.51,0,0,0-2.23-.75,1.93,1.93,0,0,0-.4.15C109.64,200.1,109.48,197.33,110.38,196.2Z" transform="translate(-58.16 -26.84)"/><path class="cls-17" d="M117.46,196.75a6.71,6.71,0,0,1-.26,4.05,28.93,28.93,0,0,0-1.22,3.94,6.35,6.35,0,0,0,.53,4,4.65,4.65,0,0,0,3.08,2.46c2.07.44,4.1-.77,6.19-1.17a8.6,8.6,0,0,1,5.81,1,1,1,0,0,0,1.52-.81c.25-4.14.25-10.64-.37-13.69Z" transform="translate(-58.16 -26.84)"/><path class="cls-8" d="M117.46,196.75a6.71,6.71,0,0,1-.26,4.05,28.93,28.93,0,0,0-1.22,3.94,6.35,6.35,0,0,0,.53,4,4.65,4.65,0,0,0,3.08,2.46c2.07.44,4.1-.77,6.19-1.17a8.6,8.6,0,0,1,5.81,1,1,1,0,0,0,1.52-.81c.25-4.14.25-10.64-.37-13.69Z" transform="translate(-58.16 -26.84)"/><path class="cls-10" d="M132.42,193l2.4-1.67a5.1,5.1,0,0,1-.92,4.73,7.62,7.62,0,0,1-4.24,2.49,15.68,15.68,0,0,1-5,.23,37.44,37.44,0,0,1-7.19-1.31,5.76,5.76,0,0,1-2.82-1.49,3.72,3.72,0,0,1-.15-4.4,5.6,5.6,0,0,1,4-2.3,15.45,15.45,0,0,1,4.78.38,14.62,14.62,0,0,0,4.79.34,5,5,0,0,0,3.85-2.55C133.27,189.64,132.42,193,132.42,193Z" transform="translate(-58.16 -26.84)"/><polygon class="cls-18" points="68.19 177.27 71.72 181.54 68.49 182.68 68.19 177.27"/><polygon class="cls-8" points="68.19 177.27 71.72 181.54 68.49 182.68 68.19 177.27"/><path class="cls-18" d="M123.68,211.64l2.73.83a1.68,1.68,0,0,1-1.84.85A1.52,1.52,0,0,1,123.68,211.64Z" transform="translate(-58.16 -26.84)"/><path class="cls-8" d="M123.68,211.64l2.73.83a1.68,1.68,0,0,1-1.84.85A1.52,1.52,0,0,1,123.68,211.64Z" transform="translate(-58.16 -26.84)"/><path class="cls-18" d="M125.46,213.26a1.44,1.44,0,0,1-.89.06,1.37,1.37,0,0,1-.88-1.23,1.66,1.66,0,0,1,1,.19A1.59,1.59,0,0,1,125.46,213.26Z" transform="translate(-58.16 -26.84)"/><path class="cls-10" d="M121.56,205a1,1,0,1,0,.91-1A1,1,0,0,0,121.56,205Z" transform="translate(-58.16 -26.84)"/><path class="cls-10" d="M129.66,204.29a1,1,0,1,0,1.93-.1,1,1,0,1,0-1.93.1Z" transform="translate(-58.16 -26.84)"/><path class="cls-10" d="M130.39,200.39l2.22,1.37a1.35,1.35,0,0,0-.5-1.49A1.63,1.63,0,0,0,130.39,200.39Z" transform="translate(-58.16 -26.84)"/><path class="cls-10" d="M122.11,200.72l-2.07,1.6a1.38,1.38,0,0,1,.34-1.54A1.65,1.65,0,0,1,122.11,200.72Z" transform="translate(-58.16 -26.84)"/><path class="cls-16" d="M116.41,216.31a6.1,6.1,0,0,1-1.13-2.35,5.42,5.42,0,0,0,2.33,2.43l.1.05a16.82,16.82,0,0,0,6.47,1.72v1.65a16,16,0,0,1-3.82-.8A8.6,8.6,0,0,1,116.41,216.31Z" transform="translate(-58.16 -26.84)"/></g><g id="Location_1" data-name="Location 1"><path class="cls-6" d="M274.4,67.38c.9-.52,1.63-.1,1.63.93l.06,22.31a3.56,3.56,0,0,1-1.62,2.81l-52.79,30.48-.08-26Z" transform="translate(-58.16 -26.84)"/><g class="cls-15"><path class="cls-14" d="M274.4,67.38c.9-.52,1.63-.1,1.63.93l.06,22.31a3.56,3.56,0,0,1-1.62,2.81l-52.79,30.48-.08-26Z" transform="translate(-58.16 -26.84)"/></g><polygon class="cls-14" points="214.31 59.02 214.31 60.82 175.43 83.27 175.42 81.48 214.31 59.02"/><polygon class="cls-14" points="191.25 76.17 191.25 77.96 175.44 87.09 175.43 85.3 191.25 76.17"/><polygon class="cls-14" points="214.3 55.21 214.3 57 175.41 79.45 175.41 77.66 214.3 55.21"/><polygon class="cls-14" points="214.29 51.38 214.29 53.18 175.4 75.63 175.4 73.84 214.29 51.38"/><polygon class="cls-14" points="203.89 51.76 203.9 55.35 175.39 71.81 175.38 68.22 203.89 51.76"/><path class="cls-6" d="M206.06,91.46c6.18-3.57,12.37-4.43,17.11-1.73,8.72,5,9.54,20.43,1.9,35.89l-18.81,38.11-19-16.3c-7.7-6.61-7-23,1.7-38C193.7,101.31,199.88,95,206.06,91.46Z" transform="translate(-58.16 -26.84)"/><ellipse class="cls-11" cx="206.16" cy="119.1" rx="28.96" ry="16.77" transform="translate(-58.55 210.66) rotate(-59.84)"/><path class="cls-6" d="M206.23,142.7c5.24-3,10-8,13.62-13.86a13.64,13.64,0,0,0-8.12-1.24L209,128l-8.77,1.66-6.59,3.91a13.68,13.68,0,0,0-5.77,6.79C191.32,146.07,198.24,147.31,206.23,142.7Z" transform="translate(-58.16 -26.84)"/><path class="cls-12" d="M206.23,142.7c5.24-3,10-8,13.62-13.86a13.64,13.64,0,0,0-8.12-1.24L209,128l-8.77,1.66-6.59,3.91a13.68,13.68,0,0,0-5.77,6.79C191.32,146.07,198.24,147.31,206.23,142.7Z" transform="translate(-58.16 -26.84)"/><path class="cls-10" d="M190.86,112.14c0,.51.08,1,.11,1.54a9.13,9.13,0,0,1-.51,4c-.61,1.47-1.82,2.66-2.21,4.2a4.21,4.21,0,0,0,5.16,5.1,11.07,11.07,0,0,1-.39-3.29c.13,1.49,1.61,2.65,3,3.15a11.63,11.63,0,0,0,4.44.39l5.26-.2,6.13-.24a8.43,8.43,0,0,0,3.2-.56,5.45,5.45,0,0,0,2.85-4.7,14.17,14.17,0,0,0-1.4-5.93,8.11,8.11,0,0,0,1-10.19,2.74,2.74,0,0,0-.49-5.24,7.52,7.52,0,0,0-2.95.42,14.22,14.22,0,0,1-5.08,0c-1.69-.24-3.36-.61-5-.73a11,11,0,0,0-4.09.39A47.09,47.09,0,0,0,190.86,112.14Z" transform="translate(-58.16 -26.84)"/><path class="cls-17" d="M209,124.13v5.59s4.57,2.92,2.65,4.47c-3.63,2.92-11.42-4.5-11.42-4.5v-9.31Z" transform="translate(-58.16 -26.84)"/><path class="cls-8" d="M200.25,120.38c1.35,4,6.25,7.05,8.77,7.65v-3.9Z" transform="translate(-58.16 -26.84)"/><path class="cls-17" d="M201.3,114a8.79,8.79,0,0,1,.1,2.11,2.49,2.49,0,0,1-.7,1.41,1.62,1.62,0,0,1-1.42.42,2.75,2.75,0,0,0-5.33-1.31,3.45,3.45,0,0,0,.57,2.86,6.36,6.36,0,0,0,2.3,1.91,2.32,2.32,0,0,0,2.77-1.08c2.67,3.38,7.33,5.93,11.7,5.56a6.25,6.25,0,0,0,3.32-1.17c1.65-1.28,1.77-3.21,2-5.11a27.15,27.15,0,0,0-.05-7.26,14.34,14.34,0,0,0-4.59-8.74C210.45,110.84,203.83,113.49,201.3,114Z" transform="translate(-58.16 -26.84)"/><polygon class="cls-18" points="152.24 86.37 155.22 90.05 152.44 91.01 152.24 86.37"/><path class="cls-18" d="M208.05,119.64l2.33.74a1.42,1.42,0,0,1-1.58.7A1.28,1.28,0,0,1,208.05,119.64Z" transform="translate(-58.16 -26.84)"/><path class="cls-8" d="M208.05,119.64l2.33.74a1.42,1.42,0,0,1-1.58.7A1.28,1.28,0,0,1,208.05,119.64Z" transform="translate(-58.16 -26.84)"/><path class="cls-18" d="M209.56,121.05a1.32,1.32,0,0,1-.76,0,1.15,1.15,0,0,1-.75-1.06,1.41,1.41,0,0,1,.9.18A1.33,1.33,0,0,1,209.56,121.05Z" transform="translate(-58.16 -26.84)"/><path class="cls-10" d="M206.28,114a.82.82,0,0,0,.86.79.83.83,0,1,0-.86-.79Z" transform="translate(-58.16 -26.84)"/><path class="cls-10" d="M213.22,113.39a.83.83,0,1,0,.79-.87A.84.84,0,0,0,213.22,113.39Z" transform="translate(-58.16 -26.84)"/><path class="cls-10" d="M213.88,110.05l1.9,1.19a1.2,1.2,0,0,0-.42-1.29A1.42,1.42,0,0,0,213.88,110.05Z" transform="translate(-58.16 -26.84)"/><path class="cls-10" d="M206.78,110.27,205,111.62a1.18,1.18,0,0,1,.3-1.31A1.39,1.39,0,0,1,206.78,110.27Z" transform="translate(-58.16 -26.84)"/></g><g id="Character"><path class="cls-6" d="M296.07,270.49c-10.24,7.11-21.78,12-30.34,21.57-16,17.82-16.35,46.49-3.8,66.87s35.9,32.62,59.67,35.42c24.94,2.94,51.11-4,70.67-19.69s32-40.33,32-65.45-12.88-50.11-33.91-63.83c-19.19-12.52-46.76-16.09-66-1.77-9.73,7.24-16.22,17.93-25.93,25.19C297.65,269.38,296.86,269.94,296.07,270.49Z" transform="translate(-58.16 -26.84)"/><path class="cls-8" d="M296.07,270.49c-10.24,7.11-21.78,12-30.34,21.57-16,17.82-16.35,46.49-3.8,66.87s35.9,32.62,59.67,35.42c24.94,2.94,51.11-4,70.67-19.69s32-40.33,32-65.45-12.88-50.11-33.91-63.83c-19.19-12.52-46.76-16.09-66-1.77-9.73,7.24-16.22,17.93-25.93,25.19C297.65,269.38,296.86,269.94,296.07,270.49Z" transform="translate(-58.16 -26.84)"/><path class="cls-19" d="M300.25,374.88c0-.17,0-.34.07-.51a27,27,0,0,1,21.85-22.47,85.18,85.18,0,0,0,28-10.72c6.11-3.7,11.89-8.23,18.75-10.24a30.58,30.58,0,0,1,20.22,1.18c-5.76-6.06-15.65-8.72-23.55-6,5.47-8.37,10.28-17.39,12.16-27.21s.55-20.59-5.37-28.65a28.84,28.84,0,0,0-44.51-2.38c-5.86,6.42-9.17,15.44-13,23.24-2.77,5.59-5.63,11.32-10.19,15.58-6.88,6.44-16.77,8.76-23.91,14.92-8.08,7-11.57,18.14-11.61,28.82a84.79,84.79,0,0,0,3.13,21.31,81.09,81.09,0,0,0,29.25,17.89A31.67,31.67,0,0,1,300.25,374.88Z" transform="translate(-58.16 -26.84)"/><path class="cls-14" d="M410.89,305.77a73.3,73.3,0,0,0-62.52-71.16,52.43,52.43,0,0,0-7.07,1.19,71.47,71.47,0,0,1,67.66,70c.45,23.37-11,47.19-30.59,63.72-15.36,13-35.77,21.54-58.21,24.64l1.44.18c2,.24,4,.41,6.07.52,19.93-3.87,38-12.09,51.95-23.86C399.67,354.1,411.36,329.72,410.89,305.77Z" transform="translate(-58.16 -26.84)"/><path class="cls-20" d="M272.79,370.51a69.14,69.14,0,0,1,1.2,11.21l2.66-1A6.88,6.88,0,0,1,284,382.4l.13.14a2.68,2.68,0,0,0,3.69.17h0a2.68,2.68,0,0,0,.92-1.94l.36-11.31Z" transform="translate(-58.16 -26.84)"/><path class="cls-14" d="M283.05,412.58c-5.52,5.9-15.68,11.06-23.06,6l.83,1.87c7.38,5,17.54-.12,23.06-6s1.94-10,6.9-15.23a18.15,18.15,0,0,0,4.3-6.38c-.22-.56-.43-1.3-.69-2.14a22.88,22.88,0,0,1-4.43,6.64C285,402.59,288.57,406.68,283.05,412.58Z" transform="translate(-58.16 -26.84)"/><path class="cls-6" d="M291.67,384.54a10.67,10.67,0,0,1-1.74-4,2.3,2.3,0,0,0-1.09-1.64l-.06,1.89a2.68,2.68,0,0,1-4.61,1.77l-.13-.14a6.88,6.88,0,0,0-7.39-1.68l-2.7,1a2.07,2.07,0,0,0-1.35,2c.17,7.74-3.44,18-7.23,23.67-3.9,1.61-7.27,6.92-5.55,10.82l.17.39c7.38,5,17.54-.13,23.06-6s1.94-10,6.91-15.23a22.88,22.88,0,0,0,4.43-6.64A24.47,24.47,0,0,0,291.67,384.54Z" transform="translate(-58.16 -26.84)"/><path class="cls-14" d="M280.87,395.72a.95.95,0,0,0,.87-1.68,10.78,10.78,0,0,0-10.6,0c-.17.61-.34,1.22-.53,1.82A10.37,10.37,0,0,1,280.87,395.72Z" transform="translate(-58.16 -26.84)"/><path class="cls-14" d="M282.23,391.53a.94.94,0,0,0,.87-1.67,11.32,11.32,0,0,0-11,.09c-.11.63-.24,1.26-.38,1.89C274.91,390.15,278.15,389.47,282.23,391.53Z" transform="translate(-58.16 -26.84)"/><path class="cls-14" d="M279.38,399.88a.94.94,0,0,0,.87-1.67,10.75,10.75,0,0,0-10.38-.11c-.23.66-.48,1.3-.73,1.93A10.38,10.38,0,0,1,279.38,399.88Z" transform="translate(-58.16 -26.84)"/><path class="cls-14" d="M265.37,407.4c-3.9,1.61-7.27,6.92-5.55,10.82l.17.39c7.28,5,17.24,0,22.81-5.77C278.15,403.73,268.44,406,265.37,407.4Z" transform="translate(-58.16 -26.84)"/><path class="cls-14" d="M277.75,404a.94.94,0,0,0,1.25-.43.93.93,0,0,0-.39-1.25,10.74,10.74,0,0,0-10.39-.09c-.33.72-.67,1.41-1,2.08C270.42,402.56,273.67,401.88,277.75,404Z" transform="translate(-58.16 -26.84)"/><path class="cls-20" d="M261.19,393a69.18,69.18,0,0,1-3.43,10.74l2.84.15a6.87,6.87,0,0,1,6.08,4.52l.07.18a2.67,2.67,0,0,0,3.31,1.65h0a2.68,2.68,0,0,0,1.62-1.4l4.89-10.21Z" transform="translate(-58.16 -26.84)"/><path class="cls-14" d="M253.6,435.65c-7.43,3.17-18.81,3.79-23.53-3.8v2.06c4.72,7.58,16.1,7,23.53,3.79s5.81-8.36,12.46-11.15a18,18,0,0,0,6.51-4.1c0-.6.13-1.36.23-2.24a22.78,22.78,0,0,1-6.74,4.29C259.41,427.29,261,432.47,253.6,435.65Z" transform="translate(-58.16 -26.84)"/><path class="cls-6" d="M272.8,413.47a10.6,10.6,0,0,1,0-4.38,2.34,2.34,0,0,0-.34-1.94l-.82,1.71a2.67,2.67,0,0,1-4.93-.25l-.07-.18a6.87,6.87,0,0,0-6.08-4.52l-2.88-.16a2.09,2.09,0,0,0-2,1.28c-3,7.15-10.43,15.1-16.18,18.74-4.21-.1-9.44,3.4-9.44,7.66v.42c4.72,7.59,16.1,7,23.53,3.8s5.81-8.36,12.46-11.15a22.78,22.78,0,0,0,6.74-4.29A24.27,24.27,0,0,0,272.8,413.47Z" transform="translate(-58.16 -26.84)"/><path class="cls-14" d="M258.41,419.34a1,1,0,0,0,1.32.12.93.93,0,0,0,.15-1.3,10.77,10.77,0,0,0-9.7-4.27c-.4.49-.8,1-1.22,1.46A10.36,10.36,0,0,1,258.41,419.34Z" transform="translate(-58.16 -26.84)"/><path class="cls-14" d="M261.34,416.06a1,1,0,0,0,1.32.12.93.93,0,0,0,.15-1.3,11.33,11.33,0,0,0-10.12-4.38c-.36.54-.73,1.06-1.12,1.59C255.2,411.83,258.44,412.52,261.34,416.06Z" transform="translate(-58.16 -26.84)"/><path class="cls-14" d="M255.37,422.54a.94.94,0,0,0,1.47-1.18,10.8,10.8,0,0,0-9.45-4.28c-.48.51-1,1-1.46,1.47A10.39,10.39,0,0,1,255.37,422.54Z" transform="translate(-58.16 -26.84)"/><path class="cls-14" d="M239.51,423.77c-4.21-.1-9.44,3.4-9.44,7.66v.42c4.65,7.48,15.76,7,23.19,3.93C252.69,425.57,242.89,423.73,239.51,423.77Z" transform="translate(-58.16 -26.84)"/><path class="cls-14" d="M252.23,425.61a1,1,0,0,0,1.32.12.93.93,0,0,0,.15-1.3,10.72,10.72,0,0,0-9.47-4.28c-.59.52-1.18,1-1.77,1.49C246.09,421.38,249.33,422.07,252.23,425.61Z" transform="translate(-58.16 -26.84)"/><path class="cls-7" d="M304.84,296.36l-37.19,20.72a18.43,18.43,0,0,0-9.15,19.47l7.22,38.88-5.92,18.81c5.1,6.85,16.83,7.19,16.83,7.19,6.54-13.12,11.34-18.69,15.06-29.68s6.19-18.58,6.19-18.58l30.89-8.44a36.62,36.62,0,0,0,26.77-31.15c.52-4.67.55-7.86.55-7.86Z" transform="translate(-58.16 -26.84)"/><path class="cls-16" d="M305.13,306.81a17.55,17.55,0,0,0,4.16,11.33L283,334.57a18.87,18.87,0,0,0-8,10.48l-9.29,30.38,8.38-33.84a15.28,15.28,0,0,1,6.82-9.35l24.23-15C302.68,311.06,305.13,306.81,305.13,306.81Z" transform="translate(-58.16 -26.84)"/><path class="cls-6" d="M296.65,277.58c-2.65,5-21.52,2.76-20.73-5.42C280.88,261.81,296.5,268.49,296.65,277.58Z" transform="translate(-58.16 -26.84)"/><path class="cls-20" d="M308.87,232.45h-1c-6.42.07-14.55,4.44-18.52,15.66L274,278l17.62,7.82,9.64-28.22Z" transform="translate(-58.16 -26.84)"/><path class="cls-21" d="M296.5,252.29c-1.23,3.53-1.31,7.34-1.5,11.07s-.63,8.25-2.34,11.57a10.62,10.62,0,0,0-12.7.46,9.9,9.9,0,0,0-2.86,4l14.47,6.42,9.64-28.22L306,242.05A18,18,0,0,0,296.5,252.29Z" transform="translate(-58.16 -26.84)"/><path class="cls-20" d="M291.73,280.43a10.51,10.51,0,0,0-8-6.44c-3.53-.57-7.53,1.27-9.81,4-1.92,2.33-1.62,5.47-.41,8.23a10.27,10.27,0,0,0,11.76,5.57C289.85,290.54,293.45,284.84,291.73,280.43Z" transform="translate(-58.16 -26.84)"/><path class="cls-6" d="M308.87,232.45c-7.68-.85-17.46,1-32.95,39.71,9.13-9.06,20.73,5.42,20.73,5.42C303.28,262,315,235.93,315,235.93Z" transform="translate(-58.16 -26.84)"/><path class="cls-12" d="M308.87,232.45c-7.68-.85-17.46,1-32.95,39.71,9.13-9.06,20.73,5.42,20.73,5.42C303.28,262,315,235.93,315,235.93Z" transform="translate(-58.16 -26.84)"/><path class="cls-6" d="M359.9,322.92C345,335.3,314.56,305.34,298.23,300c5-11.41,5-21.82,4-33.33s-7.76-31.65,5.09-34c17.16-3.35,25.83-.27,39.84,3.37C367.26,265,360.93,301.31,359.9,322.92Z" transform="translate(-58.16 -26.84)"/><path class="cls-22" d="M359.9,322.92C345,335.3,314.56,305.34,298.23,300c5-11.41,5-21.82,4-33.33s-7.76-31.65,5.09-34c17.16-3.35,25.83-.27,39.84,3.37C367.26,265,360.93,301.31,359.9,322.92Z" transform="translate(-58.16 -26.84)"/><path class="cls-20" d="M314.79,226.85l.67,7.44a2.8,2.8,0,0,1-.42,1.64,4.2,4.2,0,0,0,.65,4.86,5.59,5.59,0,0,0,3.33,1.13,16.14,16.14,0,0,0,12.3-4.74,3.5,3.5,0,0,0,1-2.55l-.49-18.88Z" transform="translate(-58.16 -26.84)"/><path class="cls-21" d="M331.8,215.75l-17,11.1.59,6.6c3.61-.85,7.24-1.89,10.09-4.21C329.1,226.29,332.29,223.36,331.8,215.75Z" transform="translate(-58.16 -26.84)"/><path class="cls-10" d="M337,204.32a10,10,0,0,0,2.36-7.2,10.88,10.88,0,0,0-3.67-7,7.6,7.6,0,0,0-.64-8.23,7.5,7.5,0,0,0-7.87-2.25,9.21,9.21,0,0,0-6.83-3.81c-2.7-.18-5.39.3-7.22,2.28a8.19,8.19,0,0,0-7.18-.62,9,9,0,0,0-5,5.69,8,8,0,0,0-7.36,2.42c-1.81,2-2.4,5.82-1.6,8.4a7.07,7.07,0,0,0,2.57,10.2,8.91,8.91,0,0,0,5.83,9.49,10.29,10.29,0,0,0,7.29,6.15,20.16,20.16,0,0,0,10-.8C325.52,216.64,331.61,210.56,337,204.32Z" transform="translate(-58.16 -26.84)"/><path class="cls-20" d="M320.54,195a12,12,0,0,0,1.35,3.57,5,5,0,0,0,3.61,2.48.78.78,0,0,1,.66.69L327,208a2.57,2.57,0,0,0,.92,2,1.73,1.73,0,0,0,1.93-.32A5,5,0,0,0,331,208a15.12,15.12,0,0,1,2.23-3.76,5.12,5.12,0,0,1,3.81-1.88c2.39.06,4.21,2.44,4.46,4.82a7.41,7.41,0,0,1-2.76,6.5,7.28,7.28,0,0,1-6.95.83c1.08,4.14-1.08,8.58-4.31,11.39s-7.34,4.33-11.36,5.79c-2.2.8-4.53,1.6-6.82,1.18a8.64,8.64,0,0,1-4.77-2.94,20.75,20.75,0,0,1-2.93-4.87,66.52,66.52,0,0,1-6.1-25.14C298.73,199.51,318.71,195.72,320.54,195Z" transform="translate(-58.16 -26.84)"/><polygon class="cls-18" points="251.26 183.93 247.89 192.82 253.78 192.89 251.26 183.93"/><polygon class="cls-21" points="251.26 183.93 247.89 192.82 253.78 192.89 251.26 183.93"/><path class="cls-18" d="M317.92,221.54l-4,2.87a2.89,2.89,0,0,0,3.45.36A2.6,2.6,0,0,0,317.92,221.54Z" transform="translate(-58.16 -26.84)"/><path class="cls-23" d="M317.92,221.54l-4,2.87a2.89,2.89,0,0,0,3.45.36A2.6,2.6,0,0,0,317.92,221.54Z" transform="translate(-58.16 -26.84)"/><path class="cls-18" d="M315.93,225.17a2.65,2.65,0,0,0,1.48-.4,2.35,2.35,0,0,0,.76-2.49,2.79,2.79,0,0,0-1.61.89A2.75,2.75,0,0,0,315.93,225.17Z" transform="translate(-58.16 -26.84)"/><path class="cls-10" d="M317.73,209.64a1.66,1.66,0,1,1-2.05-1.16A1.66,1.66,0,0,1,317.73,209.64Z" transform="translate(-58.16 -26.84)"/><path class="cls-10" d="M304.14,212.9a1.66,1.66,0,1,1-2.05-1.16A1.67,1.67,0,0,1,304.14,212.9Z" transform="translate(-58.16 -26.84)"/><path class="cls-10" d="M300.79,207l-2.86,3.45a2.36,2.36,0,0,1,0-2.71A2.81,2.81,0,0,1,300.79,207Z" transform="translate(-58.16 -26.84)"/><path class="cls-10" d="M314.45,202.91l4.24,1.46a2.37,2.37,0,0,0-1.4-2.32A2.82,2.82,0,0,0,314.45,202.91Z" transform="translate(-58.16 -26.84)"/><g class="cls-1"><path class="cls-4" d="M309.91,307.85v0h0v0s0,0,0-.06l0-.05a.14.14,0,0,0,0-.06.14.14,0,0,1,0-.06l0-.06,0-.06h0L298.23,286l0-.06,0-.06,0-.07-.05-.06a.43.43,0,0,0,0-.07l0-.07-.06-.07-.05-.07-.05-.06-.05-.06,0-.05,0-.05,0,0,0,0,0,0,0,0,0,0,0,0,0,0,0,0,0,0,0,0,0,0,0,0,0,0,0,0,0,0,0,0,0,0,0,0,0,0,0,0,0,0,0,0,0,0,0,0-.17-.15,0,0,0,0,0,0,0,0,0,0,0,0,0,0,0,0,0,0,0,0,0,0,0,0,0,0h0l0,0,0,0,0,0,0,0,0,0,0,0,0,0,0,0,0,0,0,0,0,0,0,0-.06,0-.06,0-.06-.05-.07,0-.07,0-.08-.05,0,0-13.26-7.46,0,0-.08,0-.07,0-.08,0-.07,0-.07,0-.07,0-.07,0-.07,0-.07,0h-.25a.26.26,0,0,0-.2.08l-1.58,1.81h.05c-.13.1-.14.31.05.66l11.54,21.48a7.4,7.4,0,0,0,2.54,2.41l13.26,7.46c.69.38,1.1.39,1.15.11,0,0,0,.1,0,.12h0l1.58-1.82a.12.12,0,0,0,0-.08.19.19,0,0,0,0-.07A.2.2,0,0,0,309.91,307.85ZM280,277.6s.05,0,.09,0h0l0,0A.66.66,0,0,0,280,277.6Zm15.21,8.56c.12.11.25.2.36.31h0C295.47,286.36,295.34,286.27,295.22,286.16Zm.83.81.16.17h0Zm12.27,22.71a.86.86,0,0,0-.14-.43,1.14,1.14,0,0,1,.15.39h0S308.32,309.66,308.32,309.68Z" transform="translate(-58.16 -26.84)"/></g><path class="cls-24" d="M309.91,307.85v0h0v0s0,0,0-.06l0-.05a.14.14,0,0,0,0-.06.14.14,0,0,1,0-.06l0-.06,0-.06h0L298.23,286l-1.58,1.81,11.53,21.48a1.14,1.14,0,0,1,.15.39h0a.29.29,0,0,1-.05.24h0l1.58-1.82a.12.12,0,0,0,0-.08.19.19,0,0,0,0-.07A.2.2,0,0,0,309.91,307.85Z" transform="translate(-58.16 -26.84)"/><path class="cls-16" d="M298.2,285.9l0-.06,0-.07-.05-.06a.43.43,0,0,0,0-.07l0-.07-.06-.07-.05-.07-.05-.06-.05-.06,0-.05,0-.05,0,0,0,0,0,0,0,0,0,0,0,0,0,0,0,0,0,0,0,0,0,0,0,0,0,0,0,0,0,0,0,0,0,0,0,0,0,0,0,0,0,0,0,0,0,0,0,0-.17-.15,0,0,0,0,0,0,0,0,0,0,0,0,0,0,0,0,0,0,0,0,0,0,0,0,0,0h0l0,0,0,0,0,0,0,0,0,0,0,0,0,0,0,0,0,0,0,0,0,0,0,0-.06,0-.06,0-.06-.05-.07,0-.07,0-.08-.05,0,0-13.26-7.46,0,0-.08,0-.07,0-.08,0-.07,0-.07,0-.07,0-.07,0-.07,0-.07,0h-.25a.26.26,0,0,0-.2.08l-1.58,1.81c.07-.08.2-.1.39-.07h0a2.69,2.69,0,0,1,.73.31l13.26,7.46a7.51,7.51,0,0,1,.75.5h0a8.54,8.54,0,0,1,.73.62h0a7.74,7.74,0,0,1,.63.67h0a4.88,4.88,0,0,1,.44.63l1.58-1.81Z" transform="translate(-58.16 -26.84)"/><path class="cls-20" d="M355.64,241.88c-1.88-3.23-4.76-5.5-8.49-5.79l-2.23,3.41a28.24,28.24,0,0,0-3.46,13.87l.4,35.83h0l-2.63,1.1a107.26,107.26,0,0,1-23.05,7,22.83,22.83,0,0,0-14.54-4.93l2,3.64c-3.71,2.37-12.08-1.9-12.08-1.9-.62,5.22,2.77,10.64,7.25,13.39s47.33-1.29,56.41-7.17c6-3.87,4.56-40.82,4.56-40.82A30.77,30.77,0,0,0,355.64,241.88Z" transform="translate(-58.16 -26.84)"/><path class="cls-20" d="M282.47,283.25a26.23,26.23,0,0,0-.49,4.29,15.72,15.72,0,0,0,4.14,9.16,4.66,4.66,0,0,0,1.77,1.25,2.1,2.1,0,0,0,2.07-.32,3.12,3.12,0,0,0,.72-2.16,11.86,11.86,0,0,0-.19-3.47,4.9,4.9,0,0,0-1.83-2.88,10.69,10.69,0,0,0-2.32-1,5.64,5.64,0,0,1-2.07-1.5Z" transform="translate(-58.16 -26.84)"/><path class="cls-6" d="M347.15,236.09c16.28,3.51,14.73,20,16.3,30.27,1,6.09,2.52,19.47,2.52,19.47-8.87,8.2-24.62,2.8-28.54-1.46C338.91,263.75,335.9,239.59,347.15,236.09Z" transform="translate(-58.16 -26.84)"/><path class="cls-12" d="M347.15,236.09c16.28,3.51,14.73,20,16.3,30.27,1,6.09,2.52,19.47,2.52,19.47-8.87,8.2-24.62,2.8-28.54-1.46C338.91,263.75,335.9,239.59,347.15,236.09Z" transform="translate(-58.16 -26.84)"/></g><g id="Plant"><path class="cls-14" d="M457.86,336.88l-16.53.48-16.53-.48c-.71,11.16,1.46,22.54,4.47,28.1h0a7.62,7.62,0,0,0,3.27,3.33c4.88,2.81,12.76,2.81,17.61,0a7.36,7.36,0,0,0,3.27-3.42C456.41,359.3,458.57,348,457.86,336.88Z" transform="translate(-58.16 -26.84)"/><path class="cls-5" d="M453,330.11c6.48,3.74,6.51,9.8.08,13.54s-16.91,3.74-23.38,0-6.51-9.8-.08-13.54S446.5,326.37,453,330.11Z" transform="translate(-58.16 -26.84)"/><path class="cls-4" d="M450.42,331.6c5.05,2.91,5.08,7.64.06,10.56s-13.19,2.92-18.24,0-5.08-7.65-.06-10.56S445.37,328.68,450.42,331.6Z" transform="translate(-58.16 -26.84)"/><g class="cls-25"><path d="M450.42,331.6c5.05,2.91,5.08,7.64.06,10.56s-13.19,2.92-18.24,0-5.08-7.65-.06-10.56S445.37,328.68,450.42,331.6Z" transform="translate(-58.16 -26.84)"/></g><path class="cls-6" d="M468.51,266.34c-37.26,12.2-37.59,37.12-29.19,54.87,2.11,3.59,8.52,5.52,14.1-16.56l-9.78,1.26,11.4-5.78,3-8.85-9.5.7,12.06-5.07A178.7,178.7,0,0,1,468.51,266.34Z" transform="translate(-58.16 -26.84)"/><path class="cls-16" d="M468.51,266.34c-37.26,12.2-37.59,37.12-29.19,54.87,2.11,3.59,8.52,5.52,14.1-16.56l-9.78,1.26,11.4-5.78,3-8.85-9.5.7,12.06-5.07A178.7,178.7,0,0,1,468.51,266.34Z" transform="translate(-58.16 -26.84)"/><path class="cls-12" d="M468.51,266.34c-37.26,12.2-37.59,37.12-29.19,54.87,2.11,3.59,8.52,5.52,14.1-16.56l-9.78,1.26,11.4-5.78,3-8.85-9.5.7,12.06-5.07A178.7,178.7,0,0,1,468.51,266.34Z" transform="translate(-58.16 -26.84)"/><path class="cls-14" d="M458,272.57c-19.64,14.91-21.42,32-15.87,49.85C440.14,306.71,438,290.82,458,272.57Z" transform="translate(-58.16 -26.84)"/><path class="cls-6" d="M405.41,291.65c36.72,5.17,41.18,28.33,36.3,46.25-1.37,3.7-7,6.56-15.88-13.07l9.32-.45-11.58-3.49-4.23-7.76,9-.92-12.08-2.72A169.41,169.41,0,0,0,405.41,291.65Z" transform="translate(-58.16 -26.84)"/><path class="cls-12" d="M405.41,291.65c36.72,5.17,41.18,28.33,36.3,46.25-1.37,3.7-7,6.56-15.88-13.07l9.32-.45-11.58-3.49-4.23-7.76,9-.92-12.08-2.72A169.41,169.41,0,0,0,405.41,291.65Z" transform="translate(-58.16 -26.84)"/><path class="cls-19" d="M405.41,291.65c36.72,5.17,41.18,28.33,36.3,46.25-1.37,3.7-7,6.56-15.88-13.07l9.32-.45-11.58-3.49-4.23-7.76,9-.92-12.08-2.72A169.41,169.41,0,0,0,405.41,291.65Z" transform="translate(-58.16 -26.84)"/><path class="cls-14" d="M416.26,295.71C437,306.33,441.52,322,439.32,339.5,438.54,324.54,437.87,309.39,416.26,295.71Z" transform="translate(-58.16 -26.84)"/><path class="cls-6" d="M479.26,300.33c-33.68.55-40.29,20.92-37.9,37.62.82,3.49,5.6,6.7,15.78-10l-8.35-1.45,10.83-1.85,4.68-6.52-8-1.83,11.19-1.1A154.33,154.33,0,0,1,479.26,300.33Z" transform="translate(-58.16 -26.84)"/><path class="cls-14" d="M469,302.77c-19.91,7.25-25.71,20.83-25.68,36.89C445.72,326.26,448,312.68,469,302.77Z" transform="translate(-58.16 -26.84)"/><path class="cls-12" d="M479.26,300.33c-33.68.55-40.29,20.92-37.9,37.62.82,3.49,5.6,6.7,15.78-10l-8.35-1.45,10.83-1.85,4.68-6.52-8-1.83,11.19-1.1A154.33,154.33,0,0,1,479.26,300.33Z" transform="translate(-58.16 -26.84)"/></g></svg>