<svg id="Layer_1" data-name="Layer 1" xmlns="http://www.w3.org/2000/svg" viewBox="0 0 193.06 188.73"><path d="M196.18,147.28a50.29,50.29,0,0,1-5.8,17.44,65.09,65.09,0,0,1-6.89,10.19,70.71,70.71,0,0,1-9.28,9.67A41.39,41.39,0,0,1,144,194.23a43.83,43.83,0,0,1-16.72-4.54c-4.13-2.11-8.13-4.5-12-7a119.2,119.2,0,0,1-21.47-17.92q-11.11-11.52-22.2-23-13.21-13.8-26.36-27.66a8.35,8.35,0,0,1-2.42-5.95c0-.66.23-3.2,3.48-5.85,3.71-2.17,5.81-1.74,7-1.46a8.27,8.27,0,0,1,3.9,2.3L86,132c1.49,1.49,3.43,1.17,4-.67a2.28,2.28,0,0,0-.72-2.41Q83.32,123,77.41,117.05L56.83,96.51c-.28-.28-.5-.63-.79-.92-2.11-2.08-4.24-4.14-6.35-6.24a12.3,12.3,0,0,1-3.08-3.82,7.89,7.89,0,0,1,1-8.33,8.39,8.39,0,0,1,7.57-3.61c2.48.18,4.29,1.54,6,3.24Q72.76,88.47,84.38,100c4.07,4.07,8.12,8.14,12.2,12.19a2.16,2.16,0,0,0,3.16.06,2.12,2.12,0,0,0,0-3.2Q92,101.37,84.27,93.65q-11-11-22-22.05c-2.84-2.84-5.67-5.71-8.54-8.53A8,8,0,0,1,53,51.88a10.83,10.83,0,0,1,4.52-3.37,6.11,6.11,0,0,1,6.65,1.32c3,2.68,5.74,5.53,8.56,8.35Q92.21,77.59,111.63,97c1.05,1,1.85,1.28,2.79.84,1.63-.78,1.87-2.53.51-3.9-3-3-6-6-8.94-8.94Q91.48,70.52,77,56c-2.29-2.3-3.63-5-3.12-8.31a6.86,6.86,0,0,1,1.06-2.81,8.92,8.92,0,0,1,4.59-3.74A7.85,7.85,0,0,1,87.83,43c3.57,3.46,7.06,7,10.58,10.51.57.57,1.11,1.18,1.69,1.74.3.28,2.17,2.14,2.77,2.74q8.63,8.63,17.23,17.28t17.24,17.26l19.2,19.2c1.55,1.54,3.08,3.09,4.62,4.64a2.4,2.4,0,0,0,3.05.63,2.3,2.3,0,0,0,.89-2.89,15.68,15.68,0,0,1-.6-1.91q-2.12-6.24-4.22-12.49-3.17-9.48-6.34-19a16,16,0,0,1-1.07-6.06,7.75,7.75,0,0,1,3.56-6.09,9.15,9.15,0,0,1,5.38-1.85,8.58,8.58,0,0,1,8.07,5.68c1.34,3.24,2.76,6.43,4.15,9.64l5.12,11.85c1.34,3.08,2.7,6.16,4,9.25,1.74,4,3.44,8,5.19,12q2.3,5.2,4.67,10.38a36.77,36.77,0,0,1,2.78,8.78A41.8,41.8,0,0,1,196.18,147.28Z" transform="translate(-3.47 -5.64)"/><path d="M144.3,52a3.17,3.17,0,0,1-2.15,2.89,3.05,3.05,0,0,1-3.67-1.47,71.49,71.49,0,0,0-11-13.9,118.32,118.32,0,0,0-15.35-13.09,102.16,102.16,0,0,0-16-9.72c-3.46-1.65-7.08-3-10.65-4.39-1-.41-2.19-.55-3.2-1a2.85,2.85,0,0,1-1.37-3.7,3,3,0,0,1,3.52-1.84,67.18,67.18,0,0,1,14,5.28,114.73,114.73,0,0,1,19.14,11.89c3,2.3,5.86,4.8,8.76,7.24A89.29,89.29,0,0,1,138.07,42.2a51.59,51.59,0,0,1,5.73,8.26A9.31,9.31,0,0,1,144.3,52Z" transform="translate(-3.47 -5.64)"/><path d="M52.52,162.48a3,3,0,0,1-4,1.35A50.64,50.64,0,0,1,40,158,105.69,105.69,0,0,1,28.55,147,140.4,140.4,0,0,1,17,132.2a122.15,122.15,0,0,1-7.44-12.5A83.17,83.17,0,0,1,4,106.14a18.16,18.16,0,0,1-.49-2,3.11,3.11,0,0,1,2.24-3.37,3,3,0,0,1,3.58,1.84c.79,2.3,1.44,4.66,2.34,6.92,1.09,2.71,2.32,5.38,3.63,8,1.08,2.17,2.38,4.23,3.57,6.34.08.14,3.33,5.24,4,6.18a117,117,0,0,0,13.28,16.1c1.67,1.68,3.43,3.28,5.16,4.9a36.9,36.9,0,0,0,3.3,3c2.06,1.49,4.19,2.91,6.36,4.24C52.67,159.28,53.31,160.77,52.52,162.48Z" transform="translate(-3.47 -5.64)"/><path d="M122,57.31a3.29,3.29,0,0,1-2.82-1.81,55.38,55.38,0,0,0-9.55-10.33A79.17,79.17,0,0,0,92.71,33.7c-2-1-4.09-1.74-6.16-2.53a3,3,0,0,1,1.89-5.75,55,55,0,0,1,12.4,5.81,90.31,90.31,0,0,1,14.09,10.52,61.71,61.71,0,0,1,9.19,10.18c1,1.51,1.23,2.87.46,4A2.89,2.89,0,0,1,122,57.31Z" transform="translate(-3.47 -5.64)"/><path d="M55.18,142a2.77,2.77,0,0,1-2,2.85,4.07,4.07,0,0,1-2.08-.26,13.15,13.15,0,0,1-4-2.51,84.76,84.76,0,0,1-17.53-20.54A61.6,61.6,0,0,1,24,110.56c-.46-1.24-1.15-2.45-.74-3.88a3.19,3.19,0,0,1,2.89-2.26,3.5,3.5,0,0,1,3,2.23A65.46,65.46,0,0,0,31.77,113a75.91,75.91,0,0,0,8.54,13.24,67.71,67.71,0,0,0,11.58,11.8c.59.45,1.21.87,1.83,1.28A3,3,0,0,1,55.18,142Z" transform="translate(-3.47 -5.64)"/></svg>