<svg xmlns="http://www.w3.org/2000/svg" viewBox="0 0 486.01 477.5"><defs><style>.cls-1,.cls-2{fill:#fcf;}.cls-2{opacity:0.7;}.cls-3{fill:none;}.cls-3,.cls-4,.cls-5,.cls-7,.cls-8{stroke:#263238;stroke-linecap:round;stroke-linejoin:round;}.cls-4{fill:#f6f;}.cls-5{fill:#939;}.cls-6,.cls-8{fill:#263238;}.cls-7{fill:#fff;}</style></defs><g id="Background_Simple" data-name="Background Simple"><path class="cls-1" d="M273.59,16.87c43.48,8.75,92.89,32.93,113.09,74.87,30.53,63.36,85.44,62.72,99.55,182.71a244,244,0,0,1,.7,52.75,205.25,205.25,0,0,1-4.18,25.52C465.69,426.87,409.44,473.13,345,486.55c-84.78,17.66-135-35.42-165.08-70.34S50,349.4,35.2,231.55a235.7,235.7,0,0,1-.75-54.21c4.36-41.15,21.55-85,52.33-113.85q3.47-3.24,7.15-6.28C141.83,17.56,214.31,4.94,273.59,16.87Z" transform="translate(-6.96 -12.56)"/><path class="cls-2" d="M273.59,16.87c43.48,8.75,92.89,32.93,113.09,74.87,30.53,63.36,85.44,62.72,99.55,182.71a244,244,0,0,1,.7,52.75,205.25,205.25,0,0,1-4.18,25.52C465.69,426.87,409.44,473.13,345,486.55c-84.78,17.66-135-35.42-165.08-70.34S50,349.4,35.2,231.55a235.7,235.7,0,0,1-.75-54.21c4.36-41.15,21.55-85,52.33-113.85q3.47-3.24,7.15-6.28C141.83,17.56,214.31,4.94,273.59,16.87Z" transform="translate(-6.96 -12.56)"/></g><g id="Graphics"><line class="cls-3" x1="46.77" y1="45.12" x2="60.73" y2="59.08"/><line class="cls-3" x1="60.73" y1="45.12" x2="46.77" y2="59.08"/><line class="cls-3" x1="440.39" y1="411.85" x2="454.35" y2="425.81"/><line class="cls-3" x1="454.35" y1="411.85" x2="440.39" y2="425.81"/><line class="cls-3" x1="131.91" y1="119.05" x2="141.41" y2="128.54"/><line class="cls-3" x1="141.41" y1="119.05" x2="131.91" y2="128.54"/><line class="cls-3" x1="373.57" y1="345.36" x2="383.06" y2="354.85"/><line class="cls-3" x1="383.06" y1="345.36" x2="373.57" y2="354.85"/><line class="cls-3" x1="84.52" y1="432" x2="94.01" y2="441.49"/><line class="cls-3" x1="94.01" y1="432" x2="84.52" y2="441.49"/><line class="cls-3" x1="370.58" y1="18.21" x2="380.08" y2="27.7"/><line class="cls-3" x1="380.08" y1="18.21" x2="370.58" y2="27.7"/><path class="cls-3" d="M68.85,112.93a6,6,0,1,0-6,6A6,6,0,0,0,68.85,112.93Z" transform="translate(-6.96 -12.56)"/><path class="cls-3" d="M261.55,33.76a6,6,0,1,0-6,6A6,6,0,0,0,261.55,33.76Z" transform="translate(-6.96 -12.56)"/><circle class="cls-3" cx="440.58" cy="352.08" r="5.98"/><path class="cls-3" d="M221.22,472.19a6,6,0,1,0-6,6A6,6,0,0,0,221.22,472.19Z" transform="translate(-6.96 -12.56)"/><path class="cls-3" d="M129.35,316.84a6,6,0,1,0-6,6A6,6,0,0,0,129.35,316.84Z" transform="translate(-6.96 -12.56)"/><path class="cls-3" d="M485.63,135.34a6,6,0,1,0-6,6A6,6,0,0,0,485.63,135.34Z" transform="translate(-6.96 -12.56)"/></g><g id="Table"><line class="cls-3" x1="485.51" y1="222.61" x2="0.5" y2="222.61"/></g><g id="Plant"><path class="cls-4" d="M47.28,292.92l2.63,23.91c0,7,11.79,12.72,26.33,12.72s26.32-5.69,26.32-12.72l2.64-23.91Z" transform="translate(-6.96 -12.56)"/><path class="cls-4" d="M45.39,278.78v14.74c0,3.77,13.81,8.46,30.85,8.46s30.85-4.69,30.85-8.46V278.78Z" transform="translate(-6.96 -12.56)"/><ellipse class="cls-5" cx="69.28" cy="266.23" rx="30.85" ry="8.74"/><ellipse class="cls-6" cx="69.28" cy="266.23" rx="24.04" ry="6.81"/><path class="cls-6" d="M23.25,193.46c2.85.78,9.4-.32,9.41-.32s-2-4.1-2.2-4.34c-1.88-2.81-7.16-7.12-10.8-6.08a4.46,4.46,0,0,0-2.75,6.06C17.9,191.26,20.81,192.79,23.25,193.46Z" transform="translate(-6.96 -12.56)"/><path class="cls-6" d="M89.91,185.27c.06,0,.56-4.54.56-4.84,0-3.37-2-9.89-5.65-11A4.49,4.49,0,0,0,79.18,173c-.54,2.61,1,5.49,2.71,7.39C83.84,182.57,89.91,185.26,89.91,185.27Z" transform="translate(-6.96 -12.56)"/><path class="cls-6" d="M106.07,158.61c-3.78.14-7.46,5.88-8.38,9.13-.08.29-.81,4.82-.75,4.81H97c-.58.9-1.21,1.87-1.86,3-1.2,2-2.53,4.27-3.82,6.84a79.43,79.43,0,0,0-3.75,8.48,58.67,58.67,0,0,0-2.81,10,.57.57,0,0,0,0,.13c-.14-1.1-.64-4.16-.7-4.39-.91-3.26-4.58-9-8.36-9.15a4.48,4.48,0,0,0-4.51,4.91c.17,2.66,2.46,5,4.56,6.41,2.38,1.57,8.47,2.55,8.95,2.62a80,80,0,0,0-1,10.53q-.09,3.07,0,6.2c-.15-.95-.3-1.79-.33-1.91-.91-3.25-4.58-9-8.36-9.15a4.49,4.49,0,0,0-4.51,4.91c.17,2.66,2.46,5,4.57,6.42s7.31,2.34,8.68,2.57c0,.8,0,1.59,0,2.39.09,3.82.2,7.63.2,11.38,0,1.32,0,2.62-.1,3.92-.13-.84-.25-1.55-.28-1.66-.91-3.25-4.58-9-8.36-9.15a4.48,4.48,0,0,0-4.51,4.91c.17,2.67,2.46,5,4.56,6.42s6.81,2.25,8.44,2.53c-.08,1.33-.17,2.66-.31,4-.12.87-.17,1.72-.34,2.6s-.29,1.72-.44,2.57c-.33,1.63-.67,3.31-1,4.89-.25,1.1-.51,2.14-.77,3.19,0-1.31,0-3.88,0-4.09a17.36,17.36,0,0,0-3.52-8,5.39,5.39,0,0,0-.2-1,4.48,4.48,0,0,0-6-3c-3.48,1.49-4.85,8.17-4.54,11.53,0,.2.46,2.33.76,3.67-.3-.76-.58-1.5-.89-2.28-.61-1.55-1.27-3.07-2-4.71l-1.1-2.37c-.36-.8-.83-1.59-1.25-2.4-1-1.85-2.1-3.68-3.25-5.5,1.35-.54,6.12-2.52,7.89-4.34s3.5-4.59,3.1-7.23a4.47,4.47,0,0,0-5.44-3.84c-3.66.94-6,7.34-6.23,10.71,0,.21.11,2.64.21,4-.7-1.09-1.4-2.18-2.14-3.25-2.15-3.11-4.42-6.19-6.67-9.27-.7-.95-1.37-1.9-2.05-2.84.48-.19,6.2-2.42,8.18-4.45,1.76-1.81,3.5-4.6,3.1-7.24a4.47,4.47,0,0,0-5.44-3.84c-3.66.94-6,7.34-6.23,10.71,0,.25.17,3.76.26,4.64-1.5-2.08-3-4.17-4.34-6.3a77.64,77.64,0,0,1-5-8.9c.22-.09,6.2-2.39,8.23-4.47,1.76-1.81,3.5-4.6,3.1-7.24A4.47,4.47,0,0,0,44,193.7c-3.66.94-6,7.34-6.23,10.71,0,.22.12,2.89.22,4.16l-.21.05a58.1,58.1,0,0,1-3.35-9.72c-.48-1.83-.83-3.6-1.14-5.34,1.16-.31,6.44-1.81,8.47-3.48s4-4.19,3.87-6.85a4.47,4.47,0,0,0-5-4.42c-3.75.54-6.81,6.63-7.38,10,0,.18-.14,2.06-.2,3.43-.13-.79-.27-1.6-.38-2.35-.4-2.83-.6-5.45-.75-7.77-.08-1.32-.13-2.51-.16-3.63,1-.9,4.87-4.59,5.88-7s1.61-5.55.28-7.86A4.47,4.47,0,0,0,31.43,162c-3.08,2.2-3,9-1.95,12.23.09.28,2,4.47,2,4.42l.06-.05c0,1.08,0,2.23.07,3.49.11,2.33.25,5,.59,7.81a81.07,81.07,0,0,0,1.55,9.15A58.55,58.55,0,0,0,37,208.93a.54.54,0,0,1,0,.11c-.72-.84-2.82-3.12-3-3.28-2.55-2.21-8.79-5-12-3a4.46,4.46,0,0,0-1.05,6.57c1.61,2.13,4.82,2.84,7.34,2.84,2.85,0,8.47-2.55,8.91-2.75a80.81,80.81,0,0,0,5,9.32c1.08,1.75,2.22,3.48,3.39,5.2-.65-.71-1.24-1.33-1.33-1.41-2.55-2.21-8.79-5-12-3a4.48,4.48,0,0,0-1.05,6.58c1.61,2.13,4.82,2.83,7.35,2.83s7.39-2.07,8.66-2.64l1.35,2c2.19,3.13,4.39,6.25,6.45,9.38.73,1.1,1.4,2.21,2.08,3.32-.57-.63-1.06-1.15-1.15-1.22-2.55-2.21-8.78-5-12-3a4.48,4.48,0,0,0-1,6.58c1.61,2.13,4.82,2.83,7.35,2.83s6.92-1.87,8.43-2.54c.66,1.16,1.33,2.31,1.92,3.46.38.8.81,1.54,1.15,2.36s.71,1.6,1.06,2.39c.61,1.54,1.26,3.13,1.82,4.65.4,1.05.76,2.07,1.13,3.09-.72-1.11-2.15-3.24-2.29-3.41-2.19-2.57-7.93-6.25-11.43-4.8a4.48,4.48,0,0,0-2,6.34c1.27,2.35,4.34,3.54,6.83,3.92,2.74.42,8.46-1.16,9.17-1.36.6,1.69,1.17,3.34,1.68,4.9,1.77,5.37,3,9.91,3.89,13.11l2.54-.37c0-.07,0-.13-.06-.21-.93-3.23-2.33-7.82-4.25-13.25-.6-1.72-1.28-3.54-2-5.41a46,46,0,0,0,4.77-3.15c2.22,1.8,7.48,3.52,8.16,3.73-.43,1.74-.86,3.43-1.3,5-1.48,5.45-2.93,9.94-4,13.08l2.78-.4c1-3.11,2.15-7.23,3.37-12.11.44-1.77.88-3.66,1.32-5.61.72,0,6.65.38,9.25-.62,2.35-.9,5.1-2.71,5.84-5.27a4.47,4.47,0,0,0-3.33-5.77c-3.72-.68-8.55,4.14-10.15,7.11-.09.18-.9,2.2-1.39,3.48.18-.8.35-1.57.52-2.39.34-1.63.64-3.26,1-5,.13-.85.25-1.71.38-2.58s.19-1.79.29-2.69c.19-2.1.28-4.23.32-6.38,1.43.3,6.5,1.28,9,.74s5.45-1.91,6.57-4.33a4.48,4.48,0,0,0-2.42-6.21c-3.57-1.23-9.08,2.8-11.11,5.5-.12.17-1.36,2.27-2,3.44,0-1.3,0-2.59,0-3.89-.07-3.78-.27-7.6-.45-11.42,0-1.17-.09-2.33-.14-3.5.51.11,6.51,1.41,9.28.81,2.47-.54,5.46-1.91,6.58-4.33A4.48,4.48,0,0,0,98.4,210c-3.57-1.23-9.08,2.8-11.11,5.5-.15.2-1.92,3.23-2.34,4-.1-2.57-.17-5.13-.14-7.65a78.74,78.74,0,0,1,.72-10.2c.24,0,6.5,1.43,9.34.81,2.46-.53,5.45-1.9,6.57-4.32A4.47,4.47,0,0,0,99,192c-3.57-1.23-9.08,2.8-11.1,5.5-.14.17-1.49,2.48-2.11,3.59l-.2-.07a56.69,56.69,0,0,1,2.56-10c.61-1.79,1.29-3.46,2-5.08,1.14.38,6.37,2,9,1.77s5.63-1.29,7-3.58a4.47,4.47,0,0,0-1.72-6.43c-3.42-1.62-9.33,1.78-11.65,4.24-.12.13-1.25,1.63-2.05,2.74.32-.72.65-1.48,1-2.17,1.22-2.58,2.5-4.87,3.65-6.89.66-1.15,1.28-2.17,1.88-3.12,1.31-.21,6.58-1.14,8.74-2.56s4.4-3.75,4.57-6.41A4.48,4.48,0,0,0,106.07,158.61Z" transform="translate(-6.96 -12.56)"/></g><g id="Mouse"><path class="cls-7" d="M347,436.31l-.47-3.12c.16,0,15.46-2.41,22.78-9.45,1.57-1.51,1.53-2.6,1.36-3.29-1.69-7-27.57-18-79.11-33.55-8.49-2.56-16.71-5-24.59-7.34-51.46-15.28-85.46-25.37-87.81-36.82-.59-2.86.7-5.64,3.84-8.24,17.83-14.81,88.83-20.18,91.85-20.41l.23,3.16c-.73.05-73,5.51-90.06,19.68-3.27,2.71-2.89,4.57-2.76,5.17,2,9.6,38.88,20.56,85.61,34.43,7.88,2.34,16.11,4.78,24.6,7.34,68.85,20.77,79.75,29.5,81.28,35.84.54,2.23-.22,4.35-2.25,6.31C363.41,433.76,347.63,436.21,347,436.31Z" transform="translate(-6.96 -12.56)"/><path class="cls-8" d="M185.2,332.87l4.56,1C212.6,322,274.37,317.3,275,317.25l-.23-3.16C271.91,314.31,206.06,319.29,185.2,332.87Z" transform="translate(-6.96 -12.56)"/><path class="cls-4" d="M355.45,439.69a9.21,9.21,0,0,0-3.69-10.39c-4.6-3-13-6.7-27.17-7.71-25.13-1.8-42.19,7.48-50.27,15.25s-6.28,17.06,5.39,22.74,20.05,7.18,29.92,5.69,26-9.28,31.71-13.17,12.57-7.48,14.07-12.26Z" transform="translate(-6.96 -12.56)"/><path class="cls-7" d="M316.81,458.09c-14.06,9.57-27.53,5.08-27.53,5.08l-.31.26a41.89,41.89,0,0,0,20.66,1.84c9.87-1.5,26-9.28,31.71-13.17s12.57-7.48,14.07-12.26l0-.15a7.93,7.93,0,0,0,.27-1.17C346.87,440.67,329.26,449.61,316.81,458.09Z" transform="translate(-6.96 -12.56)"/><path class="cls-7" d="M296.17,441.63c0,2.15-2.62,3.89-5.84,3.89s-5.83-1.74-5.83-3.89,2.61-3.89,5.83-3.89S296.17,439.48,296.17,441.63Z" transform="translate(-6.96 -12.56)"/></g><g id="Keyboard"><path class="cls-7" d="M178.6,382.14l-.64-3.09c9.47-2,15.73-4.8,16.61-6.2-1-1-5-3.17-8.33-4.92-12.07-6.37-32.26-17-25.84-30.79,3.75-8.05,24.2-15.1,62.5-21.53,27.79-4.67,54.9-7.17,55.17-7.2l.29,3.15c-.27,0-27.28,2.52-55,7.17-48.09,8.08-58.33,15.84-60.15,19.75-5.15,11,12.67,20.43,24.46,26.66,7.16,3.78,10.42,5.5,10.08,7.9C197.12,377.81,184.15,381,178.6,382.14Z" transform="translate(-6.96 -12.56)"/><path class="cls-8" d="M278.07,308.41c-.27,0-27.38,2.53-55.17,7.2-25.67,4.31-43.3,8.9-53.28,13.88l5.24,1.13c8.66-3.54,23.44-7.67,48.55-11.89,27.67-4.65,54.68-7.14,55-7.17Z" transform="translate(-6.96 -12.56)"/><polygon class="cls-7" points="269.82 392.13 212.63 424.69 4.28 352.43 67.63 329.6 269.82 392.13"/><polygon class="cls-8" points="177.94 375.6 184.74 377.68 191.85 373.97 185.13 371.96 177.94 375.6"/><polygon class="cls-8" points="167.39 366.93 161.5 370.55 175.04 374.7 182.2 371.08 167.73 366.75 167.39 366.93"/><polygon class="cls-8" points="187.6 378.56 194.84 380.78 202.04 377.02 194.74 374.84 187.6 378.56"/><polygon class="cls-8" points="141.4 364.37 147.94 366.38 154.65 362.83 148.65 361.03 141.4 364.37"/><polygon class="cls-8" points="150.79 367.26 158.82 369.72 164.99 365.93 157.52 363.69 150.79 367.26"/><polygon class="cls-8" points="183.35 386.78 176.2 384.51 169.1 388.22 176.16 390.53 183.35 386.78"/><polygon class="cls-8" points="197.71 381.67 206.84 384.47 214.16 380.65 204.94 377.89 197.71 381.67"/><polygon class="cls-8" points="123.9 359 130.15 360.92 137.09 357.57 130.68 355.65 123.9 359"/><polygon class="cls-8" points="205.54 393.8 198.06 391.43 190.67 395.29 198.47 397.85 205.54 393.8"/><polygon class="cls-8" points="214.09 388.9 207.05 386.74 200.7 390.06 208.02 392.38 214.09 388.9"/><polygon class="cls-8" points="209.71 385.35 216.59 387.46 223.56 383.47 217.06 381.52 209.71 385.35"/><polygon class="cls-8" points="195.22 390.54 186.19 387.68 178.96 391.45 187.87 394.37 195.22 390.54"/><polygon class="cls-8" points="234.58 386.77 226.34 384.3 219.35 388.31 227.46 390.8 234.58 386.77"/><polygon class="cls-8" points="224.93 392.23 216.84 389.75 210.75 393.24 218.71 395.76 224.93 392.23"/><polygon class="cls-8" points="139.98 358.51 133.12 361.83 138.38 363.44 145.59 360.12 140.09 358.47 139.98 358.51"/><polygon class="cls-8" points="42.11 353.32 48 350.74 44.38 349.55 38.19 351.99 42.11 353.32"/><polygon class="cls-8" points="43.79 347.14 50.9 349.47 57 346.79 49.78 344.51 43.79 347.14"/><polygon class="cls-8" points="52.71 343.23 59.93 345.51 65.23 343.19 57.92 340.94 52.71 343.23"/><polygon class="cls-8" points="73.01 358.94 68.77 357.55 62.2 360.1 66.96 361.71 73.01 358.94"/><polygon class="cls-8" points="56.85 353.64 51.01 351.72 45.08 354.32 50.88 356.28 56.85 353.64"/><polygon class="cls-8" points="62.98 346.48 66.08 347.45 71.15 345.01 68.32 344.14 62.98 346.48"/><polygon class="cls-8" points="65.61 356.51 59.84 354.62 53.84 357.28 59.08 359.05 65.61 356.51"/><polygon class="cls-8" points="115.07 356.29 120.97 358.1 127.72 354.77 121.95 353.04 115.07 356.29"/><polygon class="cls-8" points="98.42 351.18 103.28 352.67 109.62 349.35 104.81 347.91 98.42 351.18"/><polygon class="cls-8" points="73.63 349.84 78.91 347.39 74.11 345.92 69.01 348.38 73.63 349.84"/><polygon class="cls-8" points="106.14 353.55 112.08 355.37 118.93 352.14 112.5 350.21 106.14 353.55"/><polygon class="cls-8" points="96.42 345.46 89.65 348.48 95.53 350.29 101.89 347.03 96.51 345.42 96.42 345.46"/><polygon class="cls-8" points="80.8 345.76 86.59 347.54 93.41 344.49 87.3 342.66 80.8 345.76"/><polygon class="cls-8" points="71.28 342.84 77.82 344.85 84.29 341.76 78.02 339.88 71.28 342.84"/><polygon class="cls-8" points="156.58 376.1 166.24 379.15 172.32 376.08 162.11 372.94 156.58 376.1"/><polygon class="cls-8" points="169.11 380.06 176 382.24 182.08 379.07 175.23 376.97 169.11 380.06"/><polygon class="cls-8" points="204.18 385.86 195.05 383.05 188.83 386.3 197.86 389.16 204.18 385.86"/><polygon class="cls-8" points="178.84 383.14 185.99 385.4 192.18 382.17 184.94 379.95 178.84 383.14"/><polygon class="cls-8" points="81.86 361.84 75.97 359.9 69.88 362.69 75.78 364.68 81.86 361.84"/><polygon class="cls-8" points="127.77 366.98 134.83 369.21 139.94 366.13 133.07 364.02 127.77 366.98"/><polygon class="cls-8" points="137.51 370.06 144.38 372.24 149.65 369.11 142.65 366.96 137.51 370.06"/><polygon class="cls-8" points="147.08 373.09 153.85 375.23 159.35 372.09 152.37 369.95 147.08 373.09"/><polygon class="cls-8" points="78.23 353.51 73.77 352.1 67.63 354.95 72.36 356.5 78.23 353.51"/><polygon class="cls-8" points="68.19 341.89 74.9 338.95 64.63 335.87 64.65 335.93 57.13 338.5 68.19 341.89"/><polygon class="cls-8" points="53.69 337.44 61.25 334.86 59.09 334.21 51.78 336.85 53.69 337.44"/><polygon class="cls-8" points="252.41 389.91 262.74 393 265.42 391.47 255.24 388.36 252.41 389.91"/><polygon class="cls-8" points="70.8 351.16 66.24 349.72 60.35 352.57 64.7 353.99 70.8 351.16"/><polygon class="cls-8" points="119.04 364.22 125 366.1 130.28 363.16 124.29 361.33 119.04 364.22"/><polygon class="cls-8" points="53.9 350.45 57.46 351.62 63.32 348.79 60.05 347.76 53.9 350.45"/><polygon class="cls-8" points="109.71 361.26 116.27 363.34 121.49 360.46 114.79 358.41 109.71 361.26"/><polygon class="cls-8" points="104.44 361.81 98.56 359.94 92.41 363.08 98.58 365.1 104.44 361.81"/><polygon class="cls-8" points="113.72 364.74 107.19 362.68 101.3 365.99 107.66 368.08 113.72 364.74"/><polygon class="cls-8" points="132.43 370.66 125.24 368.39 119.08 371.82 126.48 374.25 132.43 370.66"/><polygon class="cls-8" points="173.36 383.62 166.43 381.42 159.32 385.01 166.3 387.3 173.36 383.62"/><polygon class="cls-8" points="141.95 373.68 135.1 371.51 129.12 375.11 135.82 377.31 141.95 373.68"/><polygon class="cls-8" points="163.55 380.51 144.65 374.53 138.49 378.18 156.49 384.09 163.55 380.51"/><polygon class="cls-8" points="122.47 367.51 116.49 365.62 110.4 368.97 116.35 370.93 122.47 367.51"/><polygon class="cls-8" points="93.17 356.03 98.37 357.68 103.65 354.99 98.45 353.39 93.17 356.03"/><polygon class="cls-8" points="83.77 353.05 90.29 355.12 95.53 352.49 88.87 350.45 83.77 353.05"/><polygon class="cls-8" points="95.7 359.04 90.45 357.38 84.2 360.39 89.59 362.15 95.7 359.04"/><polygon class="cls-8" points="101.24 358.58 106.96 360.39 112 357.55 106.54 355.88 101.24 358.58"/><polygon class="cls-8" points="76.6 350.79 80.9 352.15 85.97 349.56 81.92 348.31 76.6 350.79"/><polygon class="cls-8" points="87.52 356.45 81.09 354.42 75.18 357.43 81.31 359.44 87.52 356.45"/><polygon class="cls-8" points="40.79 346.15 46.74 343.54 39.56 341.27 33.06 343.62 40.79 346.15"/><polygon class="cls-8" points="99.62 374.96 67.08 363.97 67.05 363.98 67.04 363.96 50.99 358.54 40.32 363.26 89.5 380.26 99.62 374.96"/><polygon class="cls-8" points="20.69 356.47 30.88 351.75 26.18 350.16 15.13 354.55 20.69 356.47"/><polygon class="cls-8" points="39.24 354.57 33.78 352.73 23.56 357.46 28.64 359.22 39.24 354.57"/><polygon class="cls-8" points="48.03 357.54 42.21 355.57 31.58 360.23 37.4 362.25 48.03 357.54"/><polygon class="cls-8" points="127.23 384.28 121.18 382.24 110.64 387.57 117.24 389.86 127.23 384.28"/><polygon class="cls-8" points="108.35 377.91 102.38 375.89 92.23 381.21 97.85 383.15 108.35 377.91"/><polygon class="cls-8" points="118.38 381.29 111.16 378.86 100.64 384.12 107.86 386.61 118.38 381.29"/><polygon class="cls-8" points="89.06 340.99 93.22 338.81 85.72 336.51 81.01 338.58 89.06 340.99"/><polygon class="cls-8" points="91.95 341.86 96.4 343.19 101.17 341.24 96.09 339.69 91.95 341.86"/><polygon class="cls-8" points="144.54 390.13 129.93 385.19 119.91 390.78 133.78 395.57 144.54 390.13"/><polygon class="cls-8" points="99.62 344.15 104.67 345.66 109.18 343.69 104.35 342.21 99.62 344.15"/><polygon class="cls-8" points="26.12 347.92 26.17 347.89 26.19 347.94 35.1 350.95 41.25 348.52 29.84 344.78 23.56 347.05 26.12 347.92"/><polygon class="cls-8" points="72.06 335.9 77.89 337.64 82.63 335.57 77 333.85 72.06 335.9"/><polygon class="cls-8" points="54.83 339.99 48.48 338.05 42.82 340.09 49.66 342.26 54.83 339.99"/><polygon class="cls-8" points="217.88 406.43 209.18 403.58 202.37 407.43 210.84 410.29 217.88 406.43"/><polygon class="cls-8" points="249.82 391.33 242.41 395.39 252.87 398.61 260.2 394.44 249.82 391.33"/><polygon class="cls-8" points="68.86 334.94 73.83 332.88 67.85 331.05 62.42 333.01 68.86 334.94"/><polygon class="cls-8" points="239.83 396.81 233.31 400.38 243.88 403.72 250.35 400.04 239.83 396.81"/><polygon class="cls-8" points="211.05 412.58 200.18 418.54 211.14 422.33 221.86 416.24 211.05 412.58"/><polygon class="cls-8" points="230.76 401.78 223.16 405.94 233.82 409.44 241.38 405.14 230.76 401.78"/><polygon class="cls-8" points="23.58 349.1 20.37 348.2 8.83 352.37 12.08 353.49 23.58 349.1"/><polygon class="cls-8" points="208.33 411.67 199.91 408.82 189.37 414.8 197.49 417.61 208.33 411.67"/><polygon class="cls-8" points="175.79 400.68 166.98 397.7 156.2 403.33 164.93 406.35 175.79 400.68"/><polygon class="cls-8" points="197.23 407.92 189.63 405.35 189.43 405.46 189.31 405.25 178.55 401.61 167.67 407.29 186.71 413.88 197.23 407.92"/><polygon class="cls-8" points="164.21 396.77 157.23 394.41 146.54 399.99 153.46 402.38 164.21 396.77"/><polygon class="cls-8" points="231.34 410.85 220.63 407.33 213.56 411.21 224.31 414.84 231.34 410.85"/><polygon class="cls-8" points="107.78 346.6 112.33 347.96 116.75 346 112.27 344.63 107.78 346.6"/><polygon class="cls-8" points="154.47 393.48 147.34 391.07 136.55 396.53 143.81 399.04 154.47 393.48"/><polygon class="cls-8" points="160.58 362.41 167.52 364.49 171.09 362.63 164.77 360.69 160.58 362.41"/><polygon class="cls-8" points="196.01 399.26 188.06 396.65 181.14 400.26 189.4 403.05 196.01 399.26"/><polygon class="cls-8" points="173.55 391.9 166.49 389.58 159.82 393.06 166.8 395.42 173.55 391.9"/><polygon class="cls-8" points="246.98 390.48 237.38 387.61 230.23 391.65 239.6 394.53 246.98 390.48"/><polygon class="cls-8" points="206.47 402.69 198.71 400.14 192.07 403.95 199.69 406.53 206.47 402.69"/><polygon class="cls-8" points="237.02 395.94 227.71 393.08 221.45 396.63 230.53 399.5 237.02 395.94"/><polygon class="cls-8" points="216.2 397.18 208.27 394.66 201.17 398.73 208.95 401.29 216.2 397.18"/><polygon class="cls-8" points="227.98 400.9 218.95 398.04 211.66 402.17 220.41 405.04 227.98 400.9"/><polygon class="cls-8" points="185.26 395.74 176.34 392.81 169.56 396.35 178.38 399.33 185.26 395.74"/><polygon class="cls-8" points="108.19 370.47 101.81 368.38 95.59 371.37 102.2 373.61 108.19 370.47"/><polygon class="cls-8" points="117.27 373.44 110.98 371.39 104.96 374.54 111 376.58 117.27 373.44"/><polygon class="cls-8" points="98.92 367.43 93.54 365.67 87.7 368.71 92.73 370.41 98.92 367.43"/><polygon class="cls-8" points="153.83 385.43 130.19 377.68 123.82 380.9 147.18 388.8 153.83 385.43"/><polygon class="cls-8" points="163.69 388.67 156.66 386.36 149.98 389.74 157.05 392.13 163.69 388.67"/><polygon class="cls-8" points="127.36 376.75 120.11 374.38 113.81 377.53 121.02 379.96 127.36 376.75"/><polygon class="cls-8" points="133.66 354.35 139.98 356.24 144.35 354.44 137.94 352.49 133.66 354.35"/><polygon class="cls-8" points="143.19 357.2 148.51 358.79 152.71 357 147.53 355.42 143.19 357.2"/><polygon class="cls-8" points="151.67 359.74 157.38 361.45 161.59 359.72 155.84 357.96 151.67 359.74"/><polygon class="cls-8" points="170.42 365.35 176.2 367.08 176.19 367.08 179.91 365.32 173.97 363.5 170.42 365.35"/><polygon class="cls-8" points="90.74 364.75 84.79 362.8 78.67 365.66 84.93 367.77 90.74 364.75"/><polygon class="cls-8" points="124.75 351.68 130.53 353.41 134.84 351.54 128.81 349.69 124.75 351.68"/><polygon class="cls-8" points="115.44 348.89 121.78 350.79 125.86 348.79 119.83 346.95 115.44 348.89"/><polygon class="cls-8" points="219.74 380.12 226.08 382.02 229.02 380.34 222.9 378.47 219.74 380.12"/><polygon class="cls-8" points="207.62 376.49 216.84 379.25 220.03 377.59 210.88 374.79 207.62 376.49"/><polygon class="cls-8" points="252.42 387.5 242.78 384.55 239.92 386.17 249.58 389.06 252.42 387.5"/><polygon class="cls-8" points="228.87 382.86 237.12 385.33 240 383.7 231.78 381.19 228.87 382.86"/><polygon class="cls-8" points="179.21 367.99 184.94 369.7 188.59 367.98 182.91 366.24 179.21 367.99"/><polygon class="cls-8" points="187.96 370.61 194.53 372.57 197.89 370.82 191.59 368.89 187.96 370.61"/><polygon class="cls-8" points="197.42 373.44 204.72 375.63 208 373.91 200.76 371.7 197.42 373.44"/><polygon class="cls-7" points="212.63 424.69 212.15 431.16 269.22 399.37 269.82 392.13 212.63 424.69"/><polygon class="cls-7" points="261.52 403.57 261.52 411.41 268.82 407.46 269.22 399.37 261.52 403.57"/><polygon class="cls-8" points="261.52 411.41 251.45 409.44 261.72 403.57 261.52 411.41"/><polygon class="cls-7" points="212.15 431.16 4.24 358.08 4.28 352.43 212.63 424.69 212.15 431.16"/></g><g id="Device"><polygon class="cls-8" points="259.25 311.09 198.79 332.89 309.15 360.99 370.74 334.92 259.25 311.09"/><polygon class="cls-7" points="198.79 332.89 198.79 336.32 308.97 365.5 309.15 360.99 198.79 332.89"/><polygon class="cls-7" points="309.15 360.99 370.74 334.92 370.29 338.69 308.97 365.5 309.15 360.99"/><polygon class="cls-7" points="266.37 283.9 263.88 322.46 260.4 323.95 323.34 338.88 326.82 337.38 329.56 295.59 266.37 283.9"/><polygon class="cls-8" points="262.89 285.39 260.4 323.95 323.34 338.88 326.08 297.08 262.89 285.39"/><path class="cls-7" d="M476.85,54.81l-3.76-1.43-5.27.33-.43,1.44L173.48,72.64a3.29,3.29,0,0,0-3.08,2.93L151,276.47a2.67,2.67,0,0,0,2.14,2.89l274.08,52.51-3,1.83,12.15,2.36,1.41-.19,3.43-1.66a3,3,0,0,0,2.14-2.47L478.86,58A3,3,0,0,0,476.85,54.81Z" transform="translate(-6.96 -12.56)"/><path class="cls-8" d="M168.64,73.64,147,278.12a2.65,2.65,0,0,0,2.14,2.89L435.8,335.94a3,3,0,0,0,3.51-2.54L474.88,56.54a3,3,0,0,0-3.12-3.35l-300,17.52A3.28,3.28,0,0,0,168.64,73.64Z" transform="translate(-6.96 -12.56)"/><polygon class="cls-4" points="168.27 67.26 150.05 236.86 424.31 278.93 455.21 51.36 168.27 67.26"/><path class="cls-3" d="M205.43,192.22c43.89-13.44,93-28.24,138.46-41.36,46-13.29,83-18.29,108.91-19.77" transform="translate(-6.96 -12.56)"/><path class="cls-3" d="M172.77,105.18s88.63,2,185.43,41.59" transform="translate(-6.96 -12.56)"/><path class="cls-3" d="M243.2,263.46s67.28-63.14,131-96.38c53.68-28,76.8-28.67,76.8-28.67" transform="translate(-6.96 -12.56)"/><path class="cls-7" d="M149.14,281,435.8,335.94a3,3,0,0,0,3.51-2.54l3.45-26.9L149.05,258.68,147,278.12A2.65,2.65,0,0,0,149.14,281Z" transform="translate(-6.96 -12.56)"/><polygon class="cls-8" points="150.05 236.86 191.44 243.21 200.18 164.1 158.19 161.08 150.05 236.86"/><polygon class="cls-4" points="195.59 188.65 186.8 187.64 183.48 213.63 192.69 214.83 195.59 188.65"/><path class="cls-4" d="M189,198.45a.48.48,0,0,1-.07.18l13.72,1.58,2.22-20.13-13.28-1Z" transform="translate(-6.96 -12.56)"/><polygon class="cls-4" points="182.49 213.5 185.81 187.52 172.69 186.01 169.49 211.82 182.49 213.5"/><polygon class="cls-4" points="185.25 214.87 169.37 212.81 166.5 235.91 182.49 238.36 185.25 214.87"/><path class="cls-4" d="M188,198.53a.5.5,0,0,1,0-.21l2.58-19.26-8.45-.61-2.37,19.13Z" transform="translate(-6.96 -12.56)"/><polygon class="cls-4" points="186.24 215 183.48 238.51 189.97 239.51 192.58 215.82 186.24 215"/></g></svg>