<svg id="Layer_1" data-name="Layer 1" xmlns="http://www.w3.org/2000/svg" viewBox="0 0 193.84 163.25"><path d="M196.92,70.07v99.51a30,30,0,0,1-1.29,3.74c-2.87,5.85-7.73,8.24-14.12,8.23q-39.63-.08-79.26,0c-27.61,0-55.23-.19-82.85.09-10.7.11-16.4-7.21-16.32-16.2.29-31,.11-62,.11-93.07V70H194.84C195.53,70,196.23,70.06,196.92,70.07ZM45,130.78c1,2.55,1.76,4.66,2.59,6.77,1.19,3,3.24,4.53,6.08,4.46s4.65-1.6,5.71-4.66q3.78-10.87,7.46-21.78a8,8,0,0,0,.47-3.13,5.83,5.83,0,0,0-5.06-5.31,5.9,5.9,0,0,0-6.48,3.79c-.88,2.25-1.62,4.55-2.62,7.35-1-2.67-1.82-4.83-2.68-7-1.2-3-3.2-4.33-6-4.2a5.91,5.91,0,0,0-5.51,4.15c-.79,2.18-1.51,4.38-2.43,7.07-1.09-2.83-1.91-5.07-2.82-7.28a6,6,0,1,0-11.2,4.36q4.22,11.22,8.55,22.39a5.93,5.93,0,0,0,5.87,4.2c2.7,0,4.68-1.54,5.71-4.4C43.34,135.49,44.07,133.35,45,130.78Zm110.79,0c1.08,2.77,1.94,5.14,2.92,7.45a5.67,5.67,0,0,0,5.59,3.75,5.5,5.5,0,0,0,5.55-3.79c2.76-7.76,5.5-15.54,8-23.38a6,6,0,1,0-11.55-3.37c-.73,2.14-1.47,4.27-2.37,6.88-1.05-2.75-1.84-4.93-2.72-7.09-1.17-2.89-3.12-4.22-5.88-4.14a6,6,0,0,0-5.72,4.41c-.75,2.12-1.48,4.24-2.37,6.78-1-2.62-1.82-4.83-2.7-7-1.39-3.47-4.68-5.06-7.9-3.83s-4.69,4.55-3.36,8.08q4.19,11.13,8.48,22.22c1.12,2.9,3.23,4.34,6,4.26s4.6-1.61,5.64-4.51C154.17,135.44,154.87,133.36,155.76,130.8Zm-55.41,0c1,2.63,1.84,4.78,2.7,6.93,1.16,2.93,3.18,4.37,6,4.3s4.68-1.6,5.68-4.47q3.84-11.06,7.6-22.14c1.2-3.54-.34-6.87-3.6-8s-6.49.54-7.77,4.06c-.78,2.15-1.52,4.31-2.4,6.83-1-2.66-1.88-5-2.81-7.22a5.75,5.75,0,0,0-5.86-3.9,5.91,5.91,0,0,0-5.61,4.27c-.77,2.14-1.51,4.29-2.41,6.85-1-2.64-1.86-4.87-2.75-7.08-1.36-3.37-4.6-4.94-7.77-3.79a6,6,0,0,0-3.5,8q4.23,11.21,8.59,22.38A5.9,5.9,0,0,0,92.3,142C95,142,97,140.43,98,137.58,98.75,135.51,99.44,133.42,100.35,130.78Z" transform="translate(-3.08 -18.38)"/><path d="M196.92,58H3.32c0-.65-.12-1.19-.12-1.73q0-11.62,0-23.26c0-8.26,5.53-14,13.77-14.52.63,0,1.26,0,1.89,0q81.24,0,162.47,0c4.85,0,9.25,1.1,12.24,5.09,1.5,2,2.26,4.56,3.35,6.87ZM58.15,38.14a6,6,0,0,0-5.93-6,6.11,6.11,0,0,0-6.18,6,6.21,6.21,0,0,0,6,6.08A6,6,0,0,0,58.15,38.14Zm-24.67,0a6,6,0,0,0-5.95-6,6.07,6.07,0,0,0-6.16,6,6.15,6.15,0,0,0,6,6.07A6.07,6.07,0,0,0,33.48,38.13ZM78,32.1a6,6,0,0,0-6.12,6,6.06,6.06,0,1,0,12.12,0A6,6,0,0,0,78,32.1Z" transform="translate(-3.08 -18.38)"/></svg>