<svg xmlns="http://www.w3.org/2000/svg" viewBox="0 0 330.85 445.97"><defs><style>.cls-1{fill:#e0e0e0;}.cls-2{fill:#e6e6e6;}.cls-3{fill:#fafafa;}.cls-10,.cls-11,.cls-14,.cls-20,.cls-21,.cls-4{fill:#fff;}.cls-5{fill:#f0f0f0;}.cls-6{fill:#37474f;}.cls-7{fill:#455a64;}.cls-8{fill:#263238;}.cls-12,.cls-9{fill:#ba68c8;}.cls-10,.cls-18{opacity:0.2;}.cls-11{opacity:0.5;}.cls-12{opacity:0.4;}.cls-13,.cls-14{opacity:0.25;}.cls-15{fill:#ebebeb;}.cls-16{opacity:0.1;}.cls-17{opacity:0.45;}.cls-19{opacity:0.65;}.cls-20{opacity:0.3;}.cls-21{opacity:0.7;}.cls-22{fill:#f28f8f;}.cls-23{fill:#b16668;}.cls-24{fill:#ffa8a7;}</style></defs><g id="Speech_Bubble" data-name="Speech Bubble"><path id="Shadow" class="cls-1" d="M234.19,238.66c-10.85,6.26-10.85,16.42,0,22.68s28.44,6.27,39.29,0,10.85-16.42,0-22.68S245,232.39,234.19,238.66Z" transform="translate(-84.58 -27.02)"/><ellipse id="Shadow-2" data-name="Shadow" class="cls-2" cx="258.22" cy="334.08" rx="67.82" ry="39.16"/><path id="Shadow-3" data-name="Shadow" class="cls-1" d="M158.41,472l-7-4c-2.21-1.28-2.21-3.35,0-4.62L338.68,355.27a8.84,8.84,0,0,1,8,0l6.94,4c2.21,1.29,2.21,3.36,0,4.63L166.41,472A8.88,8.88,0,0,1,158.41,472Z" transform="translate(-84.58 -27.02)"/><g id="Pictures-2" data-name="Pictures"><g id="Picture"><g id="Frame"><polygon class="cls-3" points="73.35 84.55 75.06 85.57 110.21 65.28 108.5 64.25 73.35 84.55"/><polygon class="cls-4" points="108.5 64.25 75.06 83.56 75.06 48.54 108.5 29.26 108.5 64.25"/><path class="cls-5" d="M198,49.67l-41.61,24v44.49l41.61-24Zm-3.23,42.62-35.15,20.3v-37l35.15-20.29Z" transform="translate(-84.58 -27.02)"/><polygon class="cls-1" points="110.21 65.28 108.5 64.25 108.5 29.26 110.21 28.25 110.21 65.28"/><polygon class="cls-3" points="113.44 22.65 111.7 21.66 70.09 45.68 71.83 46.68 113.44 22.65"/><polygon class="cls-1" points="70.09 45.68 71.83 46.68 71.83 91.17 70.09 90.17 70.09 45.68"/></g><g id="Land"><polygon class="cls-5" points="107.19 63.21 76.37 81 76.37 72.11 84.08 54.31 88.88 58.76 87.15 66.22 97.79 43.46 107.19 54.31 107.19 63.21"/><path class="cls-5" d="M173.16,72.73a5,5,0,0,0-2.28,4c0,1.46,1,2,2.28,1.32a5,5,0,0,0,2.28-4C175.44,72.6,174.42,72,173.16,72.73Z" transform="translate(-84.58 -27.02)"/></g></g><g id="Picture-2" data-name="Picture"><g id="Frame-2" data-name="Frame"><polygon class="cls-3" points="16.04 117.63 17.76 118.65 52.9 98.36 51.19 97.34 16.04 117.63"/><polygon class="cls-4" points="51.19 97.34 17.76 116.64 17.76 81.63 51.19 62.34 51.19 97.34"/><path class="cls-5" d="M140.71,82.75l-41.61,24v44.49l41.61-24Zm-3.23,42.63-35.15,20.29v-37l35.15-20.29Z" transform="translate(-84.58 -27.02)"/><polygon class="cls-1" points="52.9 98.36 51.19 97.34 51.19 62.34 52.9 61.33 52.9 98.36"/><polygon class="cls-3" points="56.14 55.73 54.4 54.74 12.79 78.76 14.52 79.76 56.14 55.73"/><polygon class="cls-1" points="12.79 78.76 14.52 79.76 14.52 124.25 12.79 123.25 12.79 78.76"/></g><g id="Land-2" data-name="Land"><polygon class="cls-5" points="49.88 96.29 19.06 114.09 19.06 105.19 26.77 87.39 31.57 91.84 29.84 99.3 40.48 76.54 49.88 87.39 49.88 96.29"/><path class="cls-5" d="M115.85,105.82a5,5,0,0,0-2.28,4c0,1.45,1,2,2.28,1.31a5,5,0,0,0,2.28-4C118.13,105.68,117.11,105.09,115.85,105.82Z" transform="translate(-84.58 -27.02)"/></g></g></g><g id="Picture-3" data-name="Picture"><g id="Frame-3" data-name="Frame"><polygon class="cls-3" points="16.03 257.15 17.74 258.16 52.77 237.94 51.06 236.92 16.03 257.15"/><polygon class="cls-4" points="51.06 236.92 17.74 256.16 17.88 149.29 51.21 130.06 51.06 236.92"/><path class="cls-5" d="M140.71,150.5,99.24,174.44l-.15,116.32,41.48-23.95ZM137.34,265l-35,20.23.15-108.88,35-20.22Z" transform="translate(-84.58 -27.02)"/><polygon class="cls-1" points="52.77 237.94 51.06 236.92 51.21 130.06 52.91 129.06 52.77 237.94"/><polygon class="cls-3" points="56.14 123.48 54.4 122.49 12.93 146.44 14.66 147.43 56.14 123.48"/><polygon class="cls-1" points="12.93 146.44 14.66 147.43 14.52 263.74 12.79 262.75 12.93 146.44"/></g><g id="Land-3" data-name="Land"><polygon class="cls-5" points="48.56 234.93 20.24 251.28 20.38 152.3 48.71 135.95 48.56 234.93"/></g><g id="Land-4" data-name="Land"><polygon class="cls-5" points="48.56 234.93 20.24 251.28 20.38 152.3 48.71 135.95 48.56 234.93"/></g><path class="cls-3" d="M104.81,250.83a27.37,27.37,0,0,0,4,0,50.61,50.61,0,0,0,13.8-3c3.43-1.26,6.85-2.9,10.48-3v17.16l-3.84,2.22a12.73,12.73,0,0,0-5.26-2.92c-5.45-1.44-11.05,1.31-16.66,1.95a20,20,0,0,1-2.57.12Z" transform="translate(-84.58 -27.02)"/><path class="cls-3" d="M105,219.76c6.34-1.87,12.84-3.44,17.36-8.08,3.64-3.75,5.36-9,6.56-14s2-10.34,4.33-15l.07-.13v37.88c-.35.53-.71,1.06-1.09,1.57-4.16,5.64-10.29,10.35-17.29,10.71-3.28.18-6.68-.6-9.94-.58Z" transform="translate(-84.58 -27.02)"/><path class="cls-3" d="M105,194.86a19.29,19.29,0,0,0,6.27-17.57,13.68,13.68,0,0,0-.32-1.41l10.9-6.29c0,.71-.08,1.43-.1,2.14-.11,4.16,0,8.38-.89,12.44a24.44,24.44,0,0,1-12.41,16,24.17,24.17,0,0,1-3.45,1.44Z" transform="translate(-84.58 -27.02)"/></g><g id="Plants"><path class="cls-1" d="M401.75,288.8c-2.73,4.79-8.76,11.43-13,18.35-6.09,10-10.16,24-8.66,47.76l-3.19-1.84-7.84-4.53c-2.2-12.54-2.09-27.4,1.24-46.52,3.08-17.63,14-34.53,24.4-35.59C404.42,265.44,408.57,276.85,401.75,288.8Z" transform="translate(-84.58 -27.02)"/><path class="cls-4" d="M373.41,348a.61.61,0,0,0,.37-.65c-4.07-32.66,9.38-62.76,23-73.66a.61.61,0,0,0,.1-.87.62.62,0,0,0-.88-.1c-13.89,11.07-27.62,41.68-23.49,74.78a.62.62,0,0,0,.69.55Z" transform="translate(-84.58 -27.02)"/><path class="cls-5" d="M414.88,310.64c-1.86,6.14-13.74,12.6-21.33,22.85-6.86,9.25-9.85,18.64-9.6,23.63h0l-3.82-2.2-3.19-1.84c-1.74-23.16,6.78-36.66,14.16-45.73,2.18-2.68,8.16-6.39,10.57-7.16C412.36,296.77,417.13,303.24,414.88,310.64Z" transform="translate(-84.58 -27.02)"/><path class="cls-4" d="M380.53,352.54a.65.65,0,0,0,.4-.55c1.46-26.49,17.23-40.33,25.37-43.94a.64.64,0,0,0,.32-.82.62.62,0,0,0-.83-.32c-9,4-24.62,18-26.11,45a.63.63,0,0,0,.59.66A.75.75,0,0,0,380.53,352.54Z" transform="translate(-84.58 -27.02)"/></g><g id="Plants-2" data-name="Plants"><g id="Pot"><g id="Pot-2" data-name="Pot"><path class="cls-6" d="M110.49,429.14c-8.7-9-13.82-45.54-5.33-52.67h43.21c8.49,7.13,3.39,43.68-5.32,52.67l-.23.24-.3.3c-.25.24-.51.48-.79.71l-.21.16c-.21.17-.42.34-.66.51a12.46,12.46,0,0,1-1.12.72c-7.16,4.18-18.78,4.18-25.94,0h0a10.82,10.82,0,0,1-1.13-.73c-.22-.15-.41-.31-.61-.47l-.26-.2c-.27-.23-.52-.45-.76-.68l-.35-.35Z" transform="translate(-84.58 -27.02)"/><path class="cls-7" d="M144.62,373.6c9.86,5.76,9.86,15.09,0,20.85s-25.84,5.75-35.7,0-9.86-15.09,0-20.85S134.76,367.85,144.62,373.6Z" transform="translate(-84.58 -27.02)"/><path class="cls-8" d="M139.88,376.37c7.24,4.23,7.24,11.08,0,15.31s-19,4.23-26.22,0-7.24-11.08,0-15.31S132.64,372.14,139.88,376.37Z" transform="translate(-84.58 -27.02)"/><path class="cls-5" d="M113.66,383.64c7.24-4.23,19-4.23,26.22,0a12.09,12.09,0,0,1,4.34,4,12.26,12.26,0,0,1-4.34,4c-7.24,4.23-19,4.23-26.22,0a12.26,12.26,0,0,1-4.34-4A12.09,12.09,0,0,1,113.66,383.64Z" transform="translate(-84.58 -27.02)"/></g></g><g id="Plants-3" data-name="Plants"><path class="cls-9" d="M109.27,318.11l14.39,11.4-13.91-6.42a38.56,38.56,0,0,0,2.41,13.18A85.49,85.49,0,0,1,123,344l-10.66-4.21s-.73,7,2.19,17.75c.77,2.8,3.92,8.17,5.92,12.17a45.09,45.09,0,0,0,3.09,5.35c.07.11.14.22.22.33q3.66-2.1,7.6-4.06c1.71-3.61,4-12.51,4.76-19.8,3.07-27.92-18-43.92-35-49.28A50.47,50.47,0,0,1,109.27,318.11Z" transform="translate(-84.58 -27.02)"/><path class="cls-10" d="M109.27,318.11l14.39,11.4-13.91-6.42a38.56,38.56,0,0,0,2.41,13.18A85.49,85.49,0,0,1,123,344l-10.66-4.21s-.73,7,2.19,17.75c.77,2.8,3.92,8.17,5.92,12.17a45.09,45.09,0,0,0,3.09,5.35c.07.11.14.22.22.33q3.66-2.1,7.6-4.06c1.71-3.61,4-12.51,4.76-19.8,3.07-27.92-18-43.92-35-49.28A50.47,50.47,0,0,1,109.27,318.11Z" transform="translate(-84.58 -27.02)"/><path class="cls-3" d="M121.3,319.27c2.94,3,4.66,6.84,6,10.73a56.63,56.63,0,0,1,2.56,12.08,52.43,52.43,0,0,1-3.05,24.24h0a.4.4,0,0,0,.75.29h0a53,53,0,0,0,2.7-24.58,56.34,56.34,0,0,0-2.77-12.1C126.08,326.06,124.29,322.18,121.3,319.27Z" transform="translate(-84.58 -27.02)"/><path class="cls-9" d="M171.54,332.75h0a215.05,215.05,0,0,0-15,21.13l-14.6,2.35,10.77,1.88-5.78,9.15-14.37,3,11.22,1.83s-3.12,10.95-11.15,15.51c-4.43,2.52-6.6,2.9-7.93,1.64-.93-.89-1.14-6.14-1.92-10.82s-.84-12.31,3.59-21.5a28.62,28.62,0,0,1,4.59-6.76C141.54,338.31,161.61,332.6,171.54,332.75Z" transform="translate(-84.58 -27.02)"/><path class="cls-11" d="M171.54,332.75h0a215.05,215.05,0,0,0-15,21.13l-14.6,2.35,10.77,1.88-5.78,9.15-14.37,3,11.22,1.83s-3.12,10.95-11.15,15.51c-4.43,2.52-6.6,2.9-7.93,1.64-.93-.89-1.14-6.14-1.92-10.82s-.84-12.31,3.59-21.5a28.62,28.62,0,0,1,4.59-6.76C141.54,338.31,161.61,332.6,171.54,332.75Z" transform="translate(-84.58 -27.02)"/><path class="cls-3" d="M156.27,337.52a59.5,59.5,0,0,0-20.3,14,39.92,39.92,0,0,0-7,10.33,37.74,37.74,0,0,0-3.17,12,0,0,0,0,0,0,0s0,0,0,0a48.46,48.46,0,0,1,3.83-11.66,44.58,44.58,0,0,1,6.7-10.23,60.73,60.73,0,0,1,19.85-14.39s0,0,0,0A0,0,0,0,0,156.27,337.52Z" transform="translate(-84.58 -27.02)"/><path class="cls-9" d="M84.58,338.77h0a30.29,30.29,0,0,1,3.67.17,58.66,58.66,0,0,1,14,3.42c1.68.62,3.36,1.33,5,2.12.82.4,1.64.82,2.45,1.25a40.91,40.91,0,0,1,10.77,8.14,25.71,25.71,0,0,1,3.7,5.21c.13.24.27.48.4.73h0c.31.64.59,1.27.86,1.9A35.19,35.19,0,0,1,128.67,379c-.15,4.19-1.58,9-2.39,9.77a2,2,0,0,1-.37.27c-1.19.76-3.09.32-6.64-1.67-7.11-4-9.91-14.06-9.91-14.06l-2.8-4.21-5.16-8,9.49-1.73-12.9-2A189.71,189.71,0,0,0,84.6,338.79l0,0Z" transform="translate(-84.58 -27.02)"/><path class="cls-11" d="M84.58,338.77h0a30.29,30.29,0,0,1,3.67.17,58.66,58.66,0,0,1,14,3.42c1.68.62,3.36,1.33,5,2.12.82.4,1.64.82,2.45,1.25a40.91,40.91,0,0,1,10.77,8.14,25.71,25.71,0,0,1,3.7,5.21c.13.24.27.48.4.73h0c.31.64.59,1.27.86,1.9A35.19,35.19,0,0,1,128.67,379c-.15,4.19-1.58,9-2.39,9.77a2,2,0,0,1-.37.27c-1.19.76-3.09.32-6.64-1.67-7.11-4-9.91-14.06-9.91-14.06l-2.8-4.21-5.16-8,9.49-1.73-12.9-2A189.71,189.71,0,0,0,84.6,338.79l0,0Z" transform="translate(-84.58 -27.02)"/><path class="cls-12" d="M88.25,338.94a58.66,58.66,0,0,1,14,3.42c1.68.62,3.36,1.33,5,2.12.82.4,1.64.82,2.45,1.25a40.91,40.91,0,0,1,10.77,8.14,25.71,25.71,0,0,1,3.7,5.21c.13.24.27.48.4.73h0c.31.64.59,1.27.86,1.9A35.19,35.19,0,0,1,128.67,379c-.15,4.19-1.58,9-2.39,9.77a2,2,0,0,1-.37.27,2.21,2.21,0,0,1-.78.29c.88-6.5-2.32-23-7.15-29.74-5-7.05-17-17.27-33.38-20.79v0A31.87,31.87,0,0,1,88.25,338.94Z" transform="translate(-84.58 -27.02)"/><path class="cls-3" d="M125.17,389.32a55.81,55.81,0,0,0-.93-14.36,46.21,46.21,0,0,0-4.77-13.62,40.16,40.16,0,0,0-9.64-10.77,53.52,53.52,0,0,0-12.38-7.42,0,0,0,0,0,0,.07,71,71,0,0,1,11.9,8,52.35,52.35,0,0,1,5.23,4.87,31.43,31.43,0,0,1,4.36,5.6A45.81,45.81,0,0,1,123.84,375a55.58,55.58,0,0,1,1.25,14.27,0,0,0,0,0,0,.05A0,0,0,0,0,125.17,389.32Z" transform="translate(-84.58 -27.02)"/></g></g><g id="Window-2" data-name="Window"><g id="Window-3" data-name="Window"><path class="cls-1" d="M339.23,56l-180.7,104.2a7.47,7.47,0,0,0-3.38,5.85v292a7.44,7.44,0,0,0,3.39,5.84l.68.39a7.51,7.51,0,0,0,6.77,0L346.69,360a7.49,7.49,0,0,0,3.38-5.85V62.26a7.44,7.44,0,0,0-3.39-5.84L346,56A7.52,7.52,0,0,0,339.23,56Z" transform="translate(-84.58 -27.02)"/><path class="cls-3" d="M165.2,463.71c-1.3,0-2.07-1-2.07-2.82V171.83a8.8,8.8,0,0,1,4.39-7.61L345.65,61.34a2.6,2.6,0,0,1,3.9,2.26V354.41c0,2.33-1.36,4.15-4.41,5.9L167,463.14A3.65,3.65,0,0,1,165.2,463.71Z" transform="translate(-84.58 -27.02)"/><path class="cls-2" d="M347,61.51A2.1,2.1,0,0,1,349,63.6V354.41c0,2.12-1.28,3.8-4.16,5.46L166.77,462.7a3.36,3.36,0,0,1-1.57.5c-1.41,0-1.56-1.62-1.56-2.31V171.83a8.31,8.31,0,0,1,4.13-7.17L345.91,61.79a2,2,0,0,1,1-.28m0-1a3.1,3.1,0,0,0-1.56.42L167.26,163.77a9.32,9.32,0,0,0-4.65,8.06V460.89c0,2.12,1.06,3.34,2.59,3.34a4.24,4.24,0,0,0,2.08-.64L345.4,360.76c2.58-1.49,4.67-3.38,4.67-6.35V63.6A3.12,3.12,0,0,0,347,60.48Z" transform="translate(-84.58 -27.02)"/><path class="cls-9" d="M163.81,167.27a9.21,9.21,0,0,0-1.2,4.56V181l-7.45-4.31V166.09a6.82,6.82,0,0,1,1-3.26Z" transform="translate(-84.58 -27.02)"/><path class="cls-13" d="M163.81,167.27a9.21,9.21,0,0,0-1.2,4.56V181l-7.45-4.31V166.09a6.82,6.82,0,0,1,1-3.26Z" transform="translate(-84.58 -27.02)"/><path class="cls-9" d="M162.61,181,350.07,72.75V63.6a3.12,3.12,0,0,0-4.68-2.7L167.26,163.77a9.32,9.32,0,0,0-4.65,8.06Z" transform="translate(-84.58 -27.02)"/><path class="cls-9" d="M350.07,62.27v1.32a3.12,3.12,0,0,0-4.68-2.69L167.26,163.78a9.14,9.14,0,0,0-3.4,3.39l-.05.11-7.71-4.46a6.88,6.88,0,0,1,2.44-2.57L339.22,56A7.51,7.51,0,0,1,346,56l.68.4A7.4,7.4,0,0,1,350.07,62.27Z" transform="translate(-84.58 -27.02)"/><path class="cls-14" d="M350.07,62.27v1.32a3.12,3.12,0,0,0-4.68-2.69L167.26,163.78a9.14,9.14,0,0,0-3.4,3.39l-.05.11-7.71-4.46a6.88,6.88,0,0,1,2.44-2.57L339.22,56A7.51,7.51,0,0,1,346,56l.68.4A7.4,7.4,0,0,1,350.07,62.27Z" transform="translate(-84.58 -27.02)"/><path class="cls-3" d="M324.68,77.76c1.15-.66,2.09-.12,2.09,1.21a4.64,4.64,0,0,1-2.09,3.62c-1.16.66-2.09.12-2.09-1.21A4.61,4.61,0,0,1,324.68,77.76Z" transform="translate(-84.58 -27.02)"/><path class="cls-3" d="M333,72.94c1.16-.67,2.09-.13,2.09,1.21A4.58,4.58,0,0,1,333,77.76c-1.15.67-2.08.13-2.08-1.2A4.63,4.63,0,0,1,333,72.94Z" transform="translate(-84.58 -27.02)"/><path class="cls-3" d="M341.39,68.12c1.15-.67,2.09-.13,2.09,1.2a4.64,4.64,0,0,1-2.09,3.62c-1.15.67-2.09.13-2.09-1.21A4.61,4.61,0,0,1,341.39,68.12Z" transform="translate(-84.58 -27.02)"/></g><g id="Image"><polygon class="cls-15" points="258.11 153.48 85.42 253.18 85.42 157.64 258.11 57.94 258.11 153.48"/><path class="cls-1" d="M170.25,243.45l.35-.76c.4-.83,1.1-1.27,1.52-.95h0c.42.3,1.11-.11,1.5-.92L180,228c.38-.78,1-1.2,1.46-.94l5.36,3.21c.28.16.67.05,1-.31l1.27-1.28c.34-.34.71-.46,1-.32l3.13,1.54c.38.19.93-.12,1.31-.74l2.43-4c.39-.63.95-.94,1.32-.73l8.06,4.53c.4.22,1-.12,1.38-.81l6.18-10.84c.43-.76,1.09-1.09,1.47-.73l4.1,3.82c.32.3.87.1,1.3-.47l1.56-2.09c.36-.48.81-.7,1.15-.57l21.77,8.9L170,269.63V244.47A2.29,2.29,0,0,1,170.25,243.45Z" transform="translate(-84.58 -27.02)"/><path class="cls-16" d="M170.25,243.45l.35-.76c.4-.83,1.1-1.27,1.52-.95h0c.42.3,1.11-.11,1.5-.92L180,228c.38-.78,1-1.2,1.46-.94l5.36,3.21c.28.16.67.05,1-.31l1.27-1.28c.34-.34.71-.46,1-.32l3.13,1.54c.38.19.93-.12,1.31-.74l2.43-4c.39-.63.95-.94,1.32-.73l8.06,4.53c.4.22,1-.12,1.38-.81l6.18-10.84c.43-.76,1.09-1.09,1.47-.73l4.1,3.82c.32.3.87.1,1.3-.47l1.56-2.09c.36-.48.81-.7,1.15-.57l21.77,8.9L170,269.63V244.47A2.29,2.29,0,0,1,170.25,243.45Z" transform="translate(-84.58 -27.02)"/><path class="cls-3" d="M173.37,245.42l-.87-.64s1.65-.84,1.83-1.63a5.1,5.1,0,0,0,0-1.71l5.84-5.31-2.79.7a31.33,31.33,0,0,0,2.18-5c.29-1.35.47-3.85,1-4.55a2.13,2.13,0,0,0-.52.7l-6.38,12.86c-.39.81-1.08,1.22-1.5.92s-1.12.12-1.52.95l-.35.76a2.29,2.29,0,0,0-.25,1v5.75l.75-3.29Z" transform="translate(-84.58 -27.02)"/><path class="cls-5" d="M189.12,230.73c.77-.57,0-1.25,0-1.25l1-1.16c-.27-.14-.64,0-1,.32l-1.27,1.28a1,1,0,0,1-.89.36l1.08.45v1.63A3.67,3.67,0,0,1,189.12,230.73Z" transform="translate(-84.58 -27.02)"/><path class="cls-3" d="M197.83,232a16.74,16.74,0,0,1-1.26-3.16c-.08-.83,1.26-.73,1.26-.73l-.48-1.1s.21-2.94,1.3-2.33h0l-.37-.21c-.37-.21-.93.1-1.32.73l-2.43,4c-.35.56-.83.87-1.19.78Z" transform="translate(-84.58 -27.02)"/><path class="cls-3" d="M213,231.62l2.36-2.23-3.21.18S216,225,216.91,224s-5.55,3.21-5.55,3.21,1.94-1.93,1.62-2.16a4.62,4.62,0,0,0-1.58-.28l2.68-3.65s-.94-.08-.47-1.38,1-3.42,1.65-3.18c-.39-.21-1,.12-1.36.81l-6.18,10.84a1.59,1.59,0,0,1-1,.87Z" transform="translate(-84.58 -27.02)"/><path class="cls-3" d="M220.89,220.64a13.88,13.88,0,0,0-.61,1.44,11.32,11.32,0,0,0,2-1.68c.42-.45.24-1.22.43-1.59s.28-1.74,1.27-1.34l-.46-.19c-.34-.13-.79.09-1.15.57l-1.56,2.09a1.7,1.7,0,0,1-.22.24h0a1.63,1.63,0,0,1-.36.26c-.41.29-.88.66-.73.77S220.89,220.64,220.89,220.64Z" transform="translate(-84.58 -27.02)"/><path class="cls-1" d="M342.16,141.23l-3.5-2.21c-.36-.22-.91.11-1.25.75l-10.32,19.34c-.38.72-1,1-1.35.66l-2-2.26c-.33-.36-.94-.07-1.33.62h0c-.37.67-.95,1-1.29.66l-1.91-1.73c-.33-.29-.89,0-1.26.61l-8.23,13.88c-.34.58-.86.87-1.19.65l-1.37-.87c-.32-.2-.8,0-1.15.58l-28.18,43.47c-.7,1.08-.34,2.78.54,2.27l63.21-36.49a3.7,3.7,0,0,0,1.14-2.29V141.54Z" transform="translate(-84.58 -27.02)"/><path class="cls-16" d="M342.16,141.23l-3.5-2.21c-.36-.22-.91.11-1.25.75l-10.32,19.34c-.38.72-1,1-1.35.66l-2-2.26c-.33-.36-.94-.07-1.33.62h0c-.37.67-.95,1-1.29.66l-1.91-1.73c-.33-.29-.89,0-1.26.61l-8.23,13.88c-.34.58-.86.87-1.19.65l-1.37-.87c-.32-.2-.8,0-1.15.58l-28.18,43.47c-.7,1.08-.34,2.78.54,2.27l63.21-36.49a3.7,3.7,0,0,0,1.14-2.29V141.54Z" transform="translate(-84.58 -27.02)"/><path class="cls-3" d="M338.66,139c-.36-.22-.91.11-1.25.75l-10.32,19.34-.72,1.35-3.58,6.43s4.74-5.52,6.46-7.16,5.07-4.6,4.71-4.56l-1.85.2s1.84-1.3,1.88-2-.93-.95-.93-.95a54.34,54.34,0,0,0,4.49-3.61c.59-.73-2.81.45-2.87-.45s3.64-4.06,3.34-5.22a7,7,0,0,1,0-2.9c.1-.77.26-1.5,1.37-.79Z" transform="translate(-84.58 -27.02)"/><path class="cls-3" d="M287.6,202.5s13.2-5.43,13.38-5.44,2.87-10.83,2.88-13.16-2.4.58-2.4-.25-1.32.81-1.31.46,3.82-3.77,3.82-3.77a22,22,0,0,0-2.27,1.31c-.42.37.65-1.44,3.51-4.6s1.54-3,1.54-3-1.11.77-.81,0,1.07-2.72,1.62-2.37h0l-.44-.28c-.32-.2-.8,0-1.15.58L287.14,201Z" transform="translate(-84.58 -27.02)"/><path class="cls-5" d="M307.28,194.06a56.12,56.12,0,0,1-8.34,5.4,27.46,27.46,0,0,1-3.86,1.57,11.18,11.18,0,0,1-3.37.45,27.56,27.56,0,0,0-3.84,1,14.68,14.68,0,0,1-7.17-.08c-.6-.2-1.43-.5-1.62-1.38a4,4,0,0,1,1.15-2.76c.78-.85,1.83-.93,2,0,.17-.61.88-.93,1-.43.23-.34.6-.29.59.07,0-.43.49-.91.72-.75-.28-.19-.32-.79-.09-1.33s.7-.94,1-.89a3.36,3.36,0,0,1,1.27-1.92.87.87,0,0,1,1.35.26,1.15,1.15,0,0,1,.13-1.15c.26-.38.65-.51.82-.27a2.08,2.08,0,0,1,.55-1.6c.39-.4.86-.4,1,0a7.44,7.44,0,0,1,.8-3c.56-.94,1.64-1.35,1.75-.47a2.11,2.11,0,0,1,.77-1.12c.32-.18.63.1.5.56.3-.5.8-.75,1.07-.54s.27.87,0,1.4c.26-.31.61-.39.77-.17a1.18,1.18,0,0,1-.07,1.1.84.84,0,0,1,.48-.63c.2,0,.33.18.28.47a2,2,0,0,1,1.08-1.47c.45-.12.77.33.69,1a1.34,1.34,0,0,1,.55-1,.35.35,0,0,1,.56.31,2,2,0,0,1,.81-1.62c.45-.26.85.09.8.71.25-.51.8-.65.89-.22a3.42,3.42,0,0,1,1.53-2.51c.73-.34,1.34.23,1.3,1.2.37-.67,1.11-.59,1,.11.09-.68.65-1.44,1.11-1.5s.72.57.5,1.27c.3-.37.71-.3.73.12.19-.7,1-.9,1-.23a2,2,0,0,1,.78-1.38c.39-.23.75,0,.81.44a3,3,0,0,1,.86-1.8c.45-.42,1-.49,1.25-.17-.13-.11.08-.51.26-.69.86-.82,1.83-.74,2.26,0a4.8,4.8,0,0,1,0,3.38,13.26,13.26,0,0,1-1.77,3.6A27.84,27.84,0,0,1,307.28,194.06Z" transform="translate(-84.58 -27.02)"/><path class="cls-17" d="M307.28,194.06a56.12,56.12,0,0,1-8.34,5.4,27.46,27.46,0,0,1-3.86,1.57,11.18,11.18,0,0,1-3.37.45,27.56,27.56,0,0,0-3.84,1,14.68,14.68,0,0,1-7.17-.08c-.6-.2-1.43-.5-1.62-1.38a4,4,0,0,1,1.15-2.76c.78-.85,1.83-.93,2,0,.17-.61.88-.93,1-.43.23-.34.6-.29.59.07,0-.43.49-.91.72-.75-.28-.19-.32-.79-.09-1.33s.7-.94,1-.89a3.36,3.36,0,0,1,1.27-1.92.87.87,0,0,1,1.35.26,1.15,1.15,0,0,1,.13-1.15c.26-.38.65-.51.82-.27a2.08,2.08,0,0,1,.55-1.6c.39-.4.86-.4,1,0a7.44,7.44,0,0,1,.8-3c.56-.94,1.64-1.35,1.75-.47a2.11,2.11,0,0,1,.77-1.12c.32-.18.63.1.5.56.3-.5.8-.75,1.07-.54s.27.87,0,1.4c.26-.31.61-.39.77-.17a1.18,1.18,0,0,1-.07,1.1.84.84,0,0,1,.48-.63c.2,0,.33.18.28.47a2,2,0,0,1,1.08-1.47c.45-.12.77.33.69,1a1.34,1.34,0,0,1,.55-1,.35.35,0,0,1,.56.31,2,2,0,0,1,.81-1.62c.45-.26.85.09.8.71.25-.51.8-.65.89-.22a3.42,3.42,0,0,1,1.53-2.51c.73-.34,1.34.23,1.3,1.2.37-.67,1.11-.59,1,.11.09-.68.65-1.44,1.11-1.5s.72.57.5,1.27c.3-.37.71-.3.73.12.19-.7,1-.9,1-.23a2,2,0,0,1,.78-1.38c.39-.23.75,0,.81.44a3,3,0,0,1,.86-1.8c.45-.42,1-.49,1.25-.17-.13-.11.08-.51.26-.69.86-.82,1.83-.74,2.26,0a4.8,4.8,0,0,1,0,3.38,13.26,13.26,0,0,1-1.77,3.6A27.84,27.84,0,0,1,307.28,194.06Z" transform="translate(-84.58 -27.02)"/><path class="cls-5" d="M232.68,233.18a7.06,7.06,0,0,0,1.64-3.39c.05-.74-.25-1.3-.72-1.37a1.84,1.84,0,0,0-1.54,1c-.24-.63-1.16-.26-1.54.61.23-.93-.2-1.68-.83-1.48a2.61,2.61,0,0,0-1.35,2.16c-.06-.47-.41-.7-.81-.51a2,2,0,0,0-.91,1.33c-.07-.42-.15-.85-.41-1s-.75.13-.89.64c.06-.52-.14-.92-.47-1s-.76.28-1,.77c.58-1.2,0-2.51-.84-2s-1.48,2.42-.94,3c-.26-.38-.93,0-1.23.63l0,.54c-.14-.33-.6-.23-.88.2s-.3,1.06-.05,1.22c-.19-.53-.86-.42-1.3.2a1.88,1.88,0,0,0-.08-1.47c-.24-.29-.79-.08-1,.48.08-.31-.17-.45-.39-.29a2.21,2.21,0,0,0-.55.77c.16-.6-.35-.84-.74-.41a1.88,1.88,0,0,0-.38,1.62c-.33-.28-1,.12-1.27.78.07-.53-.47-.56-.8-.11a2,2,0,0,0-.29,1.52c-.41-.23-1.05.1-1.5.75a2.82,2.82,0,0,0-.46,2.14c.28.85,1.21.41,1.95.45a44.23,44.23,0,0,0,6.4-.07c2.16-.17,4.17.21,6.55-1.21A25.76,25.76,0,0,0,232.68,233.18Z" transform="translate(-84.58 -27.02)"/><path class="cls-17" d="M232.68,233.18a7.06,7.06,0,0,0,1.64-3.39c.05-.74-.25-1.3-.72-1.37a1.84,1.84,0,0,0-1.54,1c-.24-.63-1.16-.26-1.54.61.23-.93-.2-1.68-.83-1.48a2.61,2.61,0,0,0-1.35,2.16c-.06-.47-.41-.7-.81-.51a2,2,0,0,0-.91,1.33c-.07-.42-.15-.85-.41-1s-.75.13-.89.64c.06-.52-.14-.92-.47-1s-.76.28-1,.77c.58-1.2,0-2.51-.84-2s-1.48,2.42-.94,3c-.26-.38-.93,0-1.23.63l0,.54c-.14-.33-.6-.23-.88.2s-.3,1.06-.05,1.22c-.19-.53-.86-.42-1.3.2a1.88,1.88,0,0,0-.08-1.47c-.24-.29-.79-.08-1,.48.08-.31-.17-.45-.39-.29a2.21,2.21,0,0,0-.55.77c.16-.6-.35-.84-.74-.41a1.88,1.88,0,0,0-.38,1.62c-.33-.28-1,.12-1.27.78.07-.53-.47-.56-.8-.11a2,2,0,0,0-.29,1.52c-.41-.23-1.05.1-1.5.75a2.82,2.82,0,0,0-.46,2.14c.28.85,1.21.41,1.95.45a44.23,44.23,0,0,0,6.4-.07c2.16-.17,4.17.21,6.55-1.21A25.76,25.76,0,0,0,232.68,233.18Z" transform="translate(-84.58 -27.02)"/><path class="cls-5" d="M182.94,257.16a6.32,6.32,0,0,1-.48-2.39c0-.59.22-1.24.24-1.83s-.15-1-.55-1.1a1,1,0,0,0-.58.1s-.55.34-.55.44a.42.42,0,0,0-.3-.43.82.82,0,0,0-.56.19,3,3,0,0,0-.86,1c0-.21-.23-.23-.41-.11a2,2,0,0,0-.47.58c.11-.34-.07-.6-.31-.53a1.51,1.51,0,0,0-.66.7,1.41,1.41,0,0,0-.18-1c-.2-.27-.49-.13-.83.06a2.92,2.92,0,0,0-.91.77,2.18,2.18,0,0,0-.47,1.25c0-.42-.32-.52-.62-.29a3.25,3.25,0,0,0-.78,1.06c.09-.45-.18-.71-.48-.64a2.39,2.39,0,0,0-.94.66,5.12,5.12,0,0,0,.2-1.17c0-.36-.13-.68-.38-.68a1.87,1.87,0,0,0,.42-1.7c-.19-.36-.72-.27-1.1.1a3.38,3.38,0,0,0-.68,1.32.67.67,0,0,1-.7.41v26.3l.88-.51c4.51-3.8,8.9-9.24,13.12-14.06C183.4,263,183.69,259.63,182.94,257.16Z" transform="translate(-84.58 -27.02)"/><path class="cls-17" d="M182.94,257.16a6.32,6.32,0,0,1-.48-2.39c0-.59.22-1.24.24-1.83s-.15-1-.55-1.1a1,1,0,0,0-.58.1s-.55.34-.55.44a.42.42,0,0,0-.3-.43.82.82,0,0,0-.56.19,3,3,0,0,0-.86,1c0-.21-.23-.23-.41-.11a2,2,0,0,0-.47.58c.11-.34-.07-.6-.31-.53a1.51,1.51,0,0,0-.66.7,1.41,1.41,0,0,0-.18-1c-.2-.27-.49-.13-.83.06a2.92,2.92,0,0,0-.91.77,2.18,2.18,0,0,0-.47,1.25c0-.42-.32-.52-.62-.29a3.25,3.25,0,0,0-.78,1.06c.09-.45-.18-.71-.48-.64a2.39,2.39,0,0,0-.94.66,5.12,5.12,0,0,0,.2-1.17c0-.36-.13-.68-.38-.68a1.87,1.87,0,0,0,.42-1.7c-.19-.36-.72-.27-1.1.1a3.38,3.38,0,0,0-.68,1.32.67.67,0,0,1-.7.41v26.3l.88-.51c4.51-3.8,8.9-9.24,13.12-14.06C183.4,263,183.69,259.63,182.94,257.16Z" transform="translate(-84.58 -27.02)"/><path class="cls-5" d="M170,273c9.64-4.55,45.21-26.81,57.11-37.14S250.64,213,265,205.56c15.32-7.9,48.56-12,54.23-11.54L170,280.2Z" transform="translate(-84.58 -27.02)"/><path class="cls-16" d="M170,273c9.64-4.55,45.21-26.81,57.11-37.14S250.64,213,265,205.56c15.32-7.9,48.56-12,54.23-11.54L170,280.2Z" transform="translate(-84.58 -27.02)"/><path class="cls-5" d="M236.13,225.4h0a.84.84,0,0,0-.3.34c-.08.19,0,.4.11.38a.45.45,0,0,0-.21.39c0,.14.11.2.22.12a.4.4,0,0,0-.21.31c0,.13.09.2.18.14a1,1,0,0,0-.42.38.83.83,0,0,0-.13.59c.06.17.21.14.35.05a.9.9,0,0,0,0,.58c.07.13.26.12.38-.06a.4.4,0,0,0,0,.42c.08.08.22,0,.33-.11a2.48,2.48,0,0,1,.19-.26c.1-.08.19-.05.29-.05s.55-.36.65-.73c.17.19.57,0,.72-.43s-.07-.77-.35-.56c.08-.2.22-.52.13-.66s-.2-.07-.31.07c.05-.18,0-.35-.12-.35a.62.62,0,0,0,.2-.37c0-.14-.05-.23-.15-.19a1.19,1.19,0,0,0,.23-.64.18.18,0,0,0-.22-.18.69.69,0,0,0-.34.23c.06-.23,0-.42-.19-.38.09-.14.19-.34.15-.46s-.13-.06-.22,0a.41.41,0,0,0,.08-.37c0-.1-.15-.1-.24,0,.07-.24-.09-.67-.32-.39a.5.5,0,0,0-.09.32.76.76,0,0,0,0,.34c-.06-.05-.17,0-.23.14a.37.37,0,0,0,0,.32.15.15,0,0,0,.2.06c-.1.11-.21.18-.31.29a1,1,0,0,0-.24.49A.27.27,0,0,0,236.13,225.4Z" transform="translate(-84.58 -27.02)"/><path class="cls-13" d="M236.13,225.4h0a.84.84,0,0,0-.3.34c-.08.19,0,.4.11.38a.45.45,0,0,0-.21.39c0,.14.11.2.22.12a.4.4,0,0,0-.21.31c0,.13.09.2.18.14a1,1,0,0,0-.42.38.83.83,0,0,0-.13.59c.06.17.21.14.35.05a.9.9,0,0,0,0,.58c.07.13.26.12.38-.06a.4.4,0,0,0,0,.42c.08.08.22,0,.33-.11a2.48,2.48,0,0,1,.19-.26c.1-.08.19-.05.29-.05s.55-.36.65-.73c.17.19.57,0,.72-.43s-.07-.77-.35-.56c.08-.2.22-.52.13-.66s-.2-.07-.31.07c.05-.18,0-.35-.12-.35a.62.62,0,0,0,.2-.37c0-.14-.05-.23-.15-.19a1.19,1.19,0,0,0,.23-.64.18.18,0,0,0-.22-.18.69.69,0,0,0-.34.23c.06-.23,0-.42-.19-.38.09-.14.19-.34.15-.46s-.13-.06-.22,0a.41.41,0,0,0,.08-.37c0-.1-.15-.1-.24,0,.07-.24-.09-.67-.32-.39a.5.5,0,0,0-.09.32.76.76,0,0,0,0,.34c-.06-.05-.17,0-.23.14a.37.37,0,0,0,0,.32.15.15,0,0,0,.2.06c-.1.11-.21.18-.31.29a1,1,0,0,0-.24.49A.27.27,0,0,0,236.13,225.4Z" transform="translate(-84.58 -27.02)"/><path class="cls-5" d="M241.88,227.3c3.63,0,13.26-8,16.47-10.7s-1.13,2.58.26,3,10-9.41,15.48-13.48a95.72,95.72,0,0,1,12.52-7.57c-8.1,1.83-16,4.19-21.58,7.06a98,98,0,0,0-18,12.39C241.86,223.56,238.24,227.34,241.88,227.3Z" transform="translate(-84.58 -27.02)"/><path class="cls-16" d="M294.81,196.83c-10,9.81-20.11,19.8-31.8,26.55-11.53,6.65-25.91,12.05-33.72,10.52h0c-.72.65-1.45,1.29-2.18,1.92C215.21,246.15,179.64,268.41,170,273v7.24L319.26,194C316.34,193.79,306.12,194.76,294.81,196.83Z" transform="translate(-84.58 -27.02)"/><path class="cls-5" d="M170,263.39s9.6-11.13,20.24-17.23,20.38-8.24,28.62-8.1,21.54.56,25.85-1L170,280.2Z" transform="translate(-84.58 -27.02)"/><path class="cls-16" d="M170,263.39s9.6-11.13,20.24-17.23,20.38-8.24,28.62-8.1,21.54.56,25.85-1L170,280.2Z" transform="translate(-84.58 -27.02)"/><path class="cls-5" d="M189.49,246.6l-.4.24-.2.12-.39.25-.18.11-.56.36,0,0-.52.35-.17.12-.39.26-.19.13-.39.27-.17.12-.54.38-.06,0-.48.35-.18.13-.37.27-.18.14-.38.29-.15.12-.52.4-.09.07-.43.34-.17.14c-.12.09-.24.18-.35.28l-.18.14-.37.3-.13.11-.5.41-.09.08-.4.34-.16.13-.33.29-.16.14-.36.31-.11.1-.47.41-.08.07-.37.33-.14.13-.32.29-.14.12-.35.33-.08.07-.44.41-.05.05c-.13.11-.25.23-.36.34l-.12.1-.31.3-.1.1-.36.34,0,0-.4.39,0,0-.34.33-.07.07-.31.3-.06.07-.71.71h0c-.28,1.1.45,1.55,2.58,1.1,7.35-1.55,18.06-13.12,22.52-14.73-.59.25-5,4.77-1.68,3.47,3-1.21,17.18-9.71,35.32-11.42-4.63.14-9.58.11-13.43.05-8.24-.14-18,2-28.62,8.1l-.57.33Z" transform="translate(-84.58 -27.02)"/><path class="cls-16" d="M170,267.6c7-.08,26.74-9.86,32.7-14.27,5-3.67-4.81,6.6-4.81,6.6s20.08-7.43,46.82-22.87L170,280.2Z" transform="translate(-84.58 -27.02)"/><path class="cls-10" d="M208.14,240.14c5.76-1.13,18.79-2,19-2-3,0-5.82,0-8.25,0-8.24-.14-18,2-28.62,8.1S170,263.39,170,263.39v1.38a153.83,153.83,0,0,1,15.27-14A57.43,57.43,0,0,1,208.14,240.14Z" transform="translate(-84.58 -27.02)"/><path class="cls-5" d="M186.18,252.43s-.46.14-.4,0c-.25.49-.74.75-1,.5,0,0,0-.05-.08-.05s-.11.07-.16.13c-.22.21-.47,0-.41-.29-.16.18-.36.15-.4,0a.73.73,0,0,1,.27-.63c-.12-.05-.12-.3,0-.52a2.59,2.59,0,0,1,.34-.58.6.6,0,0,1-.15-.67,1.1,1.1,0,0,1,.64-.63,1.51,1.51,0,0,1-.06-.44l.1-.17c-.11,0-.19-.1-.16-.27a.5.5,0,0,1,.28-.38.43.43,0,0,1-.22-.31c-.05-.33.26-.45.34-.75s-.05-.51.07-.78a.45.45,0,0,1,.26-.25.65.65,0,0,1-.11-.33.57.57,0,0,1,.17-.42c.12-.09.22,0,.26.11s0,.28,0,.42l.31-.17c0,.2-.06.44.06.49s.29-.08.41,0a.47.47,0,0,1,0,.56c0,.08-.1.15-.13.23-.07.23.15.27.17.47s-.12.44,0,.55.07,0,.11,0h.36c.08,0,.17,0,.18.13s-.33.49-.37.77a.47.47,0,0,1,.32,0c.1,0,.16.17.11.33a.58.58,0,0,0-.05.21c0,.06.1,0,.13.07s0,.29-.12.4a.85.85,0,0,0-.25.4.5.5,0,0,1,.3,0,.31.31,0,0,1,.13.33c0,.22-.17.32-.27.5a5.62,5.62,0,0,1-.25.56C186.74,252.31,186.42,252.32,186.18,252.43Z" transform="translate(-84.58 -27.02)"/><path class="cls-13" d="M186.18,252.43s-.46.14-.4,0c-.25.49-.74.75-1,.5,0,0,0-.05-.08-.05s-.11.07-.16.13c-.22.21-.47,0-.41-.29-.16.18-.36.15-.4,0a.73.73,0,0,1,.27-.63c-.12-.05-.12-.3,0-.52a2.59,2.59,0,0,1,.34-.58.6.6,0,0,1-.15-.67,1.1,1.1,0,0,1,.64-.63,1.51,1.51,0,0,1-.06-.44l.1-.17c-.11,0-.19-.1-.16-.27a.5.5,0,0,1,.28-.38.43.43,0,0,1-.22-.31c-.05-.33.26-.45.34-.75s-.05-.51.07-.78a.45.45,0,0,1,.26-.25.65.65,0,0,1-.11-.33.57.57,0,0,1,.17-.42c.12-.09.22,0,.26.11s0,.28,0,.42l.31-.17c0,.2-.06.44.06.49s.29-.08.41,0a.47.47,0,0,1,0,.56c0,.08-.1.15-.13.23-.07.23.15.27.17.47s-.12.44,0,.55.07,0,.11,0h.36c.08,0,.17,0,.18.13s-.33.49-.37.77a.47.47,0,0,1,.32,0c.1,0,.16.17.11.33a.58.58,0,0,0-.05.21c0,.06.1,0,.13.07s0,.29-.12.4a.85.85,0,0,0-.25.4.5.5,0,0,1,.3,0,.31.31,0,0,1,.13.33c0,.22-.17.32-.27.5a5.62,5.62,0,0,1-.25.56C186.74,252.31,186.42,252.32,186.18,252.43Z" transform="translate(-84.58 -27.02)"/><path class="cls-5" d="M190.34,251.1h0a.84.84,0,0,0-.3.34c-.08.19,0,.4.11.37a.51.51,0,0,0-.21.39c0,.15.11.21.22.13a.35.35,0,0,0-.2.31c0,.13.08.2.17.14a1,1,0,0,0-.42.38.83.83,0,0,0-.13.59c.06.16.21.14.36.05a.84.84,0,0,0,0,.58c.07.13.26.12.38-.06a.38.38,0,0,0,0,.42c.07.07.21,0,.32-.11a1.34,1.34,0,0,1,.19-.26c.1-.09.19,0,.29,0s.55-.36.65-.74c.17.2.57,0,.72-.42s-.07-.77-.35-.56c.08-.21.22-.52.13-.67s-.2-.06-.3.08c.05-.19,0-.35-.12-.36a.6.6,0,0,0,.19-.36c0-.14-.05-.24-.15-.19a1.19,1.19,0,0,0,.23-.64.19.19,0,0,0-.22-.19.79.79,0,0,0-.34.24c.06-.23,0-.42-.19-.39.09-.14.2-.34.15-.45s-.13-.06-.22,0a.46.46,0,0,0,.09-.38c0-.09-.15-.09-.25,0,.07-.25-.08-.67-.31-.39a.51.51,0,0,0-.1.32.86.86,0,0,0,0,.33c-.06,0-.17,0-.23.15a.38.38,0,0,0,0,.31c0,.08.11.09.2.06-.1.12-.21.19-.31.3a1,1,0,0,0-.24.49A.28.28,0,0,0,190.34,251.1Z" transform="translate(-84.58 -27.02)"/><path class="cls-10" d="M190.34,251.1h0a.84.84,0,0,0-.3.34c-.08.19,0,.4.11.37a.51.51,0,0,0-.21.39c0,.15.11.21.22.13a.35.35,0,0,0-.2.31c0,.13.08.2.17.14a1,1,0,0,0-.42.38.83.83,0,0,0-.13.59c.06.16.21.14.36.05a.84.84,0,0,0,0,.58c.07.13.26.12.38-.06a.38.38,0,0,0,0,.42c.07.07.21,0,.32-.11a1.34,1.34,0,0,1,.19-.26c.1-.09.19,0,.29,0s.55-.36.65-.74c.17.2.57,0,.72-.42s-.07-.77-.35-.56c.08-.21.22-.52.13-.67s-.2-.06-.3.08c.05-.19,0-.35-.12-.36a.6.6,0,0,0,.19-.36c0-.14-.05-.24-.15-.19a1.19,1.19,0,0,0,.23-.64.19.19,0,0,0-.22-.19.79.79,0,0,0-.34.24c.06-.23,0-.42-.19-.39.09-.14.2-.34.15-.45s-.13-.06-.22,0a.46.46,0,0,0,.09-.38c0-.09-.15-.09-.25,0,.07-.25-.08-.67-.31-.39a.51.51,0,0,0-.1.32.86.86,0,0,0,0,.33c-.06,0-.17,0-.23.15a.38.38,0,0,0,0,.31c0,.08.11.09.2.06-.1.12-.21.19-.31.3a1,1,0,0,0-.24.49A.28.28,0,0,0,190.34,251.1Z" transform="translate(-84.58 -27.02)"/><path class="cls-5" d="M342.68,180.5V156.73c-8.5,3.6-16.23,11.16-25.4,21.61-12.69,14.45-23.95,30.65-35.12,37.1Z" transform="translate(-84.58 -27.02)"/><path class="cls-18" d="M342.68,180.5V156.73c-8.5,3.6-16.23,11.16-25.4,21.61-12.69,14.45-23.95,30.65-35.12,37.1Z" transform="translate(-84.58 -27.02)"/><path class="cls-5" d="M317.28,178.34c-4.83,5.49-9.45,11.18-13.94,16.47h0a59.39,59.39,0,0,1,7.1-6.26c4.7-3.63,9.64-7.25,8.82-8.11s1.65-2,6.73-4.45c4.36-2.09,12.4-8.93,16.69-14.89v-4.37C334.18,160.33,326.45,167.89,317.28,178.34Z" transform="translate(-84.58 -27.02)"/><path class="cls-16" d="M317.28,178.34c-4.83,5.49-9.45,11.18-13.94,16.47h0a59.39,59.39,0,0,1,7.1-6.26c4.7-3.63,9.64-7.25,8.82-8.11s1.65-2,6.73-4.45c4.36-2.09,12.4-8.93,16.69-14.89v-4.37C334.18,160.33,326.45,167.89,317.28,178.34Z" transform="translate(-84.58 -27.02)"/><path class="cls-16" d="M342.68,165.71c-11.19,11.7-25.12,18.59-24,19.64s7.09-.13,4.92,2.29a84,84,0,0,1-18.35,14.49l37.47-21.63Z" transform="translate(-84.58 -27.02)"/><path class="cls-5" d="M317.28,178.34l-.63.71c.24-.24,7.65-7.78,11.84-11.59s11-8.33,14.19-9.31v-1.42C334.18,160.33,326.45,167.89,317.28,178.34Z" transform="translate(-84.58 -27.02)"/><path class="cls-10" d="M317.28,178.34l-.63.71c.24-.24,7.65-7.78,11.84-11.59s11-8.33,14.19-9.31v-1.42C334.18,160.33,326.45,167.89,317.28,178.34Z" transform="translate(-84.58 -27.02)"/><path class="cls-5" d="M319.46,179.14s-.45.14-.4,0c-.24.49-.73.75-.95.5,0,0-.05-.05-.08-.05s-.11.07-.16.13c-.22.21-.47,0-.41-.29-.16.18-.37.15-.4-.05a.73.73,0,0,1,.27-.63c-.12,0-.12-.3,0-.52a2.59,2.59,0,0,1,.34-.58.62.62,0,0,1-.16-.67,1.14,1.14,0,0,1,.65-.63,1.51,1.51,0,0,1-.06-.44l.1-.17c-.11,0-.19-.1-.16-.27a.5.5,0,0,1,.28-.38.43.43,0,0,1-.22-.31c-.05-.33.25-.45.34-.75s0-.51.07-.78a.45.45,0,0,1,.26-.25.57.57,0,0,1-.11-.33.57.57,0,0,1,.17-.42c.12-.09.22,0,.26.1s0,.29,0,.43l.3-.17c0,.2-.05.43.07.49s.29-.08.41,0a.46.46,0,0,1,0,.56,1.67,1.67,0,0,0-.12.23c-.07.23.15.27.17.47s-.12.44-.05.55a.17.17,0,0,0,.12,0h.35c.09,0,.18,0,.19.13s-.33.49-.38.77c.12,0,.24-.09.33,0s.16.17.11.33a.58.58,0,0,0-.05.21c0,.06.09,0,.13.07s0,.29-.12.4a1,1,0,0,0-.26.4.54.54,0,0,1,.31,0,.29.29,0,0,1,.13.32c0,.23-.17.33-.27.51a5.62,5.62,0,0,1-.25.56C320,179,319.71,179,319.46,179.14Z" transform="translate(-84.58 -27.02)"/><path class="cls-17" d="M319.46,179.14s-.45.14-.4,0c-.24.49-.73.75-.95.5,0,0-.05-.05-.08-.05s-.11.07-.16.13c-.22.21-.47,0-.41-.29-.16.18-.37.15-.4-.05a.73.73,0,0,1,.27-.63c-.12,0-.12-.3,0-.52a2.59,2.59,0,0,1,.34-.58.62.62,0,0,1-.16-.67,1.14,1.14,0,0,1,.65-.63,1.51,1.51,0,0,1-.06-.44l.1-.17c-.11,0-.19-.1-.16-.27a.5.5,0,0,1,.28-.38.43.43,0,0,1-.22-.31c-.05-.33.25-.45.34-.75s0-.51.07-.78a.45.45,0,0,1,.26-.25.57.57,0,0,1-.11-.33.57.57,0,0,1,.17-.42c.12-.09.22,0,.26.1s0,.29,0,.43l.3-.17c0,.2-.05.43.07.49s.29-.08.41,0a.46.46,0,0,1,0,.56,1.67,1.67,0,0,0-.12.23c-.07.23.15.27.17.47s-.12.44-.05.55a.17.17,0,0,0,.12,0h.35c.09,0,.18,0,.19.13s-.33.49-.38.77c.12,0,.24-.09.33,0s.16.17.11.33a.58.58,0,0,0-.05.21c0,.06.09,0,.13.07s0,.29-.12.4a1,1,0,0,0-.26.4.54.54,0,0,1,.31,0,.29.29,0,0,1,.13.32c0,.23-.17.33-.27.51a5.62,5.62,0,0,1-.25.56C320,179,319.71,179,319.46,179.14Z" transform="translate(-84.58 -27.02)"/><path class="cls-5" d="M313.6,183.12h0a.77.77,0,0,0-.3.34c-.09.19,0,.4.11.37a.52.52,0,0,0-.22.39c0,.15.11.21.22.13a.39.39,0,0,0-.2.31c0,.13.08.2.18.13a1,1,0,0,0-.42.38.8.8,0,0,0-.13.59c.05.17.2.15.35.06a.84.84,0,0,0,0,.58c.07.13.25.12.37-.07-.08.16-.09.36,0,.43s.22,0,.32-.11a2,2,0,0,1,.19-.26c.1-.09.2-.05.29-.05s.55-.36.65-.74c.17.2.57,0,.73-.42s-.07-.78-.35-.56c.07-.21.21-.53.12-.67s-.2-.06-.3.07c.05-.18,0-.34-.12-.35a.62.62,0,0,0,.2-.36c0-.14-.06-.24-.16-.19a1.19,1.19,0,0,0,.23-.64.18.18,0,0,0-.22-.19.65.65,0,0,0-.33.24c.05-.23,0-.42-.2-.39.1-.14.2-.34.15-.45s-.13-.06-.21,0a.46.46,0,0,0,.08-.38c0-.09-.15-.09-.24,0,.06-.25-.09-.67-.32-.39a.58.58,0,0,0-.1.32,1.11,1.11,0,0,0,0,.33c-.06,0-.17,0-.22.14a.37.37,0,0,0,0,.32.15.15,0,0,0,.2.06c-.1.12-.21.19-.31.3a.89.89,0,0,0-.23.49A.26.26,0,0,0,313.6,183.12Z" transform="translate(-84.58 -27.02)"/><path class="cls-13" d="M313.6,183.12h0a.77.77,0,0,0-.3.34c-.09.19,0,.4.11.37a.52.52,0,0,0-.22.39c0,.15.11.21.22.13a.39.39,0,0,0-.2.31c0,.13.08.2.18.13a1,1,0,0,0-.42.38.8.8,0,0,0-.13.59c.05.17.2.15.35.06a.84.84,0,0,0,0,.58c.07.13.25.12.37-.07-.08.16-.09.36,0,.43s.22,0,.32-.11a2,2,0,0,1,.19-.26c.1-.09.2-.05.29-.05s.55-.36.65-.74c.17.2.57,0,.73-.42s-.07-.78-.35-.56c.07-.21.21-.53.12-.67s-.2-.06-.3.07c.05-.18,0-.34-.12-.35a.62.62,0,0,0,.2-.36c0-.14-.06-.24-.16-.19a1.19,1.19,0,0,0,.23-.64.18.18,0,0,0-.22-.19.65.65,0,0,0-.33.24c.05-.23,0-.42-.2-.39.1-.14.2-.34.15-.45s-.13-.06-.21,0a.46.46,0,0,0,.08-.38c0-.09-.15-.09-.24,0,.06-.25-.09-.67-.32-.39a.58.58,0,0,0-.1.32,1.11,1.11,0,0,0,0,.33c-.06,0-.17,0-.22.14a.37.37,0,0,0,0,.32.15.15,0,0,0,.2.06c-.1.12-.21.19-.31.3a.89.89,0,0,0-.23.49A.26.26,0,0,0,313.6,183.12Z" transform="translate(-84.58 -27.02)"/><path class="cls-5" d="M170,280.2V266.91s.91-1.81,2.08-1.68c.67.07,1,1.65.32,3,0,0,1.09-.63.88.65,0,0,.63-1,1.1-.7s-.21,1.42-.21,1.42.7-.09.37.83c0,0,.26-.72.72-.78,0,0-.14-1.42.79-2s1.67.2,1.25,1.53c0,0,.89,0,.47,1a1.39,1.39,0,0,1,.89-1,3,3,0,0,1,1-2.35,5.18,5.18,0,0,1,1.2-3.29c1.25-1.4,1.77-1.09,1.77-1.09s.31-1,1-1.18.52.92.52.92.63-.56,1-.23,0,1.78,0,1.78.53-.46.79.12c0,0,.36-1.19,1.2-1.4s.68,1.11.68,1.11a.77.77,0,0,1,.67-.32c.47,0,.32.91.32.91s.73-1,1.14-.94.53.79.53.79a3.84,3.84,0,0,1,1.3-1.27c.68-.28.89.49.89.49s.36-.83.67-.74.63,1.21.63,1.21.73-.49,1.15-.18a1.13,1.13,0,0,1,.42.85s1.46-.4,1.46.29Z" transform="translate(-84.58 -27.02)"/><path class="cls-17" d="M170,280.2V266.91s.91-1.81,2.08-1.68c.67.07,1,1.65.32,3,0,0,1.09-.63.88.65,0,0,.63-1,1.1-.7s-.21,1.42-.21,1.42.7-.09.37.83c0,0,.26-.72.72-.78,0,0-.14-1.42.79-2s1.67.2,1.25,1.53c0,0,.89,0,.47,1a1.39,1.39,0,0,1,.89-1,3,3,0,0,1,1-2.35,5.18,5.18,0,0,1,1.2-3.29c1.25-1.4,1.77-1.09,1.77-1.09s.31-1,1-1.18.52.92.52.92.63-.56,1-.23,0,1.78,0,1.78.53-.46.79.12c0,0,.36-1.19,1.2-1.4s.68,1.11.68,1.11a.77.77,0,0,1,.67-.32c.47,0,.32.91.32.91s.73-1,1.14-.94.53.79.53.79a3.84,3.84,0,0,1,1.3-1.27c.68-.28.89.49.89.49s.36-.83.67-.74.63,1.21.63,1.21.73-.49,1.15-.18a1.13,1.13,0,0,1,.42.85s1.46-.4,1.46.29Z" transform="translate(-84.58 -27.02)"/><path class="cls-5" d="M190.32,268.46c-.52-.23-1.3.29-1.86,1.08-.21-.59-.75-1.74-1.32-1.47a3.34,3.34,0,0,0-1.48,1.82c-.15-.51-.82-.35-1.17.28,0-.38-.21-.62-.49-.54a1.31,1.31,0,0,0-.72.85c.17-1-.15-1.76-.74-1.86s-1.4.49-1.89,1.39a3.64,3.64,0,0,0-.45,2.2.41.41,0,0,0-.4-.18,1.35,1.35,0,0,0-.85.82.7.7,0,0,0-1-.16,2.56,2.56,0,0,0-1,1.33c0-.84-.52-1.35-1.16-1.19a3,3,0,0,0-1.69,1.9c.1-.68-.14-1.24-.57-1.28s-1,.42-1.34,1.08a4.17,4.17,0,0,0,.07-1.67.84.84,0,0,0-.39-.66.67.67,0,0,0-.73.42c.62-1.09.67-2.52.12-3a1,1,0,0,0-1.24,0V280.2l20.52-11.85C190.46,268.3,190.39,268.5,190.32,268.46Z" transform="translate(-84.58 -27.02)"/><path class="cls-19" d="M190.32,268.46c-.52-.23-1.3.29-1.86,1.08-.21-.59-.75-1.74-1.32-1.47a3.34,3.34,0,0,0-1.48,1.82c-.15-.51-.82-.35-1.17.28,0-.38-.21-.62-.49-.54a1.31,1.31,0,0,0-.72.85c.17-1-.15-1.76-.74-1.86s-1.4.49-1.89,1.39a3.64,3.64,0,0,0-.45,2.2.41.41,0,0,0-.4-.18,1.35,1.35,0,0,0-.85.82.7.7,0,0,0-1-.16,2.56,2.56,0,0,0-1,1.33c0-.84-.52-1.35-1.16-1.19a3,3,0,0,0-1.69,1.9c.1-.68-.14-1.24-.57-1.28s-1,.42-1.34,1.08a4.17,4.17,0,0,0,.07-1.67.84.84,0,0,0-.39-.66.67.67,0,0,0-.73.42c.62-1.09.67-2.52.12-3a1,1,0,0,0-1.24,0V280.2l20.52-11.85C190.46,268.3,190.39,268.5,190.32,268.46Z" transform="translate(-84.58 -27.02)"/><path class="cls-3" d="M304.39,130.18a1.36,1.36,0,0,0-1.23-1.21,1.73,1.73,0,0,0-1,.22,7.53,7.53,0,0,0-.9.8c-.36-.66-.36-1.58-.82-2.16A2.08,2.08,0,0,0,299,127a2,2,0,0,0-1.42.43,6.36,6.36,0,0,0-1.74,2.8,9.66,9.66,0,0,0-.34,6.1c-.37.25-.58,1.08-.32,1.28-.32-.36-1.09.18-1.33.94a1,1,0,0,0-1.54-.47c-.66.41-1.23,1.78-.88,2.29-.26-.53-1.23.26-1.29,1.06,0-1.06-.89-1.15-1.69-.76a3.73,3.73,0,0,0-1.71,1.7c-.41.85-.36,2,.21,2-.29-.14-.74.11-1,.57a1.69,1.69,0,0,0-.22,1.44c-.27-.23-.74-.18-1.07.3s-.23,1.29.17,1.05a3.69,3.69,0,0,0-1.23,1.2,2.43,2.43,0,0,1-1.37,1,.84.84,0,0,0-.63.25l-.06.36-.79.47a1,1,0,0,0-.26.21.5.5,0,0,0-.12.35c0,.16.19.1.33,0a23.72,23.72,0,0,0,4.77-2.76c1.08,1.47,3.5.31,4.84-2.26a.88.88,0,0,1,.23-.32.27.27,0,0,1,.15,0c.48,0,1.08-.71,1.28-1.45.05.4.4.51.73.3a2.42,2.42,0,0,0,.82-1.11,2.16,2.16,0,0,0,2.24-.15,5.87,5.87,0,0,0,1.63-1.54c.09-.12,1.09-1.69,1.05-1.72.35.24,1-.26,1.26-.95a.89.89,0,0,0,1.16.22c.11-.05,1.29-.74,1.14-1.07.48,1,1.85.8,2.81-.46.51.67,1.45.66,2.33,0a6,6,0,0,0,1.95-3.27c.95.19,2.18-.5,3.14-1.75-.08.76.64.95,1.1.29.33.57,1.42-.41,1.45-1.3.37.42,1.29-.38,1.43-1.24.16.37.64.2,1-.14s.72-.81,1.11-1.1c.81-.61,1.76-.41,2.37-1.48l2.49-1.29,3.81-2c.44-.23.87-.5,1.32-.79a.19.19,0,0,0,.07-.06.21.21,0,0,0,0-.24s-.11,0-.17,0a2,2,0,0,0-.51.24c-.12.08-.24.17-.32.12s-.07-.26-.15-.32-.22,0-.34.1l-.91.68a.37.37,0,0,1-.17.08c-.05,0-.09,0-.12-.09-.28-.31-.66,0-1,.11a6.34,6.34,0,0,0-2.35,1.13,2.65,2.65,0,0,1-.9.62c-.26,0-.45-.1-.68-.15a2.82,2.82,0,0,0-1.8.63,3.67,3.67,0,0,0-1.8,2c-.6-.17-1.49.5-2,1.48a.8.8,0,0,0-1.33-.48c.09-.79-.5-1.09-1.07-.78a5.91,5.91,0,0,0-1.59,1.69.75.75,0,0,0,0-.95c-.19-.16-.46-.17-.59-.42a3,3,0,0,1-.15-.64c-.21-.93-1.42-.61-2,.52.14-1,0-1.93-.58-2.15s-1.54.57-1.75,1.57C305.68,128.43,304.7,129.18,304.39,130.18Z" transform="translate(-84.58 -27.02)"/><path class="cls-1" d="M320.47,127.66c-.59-.36-1.6.28-2.15,1.34-.35-.08-.86.29-1.14.84-.85,0-1.92,1-2.52,2.23-.09-.59-.91-.25-1.12.46-.09-.53-.19-1.05-.28-1.57-.35-.05-.85.64-.84,1.16-.38-.47-1.31,1.23-1.81,1-.15-.07-.2-.31-.33-.43-.39-.38-1.13.52-1.61,1.29.31-1.27-.87-1.61-1.67-.65a5.36,5.36,0,0,0-1,3.57c-.33-.2-.88.1-1.24.66-.32-1.08-1.64-.94-2.51.28.56-1.17-.11-2.23-.95-1.89a5.86,5.86,0,0,0-2.26,2.64c-.35-.25-1,0-1.36.65.28-.56,0-1.11-.45-.91a2.24,2.24,0,0,0-.88,1.47,4.44,4.44,0,0,0,0,1.59c-.4.61-.92.39-1.26.12a.79.79,0,0,0-1.27.32c-.06-.58-.61-.62-1.08-.27a6.13,6.13,0,0,0-1.25,1.57c-.31-.52-1.12-.15-1.63.6a5.52,5.52,0,0,0-.85,2.57c-.48-.35-1.35.19-1.8,1.1-.44-.58-1.41.33-2.16,1a6,6,0,0,1-2.34,1.43,1.65,1.65,0,0,1-.49,0h0a.84.84,0,0,0-.63.25l-.06.36-.79.47a1,1,0,0,0-.26.21.5.5,0,0,0-.12.35c0,.16.19.1.33,0a23.72,23.72,0,0,0,4.77-2.76c1.08,1.47,3.5.31,4.84-2.26a.88.88,0,0,1,.23-.32.27.27,0,0,1,.15,0c.48,0,1.08-.71,1.28-1.45.05.4.4.51.73.3a2.42,2.42,0,0,0,.82-1.11,2.16,2.16,0,0,0,2.24-.15,5.87,5.87,0,0,0,1.63-1.54c.09-.12,1.09-1.69,1.05-1.72.35.24,1-.26,1.26-.95a.89.89,0,0,0,1.16.22c.11-.05,1.29-.74,1.14-1.07.48,1,1.85.8,2.81-.46.51.67,1.45.66,2.33,0a6,6,0,0,0,1.95-3.27c.95.19,2.18-.5,3.14-1.75-.08.76.64.95,1.1.29.33.57,1.42-.41,1.45-1.3.37.42,1.29-.38,1.43-1.24.16.37.64.2,1-.14s.72-.81,1.11-1.1c.81-.61,1.76-.41,2.37-1.48l2.49-1.29,3.81-2c.44-.23.87-.5,1.32-.79a.19.19,0,0,0,.07-.06A20.94,20.94,0,0,0,320.47,127.66Z" transform="translate(-84.58 -27.02)"/><path class="cls-3" d="M196.13,195.46c-.51-.51-1.4-.34-2.16.42a5.18,5.18,0,0,0-1.4,3.12c-.31-.15-.85.75-.66,1.1-.2-.46-1,.07-1.11.76-.13-.27-.47-.25-.74,0a1.56,1.56,0,0,0-.4,1.13c-.43.11-.59.57-1,.88s-.54.07-.79.35a.24.24,0,0,0-.08.18s0,0,.08,0a3.57,3.57,0,0,0,2-1c.57.18,1.41-.38,1.92-1.29.31.42.93.27,1.48-.17a8.94,8.94,0,0,0,1.49-1.74c.22.6.86.6,1.45.23a8.09,8.09,0,0,0,1.68-1.68c.54.87,2-.73,2.64-1.74.08.28.37.3.62.1a1.94,1.94,0,0,0,.58-1c-.09.31,2.11.15,1.84-1,.35.5,1.29-.12,1.58-1,.26.37.78.23,1.24-.14a7.27,7.27,0,0,0,1.25-1.5c.65.49,1.83-.12,2.54-1.33.24.22.76-.15.94-.68.09.52.86.12,1-.52,0,.26.23.37.44.25a1.07,1.07,0,0,0,.44-.75c.32.16.81-.11,1.14-.62.63.09,1.47-.54,2-1.48a1.38,1.38,0,0,0-1,.77c-.06-.37-.45-.28-.77,0s-.64.6-.91.61-.42-.22-.76-.06a2.15,2.15,0,0,0-.86.84c-.06,0-.06-.12-.08-.2s-.23-.23-.41-.14a1.83,1.83,0,0,0-.75.63,1.81,1.81,0,0,0-1.47-.39,2.52,2.52,0,0,0-1.53,1.68c-.25-.49-1-.22-1.36.49-.16-.56-.53-.94-1-.85a2.1,2.1,0,0,0-1.32,1.48c-.11-.23-.53.09-.57.45-.12-.57-.79-.52-1.21.09a.91.91,0,0,0,.13-.85c-.12-.18-.4-.11-.59.16.32-.39.26-1.06,0-1.12s-.71.27-1,.67c.4-.85,0-1.75-.63-1.39a1.31,1.31,0,0,0,.19-1.06.55.55,0,0,0-.56-.38,2.17,2.17,0,0,0-1.51,1.23,3.07,3.07,0,0,0-.38,2.16,2.69,2.69,0,0,0-.83.79c-.23.37-.32.92-.1,1a5.41,5.41,0,0,0,0,.75.8.8,0,0,0,.42.37.7.7,0,0,0-.34.06C196.65,194.33,195.9,195.24,196.13,195.46Z" transform="translate(-84.58 -27.02)"/><path class="cls-1" d="M212.34,188.67c-.13-.26-.51.2-.72.57,0-.24-.17-.37-.36-.28a1,1,0,0,0-.41.67c-.06-.43-.6-.29-.81.2a1.88,1.88,0,0,0-1.44.82c0-.29-.22-.43-.46-.33a1.15,1.15,0,0,0-.53.77c-.06-.29-.41-.16-.61.14a2.71,2.71,0,0,0-.37,1c-.06-.13-.22-.12-.35,0,.14-.32-.05-.57-.28-.48a1.92,1.92,0,0,0-.63.64c-.24.09-.18-.42-.27-.65s-.62,0-.91.39-.48.94-.79,1.34c-.14-.42-.76-.15-1,.43a.33.33,0,0,0-.54-.25,1.37,1.37,0,0,0-.53.88c-.12-.37-.55-.32-.9,0a4,4,0,0,0-.86,1.31c-.15-.27-.5-.28-.8,0,.25-.67-.09-1.24-.56-1.09a2.57,2.57,0,0,0-1.22,1.47,8.15,8.15,0,0,0-.35,1.13,4.85,4.85,0,0,0-.19.9c-.06-.35-.29-.54-.57-.49a1.45,1.45,0,0,0-.82.75,1.43,1.43,0,0,0,0-.36.26.26,0,0,0-.41-.16,1,1,0,0,0-.4.63c0-.69-.34-.73-.83-.21a3,3,0,0,0-.75,1.91,3.38,3.38,0,0,0-2.24,1.58c-.38-.25-1,.71-1.51.88a.46.46,0,0,1-.2,0l-.06.06c-.27.2-.54.07-.79.35a.24.24,0,0,0-.08.18s0,0,.08,0a3.57,3.57,0,0,0,2-1c.57.18,1.41-.38,1.92-1.29.31.42.93.27,1.48-.17a8.94,8.94,0,0,0,1.49-1.74c.22.6.86.6,1.45.23a8.09,8.09,0,0,0,1.68-1.68c.54.87,2-.73,2.64-1.74.08.28.37.3.62.1a1.94,1.94,0,0,0,.58-1c-.09.31,2.11.15,1.84-1,.35.5,1.29-.12,1.58-1,.26.37.78.23,1.24-.14a7.27,7.27,0,0,0,1.25-1.5c.65.49,1.83-.12,2.54-1.33.24.22.76-.15.94-.68.09.52.86.12,1-.52,0,.26.23.37.44.25a1.07,1.07,0,0,0,.44-.75c.32.16.81-.11,1.14-.62a1.5,1.5,0,0,0,1.11-.43,5.28,5.28,0,0,0-1.39.33A3.35,3.35,0,0,0,212.34,188.67Z" transform="translate(-84.58 -27.02)"/></g><g id="Info"><path class="cls-9" d="M219.62,300.76c.16-.09.28-.09.36,0a1.15,1.15,0,0,1,.21.47l3.68,12.5a.61.61,0,0,1,0,.15,1.19,1.19,0,0,1-.12.51.75.75,0,0,1-.29.35l-1.08.63c-.2.11-.34.13-.42,0a.68.68,0,0,1-.17-.28l-.64-2.2-4.75,2.74-.65,2.95a2.18,2.18,0,0,1-.16.47.94.94,0,0,1-.42.44l-1.09.63a.21.21,0,0,1-.28,0,.5.5,0,0,1-.12-.37.91.91,0,0,1,0-.17l3.68-16.75a3.46,3.46,0,0,1,.22-.72.88.88,0,0,1,.36-.4Zm.83,9.69-1.66-5.65-1.65,7.56Z" transform="translate(-84.58 -27.02)"/><path class="cls-9" d="M232.46,308.93a1.19,1.19,0,0,1-.12.51.87.87,0,0,1-.29.35l-1.14.66a.24.24,0,0,1-.29,0,.5.5,0,0,1-.12-.37v-5.88a3.51,3.51,0,0,0-.42-2q-.42-.58-1.29-.09a3.15,3.15,0,0,0-1.26,1.56,6.5,6.5,0,0,0-.46,2.49V312a1.19,1.19,0,0,1-.12.51.74.74,0,0,1-.28.35l-1.14.66a.21.21,0,0,1-.29,0,.48.48,0,0,1-.12-.37V302.38a1.19,1.19,0,0,1,.12-.51.75.75,0,0,1,.29-.35l1.14-.66a.21.21,0,0,1,.28,0,.5.5,0,0,1,.12.37v.53a9.17,9.17,0,0,1,.92-1.52,4.16,4.16,0,0,1,1.25-1.12,2.51,2.51,0,0,1,1.53-.44,1.39,1.39,0,0,1,1,.61,3.52,3.52,0,0,1,.54,1.41,12,12,0,0,1,.16,2Z" transform="translate(-84.58 -27.02)"/><path class="cls-9" d="M237.46,294.4a2.6,2.6,0,0,1,.83-.34,1.84,1.84,0,0,1,.65,0,1.1,1.1,0,0,1,.47.18,1.24,1.24,0,0,1,.32.27v-4.93a1.19,1.19,0,0,1,.12-.51.75.75,0,0,1,.29-.35l1.14-.66a.2.2,0,0,1,.28,0,.5.5,0,0,1,.12.37V303.6a1.19,1.19,0,0,1-.12.51.74.74,0,0,1-.28.35l-1.14.66a.24.24,0,0,1-.29,0,.5.5,0,0,1-.12-.37v-.54c-.08.19-.19.4-.32.64a4.91,4.91,0,0,1-.47.72,4.81,4.81,0,0,1-.65.72,4,4,0,0,1-.83.62,2.1,2.1,0,0,1-1.36.34,1.7,1.7,0,0,1-1-.61,3.58,3.58,0,0,1-.67-1.34,7.22,7.22,0,0,1-.28-1.89c0-.23,0-.49,0-.8s0-.58,0-.82a11.43,11.43,0,0,1,.28-2.21,11.66,11.66,0,0,1,.67-2.12,8.63,8.63,0,0,1,1-1.81A4.74,4.74,0,0,1,237.46,294.4Zm-1.4,6.4a9.4,9.4,0,0,0,0,1.3c.06,1,.26,1.57.6,1.82a1.11,1.11,0,0,0,1.25-.06,3.34,3.34,0,0,0,1.24-1.39,5.42,5.42,0,0,0,.58-2.26c0-.24,0-.54,0-.89s0-.64,0-.86a2.11,2.11,0,0,0-.58-1.57,1,1,0,0,0-1.24,0,3.46,3.46,0,0,0-1.25,1.38A6.13,6.13,0,0,0,236.06,300.8Z" transform="translate(-84.58 -27.02)"/><path class="cls-9" d="M246.13,301l-3-8.88a.63.63,0,0,1,0-.16,1.19,1.19,0,0,1,.12-.51.8.8,0,0,1,.29-.35l1.13-.65a.25.25,0,0,1,.31,0,.51.51,0,0,1,.18.26l2,6,2-8.31a2,2,0,0,1,.18-.47.85.85,0,0,1,.32-.37l1.12-.65a.24.24,0,0,1,.29,0,.5.5,0,0,1,.12.37.88.88,0,0,1,0,.17L247,305a1.86,1.86,0,0,1-.18.47.85.85,0,0,1-.32.37l-1.12.65a.21.21,0,0,1-.29,0,.5.5,0,0,1-.12-.37.88.88,0,0,1,0-.17Z" transform="translate(-84.58 -27.02)"/><path class="cls-9" d="M261.33,279.58l-4.93,2.84a.21.21,0,0,1-.29,0A.48.48,0,0,1,256,282v-1.64a1.19,1.19,0,0,1,.12-.51.75.75,0,0,1,.29-.35l6.55-3.78a.21.21,0,0,1,.29,0,.48.48,0,0,1,.12.37v9.79a11.25,11.25,0,0,1-1.08,5.12,7.79,7.79,0,0,1-3.1,3.3,4.12,4.12,0,0,1-1.84.66,1.8,1.8,0,0,1-1.28-.36,2.4,2.4,0,0,1-.76-1.18,6.85,6.85,0,0,1-.3-1.82,1,1,0,0,1,.11-.51.89.89,0,0,1,.3-.35l1.21-.7a.32.32,0,0,1,.25,0c.09,0,.14.11.16.24a3.19,3.19,0,0,0,.21.78,1.34,1.34,0,0,0,.41.54,1,1,0,0,0,.63.17,2.27,2.27,0,0,0,.9-.33,3.93,3.93,0,0,0,1.59-1.75,6.3,6.3,0,0,0,.56-2.75Z" transform="translate(-84.58 -27.02)"/><path class="cls-9" d="M268.93,276.23a3,3,0,0,1,1.5-.47,1.74,1.74,0,0,1,1.16.42,2.89,2.89,0,0,1,.78,1.16,5.88,5.88,0,0,1,.34,1.8c0,.13,0,.31,0,.52V281c0,.21,0,.38,0,.53a11.1,11.1,0,0,1-.35,2.19,10.7,10.7,0,0,1-.77,2.05,9.33,9.33,0,0,1-1.16,1.75,5.71,5.71,0,0,1-1.5,1.25,2.92,2.92,0,0,1-1.49.47,1.77,1.77,0,0,1-1.16-.41,2.65,2.65,0,0,1-.77-1.16,6,6,0,0,1-.35-1.79c0-.13,0-.3,0-.5s0-.42,0-.64,0-.43,0-.65,0-.4,0-.55a9.78,9.78,0,0,1,.34-2.18,11.63,11.63,0,0,1,.78-2.07,8.65,8.65,0,0,1,1.16-1.76A5.49,5.49,0,0,1,268.93,276.23Zm1.82,4.15a3.23,3.23,0,0,0-.21-1.06,1.07,1.07,0,0,0-.43-.51.89.89,0,0,0-.56-.06,2.44,2.44,0,0,0-.62.25,3.62,3.62,0,0,0-.61.46,3.2,3.2,0,0,0-.56.71,4.42,4.42,0,0,0-.43,1,6.09,6.09,0,0,0-.21,1.31q0,.19,0,.48v1.17c0,.19,0,.33,0,.44a3.23,3.23,0,0,0,.21,1.06,1.07,1.07,0,0,0,.43.51.89.89,0,0,0,.56.06,2.38,2.38,0,0,0,.61-.25,3.68,3.68,0,0,0,.62-.46,3.2,3.2,0,0,0,.56-.71,4.42,4.42,0,0,0,.43-1,6.09,6.09,0,0,0,.21-1.31c0-.12,0-.27,0-.46v-1.17C270.77,280.65,270.76,280.5,270.75,280.38Z" transform="translate(-84.58 -27.02)"/><path class="cls-9" d="M281.77,280.46a1.15,1.15,0,0,1-.12.5.75.75,0,0,1-.29.35l-1.14.66a.2.2,0,0,1-.28,0,.48.48,0,0,1-.12-.37v-5.87a3.51,3.51,0,0,0-.42-2c-.29-.4-.72-.43-1.3-.09a3.08,3.08,0,0,0-1.25,1.56,6.3,6.3,0,0,0-.46,2.48v5.88a1.19,1.19,0,0,1-.12.51.75.75,0,0,1-.29.35l-1.14.66a.21.21,0,0,1-.28,0,.5.5,0,0,1-.12-.37V273.91a1.19,1.19,0,0,1,.12-.51.74.74,0,0,1,.28-.35l1.14-.66a.21.21,0,0,1,.29,0,.5.5,0,0,1,.12.37v.53a8.54,8.54,0,0,1,.92-1.52,4.12,4.12,0,0,1,1.24-1.12,2.54,2.54,0,0,1,1.54-.44,1.41,1.41,0,0,1,1,.6,3.43,3.43,0,0,1,.53,1.42,11,11,0,0,1,.16,2Z" transform="translate(-84.58 -27.02)"/><path class="cls-9" d="M283.38,274.13a13.27,13.27,0,0,1,.25-2.58,12,12,0,0,1,.74-2.42,9.28,9.28,0,0,1,1.16-2,5.44,5.44,0,0,1,1.53-1.37,2.57,2.57,0,0,1,1.53-.41,1.9,1.9,0,0,1,1.16.6,3.6,3.6,0,0,1,.75,1.45,7.94,7.94,0,0,1,.26,2.1v1.05a1.15,1.15,0,0,1-.12.5.75.75,0,0,1-.29.35l-5,2.9a2.07,2.07,0,0,0,.15.86.93.93,0,0,0,.38.46.91.91,0,0,0,.55.1,1.78,1.78,0,0,0,.65-.24,3.34,3.34,0,0,0,.78-.6,3.76,3.76,0,0,0,.5-.67,3.63,3.63,0,0,1,.27-.41.81.81,0,0,1,.28-.23l1.21-.7a.22.22,0,0,1,.29,0,.42.42,0,0,1,.11.37,3.59,3.59,0,0,1-.23,1,7.93,7.93,0,0,1-.65,1.37,9.29,9.29,0,0,1-1.08,1.46,6.18,6.18,0,0,1-1.48,1.2,2.75,2.75,0,0,1-1.53.43,1.66,1.66,0,0,1-1.16-.62,3.74,3.74,0,0,1-.74-1.55A9.74,9.74,0,0,1,283.38,274.13Zm3.68-5.59a2.63,2.63,0,0,0-.74.62,3.85,3.85,0,0,0-.52.81,4.24,4.24,0,0,0-.32.88,4.7,4.7,0,0,0-.15.81l3.4-2a5,5,0,0,0-.11-.66,1.37,1.37,0,0,0-.27-.54.73.73,0,0,0-.5-.22A1.48,1.48,0,0,0,287.06,268.54Z" transform="translate(-84.58 -27.02)"/><path class="cls-9" d="M296.65,269a.37.37,0,0,0-.47-.44,4.09,4.09,0,0,0-.7.12l-1.11.28a2.64,2.64,0,0,1-1.1.05,1.19,1.19,0,0,1-.7-.41,1.72,1.72,0,0,1-.37-.84,6.33,6.33,0,0,1-.1-1.22,5.87,5.87,0,0,1,.21-1.49,7.18,7.18,0,0,1,1.57-2.94,5.17,5.17,0,0,1,1.31-1.08,3.56,3.56,0,0,1,1.32-.51,1.82,1.82,0,0,1,1,.1,1.4,1.4,0,0,1,.63.6,2.23,2.23,0,0,1,.26.95,1.07,1.07,0,0,1-.11.51.82.82,0,0,1-.3.35l-1.15.67c-.15.09-.27.11-.34.07l-.25-.15a.74.74,0,0,0-.36-.08,1.63,1.63,0,0,0-.68.26,3.16,3.16,0,0,0-.79.67,1.37,1.37,0,0,0-.35.94.74.74,0,0,0,.08.38.35.35,0,0,0,.32.13,2.5,2.5,0,0,0,.64-.08l1.08-.26c.89-.23,1.52-.13,1.88.28a3,3,0,0,1,.55,2,5.43,5.43,0,0,1-.22,1.49,7.44,7.44,0,0,1-.66,1.56,7.16,7.16,0,0,1-1.05,1.44,6.05,6.05,0,0,1-1.4,1.12,3.56,3.56,0,0,1-1.41.52,1.79,1.79,0,0,1-1-.16,1.46,1.46,0,0,1-.64-.66,2.34,2.34,0,0,1-.24-1,.93.93,0,0,1,.11-.5.73.73,0,0,1,.29-.36l1.16-.67c.15-.08.26-.09.34,0l.25.22a.62.62,0,0,0,.4.14,1.56,1.56,0,0,0,.77-.28,3.72,3.72,0,0,0,.46-.31,4.38,4.38,0,0,0,.45-.41,2.11,2.11,0,0,0,.33-.47A1.09,1.09,0,0,0,296.65,269Z" transform="translate(-84.58 -27.02)"/><path class="cls-7" d="M247.16,313.08a3.76,3.76,0,0,1-.11.79,2.93,2.93,0,0,1-.23.63,2,2,0,0,1-.32.47,1.83,1.83,0,0,1-.39.32.79.79,0,0,1-.54.15.43.43,0,0,1-.31-.17l-.12.29a2.19,2.19,0,0,1-.16.3,2.26,2.26,0,0,1-.26.29,2.19,2.19,0,0,1-.39.28.74.74,0,0,1-.51.12.58.58,0,0,1-.36-.28,1.69,1.69,0,0,1-.22-.59,4.32,4.32,0,0,1-.07-.84,5.7,5.7,0,0,1,.07-.92,4.3,4.3,0,0,1,.22-.84,2.72,2.72,0,0,1,.36-.7,1.77,1.77,0,0,1,.51-.48c.21-.11.36-.15.47-.1a.62.62,0,0,1,.26.17v-.1a.59.59,0,0,1,.05-.25.38.38,0,0,1,.14-.16l.23-.14a.12.12,0,0,1,.14,0,.24.24,0,0,1,0,.18v2.36a.8.8,0,0,0,.12.5c.07.1.18.1.32,0a.76.76,0,0,0,.21-.19,1.13,1.13,0,0,0,.13-.27,1.38,1.38,0,0,0,.08-.29,1.32,1.32,0,0,0,0-.27c0-.09,0-.27,0-.52s0-.54,0-.83c-.06-.86-.27-1.4-.62-1.63s-.85-.15-1.48.21a3.25,3.25,0,0,0-.7.57,4.09,4.09,0,0,0-.6.84,4.9,4.9,0,0,0-.44,1.07,5.79,5.79,0,0,0-.22,1.29c0,.1,0,.23,0,.39s0,.33,0,.5v.51a3.84,3.84,0,0,0,0,.39,3,3,0,0,0,.22,1,1.27,1.27,0,0,0,.44.56.94.94,0,0,0,.6.14,1.83,1.83,0,0,0,.7-.24,5,5,0,0,0,.51-.34,4.29,4.29,0,0,0,.38-.33,2.6,2.6,0,0,0,.3-.36l.26-.41L246,316a.37.37,0,0,1,.13-.12l.32-.18a.11.11,0,0,1,.14,0s.06.09,0,.19a.53.53,0,0,1,0,.2c-.1.21-.22.43-.35.65a4.47,4.47,0,0,1-.46.64,4.76,4.76,0,0,1-.59.6,4.86,4.86,0,0,1-.76.53,2.19,2.19,0,0,1-.94.32,1.26,1.26,0,0,1-.8-.21,1.74,1.74,0,0,1-.57-.75,3.82,3.82,0,0,1-.27-1.31c0-.1,0-.24,0-.41v-1.08c0-.17,0-.31,0-.41a7,7,0,0,1,.26-1.6,7.62,7.62,0,0,1,.57-1.43,5.69,5.69,0,0,1,.81-1.14,3.94,3.94,0,0,1,.94-.78,2.66,2.66,0,0,1,1.09-.4,1.24,1.24,0,0,1,.84.19,1.48,1.48,0,0,1,.54.77,4.35,4.35,0,0,1,.24,1.34c0,.14,0,.29,0,.45v.43c0,.13,0,.25,0,.36Zm-3.38,1.4a3.44,3.44,0,0,0,0,.46,1.24,1.24,0,0,0,.11.37.47.47,0,0,0,.19.22.32.32,0,0,0,.3,0,1.07,1.07,0,0,0,.51-.66,3.65,3.65,0,0,0,.14-1.07,4.16,4.16,0,0,0,0-.54,1.15,1.15,0,0,0-.11-.38.3.3,0,0,0-.2-.17.53.53,0,0,0-.31.08.86.86,0,0,0-.3.3,2.53,2.53,0,0,0-.19.44,2.71,2.71,0,0,0-.11.51A4.29,4.29,0,0,0,243.78,314.48Z" transform="translate(-84.58 -27.02)"/><path class="cls-7" d="M247.88,313.69a3.34,3.34,0,0,1,.11-.84,3.6,3.6,0,0,1,.32-.75,3.7,3.7,0,0,1,.47-.65,5.9,5.9,0,0,1,.57-.55l1-.84v-.15c0-.37-.08-.61-.24-.71a.59.59,0,0,0-.6.07,1.31,1.31,0,0,0-.48.45,3.88,3.88,0,0,0-.28.58.74.74,0,0,1-.09.18.53.53,0,0,1-.14.11l-.21.13a.12.12,0,0,1-.15,0,.23.23,0,0,1-.05-.18,1.92,1.92,0,0,1,.13-.57,3,3,0,0,1,.3-.63,3.54,3.54,0,0,1,.44-.58,1.93,1.93,0,0,1,.53-.43,1.28,1.28,0,0,1,.6-.21.65.65,0,0,1,.47.15,1,1,0,0,1,.31.51,2.71,2.71,0,0,1,.12.88V313a.53.53,0,0,1-.06.24.41.41,0,0,1-.14.17l-.26.15a.1.1,0,0,1-.14,0,.21.21,0,0,1-.06-.17V313a1.87,1.87,0,0,1-.2.49,3.58,3.58,0,0,1-.31.45,2.68,2.68,0,0,1-.37.38,2.27,2.27,0,0,1-.36.26,1.21,1.21,0,0,1-.51.18.65.65,0,0,1-.4-.1.68.68,0,0,1-.25-.35A1.62,1.62,0,0,1,247.88,313.69Zm1.32-.15a1.65,1.65,0,0,0,.48-.4,2.65,2.65,0,0,0,.37-.55,3.61,3.61,0,0,0,.24-.65,3.38,3.38,0,0,0,.08-.72V311l-.85.7a3.67,3.67,0,0,0-.72.77,1.39,1.39,0,0,0-.27.78.85.85,0,0,0,0,.23.36.36,0,0,0,.11.16.26.26,0,0,0,.21.06A.68.68,0,0,0,249.2,313.54Z" transform="translate(-84.58 -27.02)"/><path class="cls-7" d="M252.67,311a.11.11,0,0,1,.14,0,.26.26,0,0,1,.05.18V312a.69.69,0,0,1-.05.24.41.41,0,0,1-.14.17l-.48.28c-.06,0-.1,0-.14,0a.24.24,0,0,1-.06-.18v-.74a.61.61,0,0,1,.06-.25.32.32,0,0,1,.14-.16Z" transform="translate(-84.58 -27.02)"/><path class="cls-7" d="M253.84,306.24a.69.69,0,0,1,0-.24.35.35,0,0,1,.14-.17l.27-.16a.1.1,0,0,1,.13,0,.24.24,0,0,1,.06.18v5.63a4.07,4.07,0,0,1-.28,1.61,2.1,2.1,0,0,1-.91,1l-.13.08c-.06,0-.1,0-.14,0A.24.24,0,0,1,253,314v-.35a.61.61,0,0,1,.06-.25.32.32,0,0,1,.14-.16l.06,0a1.13,1.13,0,0,0,.31-.25,1,1,0,0,0,.18-.31,2.22,2.22,0,0,0,.09-.37,2.73,2.73,0,0,0,0-.41Zm.72-1.9a.7.7,0,0,1-.05.25.49.49,0,0,1-.14.17L254,305a.11.11,0,0,1-.14,0,.21.21,0,0,1-.06-.17v-.64a.53.53,0,0,1,.06-.24.41.41,0,0,1,.14-.17l.41-.23a.11.11,0,0,1,.14,0,.3.3,0,0,1,.05.18Z" transform="translate(-84.58 -27.02)"/><path class="cls-7" d="M257.11,303.94a1.41,1.41,0,0,1,.69-.22.83.83,0,0,1,.52.21,1.46,1.46,0,0,1,.34.58,3.93,3.93,0,0,1,.15.92,1.55,1.55,0,0,1,0,.23v.58a1.55,1.55,0,0,1,0,.23,5.61,5.61,0,0,1-.16,1.1,4.61,4.61,0,0,1-.33,1,4.16,4.16,0,0,1-.52.81,2.73,2.73,0,0,1-.69.58,1.41,1.41,0,0,1-.7.22.78.78,0,0,1-.51-.21,1.3,1.3,0,0,1-.35-.58,3.76,3.76,0,0,1-.15-.92,1.35,1.35,0,0,1,0-.22c0-.09,0-.19,0-.29s0-.19,0-.29a1.77,1.77,0,0,1,0-.24,6.5,6.5,0,0,1,.15-1.09,4.52,4.52,0,0,1,.35-1,3.71,3.71,0,0,1,.51-.81A2.74,2.74,0,0,1,257.11,303.94Zm1.05,2.85c0-.13,0-.28,0-.47s0-.33,0-.46a3.06,3.06,0,0,0-.1-.57.81.81,0,0,0-.2-.38.46.46,0,0,0-.32-.15.81.81,0,0,0-.43.13,1.61,1.61,0,0,0-.44.38,2.27,2.27,0,0,0-.32.52,2.91,2.91,0,0,0-.2.61,5.06,5.06,0,0,0-.1.68c0,.13,0,.3,0,.48s0,.33,0,.45a2.81,2.81,0,0,0,.1.56.89.89,0,0,0,.2.39.48.48,0,0,0,.32.15.86.86,0,0,0,.44-.13,1.73,1.73,0,0,0,.43-.38,2,2,0,0,0,.32-.52,2.43,2.43,0,0,0,.2-.61A5.06,5.06,0,0,0,258.16,306.79Z" transform="translate(-84.58 -27.02)"/><path class="cls-7" d="M263.06,306.08a.57.57,0,0,1-.06.25.41.41,0,0,1-.14.17l-.27.15a.09.09,0,0,1-.13,0,.24.24,0,0,1-.06-.18v-2.93a1.65,1.65,0,0,0-.27-1.12c-.17-.18-.42-.17-.74,0a1.91,1.91,0,0,0-.73.84,3.42,3.42,0,0,0-.28,1.44v2.93a.69.69,0,0,1-.05.24.41.41,0,0,1-.14.17l-.27.15a.11.11,0,0,1-.14,0,.25.25,0,0,1,0-.17v-5.17a.74.74,0,0,1,0-.25.38.38,0,0,1,.14-.16l.27-.16a.11.11,0,0,1,.14,0,.3.3,0,0,1,.05.18v.34a3.77,3.77,0,0,1,.41-.75,2.22,2.22,0,0,1,.71-.65,1.26,1.26,0,0,1,.63-.19.75.75,0,0,1,.49.21,1.32,1.32,0,0,1,.32.59,3.5,3.5,0,0,1,.12,1Z" transform="translate(-84.58 -27.02)"/><path class="cls-7" d="M263.93,302.44a5.23,5.23,0,0,1,.16-1,4.81,4.81,0,0,1,.33-1,3.58,3.58,0,0,1,.5-.81,2.51,2.51,0,0,1,.66-.57,1.29,1.29,0,0,1,.69-.21.71.71,0,0,1,.52.26,1.58,1.58,0,0,1,.34.7,4.91,4.91,0,0,1,.11,1.1v.29a.54.54,0,0,1-.06.25.4.4,0,0,1-.13.17L264.57,303v.06a1.32,1.32,0,0,0,.3,1,.57.57,0,0,0,.71,0,1.77,1.77,0,0,0,.59-.51,3.27,3.27,0,0,0,.32-.57,1.3,1.3,0,0,1,.1-.18.5.5,0,0,1,.13-.11l.22-.12a.12.12,0,0,1,.14,0c.05,0,.06.1.05.19a2,2,0,0,1-.12.51,3.34,3.34,0,0,1-.29.61,4.32,4.32,0,0,1-.48.62,3.09,3.09,0,0,1-.66.52,1.09,1.09,0,0,1-.65.18.81.81,0,0,1-.5-.24,1.55,1.55,0,0,1-.34-.61,3.3,3.3,0,0,1-.16-.91A5.79,5.79,0,0,1,263.93,302.44Zm.64-.33,2-1.17v0a1.19,1.19,0,0,0-.28-.92c-.18-.16-.43-.15-.73,0a1.49,1.49,0,0,0-.39.33,2.18,2.18,0,0,0-.32.49,3.43,3.43,0,0,0-.22.59,3,3,0,0,0-.08.66Z" transform="translate(-84.58 -27.02)"/><path class="cls-7" d="M270.24,300.64a.51.51,0,0,0-.07-.31.34.34,0,0,0-.23-.11,1.4,1.4,0,0,0-.38,0l-.55.12c-.39.1-.66.05-.82-.15a1.48,1.48,0,0,1-.23-.89,2.71,2.71,0,0,1,.09-.68,2.51,2.51,0,0,1,.26-.69,2.81,2.81,0,0,1,.43-.61,2.49,2.49,0,0,1,.62-.49,1.59,1.59,0,0,1,.61-.24.8.8,0,0,1,.45.06.58.58,0,0,1,.27.24.75.75,0,0,1,.1.36.42.42,0,0,1-.05.24.35.35,0,0,1-.14.17l-.24.14a.18.18,0,0,1-.11,0s-.07,0-.11-.06a.34.34,0,0,0-.27-.15.87.87,0,0,0-.51.16,1.62,1.62,0,0,0-.54.5,1.1,1.1,0,0,0-.2.64.58.58,0,0,0,.05.3.26.26,0,0,0,.19.12,1.09,1.09,0,0,0,.34,0l.53-.12a1.38,1.38,0,0,1,.56,0,.68.68,0,0,1,.36.18.78.78,0,0,1,.19.36,2.06,2.06,0,0,1,.06.52,2.6,2.6,0,0,1-.11.7,2.79,2.79,0,0,1-.29.72,3.63,3.63,0,0,1-.48.65,2.36,2.36,0,0,1-.63.5,1.4,1.4,0,0,1-.62.23,1,1,0,0,1-.47-.05.68.68,0,0,1-.3-.25.66.66,0,0,1-.11-.36.42.42,0,0,1,.05-.24.45.45,0,0,1,.14-.18l.26-.15.1,0s.08,0,.11.07a.39.39,0,0,0,.32.19.92.92,0,0,0,.52-.17,1.67,1.67,0,0,0,.32-.24,2,2,0,0,0,.27-.31,1.7,1.7,0,0,0,.19-.35A.86.86,0,0,0,270.24,300.64Z" transform="translate(-84.58 -27.02)"/><path class="cls-7" d="M177.43,368.64a.66.66,0,0,1,.08-.26.5.5,0,0,1,.13-.15l.59-.34a.12.12,0,0,1,.14,0,.22.22,0,0,1,0,.19,4.58,4.58,0,0,1-.15,1,4.74,4.74,0,0,1-.38,1.05,4.38,4.38,0,0,1-.66,1,3.67,3.67,0,0,1-.95.79,1.85,1.85,0,0,1-.88.28.91.91,0,0,1-.65-.26,1.6,1.6,0,0,1-.42-.73,5.08,5.08,0,0,1-.17-1.13c0-.27,0-.58,0-.92s0-.66,0-.94a8.19,8.19,0,0,1,.17-1.33,5.57,5.57,0,0,1,.42-1.21,4.37,4.37,0,0,1,.65-1,3.09,3.09,0,0,1,.88-.73,2,2,0,0,1,.95-.33,1,1,0,0,1,.66.23,1.22,1.22,0,0,1,.38.6,2.77,2.77,0,0,1,.15.82.45.45,0,0,1-.19.41l-.59.34a.12.12,0,0,1-.13,0s-.07-.08-.08-.17a1.34,1.34,0,0,0-.1-.37.6.6,0,0,0-.22-.25.54.54,0,0,0-.34-.08,1.14,1.14,0,0,0-.49.18,1.66,1.66,0,0,0-.49.42,2.44,2.44,0,0,0-.35.55,3,3,0,0,0-.22.66,4.31,4.31,0,0,0-.09.71c0,.28,0,.6,0,.94s0,.64,0,.92a2.71,2.71,0,0,0,.09.61.85.85,0,0,0,.22.4.54.54,0,0,0,.35.15.9.9,0,0,0,.49-.15,2,2,0,0,0,.49-.38,3,3,0,0,0,.34-.48,2,2,0,0,0,.22-.5A1.86,1.86,0,0,0,177.43,368.64Z" transform="translate(-84.58 -27.02)"/><path class="cls-7" d="M182.62,366.72a.11.11,0,0,1,.14,0,.23.23,0,0,1,.06.18v.78a.57.57,0,0,1-.06.25.49.49,0,0,1-.14.17l-3.16,1.82a.11.11,0,0,1-.14,0,.24.24,0,0,1,0-.18v-7.16a.52.52,0,0,1,0-.24.35.35,0,0,1,.14-.17l3.1-1.8a.11.11,0,0,1,.14,0,.21.21,0,0,1,.06.17v.79a.53.53,0,0,1-.06.24.31.31,0,0,1-.14.17l-2.32,1.34v1.77l2.16-1.25c.06,0,.1,0,.14,0a.21.21,0,0,1,.06.17v.79a.53.53,0,0,1-.06.24.31.31,0,0,1-.14.17l-2.16,1.25v1.85Z" transform="translate(-84.58 -27.02)"/><path class="cls-7" d="M183.49,362.73a7.76,7.76,0,0,1,.16-1.26,5.83,5.83,0,0,1,.39-1.18,4.26,4.26,0,0,1,.65-1,3.26,3.26,0,0,1,.92-.77,1.82,1.82,0,0,1,.91-.3.94.94,0,0,1,.65.27,1.61,1.61,0,0,1,.4.72,4.83,4.83,0,0,1,.16,1.09c0,.14,0,.29,0,.46v1.05c0,.17,0,.33,0,.47a7.49,7.49,0,0,1-.16,1.26,5.63,5.63,0,0,1-.39,1.18,4.53,4.53,0,0,1-.65,1,3.56,3.56,0,0,1-.92.76,1.76,1.76,0,0,1-.92.3.93.93,0,0,1-.65-.26,1.69,1.69,0,0,1-.39-.73,4.91,4.91,0,0,1-.16-1.08c0-.14,0-.29,0-.46v-1.05C183.48,363,183.49,362.88,183.49,362.73Zm3.27-1.82a1.46,1.46,0,0,0-.34-1.05q-.3-.25-.81,0a2.07,2.07,0,0,0-.81.91,3.5,3.5,0,0,0-.34,1.43c0,.28,0,.6,0,.94s0,.66,0,.93a1.43,1.43,0,0,0,.34,1c.2.17.47.16.81,0a2,2,0,0,0,.81-.9,3.45,3.45,0,0,0,.34-1.42c0-.29,0-.6,0-.95S186.77,361.18,186.76,360.91Z" transform="translate(-84.58 -27.02)"/><path class="cls-7" d="M193,355.75l-2.36,1.36c-.06,0-.1,0-.14,0a.21.21,0,0,1-.06-.17v-.79a.57.57,0,0,1,.06-.25.32.32,0,0,1,.14-.16l3.14-1.82a.1.1,0,0,1,.13,0,.24.24,0,0,1,.06.18v4.69a5.38,5.38,0,0,1-.52,2.46,3.71,3.71,0,0,1-1.48,1.58,2.16,2.16,0,0,1-.88.32.91.91,0,0,1-.62-.18,1.14,1.14,0,0,1-.36-.56,3.17,3.17,0,0,1-.14-.87.43.43,0,0,1,.05-.25.41.41,0,0,1,.14-.17l.58-.33a.13.13,0,0,1,.12,0,.14.14,0,0,1,.08.12,1.44,1.44,0,0,0,.1.37.65.65,0,0,0,.19.26.47.47,0,0,0,.31.08,1,1,0,0,0,.43-.16,1.89,1.89,0,0,0,.76-.84,2.91,2.91,0,0,0,.27-1.31Z" transform="translate(-84.58 -27.02)"/><path class="cls-7" d="M196.62,354.14a1.51,1.51,0,0,1,.72-.22.83.83,0,0,1,.55.2,1.29,1.29,0,0,1,.38.56,2.69,2.69,0,0,1,.16.86,1.78,1.78,0,0,1,0,.25v.61a1.93,1.93,0,0,1,0,.26,5.45,5.45,0,0,1-.16,1,5,5,0,0,1-.38,1,4.06,4.06,0,0,1-.55.84,2.56,2.56,0,0,1-.72.6,1.47,1.47,0,0,1-.71.23.91.91,0,0,1-.56-.2,1.33,1.33,0,0,1-.37-.55,3.06,3.06,0,0,1-.16-.86c0-.07,0-.15,0-.25v-.61c0-.11,0-.19,0-.26a4.24,4.24,0,0,1,.16-1.05,5.32,5.32,0,0,1,.37-1,3.84,3.84,0,0,1,.56-.84A2.91,2.91,0,0,1,196.62,354.14Zm.87,2a1.33,1.33,0,0,0-.1-.52.49.49,0,0,0-.2-.24.42.42,0,0,0-.27,0,1.88,1.88,0,0,0-.3.12,2,2,0,0,0-.29.22,1.56,1.56,0,0,0-.27.34,2.1,2.1,0,0,0-.2.48,2.74,2.74,0,0,0-.11.63c0,.06,0,.14,0,.23v.56c0,.09,0,.16,0,.21a1.49,1.49,0,0,0,.11.51.45.45,0,0,0,.2.24.41.41,0,0,0,.27,0,1,1,0,0,0,.29-.12,1.91,1.91,0,0,0,.3-.22,2,2,0,0,0,.27-.34,1.78,1.78,0,0,0,.2-.48,2.31,2.31,0,0,0,.1-.63,1.28,1.28,0,0,0,0-.22v-.56A1.22,1.22,0,0,0,197.49,356.14Z" transform="translate(-84.58 -27.02)"/><path class="cls-7" d="M202.78,356.17a.53.53,0,0,1-.06.24.41.41,0,0,1-.14.17l-.55.32a.1.1,0,0,1-.13,0,.24.24,0,0,1-.06-.18v-2.82a1.74,1.74,0,0,0-.2-.95c-.14-.18-.34-.2-.62,0a1.44,1.44,0,0,0-.6.75,3,3,0,0,0-.22,1.19v2.82a.53.53,0,0,1-.06.24.35.35,0,0,1-.14.17l-.54.32a.12.12,0,0,1-.14,0,.24.24,0,0,1-.06-.18V353a.53.53,0,0,1,.06-.24.35.35,0,0,1,.14-.17l.54-.32a.12.12,0,0,1,.14,0,.24.24,0,0,1,.06.18v.26a3.91,3.91,0,0,1,.44-.74,1.86,1.86,0,0,1,.59-.53,1.2,1.2,0,0,1,.74-.21.63.63,0,0,1,.47.29,1.64,1.64,0,0,1,.26.68,5.44,5.44,0,0,1,.08.95Z" transform="translate(-84.58 -27.02)"/><path class="cls-7" d="M203.55,353.14a6.51,6.51,0,0,1,.12-1.24,6,6,0,0,1,.35-1.16,4.48,4.48,0,0,1,.56-1,2.46,2.46,0,0,1,.73-.65,1.21,1.21,0,0,1,.73-.2.88.88,0,0,1,.56.29,1.87,1.87,0,0,1,.36.69,3.89,3.89,0,0,1,.12,1v.5a.69.69,0,0,1-.05.24.35.35,0,0,1-.14.17l-2.41,1.39a.94.94,0,0,0,.07.41.51.51,0,0,0,.18.22.41.41,0,0,0,.27,0,1,1,0,0,0,.31-.11,1.72,1.72,0,0,0,.38-.29,2.13,2.13,0,0,0,.23-.32l.13-.2a.53.53,0,0,1,.14-.11l.58-.33a.11.11,0,0,1,.14,0,.21.21,0,0,1,.05.18,1.67,1.67,0,0,1-.11.47,4.19,4.19,0,0,1-.31.65,4.69,4.69,0,0,1-.52.7,2.86,2.86,0,0,1-.71.58,1.28,1.28,0,0,1-.73.2A.81.81,0,0,1,204,355a1.87,1.87,0,0,1-.35-.75A4.69,4.69,0,0,1,203.55,353.14Zm1.76-2.68a1.31,1.31,0,0,0-.36.3,2,2,0,0,0-.24.39,2.14,2.14,0,0,0-.16.42,3.24,3.24,0,0,0-.07.39l1.63-.94c0-.11,0-.21-.05-.32a.64.64,0,0,0-.13-.26.38.38,0,0,0-.24-.11A.81.81,0,0,0,205.31,350.46Z" transform="translate(-84.58 -27.02)"/><path class="cls-7" d="M209.91,350.7a.25.25,0,0,0,0-.17.24.24,0,0,0-.18,0,1.35,1.35,0,0,0-.34.06l-.53.13a1.17,1.17,0,0,1-.52,0,.58.58,0,0,1-.34-.19,1,1,0,0,1-.18-.4,3.42,3.42,0,0,1-.05-.59,2.67,2.67,0,0,1,.11-.71,2.92,2.92,0,0,1,.29-.74,3.39,3.39,0,0,1,.46-.68,2.39,2.39,0,0,1,.63-.51,1.55,1.55,0,0,1,.63-.24.8.8,0,0,1,.47.05.58.58,0,0,1,.3.28,1.08,1.08,0,0,1,.12.46.42.42,0,0,1,0,.24.41.41,0,0,1-.14.17l-.55.32c-.08,0-.13,0-.17,0l-.11-.07a.34.34,0,0,0-.18,0,.81.81,0,0,0-.32.13,1.3,1.3,0,0,0-.38.32.68.68,0,0,0-.17.45.3.3,0,0,0,0,.18.18.18,0,0,0,.15.06,1,1,0,0,0,.31,0l.52-.12a.85.85,0,0,1,.9.14,1.4,1.4,0,0,1,.26,1,2.32,2.32,0,0,1-.11.71,3.4,3.4,0,0,1-.31.75,3.55,3.55,0,0,1-.5.69,3.23,3.23,0,0,1-.68.54,1.86,1.86,0,0,1-.67.25.85.85,0,0,1-.49-.08.69.69,0,0,1-.31-.32,1.21,1.21,0,0,1-.12-.48.53.53,0,0,1,.06-.24.35.35,0,0,1,.14-.17l.55-.32c.07,0,.13-.05.16,0l.13.1a.33.33,0,0,0,.19.07.75.75,0,0,0,.36-.14,1.5,1.5,0,0,0,.23-.15l.21-.19a1.19,1.19,0,0,0,.16-.23A.55.55,0,0,0,209.91,350.7Z" transform="translate(-84.58 -27.02)"/><path class="cls-7" d="M213.52,350.27c-.06,0-.1,0-.14,0a.24.24,0,0,1-.06-.18v-7.16a.57.57,0,0,1,.06-.25.32.32,0,0,1,.14-.16l.58-.34a.09.09,0,0,1,.13,0,.23.23,0,0,1,.06.18v7.16a.53.53,0,0,1-.06.24.3.3,0,0,1-.13.17Z" transform="translate(-84.58 -27.02)"/><path class="cls-7" d="M218.87,346.88a.53.53,0,0,1-.06.24.35.35,0,0,1-.14.17l-.54.32a.12.12,0,0,1-.14,0,.24.24,0,0,1-.06-.18V344.6a1.74,1.74,0,0,0-.2-1c-.14-.18-.34-.2-.62,0a1.44,1.44,0,0,0-.6.75,3,3,0,0,0-.22,1.19v2.82a.53.53,0,0,1-.06.24.35.35,0,0,1-.14.17l-.54.32a.12.12,0,0,1-.14,0,.24.24,0,0,1-.06-.18v-5.17a.53.53,0,0,1,.06-.24.35.35,0,0,1,.14-.17l.54-.32a.12.12,0,0,1,.14,0,.24.24,0,0,1,.06.18v.26a3.91,3.91,0,0,1,.44-.74,1.9,1.9,0,0,1,.6-.53,1.16,1.16,0,0,1,.73-.21.65.65,0,0,1,.48.29,1.64,1.64,0,0,1,.25.68,5.44,5.44,0,0,1,.08.95Z" transform="translate(-84.58 -27.02)"/><path class="cls-7" d="M220.58,342.92c0,.11,0,.25,0,.39s0,.28,0,.38a2.08,2.08,0,0,0,.1.53.52.52,0,0,0,.2.28.36.36,0,0,0,.26.07.6.6,0,0,0,.3-.1,1.94,1.94,0,0,0,.3-.21A1.64,1.64,0,0,0,222,344a1.51,1.51,0,0,0,.15-.28q.06-.14.12-.3a1.39,1.39,0,0,1,.1-.26.38.38,0,0,1,.13-.18l.55-.32a.12.12,0,0,1,.14,0,.24.24,0,0,1,.06.18,3.21,3.21,0,0,1-.11.63,4.67,4.67,0,0,1-.31.82,5.18,5.18,0,0,1-.55.83,3,3,0,0,1-.79.67,1.25,1.25,0,0,1-.71.2.84.84,0,0,1-.56-.24,1.48,1.48,0,0,1-.36-.59,2.93,2.93,0,0,1-.16-.88c0-.13,0-.27,0-.43s0-.32,0-.47a5.1,5.1,0,0,1,.15-1.07,5.62,5.62,0,0,1,.37-1,4.28,4.28,0,0,1,.55-.87,2.46,2.46,0,0,1,.72-.62,1.49,1.49,0,0,1,.79-.25.92.92,0,0,1,.55.2,1.07,1.07,0,0,1,.31.46,1.68,1.68,0,0,1,.11.5.53.53,0,0,1-.06.24.35.35,0,0,1-.14.17l-.55.32a.09.09,0,0,1-.13,0,.61.61,0,0,1-.1-.14.83.83,0,0,0-.12-.17A.42.42,0,0,0,222,341a.37.37,0,0,0-.21,0,.9.9,0,0,0-.3.13,1.58,1.58,0,0,0-.3.24,2.19,2.19,0,0,0-.26.37,2.36,2.36,0,0,0-.2.51A3.87,3.87,0,0,0,220.58,342.92Z" transform="translate(-84.58 -27.02)"/><path class="cls-7" d="M224.76,342.09a.11.11,0,0,1,.14,0,.3.3,0,0,1,0,.18v1.09a.69.69,0,0,1,0,.24.41.41,0,0,1-.14.17l-.67.38a.11.11,0,0,1-.14,0,.21.21,0,0,1-.06-.17v-1.09a.53.53,0,0,1,.06-.24.35.35,0,0,1,.14-.17Z" transform="translate(-84.58 -27.02)"/><path class="cls-1" d="M173.78,386.3a.75.75,0,0,1-.38-1.4L271,328.55a.74.74,0,0,1,1,.27.75.75,0,0,1-.27,1L174.15,386.2A.74.74,0,0,1,173.78,386.3Z" transform="translate(-84.58 -27.02)"/><path class="cls-1" d="M173.78,395a.75.75,0,0,1-.38-1.4L271,337.21a.75.75,0,0,1,1,.28.74.74,0,0,1-.27,1l-97.61,56.36A.86.86,0,0,1,173.78,395Z" transform="translate(-84.58 -27.02)"/><path class="cls-1" d="M173.78,403.64a.76.76,0,0,1-.65-.38.74.74,0,0,1,.27-1l78.84-45.52A.75.75,0,0,1,253,358l-78.84,45.52A.74.74,0,0,1,173.78,403.64Z" transform="translate(-84.58 -27.02)"/><path class="cls-1" d="M173.78,413.08a.72.72,0,0,1-.65-.38.74.74,0,0,1,.27-1L271,355.33a.74.74,0,0,1,1,.27.75.75,0,0,1-.27,1L174.15,413A.74.74,0,0,1,173.78,413.08Z" transform="translate(-84.58 -27.02)"/><path class="cls-1" d="M173.78,421.75a.75.75,0,0,1-.38-1.4L271,364a.74.74,0,0,1,1,.27.75.75,0,0,1-.27,1l-97.61,56.35A.74.74,0,0,1,173.78,421.75Z" transform="translate(-84.58 -27.02)"/><path class="cls-1" d="M173.78,430.42a.76.76,0,0,1-.65-.38.74.74,0,0,1,.27-1L271,372.67a.74.74,0,0,1,1,.27.75.75,0,0,1-.27,1l-97.61,56.35A.74.74,0,0,1,173.78,430.42Z" transform="translate(-84.58 -27.02)"/><path class="cls-1" d="M173.78,439.86a.73.73,0,0,1-.65-.37.75.75,0,0,1,.27-1l53.9-31.12a.75.75,0,0,1,1,.28.74.74,0,0,1-.27,1l-53.9,31.12A.74.74,0,0,1,173.78,439.86Z" transform="translate(-84.58 -27.02)"/><path id="Location" class="cls-7" d="M286.79,345.31c-1.62.94-3,3.87-2.94,6.53v.61c0,1.77,1.42,3.77,2.4,5,.32.41.91.07,1.22-.7,1-2.39,2.34-6,2.33-7.77v-.6C289.78,345.75,288.42,344.38,286.79,345.31Zm0,6.91c-.86.5-1.6-.15-1.6-1.47a4.13,4.13,0,0,1,1.57-3.32c.87-.5,1.6.15,1.61,1.48A4.1,4.1,0,0,1,286.83,352.22Z" transform="translate(-84.58 -27.02)"/><path class="cls-7" d="M285.55,369.24c.32-.71,1-1.25,1.38-1.16l.39.08c.21,0,.52-.22.68-.58s.13-.7-.09-.75l-.38-.08a1.85,1.85,0,0,0-1.46.55,5.1,5.1,0,0,0-1.3,1.78l-1.94,4.31c-.66,1.46-.5,2.8.36,3l.39.08a1.81,1.81,0,0,0,1.45-.55,5.1,5.1,0,0,0,1.3-1.78l.92-2c.16-.37.12-.7-.09-.74s-.52.21-.69.58l-.92,2c-.32.71-1,1.25-1.38,1.17l-.39-.08c-.42-.09-.51-.76-.18-1.49l1.95-4.31Zm3.32-.76,1.95-4.31a3.84,3.84,0,0,0,.39-2,1,1,0,0,0-.75-1l-.39-.08a1.8,1.8,0,0,0-1.45.55,5.12,5.12,0,0,0-1.31,1.78l-.84,1.86c-.16.37-.12.7.09.74s.53-.21.69-.58l.84-1.86a2.51,2.51,0,0,1,.65-.89.93.93,0,0,1,.73-.28l.39.09c.21,0,.34.22.37.5a1.84,1.84,0,0,1-.19,1l-2,4.31c-.32.71-1,1.25-1.37,1.16-.22,0-.53.22-.69.59s-.13.69.09.74a1.83,1.83,0,0,0,1.45-.55,5.1,5.1,0,0,0,1.3-1.78Zm0,0" transform="translate(-84.58 -27.02)"/><path class="cls-1" d="M297.66,346.42a1.38,1.38,0,0,1-.69-2.58l37.54-21.68a1.38,1.38,0,1,1,1.38,2.4l-37.54,21.68A1.42,1.42,0,0,1,297.66,346.42Z" transform="translate(-84.58 -27.02)"/><path class="cls-1" d="M297.66,363.76a1.38,1.38,0,0,1-.69-2.58l37.54-21.68a1.38,1.38,0,1,1,1.38,2.4l-37.54,21.68A1.42,1.42,0,0,1,297.66,363.76Z" transform="translate(-84.58 -27.02)"/><path class="cls-7" d="M291,314.21v4.09a1.62,1.62,0,0,1-.62,1.3l-7.12,4.11c-.34.2-.61-.07-.61-.59V319l2-1.14v1.67l1.09-.62v-1.68l2.24-1.29v1.67L289,317v-1.67Z" transform="translate(-84.58 -27.02)"/><path class="cls-7" d="M290.34,310.49l-7,4.06a1.56,1.56,0,0,0-.66,1.26v1.54l8.35-4.82V311C291,310.5,290.7,310.28,290.34,310.49Z" transform="translate(-84.58 -27.02)"/><path class="cls-7" d="M288.88,310.31l-.57.33v-1.08c0-.09-.05-.14-.1-.1l-2.77,1.59a.3.3,0,0,0-.11.23v1.08l-.56.32V311.6a1.78,1.78,0,0,1,.67-1.42l2.77-1.6c.37-.21.67.08.67.65Z" transform="translate(-84.58 -27.02)"/><path class="cls-7" d="M291,331.94V336a1.63,1.63,0,0,1-.62,1.3l-7.12,4.11c-.34.2-.61-.07-.61-.59v-4.1l2-1.13v1.67l1.09-.63V335l2.24-1.29v1.67l1.09-.63v-1.67Z" transform="translate(-84.58 -27.02)"/><path class="cls-7" d="M290.34,328.23l-7,4.06a1.56,1.56,0,0,0-.66,1.26v1.54l8.35-4.82v-1.54C291,328.24,290.7,328,290.34,328.23Z" transform="translate(-84.58 -27.02)"/><path class="cls-7" d="M288.88,328.05l-.57.32v-1.08c0-.09-.05-.13-.1-.1l-2.77,1.6a.26.26,0,0,0-.11.22v1.08l-.56.33v-1.08a1.76,1.76,0,0,1,.67-1.42l2.77-1.6c.37-.22.67.07.67.64Z" transform="translate(-84.58 -27.02)"/><path class="cls-1" d="M297.66,311.75a1.39,1.39,0,0,1-.69-2.59l37.54-21.68a1.39,1.39,0,0,1,1.38,2.41l-37.54,21.67A1.33,1.33,0,0,1,297.66,311.75Z" transform="translate(-84.58 -27.02)"/><path class="cls-1" d="M297.66,329.08a1.38,1.38,0,0,1-.69-2.58l37.54-21.68a1.38,1.38,0,0,1,1.38,2.4L298.35,328.9A1.42,1.42,0,0,1,297.66,329.08Z" transform="translate(-84.58 -27.02)"/></g></g><g id="Button"><g id="Button-2" data-name="Button"><path class="cls-9" d="M366.78,202.27l-46.47,26.92c-.58.33-1.05,1.15-1.05,2.74v16.23a2.32,2.32,0,0,0,1.06,2l1.78,1a2.37,2.37,0,0,0,2.11,0l46.47-26.92a2.32,2.32,0,0,0,1.05-1.83V205.08a2.31,2.31,0,0,0-1.06-1.82l-1.78-1A2.37,2.37,0,0,0,366.78,202.27Z" transform="translate(-84.58 -27.02)"/><path class="cls-18" d="M324.21,251.11a2.46,2.46,0,0,1-2.12,0l-1.77-1a2.32,2.32,0,0,1-1.06-2V231.93a3.54,3.54,0,0,1,.33-2l3.88,2.24a2.2,2.2,0,0,0-.31,1.25v16.16C323.16,251.11,323.59,251.47,324.21,251.11Z" transform="translate(-84.58 -27.02)"/><path class="cls-20" d="M371.72,204.89c-.09-.53-.52-.72-1.05-.42l-46.45,26.92a2.12,2.12,0,0,0-.75.79l-3.88-2.24a2,2,0,0,1,.73-.75l46.46-26.92a2.36,2.36,0,0,1,2.12,0l1.77,1A2.38,2.38,0,0,1,371.72,204.89Z" transform="translate(-84.58 -27.02)"/><path class="cls-9" d="M370.68,204.47l-46.47,26.92a2.32,2.32,0,0,0-1,1.83V250.5c0,.67.47.94,1,.61l46.47-26.92a2.32,2.32,0,0,0,1.05-1.83V205.08C371.73,204.41,371.26,204.14,370.68,204.47Z" transform="translate(-84.58 -27.02)"/></g><path class="cls-4" d="M339.33,228.57a.11.11,0,0,1,.14,0,.21.21,0,0,1,.06.17v1.18a.53.53,0,0,1-.06.24.41.41,0,0,1-.14.17l-2.15,1.24v1.52l2-1.16a.09.09,0,0,1,.13,0,.24.24,0,0,1,.06.18v1.17a.54.54,0,0,1-.06.25.34.34,0,0,1-.13.17l-2,1.16v2.39a.61.61,0,0,1-.06.25.32.32,0,0,1-.14.16l-.94.55a.11.11,0,0,1-.14,0,.24.24,0,0,1-.06-.18v-7.16a.57.57,0,0,1,.06-.25.49.49,0,0,1,.14-.17Z" transform="translate(-84.58 -27.02)"/><path class="cls-4" d="M343.88,230.41v.85a5.13,5.13,0,0,1-.16,1.09,5.3,5.3,0,0,1-.4,1.05,4.32,4.32,0,0,1-.61.9,3.09,3.09,0,0,1-.79.66,1.87,1.87,0,0,1-.8.26,1,1,0,0,1-.61-.2,1.28,1.28,0,0,1-.39-.59,2.69,2.69,0,0,1-.16-.91c0-.1,0-.24,0-.42s0-.32,0-.43a4,4,0,0,1,.15-1.08,5.3,5.3,0,0,1,.4-1.05,4.67,4.67,0,0,1,.61-.91,3.31,3.31,0,0,1,.8-.66,1.63,1.63,0,0,1,.79-.26,1,1,0,0,1,.62.2,1.28,1.28,0,0,1,.39.59A2.74,2.74,0,0,1,343.88,230.41Zm-2.62,2.31a.71.71,0,0,0,.19.55.41.41,0,0,0,.47,0,1.21,1.21,0,0,0,.46-.51,1.79,1.79,0,0,0,.2-.77c0-.12,0-.25,0-.39s0-.26,0-.37a.68.68,0,0,0-.2-.54.39.39,0,0,0-.46,0,1.26,1.26,0,0,0-.47.5,1.8,1.8,0,0,0-.19.78c0,.11,0,.24,0,.38S341.25,232.62,341.26,232.72Z" transform="translate(-84.58 -27.02)"/><path class="cls-4" d="M345.85,232.27a.54.54,0,0,1-.06.25.4.4,0,0,1-.13.17l-.91.52a.11.11,0,0,1-.14,0,.24.24,0,0,1-.06-.18v-7.27a.61.61,0,0,1,.06-.25.38.38,0,0,1,.14-.16l.91-.53a.1.1,0,0,1,.13,0,.24.24,0,0,1,.06.18Z" transform="translate(-84.58 -27.02)"/><path class="cls-4" d="M348,231a.57.57,0,0,1-.06.25.34.34,0,0,1-.13.17l-.91.52a.11.11,0,0,1-.14,0,.24.24,0,0,1-.05-.18v-7.27a.56.56,0,0,1,.05-.25.38.38,0,0,1,.14-.16l.91-.53a.09.09,0,0,1,.13,0,.24.24,0,0,1,.06.18Z" transform="translate(-84.58 -27.02)"/><path class="cls-4" d="M352.58,225.38v.86a5.22,5.22,0,0,1-.16,1.09,5.45,5.45,0,0,1-.4,1,4.32,4.32,0,0,1-.61.9,3.09,3.09,0,0,1-.79.66,1.63,1.63,0,0,1-.8.26.87.87,0,0,1-.61-.2,1.32,1.32,0,0,1-.39-.58,2.74,2.74,0,0,1-.16-.91c0-.11,0-.25,0-.42s0-.32,0-.43a4.15,4.15,0,0,1,.15-1.09,5.45,5.45,0,0,1,.4-1,4.14,4.14,0,0,1,.61-.91,3.14,3.14,0,0,1,.8-.67,1.6,1.6,0,0,1,.79-.25,1,1,0,0,1,.62.2,1.23,1.23,0,0,1,.39.59A2.68,2.68,0,0,1,352.58,225.38ZM350,227.7a.72.72,0,0,0,.19.54.41.41,0,0,0,.47,0,1.18,1.18,0,0,0,.46-.5,1.8,1.8,0,0,0,.2-.78c0-.11,0-.24,0-.38s0-.27,0-.37a.71.71,0,0,0-.2-.55c-.11-.09-.27-.08-.46,0a1.23,1.23,0,0,0-.47.51,1.9,1.9,0,0,0-.19.77c0,.12,0,.25,0,.39S350,227.59,350,227.7Z" transform="translate(-84.58 -27.02)"/><path class="cls-4" d="M356.16,220.85c.08,0,.13,0,.17,0a.22.22,0,0,1,.08.13l.53,2.21.54-2.83a1.11,1.11,0,0,1,.07-.22.52.52,0,0,1,.17-.19l.89-.51a.1.1,0,0,1,.13,0,.26.26,0,0,1,.05.17s0,.06,0,.09l-1.15,5.79a1.09,1.09,0,0,1-.07.24.4.4,0,0,1-.16.18l-.82.47c-.08,0-.13,0-.16,0a.27.27,0,0,1-.08-.14l-.51-2-.52,2.62a1.09,1.09,0,0,1-.07.24.46.46,0,0,1-.16.18l-.82.47c-.08,0-.13,0-.17,0a.35.35,0,0,1-.07-.15l-1.15-4.47V223a.41.41,0,0,1,.05-.21.27.27,0,0,1,.12-.15l.89-.52a.15.15,0,0,1,.17,0,.39.39,0,0,1,.08.14l.53,2.21.53-2.83a1.19,1.19,0,0,1,.08-.22.45.45,0,0,1,.17-.19Z" transform="translate(-84.58 -27.02)"/></g><g id="Button-3" data-name="Button"><g id="Button-4" data-name="Button"><path class="cls-9" d="M366.78,233.75l-46.47,26.91c-.58.34-1.05,1.16-1.05,2.74v16.23a2.3,2.3,0,0,0,1.06,2l1.78,1a2.34,2.34,0,0,0,2.11,0l46.47-26.91a2.35,2.35,0,0,0,1.05-1.83V236.56a2.3,2.3,0,0,0-1.06-1.82l-1.78-1A2.34,2.34,0,0,0,366.78,233.75Z" transform="translate(-84.58 -27.02)"/><path class="cls-18" d="M324.21,282.58a2.43,2.43,0,0,1-2.12,0l-1.77-1a2.35,2.35,0,0,1-1.06-2V263.4a3.59,3.59,0,0,1,.33-2l3.88,2.24a2.22,2.22,0,0,0-.31,1.25v16.16C323.16,282.59,323.59,282.94,324.21,282.58Z" transform="translate(-84.58 -27.02)"/><path class="cls-20" d="M371.72,236.37c-.09-.53-.52-.72-1.05-.42l-46.45,26.91a2.12,2.12,0,0,0-.75.79l-3.88-2.24a2.1,2.1,0,0,1,.73-.75l46.46-26.91a2.36,2.36,0,0,1,2.12,0l1.77,1A2.35,2.35,0,0,1,371.72,236.37Z" transform="translate(-84.58 -27.02)"/><path class="cls-9" d="M370.68,236l-46.47,26.91a2.35,2.35,0,0,0-1,1.83V282c0,.68.47.95,1,.61l46.47-26.91a2.35,2.35,0,0,0,1.05-1.83V236.56C371.73,235.89,371.26,235.61,370.68,236Z" transform="translate(-84.58 -27.02)"/></g><path class="cls-4" d="M331.85,264.26a1.85,1.85,0,0,1,.85-.28,1.1,1.1,0,0,1,.66.14,1.06,1.06,0,0,1,.44.45,1.46,1.46,0,0,1,.17.65.49.49,0,0,1-.05.2.24.24,0,0,1-.1.13l-.95.55a.29.29,0,0,1-.16,0l-.12-.06-.07-.08a.37.37,0,0,0-.14-.08.46.46,0,0,0-.21,0,.92.92,0,0,0-.32.12l-.26.18a1.61,1.61,0,0,0-.23.22,1.35,1.35,0,0,0-.15.26.87.87,0,0,0-.06.32.33.33,0,0,0,.06.23.32.32,0,0,0,.23.08,1.58,1.58,0,0,0,.43-.07l.67-.17a2.26,2.26,0,0,1,.69-.09.82.82,0,0,1,.49.19,1,1,0,0,1,.3.49,3.3,3.3,0,0,1,.09.85,3.66,3.66,0,0,1-.16,1.1,4.76,4.76,0,0,1-1.17,1.92,4.12,4.12,0,0,1-.89.68,2.18,2.18,0,0,1-.9.32,1.18,1.18,0,0,1-.69-.13,1,1,0,0,1-.46-.47,1.54,1.54,0,0,1-.17-.73.37.37,0,0,1,.05-.2.24.24,0,0,1,.1-.13l.94-.55a.32.32,0,0,1,.16-.05.21.21,0,0,1,.12.05l.08.09a.4.4,0,0,0,.16.12.43.43,0,0,0,.24,0,.86.86,0,0,0,.37-.13,3,3,0,0,0,.64-.5.89.89,0,0,0,.25-.6.25.25,0,0,0-.09-.23.48.48,0,0,0-.28,0,2.79,2.79,0,0,0-.48.09l-.69.18a1.05,1.05,0,0,1-1.09-.19,2,2,0,0,1-.34-1.33,3.87,3.87,0,0,1,.14-1,5,5,0,0,1,.41-1,5.08,5.08,0,0,1,.64-.9A3.91,3.91,0,0,1,331.85,264.26Z" transform="translate(-84.58 -27.02)"/><path class="cls-4" d="M335.87,267.56a1,1,0,0,0,.06.39.33.33,0,0,0,.16.17.3.3,0,0,0,.21,0,1,1,0,0,0,.22-.09,1.38,1.38,0,0,0,.34-.26,1.06,1.06,0,0,0,.21-.31l.12-.2a.44.44,0,0,1,.12-.1l.94-.54c.1-.06.16,0,.16.16a2,2,0,0,1-.11.46,5,5,0,0,1-.92,1.58,3.3,3.3,0,0,1-.86.71,1.71,1.71,0,0,1-.83.27.79.79,0,0,1-.62-.24,1.53,1.53,0,0,1-.37-.72,4.94,4.94,0,0,1-.13-1.18,6.76,6.76,0,0,1,.13-1.27,5.42,5.42,0,0,1,.37-1.16,4.29,4.29,0,0,1,.62-1,3.1,3.1,0,0,1,.83-.71,1.51,1.51,0,0,1,.9-.25,1,1,0,0,1,.6.36,1.88,1.88,0,0,1,.34.77,4.74,4.74,0,0,1,.1,1v.31a.7.7,0,0,1,0,.25.41.41,0,0,1-.14.17Zm.65-2.5a1.07,1.07,0,0,0-.46.54,2.26,2.26,0,0,0-.19.73l1.3-.75a.84.84,0,0,0-.19-.51C336.87,265,336.72,264.94,336.52,265.06Z" transform="translate(-84.58 -27.02)"/><path class="cls-4" d="M343,265.42a.53.53,0,0,1-.06.24.31.31,0,0,1-.14.17l-.9.53a.12.12,0,0,1-.14,0,.24.24,0,0,1-.06-.18v-2.81a1.14,1.14,0,0,0-.15-.67c-.1-.14-.26-.14-.47,0a1.1,1.1,0,0,0-.48.56,2.3,2.3,0,0,0-.14.85v2.81a.53.53,0,0,1-.06.24.41.41,0,0,1-.14.17l-.91.52a.09.09,0,0,1-.13,0,.21.21,0,0,1-.06-.17v-5.17a.53.53,0,0,1,.06-.24.35.35,0,0,1,.13-.17l.87-.51a.12.12,0,0,1,.14,0,.24.24,0,0,1,.06.18V262l.14-.32a3.13,3.13,0,0,1,.21-.34A2.8,2.8,0,0,1,341,261a2.34,2.34,0,0,1,.38-.28,1.46,1.46,0,0,1,.63-.21.66.66,0,0,1,.49.17,1.21,1.21,0,0,1,.32.61,3.87,3.87,0,0,1,.12,1.06Z" transform="translate(-84.58 -27.02)"/><path class="cls-4" d="M345.23,258.53a1,1,0,0,1,.37-.14.61.61,0,0,1,.27,0,.5.5,0,0,1,.19.11.55.55,0,0,1,.13.14v-2.36a.61.61,0,0,1,.06-.25.32.32,0,0,1,.14-.16l.91-.53a.1.1,0,0,1,.13,0,.24.24,0,0,1,.06.18v7.28a.53.53,0,0,1-.06.24.4.4,0,0,1-.13.17l-.88.5a.09.09,0,0,1-.13,0,.24.24,0,0,1-.06-.18v-.25l-.14.32a2.23,2.23,0,0,1-.19.32,1.87,1.87,0,0,1-.27.31,2.17,2.17,0,0,1-.4.29,1.32,1.32,0,0,1-.61.2.63.63,0,0,1-.51-.17,1.38,1.38,0,0,1-.35-.59,3.66,3.66,0,0,1-.15-1V262a5.64,5.64,0,0,1,.15-1.21,5.33,5.33,0,0,1,.35-1,3.16,3.16,0,0,1,.51-.76A2.63,2.63,0,0,1,345.23,258.53Zm-.33,2.87c0,.22,0,.43,0,.62a1.11,1.11,0,0,0,.17.58c.1.14.26.15.48,0a.89.89,0,0,0,.28-.23,1.69,1.69,0,0,0,.19-.32,2.06,2.06,0,0,0,.12-.35c0-.12,0-.24.05-.35s0-.25,0-.4,0-.27,0-.38a2.5,2.5,0,0,0-.05-.29.72.72,0,0,0-.12-.21.3.3,0,0,0-.19-.1.57.57,0,0,0-.28.08,1.17,1.17,0,0,0-.48.57A2.6,2.6,0,0,0,344.9,261.4Z" transform="translate(-84.58 -27.02)"/><path class="cls-4" d="M355.76,258a.53.53,0,0,1-.06.24.31.31,0,0,1-.14.17l-.87.51a.1.1,0,0,1-.13,0,.24.24,0,0,1-.06-.18v-2.84a1.19,1.19,0,0,0-.14-.71c-.08-.11-.22-.11-.39,0a.92.92,0,0,0-.38.46,2.16,2.16,0,0,0-.14.86v2.84a.79.79,0,0,1-.05.25.38.38,0,0,1-.14.16l-.87.51a.12.12,0,0,1-.14,0,.24.24,0,0,1-.06-.18v-2.84a1.21,1.21,0,0,0-.13-.71c-.09-.1-.22-.11-.39,0a1,1,0,0,0-.39.45,2.18,2.18,0,0,0-.13.84v2.87a.61.61,0,0,1-.06.25.32.32,0,0,1-.14.16l-.9.53c-.06,0-.1,0-.14,0a.24.24,0,0,1-.06-.18v-5.17a.53.53,0,0,1,.06-.24.35.35,0,0,1,.14-.17l.87-.5a.09.09,0,0,1,.13,0,.22.22,0,0,1,.06.18v.25a3.43,3.43,0,0,1,.39-.71,1.6,1.6,0,0,1,.53-.48,1.1,1.1,0,0,1,.66-.18.67.67,0,0,1,.49.38,3.81,3.81,0,0,1,.51-.94,2.19,2.19,0,0,1,.64-.59,1.32,1.32,0,0,1,.57-.19.63.63,0,0,1,.46.2,1.38,1.38,0,0,1,.29.62,4.51,4.51,0,0,1,.11,1.07Z" transform="translate(-84.58 -27.02)"/><path class="cls-4" d="M356.31,256.37a2.92,2.92,0,0,1,.37-1.42,4.68,4.68,0,0,1,1.18-1.38l.84-.71a.6.6,0,0,0-.09-.38c-.06-.08-.17-.08-.32,0a.82.82,0,0,0-.26.22,2.12,2.12,0,0,0-.13.2.87.87,0,0,1-.13.19l-.13.1-.92.53a.13.13,0,0,1-.12,0,.19.19,0,0,1,0-.16,1.76,1.76,0,0,1,.14-.61,3.46,3.46,0,0,1,.36-.72,5.61,5.61,0,0,1,.53-.7,3.21,3.21,0,0,1,.69-.55,1.71,1.71,0,0,1,.76-.27.7.7,0,0,1,.54.15,1,1,0,0,1,.31.52,2.9,2.9,0,0,1,.1.83v3.36a.61.61,0,0,1-.06.25.36.36,0,0,1-.13.16l-.91.53a.12.12,0,0,1-.14,0,.24.24,0,0,1-.06-.18V256a3,3,0,0,1-.42.77,2.3,2.3,0,0,1-.68.59,1.11,1.11,0,0,1-.55.18.55.55,0,0,1-.4-.13.87.87,0,0,1-.25-.41A2.08,2.08,0,0,1,356.31,256.37Zm1.65-.69a1.39,1.39,0,0,0,.29-.26,2.25,2.25,0,0,0,.24-.36,2.23,2.23,0,0,0,.16-.43,2.3,2.3,0,0,0,.05-.45l-.66.54a1.36,1.36,0,0,0-.31.37.78.78,0,0,0-.12.41q0,.21.09.24A.36.36,0,0,0,358,255.68Z" transform="translate(-84.58 -27.02)"/><path class="cls-4" d="M362.1,248a.53.53,0,0,1-.06.24.41.41,0,0,1-.14.17l-.91.52a.09.09,0,0,1-.13,0,.24.24,0,0,1-.06-.18v-1.12a.53.53,0,0,1,.06-.24.4.4,0,0,1,.13-.17l.91-.52a.11.11,0,0,1,.14,0,.21.21,0,0,1,.06.17Zm0,6.37a.61.61,0,0,1-.06.25.38.38,0,0,1-.14.16l-.91.53a.1.1,0,0,1-.13,0,.24.24,0,0,1-.06-.18V250a.53.53,0,0,1,.06-.24.4.4,0,0,1,.13-.17l.91-.52a.11.11,0,0,1,.14,0,.21.21,0,0,1,.06.17Z" transform="translate(-84.58 -27.02)"/><path class="cls-4" d="M364.23,253.14a.53.53,0,0,1-.06.24.31.31,0,0,1-.14.17l-.9.53a.12.12,0,0,1-.14,0,.24.24,0,0,1-.06-.18v-7.28a.53.53,0,0,1,.06-.24.35.35,0,0,1,.14-.17l.9-.52c.06,0,.1,0,.14,0a.22.22,0,0,1,.06.18Z" transform="translate(-84.58 -27.02)"/></g><g id="Profile_Photo" data-name="Profile Photo"><path class="cls-9" d="M308.42,182.15c0,33.21-23.32,73.6-52.08,90.21s-52.09,3.14-52.08-30.07,23.31-73.61,52.08-90.21S308.42,148.93,308.42,182.15Z" transform="translate(-84.58 -27.02)"/><path class="cls-21" d="M308.42,182.15c0,33.21-23.32,73.6-52.08,90.21s-52.09,3.14-52.08-30.07,23.31-73.61,52.08-90.21S308.42,148.93,308.42,182.15Z" transform="translate(-84.58 -27.02)"/><path class="cls-3" d="M233.07,281.8A29.16,29.16,0,0,1,218.35,278c-10.58-6.11-16.41-18.8-16.41-35.72,0-33.9,23.89-75.27,53.24-92.21,14.66-8.47,28.56-9.76,39.14-3.65s16.41,18.79,16.41,35.72c0,33.89-23.88,75.26-53.24,92.21C248.92,279.31,240.61,281.8,233.07,281.8Zm46.52-134.54c-6.72,0-14.25,2.29-22.1,6.82-28.08,16.21-50.92,55.78-50.92,88.21,0,15.2,5,26.47,14.09,31.71s21.36,4,34.52-3.64c28.09-16.22,50.93-55.79,50.93-88.21,0-15.21-5-26.47-14.1-31.72A24.5,24.5,0,0,0,279.59,147.26Z" transform="translate(-84.58 -27.02)"/><g id="Top"><path class="cls-22" d="M267,198.91c8.28,0,8.95,1.25,19,6.47,5.68,3,13.86,7.37,13.86,7.37l.62-1.12a5.6,5.6,0,0,1,7.39-1c4.39,2.67,7.63,5.39,9.38,9.58-2.72,10.87-5.42,14.36-11.49,13.51-4.41-.62-28.45-9.55-28.45-9.55Z" transform="translate(-84.58 -27.02)"/><path class="cls-23" d="M302,212.19c1.47-.63,3.68.37,3.7,1.62,0,0,1.53-1.6,1-3.12S303.81,209.21,302,212.19Z" transform="translate(-84.58 -27.02)"/><g id="Hand"><path class="cls-7" d="M301.75,208.82s9.64-21.93,9.85-24.08c1.92,2.63,4.39-1.33,7.72-.15,2.29.82,3.3,2.77,3.46,5.09-3.28,24.64-5.08,29-5.08,29C313.47,213.5,308.53,209.9,301.75,208.82Z" transform="translate(-84.58 -27.02)"/><path class="cls-6" d="M323.16,189.35s-.15-4.1-3.26-5.52c-2.08-1-4.17.45-5.79.84s-1.85-.35-2.73-1.39a41.53,41.53,0,0,1-2.82-4.33c-.38-.83.67-2.7,1-3.28s1.32-1.7,1.66-1.68,1.07,1.22,1.32.36.06-3.42.39-5.14,7.41-1.46,11.2-.43c2.62.71,4.26,1.09,3.73,5.23C327.21,180.22,325.28,188.93,323.16,189.35Z" transform="translate(-84.58 -27.02)"/><path class="cls-8" d="M308.15,177.58a15.73,15.73,0,0,1-1.59-4.31c-.15-.62,1.44-2.48,2.05-2.36s1.78,1.84,1.84,3A7.47,7.47,0,0,0,308.15,177.58Z" transform="translate(-84.58 -27.02)"/><path class="cls-8" d="M306.39,172.3a4.78,4.78,0,0,1,1.88-1.82c.45-.2-.73-2.43-1.57-3.16-1.29-1.11-2.38-.29-1.73.72C305.78,169.29,305.61,171.34,306.39,172.3Z" transform="translate(-84.58 -27.02)"/><path class="cls-8" d="M316.49,174.06c3.63,3.09,4,8.57,4,8.57a7.74,7.74,0,0,0-.39-5.48C318.79,174.16,316.49,174.06,316.49,174.06Z" transform="translate(-84.58 -27.02)"/><path class="cls-8" d="M314.3,167.46c1.16-.17,2.19-.21,1.86-1.72a20.93,20.93,0,0,1-.65-4.59c.09-1-.21-1.94-1.37-1.69s-1.74.4-1.63,1.75a30.86,30.86,0,0,1,.07,4.66C312.47,166.83,312.71,167.68,314.3,167.46Z" transform="translate(-84.58 -27.02)"/><path class="cls-8" d="M313.85,159.1c-.86.13-1.42.36-1.46-.79s-.16-2.3-.22-3.62.42-1.75.93-1.82,1,.4,1.31,1.57.44,2.52.65,3.39S315,159,313.85,159.1Z" transform="translate(-84.58 -27.02)"/><path class="cls-1" d="M314.07,160.34c.49-.07.82-.1.85-.3s-.19-1.47-1-1.34-.86,1.3-.76,1.53S313.69,160.4,314.07,160.34Z" transform="translate(-84.58 -27.02)"/><path class="cls-8" d="M322.47,167.74c1.18,0,2.2,0,2-1.51s-.35-3.49-.37-4.46c0-1.24-.22-2.16-1.39-2s-1.32.24-1.36,1.6a31.59,31.59,0,0,1-.45,4.64C320.72,166.91,320.87,167.78,322.47,167.74Z" transform="translate(-84.58 -27.02)"/><path class="cls-8" d="M322.71,159.62c-.87,0-1.44.25-1.39-.9s0-1.86.06-3.18.55-1.71,1.07-1.74.94.48,1.18,1.68.25,2.09.39,3S323.83,159.56,322.71,159.62Z" transform="translate(-84.58 -27.02)"/><path class="cls-1" d="M322.82,160.55c.49,0,.83-.05.87-.25s-.1-1.48-.95-1.4-.94,1.25-.85,1.48S322.44,160.58,322.82,160.55Z" transform="translate(-84.58 -27.02)"/><path class="cls-8" d="M326.37,168.73c1.13.12,1.71-.09,1.66-1.12-.08-1.86,0-2.7-.08-3.64-.13-1.61-.29-1.83-1.43-1.76s-1.21.38-1.33,1.72c-.09,1.1-.16,2.27-.2,3.43C325,168.29,325.41,168.64,326.37,168.73Z" transform="translate(-84.58 -27.02)"/><path class="cls-8" d="M326.54,161.63c-.84,0-1.16.15-1.28-.95a7,7,0,0,1,0-1.77c.17-1.25.64-1.61,1.14-1.61s.87.52,1,1.68.11.75.19,1.61S327.62,161.63,326.54,161.63Z" transform="translate(-84.58 -27.02)"/><path class="cls-1" d="M326.58,162.68c.47-.05.8-.07.83-.26s-.13-1.42-1-1.33-.87,1.23-.78,1.45S326.22,162.72,326.58,162.68Z" transform="translate(-84.58 -27.02)"/><path class="cls-8" d="M318.42,167.26c1.18-.09,2.2-.06,2-1.59a33.88,33.88,0,0,1-.44-5.84c.16-1-.08-2-1.25-1.79s-1.76.28-1.74,1.64a54.78,54.78,0,0,1-.15,5.88C316.64,166.5,316.83,167.37,318.42,167.26Z" transform="translate(-84.58 -27.02)"/><path class="cls-8" d="M318.45,157.75c-.85.18-1.39.44-1.5-.7s-.3-2.29-.44-3.6.31-1.78.82-1.88,1,.35,1.4,1.49.59,2.49.85,3.35S319.56,157.53,318.45,157.75Z" transform="translate(-84.58 -27.02)"/><path class="cls-1" d="M318.58,158.92c.49,0,.83,0,.87-.25s-.09-1.48-.95-1.4-.94,1.24-.85,1.47S318.2,159,318.58,158.92Z" transform="translate(-84.58 -27.02)"/></g><path class="cls-8" d="M317.7,218.69c-1.9,8.65-4.79,10.7-7.82,11-5.17.55-10.38-6.31-7.41-10.78,2.11-3.15,3.09-4.61,3.33-5.5a1.77,1.77,0,0,0-2.69-2,12.06,12.06,0,0,0-2.2,1.87l-1.06-.53,2.21-4.64C305.34,208,314.26,210.59,317.7,218.69Z" transform="translate(-84.58 -27.02)"/><path class="cls-6" d="M307.63,212.63a1,1,0,0,0,2.06-.15,1,1,0,0,0-2.06.15Z" transform="translate(-84.58 -27.02)"/><path class="cls-22" d="M306.52,225.53c-.92-1.18-.38-3.25,1.43-6.12s2.38-4.77,3.86-4.15a5.79,5.79,0,0,1,2.68,7.39C312.86,226.42,309.62,229.48,306.52,225.53Z" transform="translate(-84.58 -27.02)"/><path class="cls-9" d="M286,222c-.18,5.44-3.1,7.88-3.1,7.88,0,1.5-.25,10.32-.59,15.78-7.85,10.26-17.14,19-27.11,24.7-9.51,5.49-18.55,7.69-26.25,6.51,1.78-10.37,9.22-20.16,10-25.33,0,0-1.18-5-2.65-11.08,0-.17-.08-.34-.12-.51-1.38-5.84-3-12.59-4.07-17-2.24-9.18-1.22-18.7,1.72-19.77a80.27,80.27,0,0,1,10.53-2.89c2.25-.51,5.33-1.29,14.9-1.54,4.21-.11,7.79.16,7.79.16a91.67,91.67,0,0,1,10.26,7.89C284.2,212.8,286.18,215.8,286,222Z" transform="translate(-84.58 -27.02)"/><path class="cls-18" d="M246.67,232.66A13.4,13.4,0,0,0,260,238.38a14.12,14.12,0,0,0,11.16-8.71s.66,9.84-10.92,11.05S246.67,232.66,246.67,232.66Z" transform="translate(-84.58 -27.02)"/><path class="cls-8" d="M246.12,193.44a17.94,17.94,0,0,1-5.84-1.52c-2.23-.88-4-.07-6.3-.2-2.06-.12-3.41-1.57-4.48-3.15-.88-1.32-1.3-3.23-2.79-4-1-.55-2.07-.91-3.09-1.51a6.77,6.77,0,0,1-3.37-6.15,5.29,5.29,0,0,0,3.41-2.27c1.24-1.85.65-4,.87-6a4.09,4.09,0,0,1,2.68-3.17c1.69-.79,3.13-.82,3.89-2.62.69-1.62,1.33-3.36,2.18-4.9,1-1.77,3.31-2.82,5.65-3a8.17,8.17,0,0,1,6.23-8.59,14.91,14.91,0,0,1,5.71-.57c1.81.23,3.31-1.13,4.9-1.82,2.49-1.09,5.68-1.43,8,.29,1.36,1,1.73,2.91,3.34,3.69s3.84-.51,5.72-.19c2.6.45,5.57,2.25,6.72,4.65,1.07,2.22.15,4.73,1,6.84.67,1.6,3.69,2.45,4.39.4a3.49,3.49,0,0,1-.25,3.66c-1.18,1.79-3.44,1.9-5.36,2.09a4.07,4.07,0,0,1,3.51,2.47,11.89,11.89,0,0,1,.67,2.47c.28,1,.56,2.35,1.43,3a2.92,2.92,0,0,0,3,.14c.42,2.85-.33,5.75-3.34,6.63a3.61,3.61,0,0,0-2.5,1.63,11,11,0,0,1-2.41,3.64,8.82,8.82,0,0,1-4.88,2c-1.47.11-3.13-.29-4.56,0-2.89.7-4.58,3.69-7.63,4-1.62.18-3.23-.43-4.86-.38-.76,0-1.45.3-2.2.3s-1.55-.34-2.36-.4a5,5,0,0,0-3.1,1.29,5.44,5.44,0,0,1-2.91,1.15A8,8,0,0,1,246.12,193.44Z" transform="translate(-84.58 -27.02)"/><path class="cls-22" d="M269.42,155.2s5.07,4.27,6.38,19.3c.84,9.71-1.68,14.65-6,17.21-1.92,1.14-4.33,1.52-7.34,1.68l.67,6s11.93,8.29,3.47,10.93c-4.22,1.32-9.78.54-14-1.72S245.8,201,245.8,201l-1.67-14.73s-1.89,3.54-6.45.88c-4.33-2.51-5.28-7.78-2.78-10.22,3.68-3.59,7.12-.89,8.41.91s4.51,1.75,2.09-7c2.74-1.26,5.41-6.46,3.16-12.56C252.73,155,261.66,151.43,269.42,155.2Z" transform="translate(-84.58 -27.02)"/><path class="cls-23" d="M258.43,182l6.14,1a3.05,3.05,0,0,1-3.51,2.66A3.26,3.26,0,0,1,258.43,182Z" transform="translate(-84.58 -27.02)"/><path class="cls-8" d="M256.77,165.59l-4.11,2.32a2.25,2.25,0,0,1,.81-3.18A2.48,2.48,0,0,1,256.77,165.59Z" transform="translate(-84.58 -27.02)"/><path class="cls-8" d="M267.19,165l4.48,1.47a2.26,2.26,0,0,0-1.41-3A2.48,2.48,0,0,0,267.19,165Z" transform="translate(-84.58 -27.02)"/><path class="cls-23" d="M262.08,168.53l2.35,10.22,5.31-2.5C267.27,172.83,264.73,169.23,262.08,168.53Z" transform="translate(-84.58 -27.02)"/><path class="cls-23" d="M262.46,193.39a29.42,29.42,0,0,1-11.09-1.94c-1.9-.8-4.1-4.38-4.74-5.42,0,0,1.13,5.38,4.49,7.34,4.47,2.6,11.6,2.37,11.6,2.37Z" transform="translate(-84.58 -27.02)"/><path class="cls-8" d="M268.09,170.23a1.84,1.84,0,0,0,1.83,1.8,1.73,1.73,0,0,0,1.77-1.76,1.84,1.84,0,0,0-1.83-1.8A1.73,1.73,0,0,0,268.09,170.23Z" transform="translate(-84.58 -27.02)"/><path class="cls-8" d="M254.49,171.48a1.84,1.84,0,0,0,1.83,1.8,1.73,1.73,0,0,0,1.77-1.77,1.83,1.83,0,0,0-1.83-1.79A1.72,1.72,0,0,0,254.49,171.48Z" transform="translate(-84.58 -27.02)"/><path class="cls-24" d="M258.66,183.68a4.17,4.17,0,0,1,4.18,1.71,3,3,0,0,1-1.78.25A3.17,3.17,0,0,1,258.66,183.68Z" transform="translate(-84.58 -27.02)"/><path class="cls-8" d="M248.56,158.29c1.91-2.22,9,1.62,13.37,5.09s13,6.49,16.69-1.1c-2.15-1.12-4.1-7.3-9.8-10.66S250.59,149.1,248.56,158.29Z" transform="translate(-84.58 -27.02)"/><path class="cls-22" d="M238.93,201.58c-10.16,2.17-11.54,2.72-15.71,11.23-3.51,7.17-14,28.44-16.22,34.15-1.81,4.74-2.39,8.6,8.07,14.25,9.14,4.94,16.1,8,16.1,8,2.28-5.17,4.76-9.65,6.74-14.4l-10.39-6.59s8.36-12.64,11.25-17.61C242.15,224.77,247.66,211,238.93,201.58Z" transform="translate(-84.58 -27.02)"/></g></g><g id="Speech_Bubble-2" data-name="Speech Bubble"><g id="Speech_Bubble-3" data-name="Speech Bubble"><path class="cls-9" d="M253.73,83.45l-3-5.67,2.42-7V66.5l-7.42,4.28v4.29l3.19,5.52a.44.44,0,0,0,.22.19h0Z" transform="translate(-84.58 -27.02)"/><path class="cls-18" d="M253.73,83.45l-3-5.67,2.42-7V66.5l-7.42,4.28v4.29l3.19,5.52a.44.44,0,0,0,.22.19h0Z" transform="translate(-84.58 -27.02)"/><path class="cls-9" d="M271.45,32.45a5,5,0,0,0-2.22-3.86l-1.82-1a4.89,4.89,0,0,0-4.44,0L235.19,43.61A4.93,4.93,0,0,0,233,47.47V78a4.91,4.91,0,0,0,2.23,3.85L237,82.93a4.91,4.91,0,0,0,4.45,0l8.93-5.17,3.19,5.52a.48.48,0,0,0,.86-.08l3.36-9.72,11.44-6.62A4.93,4.93,0,0,0,271.45,63Z" transform="translate(-84.58 -27.02)"/><path class="cls-18" d="M233,78a4.91,4.91,0,0,0,2.23,3.85L237,82.93a5,5,0,0,0,4.07.18c-1,.39-1.85-.2-1.85-1.47V51.08a4.45,4.45,0,0,1,.66-2.19l-6.26-3.62a4.51,4.51,0,0,0-.66,2.2Z" transform="translate(-84.58 -27.02)"/><path class="cls-20" d="M271.38,31.81c-.26-.94-1.12-1.24-2.15-.65L241.45,47.23a4.34,4.34,0,0,0-1.57,1.66l-6.26-3.61a4.5,4.5,0,0,1,1.57-1.66L263,27.55a4.91,4.91,0,0,1,4.45,0l1.82,1.05A4.9,4.9,0,0,1,271.38,31.81Z" transform="translate(-84.58 -27.02)"/></g><g id="Like"><path class="cls-3" d="M246.49,65.32a1,1,0,0,0,1.46.91,5.71,5.71,0,0,0-.22,1.5c0,1,.79,1.44,1.92.78l8.64-5V52.25a34.15,34.15,0,0,1-2.59-3.19,24.89,24.89,0,0,1,0-4.05c0-.42-1.41.19-2.31,1.67a4.25,4.25,0,0,0-.51,1.14,13.93,13.93,0,0,0-.52,2.4,7.59,7.59,0,0,0,.18,3l-5.23,3a2.74,2.74,0,0,0-1,1,3.57,3.57,0,0,0-.55,1.75c0,1,.56,1.26.84,1.28a3.25,3.25,0,0,0-1,2.28c0,.8.48,1.37,1.27,1.1A3.89,3.89,0,0,0,246.49,65.32Z" transform="translate(-84.58 -27.02)"/><path class="cls-3" d="M263.3,49.53V61.7a1,1,0,0,1-.43.74L260,64.12c-.23.13-.42,0-.42-.25V51.73A1,1,0,0,1,260,51l2.93-1.7C263.11,49.15,263.3,49.26,263.3,49.53Z" transform="translate(-84.58 -27.02)"/></g></g></g></svg>