<svg id="Group_1802" data-name="Group 1802" xmlns="http://www.w3.org/2000/svg" width="188.298" height="160.607" viewBox="0 0 188.298 160.607">
  <path id="Polygon_1" data-name="Polygon 1" d="M82.237,8.832a20,20,0,0,1,23.823,0l60.568,44.907a20,20,0,0,1,0,32.132l-60.568,44.907a20,20,0,0,1-23.823,0L21.669,85.871a20,20,0,0,1,0-32.132Z" fill="#0161cd"/>
  <path id="Polygon_3" data-name="Polygon 3" d="M82.237,8.832a20,20,0,0,1,23.823,0l60.568,44.907a20,20,0,0,1,0,32.132l-60.568,44.907a20,20,0,0,1-23.823,0L21.669,85.871a20,20,0,0,1,0-32.132Z" transform="translate(0 20.997)" fill="#0161cd" opacity="0.5"/>
  <g id="global" transform="translate(63.689 38.767)">
    <path id="Path_15907" data-name="Path 15907" d="M222.653,296.681v-5.866a10.622,10.622,0,0,0-3.965,1.076A9.93,9.93,0,0,0,222.653,296.681Z" transform="translate(-192.26 -255.252)" fill="#fff"/>
    <path id="Path_15908" data-name="Path 15908" d="M211.289,265.277a12.162,12.162,0,0,1,4.459-1.15V262h-4.966A14.817,14.817,0,0,0,211.289,265.277Z" transform="translate(-185.355 -230.086)" fill="#fff"/>
    <path id="Path_15909" data-name="Path 15909" d="M210.783,227.411h4.966v-2.125a12.115,12.115,0,0,1-4.459-1.149A14.809,14.809,0,0,0,210.783,227.411Z" transform="translate(-185.355 -197.017)" fill="#fff"/>
    <path id="Path_15910" data-name="Path 15910" d="M218.688,179.651a10.613,10.613,0,0,0,3.965,1.076v-5.866A9.935,9.935,0,0,0,218.688,179.651Z" transform="translate(-192.26 -153.981)" fill="#fff"/>
    <path id="Path_15911" data-name="Path 15911" d="M196.518,306.7a10.659,10.659,0,0,0,4.024,2.537A11.915,11.915,0,0,1,198,305.455,10.621,10.621,0,0,0,196.518,306.7Z" transform="translate(-172.897 -268.039)" fill="#fff"/>
    <path id="Path_15912" data-name="Path 15912" d="M200.541,176.714a10.658,10.658,0,0,0-4.025,2.537A10.61,10.61,0,0,0,198,180.492,11.915,11.915,0,0,1,200.541,176.714Z" transform="translate(-172.895 -155.599)" fill="#fff"/>
    <path id="Path_15913" data-name="Path 15913" d="M176.262,207.409a12.146,12.146,0,0,1-1.945-1.556,10.577,10.577,0,0,0-2.079,5.59h3.36A16.211,16.211,0,0,1,176.262,207.409Z" transform="translate(-151.691 -181.049)" fill="#fff"/>
    <path id="Path_15914" data-name="Path 15914" d="M287.727,179.253a10.658,10.658,0,0,0-4.027-2.539,11.918,11.918,0,0,1,2.544,3.787A10.5,10.5,0,0,0,287.727,179.253Z" transform="translate(-249.039 -155.599)" fill="#fff"/>
    <path id="Path_15915" data-name="Path 15915" d="M175.6,262h-3.36a10.577,10.577,0,0,0,2.079,5.59,12.117,12.117,0,0,1,1.945-1.555A16.211,16.211,0,0,1,175.6,262Z" transform="translate(-151.691 -230.086)" fill="#fff"/>
    <path id="Path_15916" data-name="Path 15916" d="M283.7,309.166a10.659,10.659,0,0,0,4.027-2.539,10.506,10.506,0,0,0-1.483-1.248A11.921,11.921,0,0,1,283.7,309.166Z" transform="translate(-249.039 -267.972)" fill="#fff"/>
    <path id="Path_15917" data-name="Path 15917" d="M308.009,266.024a12,12,0,0,1,1.944,1.563A10.577,10.577,0,0,0,312.03,262h-3.36a16.217,16.217,0,0,1-.661,4.024Z" transform="translate(-270.27 -230.086)" fill="#fff"/>
    <path id="Path_15918" data-name="Path 15918" d="M308.01,207.442a16.215,16.215,0,0,1,.66,4.023h3.36a10.577,10.577,0,0,0-2.077-5.587A12.008,12.008,0,0,1,308.01,207.442Z" transform="translate(-270.271 -181.07)" fill="#fff"/>
    <path id="Path_15919" data-name="Path 15919" d="M262,174.861v5.869a10.49,10.49,0,0,0,3.969-1.067A9.931,9.931,0,0,0,262,174.861Z" transform="translate(-230.087 -153.981)" fill="#fff"/>
    <path id="Path_15920" data-name="Path 15920" d="M266.966,262H262v2.123a12.034,12.034,0,0,1,4.462,1.141A14.818,14.818,0,0,0,266.966,262Z" transform="translate(-230.087 -230.086)" fill="#fff"/>
    <path id="Path_15921" data-name="Path 15921" d="M266.462,224.231A12,12,0,0,1,262,225.372v2.122h4.966A14.812,14.812,0,0,0,266.462,224.231Z" transform="translate(-230.087 -197.1)" fill="#fff"/>
    <path id="Path_15922" data-name="Path 15922" d="M68.17,37.013a4.11,4.11,0,0,0-4.038,3.372H58.205a17.034,17.034,0,0,0-4.528-10.837l4.2-4.2a4.1,4.1,0,1,0-1.058-1.091L52.6,28.479a17.032,17.032,0,0,0-10.842-4.419V18.127a4.106,4.106,0,1,0-1.519-.049V24.07a17.035,17.035,0,0,0-10.7,4.515l-4.2-4.2a4.1,4.1,0,1,0-1.1,1.05l4.229,4.229a17.031,17.031,0,0,0-4.427,10.85h-5.9a4.106,4.106,0,1,0-.06,1.519h5.97a17.034,17.034,0,0,0,4.5,10.68L24.369,56.89a4.1,4.1,0,1,0,1.058,1.091l4.2-4.2a17.032,17.032,0,0,0,10.742,4.44v5.9a4.1,4.1,0,1,0,1.519,0v-5.9A17.033,17.033,0,0,0,52.7,53.717l4.18,4.18a4.1,4.1,0,1,0,1.084-1.065L53.772,52.64a17.033,17.033,0,0,0,4.433-10.735h5.937a4.1,4.1,0,1,0,4.028-4.892ZM50.332,49.045a.759.759,0,0,1-.134.152h0a12.13,12.13,0,0,1-8.686,4.067.756.756,0,0,1-.1.007c-.016,0-.031,0-.047,0-.08,0-.161,0-.242,0s-.161,0-.242,0c-.016,0-.031,0-.047,0a.756.756,0,0,1-.1-.007A12.129,12.129,0,0,1,32.053,49.2l0,0a.757.757,0,0,1-.131-.15,12.132,12.132,0,0,1,0-15.857.757.757,0,0,1,.131-.15l0,0a12.131,12.131,0,0,1,8.7-4.068.749.749,0,0,1,.139,0c.078,0,.157,0,.235,0s.157,0,.235,0a.752.752,0,0,1,.14,0,12.13,12.13,0,0,1,8.7,4.067l0,0a.759.759,0,0,1,.134.152,12.133,12.133,0,0,1,0,15.857Z" transform="translate(-9.971 -9.963)" fill="#fff"/>
    <path id="Path_15923" data-name="Path 15923" d="M262,290.785v5.87a9.933,9.933,0,0,0,3.97-4.8,10.483,10.483,0,0,0-3.97-1.067Z" transform="translate(-230.087 -255.226)" fill="#fff"/>
  </g>
</svg>
