<svg id="Layer_1" data-name="Layer 1" xmlns="http://www.w3.org/2000/svg" viewBox="0 0 33.34 33.34"><defs><style>.cls-1,.cls-3{fill:#bdc3c7;}.cls-2{fill:#fff;}.cls-2,.cls-3{fill-rule:evenodd;}</style></defs><circle class="cls-1" cx="16.67" cy="10" r="5"/><path id="Combined-Shape" class="cls-2" d="M31.79,8.21A16.67,16.67,0,1,0,36.67,20,16.71,16.71,0,0,0,31.79,8.21ZM20,8.33a5,5,0,1,1-5,5A5,5,0,0,1,20,8.33Zm0,25a13.3,13.3,0,0,1-10.86-5.6,10,10,0,0,1,9.19-6.06h3.34a10,10,0,0,1,9.19,6.06A13.3,13.3,0,0,1,20,33.33Z" transform="translate(-3.33 -3.33)"/><path class="cls-3" d="M30.86,27.73a13.33,13.33,0,0,1-21.72,0,10,10,0,0,1,9.19-6.06h3.34A10,10,0,0,1,30.86,27.73Z" transform="translate(-3.33 -3.33)"/></svg>