<svg id="Group_1953" data-name="Group 1953" xmlns="http://www.w3.org/2000/svg" width="188.298" height="160.607" viewBox="0 0 188.298 160.607">
  <path id="Polygon_4" data-name="Polygon 4" d="M82.237,8.832a20,20,0,0,1,23.823,0l60.568,44.907a20,20,0,0,1,0,32.132l-60.568,44.907a20,20,0,0,1-23.823,0L21.669,85.871a20,20,0,0,1,0-32.132Z" fill="#04dc8b"/>
  <path id="Polygon_5" data-name="Polygon 5" d="M82.237,8.832a20,20,0,0,1,23.823,0l60.568,44.907a20,20,0,0,1,0,32.132l-60.568,44.907a20,20,0,0,1-23.823,0L21.669,85.871a20,20,0,0,1,0-32.132Z" transform="translate(0 20.997)" fill="#04dc8b" opacity="0.5"/>
  <g id="security" transform="translate(69.227 41.536)">
    <path id="Path_15798" data-name="Path 15798" d="M46.91,8.972a9.623,9.623,0,0,1-5.909-6A4.344,4.344,0,0,0,36.893,0H12.951A4.344,4.344,0,0,0,8.842,2.975a9.62,9.62,0,0,1-5.908,6A4.391,4.391,0,0,0,0,13.13v6.112A39.183,39.183,0,0,0,6.849,41.45,38.465,38.465,0,0,0,23.186,55.02a4.346,4.346,0,0,0,3.47,0A38.462,38.462,0,0,0,42.994,41.45a39.183,39.183,0,0,0,6.849-22.208V13.13A4.391,4.391,0,0,0,46.91,8.972ZM35.625,34.283a7.252,7.252,0,0,1-7.21,7.277H21.428a7.253,7.253,0,0,1-7.211-7.277V24.944a3.894,3.894,0,0,1,3.872-3.907H18.2V16.416a6.723,6.723,0,1,1,13.446,0v4.621h.109a3.893,3.893,0,0,1,3.872,3.907Zm0,0" transform="translate(0)" fill="#fff"/>
    <path id="Path_15799" data-name="Path 15799" d="M206.8,122.583a3.507,3.507,0,1,0-7.014,0V127.2H206.8Zm0,0" transform="translate(-178.374 -106.167)" fill="#fff"/>
    <path id="Path_15800" data-name="Path 15800" d="M176.965,224.488H163.3a.66.66,0,0,0-.656.662v9.338a4.018,4.018,0,0,0,4,4.032h6.987a4.018,4.018,0,0,0,3.995-4.032V225.15a.66.66,0,0,0-.656-.662Zm-5.224,8.549a1.608,1.608,0,1,1-3.216,0v-3.066a1.608,1.608,0,1,1,3.216,0Zm0,0" transform="translate(-145.212 -200.206)" fill="#fff"/>
  </g>
</svg>
