<svg id="Layer_1" data-name="Layer 1" xmlns="http://www.w3.org/2000/svg" viewBox="0 0 203.03 343.97"><defs><style>.cls-1{fill:#e0e0e0;}.cls-2{fill:#e6e6e6;}.cls-3{opacity:0.1;}.cls-12,.cls-15,.cls-16,.cls-17,.cls-3{isolation:isolate;}.cls-4{fill:#f0f0f0;}.cls-5{fill:#455a64;}.cls-6{fill:#37474f;}.cls-7{fill:#ebebeb;}.cls-8{fill:#263238;}.cls-12,.cls-9{fill:#ba68c8;}.cls-10{fill:#fafafa;}.cls-11,.cls-15,.cls-16,.cls-17{fill:#fff;}.cls-12{font-size:36px;font-family:Arial-BoldMT, Arial;font-weight:700;}.cls-13{fill:none;stroke:#455a64;stroke-linecap:round;stroke-linejoin:round;}.cls-14,.cls-15{opacity:0.2;}.cls-16{opacity:0.4;}.cls-17{opacity:0.7;}</style></defs><path id="Shadow" class="cls-1" d="M202.47,306l-14.66-8.46a3.48,3.48,0,0,0-3.17,0L.64,403.74a1,1,0,0,0-.53,1.31,1,1,0,0,0,.53.53l14.8,8.61a3.45,3.45,0,0,0,3.16,0l31.14-18a15.49,15.49,0,0,0,1.37.91L75,410.87a23,23,0,0,0,21.13,0l46-26.57c3.42-2,5.38-4.91,5.38-8.07s-2-6.1-5.38-8.07l-22-12.7,82.34-47.64a1,1,0,0,0,0-1.84Z" transform="translate(-0.03 -70.6)"/><g id="Device-2"><g id="Monitor"><path class="cls-2" d="M140.41,367.89l-23.85-13.77c-4.9-2.82-13.14-3.47-18.42-1.44L84,358.13a81.34,81.34,0,0,0-17.59,10L52,379.47A7.17,7.17,0,0,0,48.91,385v3.29c0,2.19,1.33,4.31,3.91,5.8l23.84,13.77c4.9,2.83,12.83,2.83,17.73,0l46-26.57c2.46-1.41,3.67-3.28,3.66-5.13V373C144.07,371.16,142.86,369.3,140.41,367.89Z" transform="translate(-0.03 -70.6)"/><path class="cls-1" d="M48.92,388.32c0,2.19,1.33,4.31,3.91,5.8l23.84,13.77A18.15,18.15,0,0,0,85.54,410v-3.4L48.91,385.46C48.91,386.31,48.91,387.86,48.92,388.32Z" transform="translate(-0.03 -70.6)"/><path class="cls-3" d="M48.92,388.32c0,2.19,1.33,4.31,3.91,5.8l23.84,13.77A18.15,18.15,0,0,0,85.54,410v-3.4L48.91,385.46C48.91,386.31,48.91,387.86,48.92,388.32Z" transform="translate(-0.03 -70.6)"/><path class="cls-4" d="M98.15,352.68,84,358.13a81.34,81.34,0,0,0-17.59,10L52,379.47c-4.44,3.49-4.07,8.62.82,11.44l23.84,13.77c4.9,2.83,12.83,2.83,17.73,0l46-26.57c4.89-2.82,4.89-7.4,0-10.23l-23.84-13.76C111.67,351.3,103.43,350.65,98.15,352.68Z" transform="translate(-0.03 -70.6)"/><path class="cls-3" d="M116.56,354.12c-4.9-2.82-13.14-3.47-18.42-1.44L84,358.13a81.34,81.34,0,0,0-17.59,10L52,379.47A7.17,7.17,0,0,0,48.91,385v3.29c0,2.19,1.33,4.31,3.91,5.8l13.28,7.67V398.6l63.75-36.81Z" transform="translate(-0.03 -70.6)"/><path class="cls-1" d="M94.22,368.6c0-7,2.21-29.16,6.82-34.34l-14.76-1.63c-7.26,7.67-16,26-21.21,36.56,0,0,4.33,1.77,9.68,4s12.78,2.21,16.61,0a5.18,5.18,0,0,0,2.86-4.57Z" transform="translate(-0.03 -70.6)"/><path class="cls-3" d="M94.22,368.6c0-7,2.21-29.16,6.82-34.34l-14.76-1.63c-7.26,7.67-16,26-21.21,36.56,0,0,4.33,1.77,9.68,4s12.78,2.21,16.61,0a5.18,5.18,0,0,0,2.86-4.57Z" transform="translate(-0.03 -70.6)"/><path class="cls-1" d="M91.47,334.76c2.86,1.18,6.85,1.18,8.9,0s2-3.49,0-5.15l-3.71-3a42.48,42.48,0,0,0-10.38,6S88.56,333.57,91.47,334.76Z" transform="translate(-0.03 -70.6)"/><path class="cls-5" d="M10.73,383.38a8.46,8.46,0,0,0,7.61-.14L197,280.05a8.65,8.65,0,0,0,3.92-6.79V108.09a7.37,7.37,0,0,0-7.09-7.64,7.29,7.29,0,0,0-4.19,1.12L11,204.76a8.64,8.64,0,0,0-3.92,6.8V376.68A8.43,8.43,0,0,0,10.73,383.38Z" transform="translate(-0.03 -70.6)"/><path class="cls-6" d="M18.34,383.19,197,280a8.68,8.68,0,0,0,3.93-6.8V108.09c0-2.51-1.76-3.52-3.93-2.27L18.34,209a8.68,8.68,0,0,0-3.92,6.79V380.93C14.42,383.43,16.17,384.44,18.34,383.19Z" transform="translate(-0.03 -70.6)"/><path class="cls-7" d="M14.42,367.58v13.35c0,2.5,1.75,3.51,3.92,2.26L197,280a8.68,8.68,0,0,0,3.93-6.8V259.86Z" transform="translate(-0.03 -70.6)"/><path class="cls-8" d="M19.56,355.16V217.55A5.34,5.34,0,0,1,22,213.37l171.39-98.94c1.33-.77,2.41-.14,2.41,1.4v137.6a5.31,5.31,0,0,1-2.41,4.18L22,356.55C20.68,357.32,19.56,356.7,19.56,355.16Z" transform="translate(-0.03 -70.6)"/><path class="cls-8" d="M8.21,207.68l7.36,4.24a8.31,8.31,0,0,0-1.16,3.88V380.93c0,2.28,1.54,3.56,3.92,2.27a8.34,8.34,0,0,1-7.61.14A7.55,7.55,0,0,1,7,377.16V211.56A8.21,8.21,0,0,1,8.21,207.68Z" transform="translate(-0.03 -70.6)"/><path class="cls-9" d="M105.56,322.43l8.87-5.1c.8-.46,1.44-.13,1.44.73a3.09,3.09,0,0,1-1.44,2.39l-8.87,5.1c-.8.45-1.44.13-1.44-.73A3.09,3.09,0,0,1,105.56,322.43Z" transform="translate(-0.03 -70.6)"/></g><g id="Window"><path class="cls-10" d="M28.56,341.47V223.6A4.58,4.58,0,0,1,30.62,220l154.13-89c1.15-.66,2.07-.13,2.07,1.19V250.05a4.59,4.59,0,0,1-2.07,3.58l-154.14,89C29.48,343.32,28.56,342.79,28.56,341.47Z" transform="translate(-0.03 -70.6)"/><path class="cls-9" d="M186.82,141.8v-9.63c0-1.32-.92-1.85-2.07-1.19L30.62,220a4.58,4.58,0,0,0-2.06,3.58v9.63Z" transform="translate(-0.03 -70.6)"/><path class="cls-11" d="M170.82,142.76a3.9,3.9,0,0,0-1.62,3.1c0,1.19.72,1.73,1.62,1.22a3.9,3.9,0,0,0,1.61-3.09C172.43,142.79,171.71,142.25,170.82,142.76Zm5.72-3.3a3.88,3.88,0,0,0-1.62,3.09c0,1.19.73,1.74,1.62,1.22a3.87,3.87,0,0,0,1.62-3.09c0-1.19-.72-1.74-1.6-1.22Zm5.73-3.31a3.88,3.88,0,0,0-1.62,3.09c0,1.19.73,1.74,1.62,1.23a3.9,3.9,0,0,0,1.62-3.1c0-1.19-.73-1.74-1.62-1.22Z" transform="translate(-0.03 -70.6)"/><text class="cls-12" transform="matrix(0.75, -0.43, 0, 1, 47.87, 216.49)">WEBSITE</text></g></g><g id="Internet-2"><polygon class="cls-13" points="109.73 40.02 128.75 29.04 122.41 25.38 103.39 36.36 109.73 40.02"/><polyline class="cls-13" points="125.29 59.29 117.76 54.94 117.76 35.38"/><circle class="cls-5" cx="125.29" cy="59.29" r="1.34"/><g id="WiFi"><path class="cls-6" d="M117.32,91.82a2,2,0,0,0-2-.06c-2,.9-3.8,4-4.07,6.84-.17,1.71.25,3,1,3.52l2,1.44a2,2,0,0,0,2,.06c2-.9,3.8-4,4.08-6.85.16-1.7-.26-3-1-3.51C119,93,117.67,92.07,117.32,91.82Z" transform="translate(-0.03 -70.6)"/><path class="cls-6" d="M121.88,81.87c-1.67-1.18-3.88-1.32-6.38-.18-4.29,2-7.65,6.38-10,12.4-.48,1.21-.42,2.43.16,2.87h0c.67.52,1.83,1.26,2.4,1.7h0c.72.55,1.94-.33,2.55-1.87,1.67-4.26,3.83-7.15,6.85-8.52a4.91,4.91,0,0,1,3.15-.46,6.24,6.24,0,0,1,.83,1.7,1.1,1.1,0,0,0,.39.58l2.41,1.71c.52.36,1.35,0,2-1h0a4.18,4.18,0,0,0,.75-3.28,7.58,7.58,0,0,0-2.66-4Z" transform="translate(-0.03 -70.6)"/><path class="cls-6" d="M131.6,78.7a11,11,0,0,0-3.73-4.8c-.42-.29-2.18-1.47-2.6-1.73a13.41,13.41,0,0,0-11.87-.36c-6.48,3.26-10.89,7.81-14,16.6-.77,2.14-.17,3.22.44,3.7h0c.7.52,1.78,1.22,2.4,1.69h0c.69.53,1.85-.28,2.5-1.75,3.22-7.18,7.16-11.38,12.38-13.74a8.61,8.61,0,0,1,7.11-.45,10.17,10.17,0,0,1,1.94,3.07,1,1,0,0,0,.36.47c.35.25,2.26,1.6,2.4,1.71.52.36,1.35,0,2-1A4,4,0,0,0,131.6,78.7Z" transform="translate(-0.03 -70.6)"/><path class="cls-5" d="M120.41,96.79c-.28,2.88-2.08,5.95-4.08,6.85s-3.35-.71-3.07-3.59,2.08-5.94,4.07-6.84S120.66,93.89,120.41,96.79Z" transform="translate(-0.03 -70.6)"/><path class="cls-5" d="M117.91,83.39c-5.87,2.27-8.53,6.48-10.38,12.18-.41,1.25-.45,2.42.52,3.09h0c1.13.7,1.94-.32,2.55-1.87,1.67-4.26,3.83-7.15,6.85-8.52s5.42-.1,6.38,3c.35,1.12,1.51.92,2.41-.39h0a4.15,4.15,0,0,0,.75-3.27C125.61,83.27,122.31,81.71,117.91,83.39Z" transform="translate(-0.03 -70.6)"/><path class="cls-5" d="M117.55,73.43c-5.28,1.63-11.63,6.12-15.65,16.44-.52,1.32-.94,3.07.3,3.93h0c.88.53,1.85-.28,2.5-1.75,3.22-7.17,7.16-11.38,12.38-13.74s9.43-.49,11.44,4.32c.42,1,1.52.78,2.38-.48h0a4,4,0,0,0,.67-3.45C129.11,72.83,124.26,71.34,117.55,73.43Z" transform="translate(-0.03 -70.6)"/></g></g><g id="Speech_Bubble-2" data-name="Speech Bubble-2"><g id="Speech_Bubble-3" data-name="Speech Bubble-3"><path class="cls-9" d="M52.62,158.56l.75-2.34c.4-1.89-7.33,2.57-7.73,4.46l2.49,6.7a1,1,0,0,0,.42.49c.55.34,2.56,1.51,2.74,1.59a1.08,1.08,0,0,0,1.48-.37,1,1,0,0,0,.11-.23L56.1,157.8C56.28,156.87,54.5,157.48,52.62,158.56Z" transform="translate(-0.03 -70.6)"/><g class="cls-14"><path class="cls-11" d="M52.62,158.56l.75-2.34c.4-1.89-7.33,2.57-7.73,4.46l2.49,6.7a1,1,0,0,0,.42.49c.55.34,2.56,1.51,2.74,1.59a1.08,1.08,0,0,0,1.48-.37,1,1,0,0,0,.11-.23L56.1,157.8C56.28,156.87,54.5,157.48,52.62,158.56Z" transform="translate(-0.03 -70.6)"/></g><g id="Speach_Bubble" data-name="Speach Bubble"><path class="cls-9" d="M63.09,113.5l-29.4,16.95a2.21,2.21,0,0,0-1,1.72V167a2.16,2.16,0,0,0,1,1.71l1.82,1a2.18,2.18,0,0,0,2,0l29.41-16.95a2.21,2.21,0,0,0,1-1.72V116.23a2.16,2.16,0,0,0-1-1.71l-1.82-1A2.25,2.25,0,0,0,63.09,113.5Z" transform="translate(-0.03 -70.6)"/><path class="cls-15" d="M63.09,113.5l-29.4,16.95a2.21,2.21,0,0,0-1,1.72V167a2.16,2.16,0,0,0,1,1.71l1.82,1a2.18,2.18,0,0,0,2,0l29.41-16.95a2.21,2.21,0,0,0,1-1.72V116.23a2.16,2.16,0,0,0-1-1.71l-1.82-1A2.25,2.25,0,0,0,63.09,113.5Z" transform="translate(-0.03 -70.6)"/><path class="cls-9" d="M67,115.65l-29.41,17a2.19,2.19,0,0,0-1,1.72v34.82c0,.63.45.89,1,.57l11.24-6.48L50.85,169a1.08,1.08,0,0,0,1.42.55,1,1,0,0,0,.59-.66l2.78-9.59L67,152.74a2.17,2.17,0,0,0,1-1.72V116.23C67.9,115.59,67.46,115.34,67,115.65Z" transform="translate(-0.03 -70.6)"/><path class="cls-16" d="M67,115.65l-29.41,17a2.19,2.19,0,0,0-1,1.72v34.82c0,.63.45.89,1,.57l11.24-6.48L50.85,169a1.08,1.08,0,0,0,1.42.55,1,1,0,0,0,.59-.66l2.78-9.59L67,152.74a2.17,2.17,0,0,0,1-1.72V116.23C67.9,115.59,67.46,115.34,67,115.65Z" transform="translate(-0.03 -70.6)"/><path class="cls-17" d="M67.9,116.05c-.09-.5-.49-.68-1-.4l-29.41,17a2.19,2.19,0,0,0-.7.75L33,131.17a1.93,1.93,0,0,1,.69-.7l29.4-17a2.25,2.25,0,0,1,2,0l1.82,1A2.28,2.28,0,0,1,67.9,116.05Z" transform="translate(-0.03 -70.6)"/></g></g><g id="Icon"><path id="Online_icon" data-name="Online icon" class="cls-11" d="M58.55,129.34c-2-1.13-4.44-.94-7,.53-5.69,3.28-10.32,12.11-10.32,19.68,0,4,1.35,7.15,3.69,8.51a5.58,5.58,0,0,0,2.79.75,8.48,8.48,0,0,0,4.21-1.26c5.68-3.28,10.31-12.11,10.31-19.67C62.23,133.79,60.91,130.7,58.55,129.34ZM42,148.89a25.2,25.2,0,0,1,3.3-11.15,5.2,5.2,0,0,0,1.45.45,26.79,26.79,0,0,0-1.81,9Zm10.11-5,5.66-3.27A26.33,26.33,0,0,1,56,149.13a8,8,0,0,0-3.84,1Zm0-.86V136.9a16.83,16.83,0,0,0,4.06-3.56,12.41,12.41,0,0,1,1.61,6.44Zm0-7v-5.41a5.41,5.41,0,0,1,3.62,2.11,17,17,0,0,1-3.62,3.3Zm-.76.44a7.72,7.72,0,0,1-3.56,1.06,28,28,0,0,1,3.56-6.28Zm-3.86,1.8h.21a8.32,8.32,0,0,0,3.65-1v6.18l-5.67,3.27a26.43,26.43,0,0,1,1.83-8.47Zm3.86,6.07v6.16a16.66,16.66,0,0,0-4.07,3.56,12.41,12.41,0,0,1-1.61-6.44Zm0,7v5.43a5.46,5.46,0,0,1-3.64-2.11,16.76,16.76,0,0,1,3.66-3.32Zm.76-.44a7.68,7.68,0,0,1,3.55-1.06,28.94,28.94,0,0,1-3.55,6.27Zm6.41-10.72,2.95-1.7a25.33,25.33,0,0,1-3.3,11.15,5.31,5.31,0,0,0-1.45-.45,27,27,0,0,0,1.8-9Zm3-2.57-3,1.72a12.7,12.7,0,0,0-1.84-6.63,24.71,24.71,0,0,0,1.76-2.56c1.91,1.27,3,4,3.06,7.47ZM57.8,129.8a26.25,26.25,0,0,1-1.59,2.31A6.19,6.19,0,0,0,52.93,130a7.1,7.1,0,0,1,2.83-.65,4.81,4.81,0,0,1,2,.45ZM50,131.87a30.41,30.41,0,0,0-3,5.61,4.61,4.61,0,0,1-1.36-.39A20.89,20.89,0,0,1,50,131.87Zm-8,17.89L45,148a12.61,12.61,0,0,0,1.84,6.63A26.47,26.47,0,0,0,45,157.23C43.13,156,42.06,153.24,42,149.76Zm3.69,7.84a24.3,24.3,0,0,1,1.58-2.32,6,6,0,0,0,3.26,2.11A5.81,5.81,0,0,1,45.68,157.6Zm7.78-2.1a29,29,0,0,0,3-5.62,4.6,4.6,0,0,1,1.37.4A20.93,20.93,0,0,1,53.46,155.5Z" transform="translate(-0.03 -70.6)"/></g></g></svg>