<svg id="Group_1954" data-name="Group 1954" xmlns="http://www.w3.org/2000/svg" width="189.682" height="160.607" viewBox="0 0 189.682 160.607">
  <path id="Polygon_1" data-name="Polygon 1" d="M82.237,8.832a20,20,0,0,1,23.823,0l60.568,44.907a20,20,0,0,1,0,32.132l-60.568,44.907a20,20,0,0,1-23.823,0L21.669,85.871a20,20,0,0,1,0-32.132Z" fill="#fd8f01"/>
  <path id="Polygon_3" data-name="Polygon 3" d="M82.237,8.832a20,20,0,0,1,23.823,0l60.568,44.907a20,20,0,0,1,0,32.132l-60.568,44.907a20,20,0,0,1-23.823,0L21.669,85.871a20,20,0,0,1,0-32.132Z" transform="translate(1.385 20.997)" fill="#fd8f01" opacity="0.5"/>
  <g id="Provider" transform="translate(63.689 38.767)">
    <path id="Path_15926" data-name="Path 15926" d="M23.5,18H11.038A1.038,1.038,0,0,0,10,19.038v3.115H24.538V19.038A1.038,1.038,0,0,0,23.5,18Z" transform="translate(-3.77 -1.386)" fill="#fff"/>
    <path id="Path_15927" data-name="Path 15927" d="M10,33.115a1.038,1.038,0,0,0,1.038,1.038H23.5a1.038,1.038,0,0,0,1.038-1.038V30H10Z" transform="translate(-3.77 -0.925)" fill="#fff"/>
    <path id="Path_15928" data-name="Path 15928" d="M31,19.576a2.077,2.077,0,1,0,0-4.154H29.524a1.027,1.027,0,0,1-.945-1.454A4.146,4.146,0,0,0,21.4,9.9a1.052,1.052,0,0,1-1.1.4,1.03,1.03,0,0,1-.779-.872,6.23,6.23,0,0,0-12.409.8,6.166,6.166,0,0,0,1.121,3.562,1.038,1.038,0,0,1,.073,1.07,1.059,1.059,0,0,1-.924.561H6.077a2.077,2.077,0,1,0,0,4.154H8.154a3.125,3.125,0,0,1,3.115-3.115H23.73a3.125,3.125,0,0,1,3.115,3.115Z" transform="translate(-4 -1.923)" fill="#fff"/>
    <path id="Path_15929" data-name="Path 15929" d="M10,24H24.538v4.154H10Z" transform="translate(-3.77 -1.155)" fill="#fff"/>
    <path id="Path_15930" data-name="Path 15930" d="M59.576,44H47.115A3.125,3.125,0,0,0,44,47.115v8.307a3.125,3.125,0,0,0,3.115,3.115h2.9l-.7,2.866a1.02,1.02,0,0,0,.187.893,1.038,1.038,0,0,0,.82.395h6.044a1.038,1.038,0,0,0,.82-.395,1.02,1.02,0,0,0,.187-.893l-.7-2.866h2.9a3.125,3.125,0,0,0,3.115-3.115V47.115A3.125,3.125,0,0,0,59.576,44Zm1.038,10.384H46.077V52.307H60.614Z" transform="translate(-2.464 -0.387)" fill="#fff"/>
    <path id="Path_15931" data-name="Path 15931" d="M59.576,23H47.115A3.125,3.125,0,0,0,44,26.115v8.307a3.125,3.125,0,0,0,3.115,3.115h2.9l-.7,2.866a1.02,1.02,0,0,0,.187.893,1.038,1.038,0,0,0,.82.395h6.044a1.038,1.038,0,0,0,.82-.395,1.02,1.02,0,0,0,.187-.893l-.7-2.866h2.9a3.125,3.125,0,0,0,3.115-3.115V26.115A3.125,3.125,0,0,0,59.576,23Zm1.038,10.384H46.077V31.307H60.614Z" transform="translate(-2.464 -1.193)" fill="#fff"/>
    <path id="Path_15932" data-name="Path 15932" d="M59.576,2H47.115A3.125,3.125,0,0,0,44,5.115v8.307a3.125,3.125,0,0,0,3.115,3.115h2.9l-.7,2.866a1.02,1.02,0,0,0,.187.893,1.038,1.038,0,0,0,.82.395h6.044a1.038,1.038,0,0,0,.82-.395,1.02,1.02,0,0,0,.187-.893l-.7-2.866h2.9a3.125,3.125,0,0,0,3.115-3.115V5.115A3.125,3.125,0,0,0,59.576,2Zm1.038,10.384H46.077V10.307H60.614Z" transform="translate(-2.464 -2)" fill="#fff"/>
    <path id="Path_15933" data-name="Path 15933" d="M37.422,13.115V31.807H26v2.077H37.422V52.575a3.115,3.115,0,0,0,3.115,3.115h2.077V53.613H40.538A1.038,1.038,0,0,1,39.5,52.575V33.883h3.115V31.807H39.5V13.115a1.038,1.038,0,0,1,1.038-1.038h2.077V10H40.538A3.115,3.115,0,0,0,37.422,13.115Z" transform="translate(-3.155 -1.693)" fill="#fff"/>
  </g>
</svg>
