<svg xmlns="http://www.w3.org/2000/svg" viewBox="0 0 377.79 419.77"><defs><style>.cls-1{fill:#ba68c8;}.cls-2{fill:#e0e0e0;}.cls-3{fill:#f0f0f0;}.cls-24,.cls-4{fill:#fafafa;}.cls-5{fill:#e6e6e6;}.cls-10,.cls-14,.cls-18,.cls-19,.cls-20,.cls-22,.cls-26,.cls-29,.cls-30,.cls-31,.cls-6,.cls-8,.cls-9{fill:#fff;}.cls-16,.cls-21,.cls-6{opacity:0.2;}.cls-30,.cls-7{opacity:0.1;}.cls-8{opacity:0.7;}.cls-10,.cls-9{stroke:#fff;stroke-miterlimit:10;}.cls-9{stroke-width:0.78px;}.cls-10,.cls-31,.cls-9{opacity:0.55;}.cls-10{stroke-width:0.63px;}.cls-11{fill:#455a64;}.cls-12{fill:#37474f;}.cls-13{fill:#ebebeb;}.cls-15{fill:#263238;}.cls-17{opacity:0.15;}.cls-18,.cls-23{opacity:0.5;}.cls-19,.cls-32{opacity:0.45;}.cls-20{opacity:0.25;}.cls-22,.cls-33{opacity:0.3;}.cls-24{opacity:0.95;}.cls-25,.cls-26{opacity:0.6;}.cls-27{fill:#ffa8a7;}.cls-28{fill:#f28f8f;}.cls-29{opacity:0.8;}</style></defs><g id="Chart"><g id="Plants-2" data-name="Plants"><path class="cls-1" d="M88.66,445.45a.46.46,0,0,1-.18-.31c-1.57-17-16.07-29.38-22.26-34.64-1-.86-1.79-1.53-2.3-2a8.33,8.33,0,0,1-2.63-7.79,7.18,7.18,0,0,1,5-5.13c6.46-2.1,16.61,5.91,23.09,18.25,9.09,17.29,4.82,30,4.78,30.17a.43.43,0,0,1-.29.27L89,445.51a.5.5,0,0,1-.17,0A.48.48,0,0,1,88.66,445.45Zm0-31.25c-6.29-12-16-19.81-22.08-17.83a6.28,6.28,0,0,0-4.48,4.51,7.51,7.51,0,0,0,2.4,7c.49.48,1.27,1.14,2.25,2,6.22,5.28,20.68,17.59,22.51,34.72l4.2-1.08C94,441.78,96.94,429.94,88.67,414.2Z" transform="translate(-61.1 -40.11)"/><path class="cls-1" d="M91.62,444.8h.06a.43.43,0,0,0,.43-.42c.36-19.9-13.42-39.08-22.69-43a.42.42,0,1,0-.33.77C78.25,406,91.6,425.5,91.26,444.38A.42.42,0,0,0,91.62,444.8Z" transform="translate(-61.1 -40.11)"/><path class="cls-1" d="M93.74,444.26a.55.55,0,0,0,.18,0l3.32-1a.4.4,0,0,0,.28-.28c.06-.18,5.92-19.2,1.61-44.82-2.2-13.06-9.81-25.79-18.09-30.28-4-2.15-7.9-2.42-11.64-.8a6.37,6.37,0,0,0-3.93,4c-1.37,4.85,3.66,12.07,9,19.71,3.73,5.34,7.58,10.87,9.34,15.75a.42.42,0,0,0,.79-.29c-1.79-5-5.68-10.56-9.44-15.95-5.21-7.47-10.13-14.53-8.87-19a5.48,5.48,0,0,1,3.46-3.48,11.93,11.93,0,0,1,10.89.77c8.08,4.37,15.5,16.85,17.66,29.67,4,24-.88,42.07-1.51,44.22l-3.1.94a.42.42,0,0,0-.29.52A.43.43,0,0,0,93.74,444.26Z" transform="translate(-61.1 -40.11)"/><path class="cls-1" d="M94.56,432.15h0a.43.43,0,0,0,.46-.39c2.5-30.79-14.68-55.45-19.76-59.68a.43.43,0,0,0-.55.65c5,4.17,21.94,28.5,19.46,59A.43.43,0,0,0,94.56,432.15Z" transform="translate(-61.1 -40.11)"/></g><path id="Shadow" class="cls-2" d="M333.62,326.59l-20-11.53a4.75,4.75,0,0,0-4.31,0L84.12,445.14a1.32,1.32,0,0,0,0,2.5l20.16,11.73a4.75,4.75,0,0,0,4.31,0L153,433.67a18,18,0,0,0,1.88,1.24l32.48,18.76a31.27,31.27,0,0,0,28.79,0l62.68-36.19c4.66-2.69,7.33-6.7,7.33-11s-2.67-8.3-7.33-11l-29.95-17.3,84.79-49.11A1.31,1.31,0,0,0,333.62,326.59Z" transform="translate(-61.1 -40.11)"/><path id="Shadow-2" data-name="Shadow" class="cls-2" d="M314.21,409.26l-41-23.64c-1.95-1.13-1.95-3,0-4.09l116.14-67.06a7.82,7.82,0,0,1,7.08,0l41,23.64c2,1.13,2,3,0,4.09L321.29,409.26A7.82,7.82,0,0,1,314.21,409.26Z" transform="translate(-61.1 -40.11)"/><g id="Code_Box-2" data-name="Code Box"><path class="cls-3" d="M281.12,385.06,316,405.23a5,5,0,0,0,4.53,0L431.7,341.17a5,5,0,0,0,2.25-3.93v-1.63a5.05,5.05,0,0,0-2.28-3.93l-35-20.12a5,5,0,0,0-4.54,0l-111,64a5,5,0,0,0-2.26,3.93v1.63A5,5,0,0,0,281.12,385.06Z" transform="translate(-61.1 -40.11)"/><path class="cls-4" d="M392.29,311.48c1.73-1,3.53-.42,5.26.58l33.24,19.13c1.73,1,1.73,2.62,0,3.62l-109.4,63.06h0a6.26,6.26,0,0,1-6.24,0l-33.28-19.12a2.1,2.1,0,0,1,0-3.63h0Z" transform="translate(-61.1 -40.11)"/><path class="cls-2" d="M281.86,377.55a1.23,1.23,0,0,1,.45-1.67l110.42-63.64c1.17-.68,2.52-.5,4.38.58l33.24,19.12a1.94,1.94,0,0,1,.75.68c.39.68-.39,1.23-.75,1.43L321,397.11a5.37,5.37,0,0,1-5.37,0L282.31,378a1.27,1.27,0,0,1-.45-.44m-.75.44a2.13,2.13,0,0,0,.76.76l33.28,19.12a6.26,6.26,0,0,0,6.24,0l109.4-63.06c1.23-.71,1.58-1.74,1.07-2.63a2.88,2.88,0,0,0-1.07-1l-33.24-19.13c-1.73-1-3.53-1.58-5.26-.58L281.87,375.12a2.11,2.11,0,0,0-.76,2.87Z" transform="translate(-61.1 -40.11)"/><path class="cls-5" d="M281.1,375.57l.77-.45a2.1,2.1,0,0,0,0,3.63l33.27,19.12a6.07,6.07,0,0,0,3.11.83h.08v7.07a4.62,4.62,0,0,1-2.31-.55l-34.91-20.16a5,5,0,0,1-2.27-3.93V379.5A5,5,0,0,1,281.1,375.57Z" transform="translate(-61.1 -40.11)"/><path class="cls-2" d="M313.59,378.9l11.9-1.32,4.35,2.51-22.93,2.67,4.58-13.26,4.38,2.53Z" transform="translate(-61.1 -40.11)"/><path class="cls-2" d="M338.41,364.62,326.48,366l-4.35-2.51,22.94-2.67L340.48,374l-4.38-2.53Z" transform="translate(-61.1 -40.11)"/><path class="cls-2" d="M348.14,348,394,321.47a3.64,3.64,0,0,1,3.29-.06c.88.51.84,1.37-.09,1.9l-45.92,26.48a3.62,3.62,0,0,1-3.28.06C347.16,349.35,347.21,348.5,348.14,348Z" transform="translate(-61.1 -40.11)"/><path class="cls-2" d="M356.09,352.54,402,326a3.64,3.64,0,0,1,3.29-.05c.89.51.85,1.36-.09,1.9l-45.92,26.48a3.62,3.62,0,0,1-3.28.06C355.11,353.92,355.15,353.08,356.09,352.54Z" transform="translate(-61.1 -40.11)"/><path class="cls-2" d="M364,357.11l45.9-26.49a3.64,3.64,0,0,1,3.29-.05c.88.51.84,1.36-.09,1.9L367.21,359a3.65,3.65,0,0,1-3.28.06C363.05,358.5,363.1,357.65,364,357.11Z" transform="translate(-61.1 -40.11)"/></g><g id="Gear"><path class="cls-1" d="M208.58,98.56a1.7,1.7,0,0,1,2.11-.13l2.39,1.79a1.37,1.37,0,0,0,1.93-.29l4.61-6.36a2.17,2.17,0,0,0,.06-2.29l-1.85-2.86A2.76,2.76,0,0,1,217.7,86a38.46,38.46,0,0,0,1.59-3.76,4,4,0,0,1,1.7-1.93l4.52-2.24a3,3,0,0,0,1.44-2l1-6.66a.93.93,0,0,0-.37-1h0l-.06,0h0L222,65.22h0a1,1,0,0,0-.77-.09l-.51.13a3.25,3.25,0,0,1,.4-1.76l3.82-6a1.92,1.92,0,0,0-.2-2.2l-2.45-2.66a1.33,1.33,0,0,0-.35-.25v0l-5.58-3.22h0a1.18,1.18,0,0,0-1.48.32l-3.59,4.32.14-2.41a.89.89,0,0,0-.39-.88h0l-5.59-3.23h0a1,1,0,0,0-.81,0L199.73,49a2.83,2.83,0,0,0-1.61,1.83l-1.39,6.22a4.28,4.28,0,0,1-1.43,2.16,28.81,28.81,0,0,0-2.67,2.22,1.74,1.74,0,0,1-.89.41L188,59.68h0a1.34,1.34,0,0,0-1.76.38l-4.61,6.36a2.17,2.17,0,0,0-.07,2.29l1.85,2.87A2.72,2.72,0,0,1,183.5,74q-.88,1.84-1.59,3.75a4,4,0,0,1-1.7,1.93l-4.52,2.25a3,3,0,0,0-1.44,2l-.95,6.67a.89.89,0,0,0,.39,1h0l5.57,3.22h0a1,1,0,0,0,.75.08l.52-.12a3.37,3.37,0,0,1-.4,1.76l-3.82,6a1.9,1.9,0,0,0,.2,2.19L179,107.4a1.18,1.18,0,0,0,.31.24h0l5.55,3.21v0a1.16,1.16,0,0,0,1.53-.26l3.59-4.32-.14,2.41a.9.9,0,0,0,.41.88h0l5.55,3.2h0a.94.94,0,0,0,.83,0l4.87-1.79a2.87,2.87,0,0,0,1.61-1.84l1.39-6.22a4.23,4.23,0,0,1,1.44-2.15A34.12,34.12,0,0,0,208.58,98.56ZM207.53,68a11.55,11.55,0,0,1,.67,6.55c-1,7.22-6.53,14.79-12.26,16.9a9.24,9.24,0,0,1-2.25.54,11.61,11.61,0,0,1-.69-6.57c1-7.22,6.53-14.79,12.27-16.91A8.59,8.59,0,0,1,207.53,68Z" transform="translate(-61.1 -40.11)"/><path class="cls-6" d="M208.58,98.56a1.7,1.7,0,0,1,2.11-.13l2.39,1.79a1.37,1.37,0,0,0,1.93-.29l4.61-6.36a2.17,2.17,0,0,0,.06-2.29l-1.85-2.86A2.76,2.76,0,0,1,217.7,86a38.46,38.46,0,0,0,1.59-3.76,4,4,0,0,1,1.7-1.93l4.52-2.24a3,3,0,0,0,1.44-2l1-6.66a.93.93,0,0,0-.37-1h0l-.06,0h0L222,65.22h0a1,1,0,0,0-.77-.09l-.51.13a3.25,3.25,0,0,1,.4-1.76l3.82-6a1.92,1.92,0,0,0-.2-2.2l-2.45-2.66a1.33,1.33,0,0,0-.35-.25v0l-5.58-3.22h0a1.18,1.18,0,0,0-1.48.32l-3.59,4.32.14-2.41a.89.89,0,0,0-.39-.88h0l-5.59-3.23h0a1,1,0,0,0-.81,0L199.73,49a2.83,2.83,0,0,0-1.61,1.83l-1.39,6.22a4.28,4.28,0,0,1-1.43,2.16,28.81,28.81,0,0,0-2.67,2.22,1.74,1.74,0,0,1-.89.41L188,59.68h0a1.34,1.34,0,0,0-1.76.38l-4.61,6.36a2.17,2.17,0,0,0-.07,2.29l1.85,2.87A2.72,2.72,0,0,1,183.5,74q-.88,1.84-1.59,3.75a4,4,0,0,1-1.7,1.93l-4.52,2.25a3,3,0,0,0-1.44,2l-.95,6.67a.89.89,0,0,0,.39,1h0l5.57,3.22h0a1,1,0,0,0,.75.08l.52-.12a3.37,3.37,0,0,1-.4,1.76l-3.82,6a1.9,1.9,0,0,0,.2,2.19L179,107.4a1.18,1.18,0,0,0,.31.24h0l5.55,3.21v0a1.16,1.16,0,0,0,1.53-.26l3.59-4.32-.14,2.41a.9.9,0,0,0,.41.88h0l5.55,3.2h0a.94.94,0,0,0,.83,0l4.87-1.79a2.87,2.87,0,0,0,1.61-1.84l1.39-6.22a4.23,4.23,0,0,1,1.44-2.15A34.12,34.12,0,0,0,208.58,98.56ZM207.53,68a11.55,11.55,0,0,1,.67,6.55c-1,7.22-6.53,14.79-12.26,16.9a9.24,9.24,0,0,1-2.25.54,11.61,11.61,0,0,1-.69-6.57c1-7.22,6.53-14.79,12.27-16.91A8.59,8.59,0,0,1,207.53,68Z" transform="translate(-61.1 -40.11)"/><path class="cls-7" d="M213.8,58.6A2.32,2.32,0,0,0,216,58l4.41-5.31a1.17,1.17,0,0,1,1.42-.34l-5.51-3.19a1.19,1.19,0,0,0-1.48.31l-3.59,4.32-.18,3.2a1.34,1.34,0,0,0,1.31,1.41A10.79,10.79,0,0,1,213.8,58.6ZM222,65.22h0a1,1,0,0,0-.76-.09l-.52.12a2.82,2.82,0,0,0,.1.74,15.3,15.3,0,0,1,.46,2.24,1.21,1.21,0,0,0,1.5,1.07l4-1a1,1,0,0,1,.76.08Z" transform="translate(-61.1 -40.11)"/><path class="cls-7" d="M213.77,77.78c.9-6.23-1.81-10.17-6.25-9.76a11.51,11.51,0,0,1,.68,6.54c-1,7.23-6.52,14.8-12.26,16.91a8.35,8.35,0,0,1-2.25.53c1.34,2.86,4.19,4,7.82,2.69C207.25,92.58,212.73,85,213.77,77.78Z" transform="translate(-61.1 -40.11)"/><path class="cls-1" d="M189.26,75.74a2.23,2.23,0,0,0-.32-.93l-1.85-2.87a2.2,2.2,0,0,1-.26-1.48l-5.57-3.22a2.14,2.14,0,0,0,.26,1.48l1.85,2.87a2.32,2.32,0,0,1,.31.94Zm-10,19h0a.91.91,0,0,1-.4-1l.95-6.66a2.84,2.84,0,0,1,.76-1.45L175,82.47a2.9,2.9,0,0,0-.77,1.45l-.95,6.67a.89.89,0,0,0,.39,1Zm23.07-34.57,1.36-6.13a2.76,2.76,0,0,1,.78-1.3l-5.55-3.21a2.64,2.64,0,0,0-.79,1.29L196.75,57Zm-17.5,50.65a1.68,1.68,0,0,1-.29-.25L182.08,108a1.89,1.89,0,0,1-.19-2.19l3.81-6a2.82,2.82,0,0,0,.37-1.08l-5.57-3.22a3,3,0,0,1-.36,1.08l-3.82,6a1.92,1.92,0,0,0,.19,2.19l2.46,2.66a1,1,0,0,0,.31.25Zm10.93,1.9a.8.8,0,0,1-.17-.15.76.76,0,0,1-.17-.36,1.48,1.48,0,0,1,0-.38l.33-5.6a.88.88,0,0,0,0-.37,1.29,1.29,0,0,0-.28-.56,1.38,1.38,0,0,0-.4-.31l-.23-.1a2.33,2.33,0,0,0-.36-.08,9.34,9.34,0,0,1-1.42-.22,2.35,2.35,0,0,0-2.22.63l-.81,1-.14,2.4a.91.91,0,0,0,.41.89h0Z" transform="translate(-61.1 -40.11)"/><path class="cls-8" d="M189.26,75.74a2.23,2.23,0,0,0-.32-.93l-1.85-2.87a2.2,2.2,0,0,1-.26-1.48l-5.57-3.22a2.14,2.14,0,0,0,.26,1.48l1.85,2.87a2.32,2.32,0,0,1,.31.94Zm-10,19h0a.91.91,0,0,1-.4-1l.95-6.66a2.84,2.84,0,0,1,.76-1.45L175,82.47a2.9,2.9,0,0,0-.77,1.45l-.95,6.67a.89.89,0,0,0,.39,1Zm23.07-34.57,1.36-6.13a2.76,2.76,0,0,1,.78-1.3l-5.55-3.21a2.64,2.64,0,0,0-.79,1.29L196.75,57Zm-17.5,50.65a1.68,1.68,0,0,1-.29-.25L182.08,108a1.89,1.89,0,0,1-.19-2.19l3.81-6a2.82,2.82,0,0,0,.37-1.08l-5.57-3.22a3,3,0,0,1-.36,1.08l-3.82,6a1.92,1.92,0,0,0,.19,2.19l2.46,2.66a1,1,0,0,0,.31.25Zm10.93,1.9a.8.8,0,0,1-.17-.15.76.76,0,0,1-.17-.36,1.48,1.48,0,0,1,0-.38l.33-5.6a.88.88,0,0,0,0-.37,1.29,1.29,0,0,0-.28-.56,1.38,1.38,0,0,0-.4-.31l-.23-.1a2.33,2.33,0,0,0-.36-.08,9.34,9.34,0,0,1-1.42-.22,2.35,2.35,0,0,0-2.22.63l-.81,1-.14,2.4a.91.91,0,0,0,.41.89h0Z" transform="translate(-61.1 -40.11)"/><path class="cls-1" d="M203.08,109.15l1.39-6.22a4.23,4.23,0,0,1,1.44-2.15,34.12,34.12,0,0,0,2.67-2.22,1.7,1.7,0,0,1,2.11-.13l2.39,1.79a1.37,1.37,0,0,0,1.93-.29l4.61-6.36a2.17,2.17,0,0,0,.06-2.29l-1.85-2.86A2.76,2.76,0,0,1,217.7,86a38.46,38.46,0,0,0,1.59-3.76,4,4,0,0,1,1.7-1.93l4.52-2.24a3,3,0,0,0,1.44-2l1-6.66a.89.89,0,0,0-1.16-1.06l-4,1a1.21,1.21,0,0,1-1.49-1.07,17.06,17.06,0,0,0-.47-2.24,3.47,3.47,0,0,1,.31-2.49l3.82-6a1.92,1.92,0,0,0-.2-2.2l-2.45-2.66a1.18,1.18,0,0,0-1.83,0L216,58a2.33,2.33,0,0,1-2.21.64,10.66,10.66,0,0,0-1.43-.24,1.35,1.35,0,0,1-1.3-1.41l.32-5.6a.84.84,0,0,0-1.22-.91l-4.87,1.8a2.83,2.83,0,0,0-1.61,1.83l-1.39,6.22a4.21,4.21,0,0,1-1.43,2.15,30.62,30.62,0,0,0-2.67,2.23,1.72,1.72,0,0,1-2.12.13L193.69,63a1.36,1.36,0,0,0-1.92.29l-4.61,6.36a2.2,2.2,0,0,0-.07,2.29l1.85,2.86a2.73,2.73,0,0,1,.13,2.41c-.59,1.23-1.12,2.49-1.59,3.76a4,4,0,0,1-1.7,1.93l-4.51,2.24a3,3,0,0,0-1.45,2l-.95,6.66A.88.88,0,0,0,180,94.86l4-1a1.21,1.21,0,0,1,1.5,1.07,16.73,16.73,0,0,0,.46,2.24,3.47,3.47,0,0,1-.3,2.49l-3.82,6a1.92,1.92,0,0,0,.2,2.2l2.45,2.66a1.17,1.17,0,0,0,1.82,0l4.41-5.3a2.33,2.33,0,0,1,2.21-.64,10.52,10.52,0,0,0,1.42.23,1.35,1.35,0,0,1,1.31,1.41l-.33,5.6a.84.84,0,0,0,1.22.91l4.87-1.79A2.87,2.87,0,0,0,203.08,109.15Zm-1.57-14.46c-5.74,2.11-9.55-2-8.51-9.25s6.53-14.79,12.27-16.91,9.54,2,8.5,9.25S207.25,92.58,201.51,94.69Z" transform="translate(-61.1 -40.11)"/><path class="cls-9" d="M203.08,109.15l1.39-6.22a4.23,4.23,0,0,1,1.44-2.15,34.12,34.12,0,0,0,2.67-2.22,1.7,1.7,0,0,1,2.11-.13l2.39,1.79a1.37,1.37,0,0,0,1.93-.29l4.61-6.36a2.17,2.17,0,0,0,.06-2.29l-1.85-2.86A2.76,2.76,0,0,1,217.7,86a38.46,38.46,0,0,0,1.59-3.76,4,4,0,0,1,1.7-1.93l4.52-2.24a3,3,0,0,0,1.44-2l1-6.66a.89.89,0,0,0-1.16-1.06l-4,1a1.21,1.21,0,0,1-1.49-1.07,17.06,17.06,0,0,0-.47-2.24,3.47,3.47,0,0,1,.31-2.49l3.82-6a1.92,1.92,0,0,0-.2-2.2l-2.45-2.66a1.18,1.18,0,0,0-1.83,0L216,58a2.33,2.33,0,0,1-2.21.64,10.66,10.66,0,0,0-1.43-.24,1.35,1.35,0,0,1-1.3-1.41l.32-5.6a.84.84,0,0,0-1.22-.91l-4.87,1.8a2.83,2.83,0,0,0-1.61,1.83l-1.39,6.22a4.21,4.21,0,0,1-1.43,2.15,30.62,30.62,0,0,0-2.67,2.23,1.72,1.72,0,0,1-2.12.13L193.69,63a1.36,1.36,0,0,0-1.92.29l-4.61,6.36a2.2,2.2,0,0,0-.07,2.29l1.85,2.86a2.73,2.73,0,0,1,.13,2.41c-.59,1.23-1.12,2.49-1.59,3.76a4,4,0,0,1-1.7,1.93l-4.51,2.24a3,3,0,0,0-1.45,2l-.95,6.66A.88.88,0,0,0,180,94.86l4-1a1.21,1.21,0,0,1,1.5,1.07,16.73,16.73,0,0,0,.46,2.24,3.47,3.47,0,0,1-.3,2.49l-3.82,6a1.92,1.92,0,0,0,.2,2.2l2.45,2.66a1.17,1.17,0,0,0,1.82,0l4.41-5.3a2.33,2.33,0,0,1,2.21-.64,10.52,10.52,0,0,0,1.42.23,1.35,1.35,0,0,1,1.31,1.41l-.33,5.6a.84.84,0,0,0,1.22.91l4.87-1.79A2.87,2.87,0,0,0,203.08,109.15Zm-1.57-14.46c-5.74,2.11-9.55-2-8.51-9.25s6.53-14.79,12.27-16.91,9.54,2,8.5,9.25S207.25,92.58,201.51,94.69Z" transform="translate(-61.1 -40.11)"/></g><g id="Gear-2" data-name="Gear"><path class="cls-1" d="M128.83,150.53l8.85-5.11a2.43,2.43,0,0,0,1.06-1.65l.89-9.85a3.32,3.32,0,0,1,.91-1.84,51.81,51.81,0,0,0,4.92-5.2,1.69,1.69,0,0,1,1.74-.49l5.68,2a1.38,1.38,0,0,0,1.59-.59L161,116.51a1.39,1.39,0,0,0-.29-1.68l-4.55-3.92a1.7,1.7,0,0,1-.45-1.76,51.92,51.92,0,0,0,2.05-6.85,3.25,3.25,0,0,1,1.13-1.72L167,94.89a2.38,2.38,0,0,0,.9-1.74V82.93a.7.7,0,0,0-.32-.65h0l-6.64-3.85h0a.76.76,0,0,0-.69,0l-4.57,2.06a1.94,1.94,0,0,1,.14-1.08L161,68.83a1.19,1.19,0,0,0-.47-1.54l-4.34-2.51h0l-8-4.63a1.19,1.19,0,0,0-1.56.37l-6.54,9.84a2,2,0,0,1-.89.67l-.5-5a.74.74,0,0,0-.33-.6h0l-6.64-3.86h0a.72.72,0,0,0-.73.06l-8.85,5.11a2.34,2.34,0,0,0-1,1.65l-.89,9.84a3.24,3.24,0,0,1-.92,1.84,54,54,0,0,0-4.91,5.2,1.71,1.71,0,0,1-1.74.5l-5.68-2a1.4,1.4,0,0,0-1.6.6l-6.5,11.26a1.38,1.38,0,0,0,.28,1.68l4.56,3.93a1.68,1.68,0,0,1,.44,1.75,55.27,55.27,0,0,0-2,6.86A3.26,3.26,0,0,1,101,111.6l-8.08,5.69A2.39,2.39,0,0,0,92,119v10.22a.71.71,0,0,0,.3.65h0L99,133.77h0a.73.73,0,0,0,.69,0l4.57-2.06a2,2,0,0,1-.14,1.08l-5.25,10.59a1.19,1.19,0,0,0,.46,1.54l6.61,3.83,0,0,5.7,3.29a1.19,1.19,0,0,0,1.57-.37l6.54-9.84a2,2,0,0,1,.89-.66l.5,5a.72.72,0,0,0,.33.59h0l6.64,3.86h0A.73.73,0,0,0,128.83,150.53Zm12.66-61.67c1.52,1.61,2.37,4.29,2.37,8,0,9.54-6.69,21.13-15,25.9-3,1.74-5.68,2.49-7.83,2.28-1.74-1.82-2.77-4.67-2.77-8.4,0-9.53,6.69-21.13,14.95-25.89C136.3,89,139.13,88.42,141.49,88.86Z" transform="translate(-61.1 -40.11)"/><path class="cls-6" d="M128.83,150.53l8.85-5.11a2.43,2.43,0,0,0,1.06-1.65l.89-9.85a3.32,3.32,0,0,1,.91-1.84,51.81,51.81,0,0,0,4.92-5.2,1.69,1.69,0,0,1,1.74-.49l5.68,2a1.38,1.38,0,0,0,1.59-.59L161,116.51a1.39,1.39,0,0,0-.29-1.68l-4.55-3.92a1.7,1.7,0,0,1-.45-1.76,51.92,51.92,0,0,0,2.05-6.85,3.25,3.25,0,0,1,1.13-1.72L167,94.89a2.38,2.38,0,0,0,.9-1.74V82.93a.7.7,0,0,0-.32-.65h0l-6.64-3.85h0a.76.76,0,0,0-.69,0l-4.57,2.06a1.94,1.94,0,0,1,.14-1.08L161,68.83a1.19,1.19,0,0,0-.47-1.54l-4.34-2.51h0l-8-4.63a1.19,1.19,0,0,0-1.56.37l-6.54,9.84a2,2,0,0,1-.89.67l-.5-5a.74.74,0,0,0-.33-.6h0l-6.64-3.86h0a.72.72,0,0,0-.73.06l-8.85,5.11a2.34,2.34,0,0,0-1,1.65l-.89,9.84a3.24,3.24,0,0,1-.92,1.84,54,54,0,0,0-4.91,5.2,1.71,1.71,0,0,1-1.74.5l-5.68-2a1.4,1.4,0,0,0-1.6.6l-6.5,11.26a1.38,1.38,0,0,0,.28,1.68l4.56,3.93a1.68,1.68,0,0,1,.44,1.75,55.27,55.27,0,0,0-2,6.86A3.26,3.26,0,0,1,101,111.6l-8.08,5.69A2.39,2.39,0,0,0,92,119v10.22a.71.71,0,0,0,.3.65h0L99,133.77h0a.73.73,0,0,0,.69,0l4.57-2.06a2,2,0,0,1-.14,1.08l-5.25,10.59a1.19,1.19,0,0,0,.46,1.54l6.61,3.83,0,0,5.7,3.29a1.19,1.19,0,0,0,1.57-.37l6.54-9.84a2,2,0,0,1,.89-.66l.5,5a.72.72,0,0,0,.33.59h0l6.64,3.86h0A.73.73,0,0,0,128.83,150.53Zm12.66-61.67c1.52,1.61,2.37,4.29,2.37,8,0,9.54-6.69,21.13-15,25.9-3,1.74-5.68,2.49-7.83,2.28-1.74-1.82-2.77-4.67-2.77-8.4,0-9.53,6.69-21.13,14.95-25.89C136.3,89,139.13,88.42,141.49,88.86Z" transform="translate(-61.1 -40.11)"/><path class="cls-7" d="M145.06,75.05a2.16,2.16,0,0,0,1.71-.85l6.54-9.84a1.19,1.19,0,0,1,1.57-.36l1.35.77-8-4.63a1.2,1.2,0,0,0-1.57.37l-6.54,9.84a2.06,2.06,0,0,1-.89.69l.36,3.62a.94.94,0,0,0,1.19.83A17.73,17.73,0,0,1,145.06,75.05Zm15.86,3.37h0a.73.73,0,0,0-.69,0l-4.58,2.06a2.19,2.19,0,0,0,.27.83,18,18,0,0,1,1.76,3.91.93.93,0,0,0,1.31.6l7.87-3.55a.88.88,0,0,1,.63,0Z" transform="translate(-61.1 -40.11)"/><path class="cls-7" d="M133.26,125.28c8.25-4.77,15-16.36,15-25.89,0-6-2.67-9.79-6.73-10.54,1.53,1.6,2.38,4.29,2.38,8,0,9.53-6.69,21.12-15,25.88-3,1.75-5.67,2.51-7.83,2.3C123.79,127.89,128.23,128.18,133.26,125.28Z" transform="translate(-61.1 -40.11)"/><path class="cls-1" d="M105.82,148.67a1.2,1.2,0,0,1-.34-1.46l5.25-10.58a1.61,1.61,0,0,0,.16-.59l-6.65-3.86a1.76,1.76,0,0,1-.14.59l-5.25,10.59a1.18,1.18,0,0,0,.46,1.54Zm22.29,1.92h0a.43.43,0,0,1-.18-.15.44.44,0,0,1-.13-.24.71.71,0,0,1,0-.21l-.86-8.59a.86.86,0,0,0,0-.23,1,1,0,0,0-.27-.41,1,1,0,0,0-.25-.15l-.14,0a1.24,1.24,0,0,0-.47,0l-.21,0a17.51,17.51,0,0,1-4.06.4,2.25,2.25,0,0,0-.82.16l.49,5a.77.77,0,0,0,.34.6h0ZM98.92,133.73a.76.76,0,0,1-.27-.63V122.88a2.29,2.29,0,0,1,.48-1.3l-6.63-3.85A2.24,2.24,0,0,0,92,119v10.22a.72.72,0,0,0,.29.65ZM126.64,83a2.93,2.93,0,0,0,.26-.87l.88-9.85a2,2,0,0,1,.25-.78l-6.62-3.84a2.19,2.19,0,0,0-.26.77l-.89,9.85a2.8,2.8,0,0,1-.26.86ZM105.5,100.77a1.39,1.39,0,0,1,0-1.24L112,88.26a1.35,1.35,0,0,1,.65-.55l-6.64-3.84a1.35,1.35,0,0,0-.64.54l-6.5,11.26a1.38,1.38,0,0,0,0,1.31Z" transform="translate(-61.1 -40.11)"/><path class="cls-8" d="M105.82,148.67a1.2,1.2,0,0,1-.34-1.46l5.25-10.58a1.61,1.61,0,0,0,.16-.59l-6.65-3.86a1.76,1.76,0,0,1-.14.59l-5.25,10.59a1.18,1.18,0,0,0,.46,1.54Zm22.29,1.92h0a.43.43,0,0,1-.18-.15.44.44,0,0,1-.13-.24.71.71,0,0,1,0-.21l-.86-8.59a.86.86,0,0,0,0-.23,1,1,0,0,0-.27-.41,1,1,0,0,0-.25-.15l-.14,0a1.24,1.24,0,0,0-.47,0l-.21,0a17.51,17.51,0,0,1-4.06.4,2.25,2.25,0,0,0-.82.16l.49,5a.77.77,0,0,0,.34.6h0ZM98.92,133.73a.76.76,0,0,1-.27-.63V122.88a2.29,2.29,0,0,1,.48-1.3l-6.63-3.85A2.24,2.24,0,0,0,92,119v10.22a.72.72,0,0,0,.29.65ZM126.64,83a2.93,2.93,0,0,0,.26-.87l.88-9.85a2,2,0,0,1,.25-.78l-6.62-3.84a2.19,2.19,0,0,0-.26.77l-.89,9.85a2.8,2.8,0,0,1-.26.86ZM105.5,100.77a1.39,1.39,0,0,1,0-1.24L112,88.26a1.35,1.35,0,0,1,.65-.55l-6.64-3.84a1.35,1.35,0,0,0-.64.54l-6.5,11.26a1.38,1.38,0,0,0,0,1.31Z" transform="translate(-61.1 -40.11)"/><path class="cls-1" d="M138.74,143.77l.89-9.85a3.32,3.32,0,0,1,.91-1.84,51.81,51.81,0,0,0,4.92-5.2,1.69,1.69,0,0,1,1.74-.49l5.68,2a1.38,1.38,0,0,0,1.59-.59L161,116.51a1.39,1.39,0,0,0-.29-1.68l-4.55-3.92a1.7,1.7,0,0,1-.45-1.76,51.92,51.92,0,0,0,2.05-6.85,3.25,3.25,0,0,1,1.13-1.72L167,94.89a2.38,2.38,0,0,0,.9-1.74V82.93a.66.66,0,0,0-1-.65L159,85.83a.93.93,0,0,1-1.31-.6,17.71,17.71,0,0,0-1.76-3.91,2.18,2.18,0,0,1-.12-1.91L161,68.83a1.19,1.19,0,0,0-.47-1.54L154.88,64a1.2,1.2,0,0,0-1.57.36l-6.54,9.84a2.17,2.17,0,0,1-1.71.85,17.73,17.73,0,0,0-4.26.44.94.94,0,0,1-1.19-.84l-.86-8.59a.66.66,0,0,0-1.07-.55l-8.84,5.11a2.35,2.35,0,0,0-1.06,1.65l-.89,9.85A3.24,3.24,0,0,1,126,84a54.16,54.16,0,0,0-4.91,5.21,1.69,1.69,0,0,1-1.74.49l-5.68-2a1.37,1.37,0,0,0-1.59.59l-6.51,11.27a1.38,1.38,0,0,0,.28,1.67l4.56,3.93a1.68,1.68,0,0,1,.44,1.75,54,54,0,0,0-2,6.86,3.32,3.32,0,0,1-1.14,1.72l-8.08,5.69a2.38,2.38,0,0,0-.9,1.74V133.1a.66.66,0,0,0,1,.65l7.87-3.55a.93.93,0,0,1,1.31.61,17.71,17.71,0,0,0,1.76,3.91,2.18,2.18,0,0,1,.12,1.91l-5.25,10.58a1.19,1.19,0,0,0,.46,1.54l5.7,3.29a1.19,1.19,0,0,0,1.57-.37l6.54-9.84a2.22,2.22,0,0,1,1.71-.85,17.22,17.22,0,0,0,4.26-.43.93.93,0,0,1,1.18.83l.87,8.6a.66.66,0,0,0,1.06.55l8.85-5.11A2.43,2.43,0,0,0,138.74,143.77Zm-5.48-18.49c-8.26,4.77-14.95.9-14.95-8.63S125,95.52,133.26,90.76s15-.9,15,8.63S141.52,120.51,133.26,125.28Z" transform="translate(-61.1 -40.11)"/><path class="cls-10" d="M138.74,143.77l.89-9.85a3.32,3.32,0,0,1,.91-1.84,51.81,51.81,0,0,0,4.92-5.2,1.69,1.69,0,0,1,1.74-.49l5.68,2a1.38,1.38,0,0,0,1.59-.59L161,116.51a1.39,1.39,0,0,0-.29-1.68l-4.55-3.92a1.7,1.7,0,0,1-.45-1.76,51.92,51.92,0,0,0,2.05-6.85,3.25,3.25,0,0,1,1.13-1.72L167,94.89a2.38,2.38,0,0,0,.9-1.74V82.93a.66.66,0,0,0-1-.65L159,85.83a.93.93,0,0,1-1.31-.6,17.71,17.71,0,0,0-1.76-3.91,2.18,2.18,0,0,1-.12-1.91L161,68.83a1.19,1.19,0,0,0-.47-1.54L154.88,64a1.2,1.2,0,0,0-1.57.36l-6.54,9.84a2.17,2.17,0,0,1-1.71.85,17.73,17.73,0,0,0-4.26.44.94.94,0,0,1-1.19-.84l-.86-8.59a.66.66,0,0,0-1.07-.55l-8.84,5.11a2.35,2.35,0,0,0-1.06,1.65l-.89,9.85A3.24,3.24,0,0,1,126,84a54.16,54.16,0,0,0-4.91,5.21,1.69,1.69,0,0,1-1.74.49l-5.68-2a1.37,1.37,0,0,0-1.59.59l-6.51,11.27a1.38,1.38,0,0,0,.28,1.67l4.56,3.93a1.68,1.68,0,0,1,.44,1.75,54,54,0,0,0-2,6.86,3.32,3.32,0,0,1-1.14,1.72l-8.08,5.69a2.38,2.38,0,0,0-.9,1.74V133.1a.66.66,0,0,0,1,.65l7.87-3.55a.93.93,0,0,1,1.31.61,17.71,17.71,0,0,0,1.76,3.91,2.18,2.18,0,0,1,.12,1.91l-5.25,10.58a1.19,1.19,0,0,0,.46,1.54l5.7,3.29a1.19,1.19,0,0,0,1.57-.37l6.54-9.84a2.22,2.22,0,0,1,1.71-.85,17.22,17.22,0,0,0,4.26-.43.93.93,0,0,1,1.18.83l.87,8.6a.66.66,0,0,0,1.06.55l8.85-5.11A2.43,2.43,0,0,0,138.74,143.77Zm-5.48-18.49c-8.26,4.77-14.95.9-14.95-8.63S125,95.52,133.26,90.76s15-.9,15,8.63S141.52,120.51,133.26,125.28Z" transform="translate(-61.1 -40.11)"/></g><g id="Device-2" data-name="Device"><g id="Monitor"><path class="cls-5" d="M276.46,395.14,244,376.38c-6.67-3.84-17.9-4.72-25.09-2l-19.28,7.42a111.11,111.11,0,0,0-24,13.63L156,410.92c-2.82,2.22-4.2,4.92-4.21,7.56,0,.74,0,3.73,0,4.48,0,3,1.82,5.89,5.33,7.91l32.48,18.76c6.67,3.85,17.48,3.85,24.15,0l62.68-36.19c3.35-1.94,5-4.47,5-7v-4.33C281.45,399.59,279.79,397.06,276.46,395.14Z" transform="translate(-61.1 -40.11)"/><path class="cls-2" d="M151.82,423c0,3,1.82,5.89,5.33,7.91l32.48,18.76a24.77,24.77,0,0,0,12.08,2.88v-4.63l-49.89-28.8Z" transform="translate(-61.1 -40.11)"/><path class="cls-7" d="M151.82,423c0,3,1.82,5.89,5.33,7.91l32.48,18.76a24.77,24.77,0,0,0,12.08,2.88v-4.63l-49.89-28.8Z" transform="translate(-61.1 -40.11)"/><path class="cls-3" d="M218.89,374.42l-19.28,7.42a111.11,111.11,0,0,0-24,13.63L156,410.92c-6.05,4.76-5.55,11.74,1.12,15.59l32.48,18.76c6.67,3.85,17.48,3.85,24.15,0l62.68-36.19c6.67-3.85,6.67-10.09,0-13.94L244,376.38C237.31,372.54,226.08,371.66,218.89,374.42Z" transform="translate(-61.1 -40.11)"/><path class="cls-7" d="M244,376.38c-6.67-3.84-17.9-4.72-25.09-2l-19.28,7.42a111.11,111.11,0,0,0-24,13.63L156,410.92c-2.82,2.22-4.2,4.92-4.21,7.56,0,.74,0,3.73,0,4.48,0,3,1.82,5.89,5.33,7.91l18.1,10.45V437l86.84-50.14Z" transform="translate(-61.1 -40.11)"/><path class="cls-2" d="M213.54,396.11c0-9.58,3-39.73,9.29-46.79l-20.11-2.22c-9.89,10.45-21.73,35.42-28.89,49.81,0,0,5.9,2.41,13.18,5.41s17.41,3,22.62,0a7,7,0,0,0,3.9-6.21Z" transform="translate(-61.1 -40.11)"/><path class="cls-7" d="M213.54,396.11c0-9.58,3-39.73,9.29-46.79l-20.11-2.22c-9.89,10.45-21.73,35.42-28.89,49.81,0,0,5.9,2.41,13.18,5.41s17.41,3,22.62,0a7,7,0,0,0,3.9-6.21Z" transform="translate(-61.1 -40.11)"/><path class="cls-2" d="M209.79,350c3.9,1.61,9.33,1.61,12.12,0s2.8-4.75,0-7l-5.06-4.09a58.16,58.16,0,0,0-14.13,8.2Z" transform="translate(-61.1 -40.11)"/><path class="cls-11" d="M99.81,425.29a11.47,11.47,0,0,0,10.36-.19L353.61,284.53a11.81,11.81,0,0,0,5.34-9.26V50.33a11.47,11.47,0,0,0-5-9.07,11.44,11.44,0,0,0-10.36.19L100.14,182a11.81,11.81,0,0,0-5.34,9.25v225A11.47,11.47,0,0,0,99.81,425.29Z" transform="translate(-61.1 -40.11)"/><path class="cls-12" d="M110.17,425.09,353.61,284.52a11.81,11.81,0,0,0,5.34-9.26V50.32c0-3.41-2.39-4.79-5.34-3.09L110.17,187.8a11.81,11.81,0,0,0-5.34,9.26V422C104.82,425.41,107.22,426.79,110.17,425.09Z" transform="translate(-61.1 -40.11)"/><path class="cls-13" d="M104.82,403.82V422c0,3.41,2.4,4.79,5.35,3.09L353.61,284.52a11.81,11.81,0,0,0,5.34-9.26V257.07Z" transform="translate(-61.1 -40.11)"/><path class="cls-14" d="M111.89,386.9V199.44a7.26,7.26,0,0,1,3.29-5.69L348.59,59c1.82-1,3.29-.2,3.29,1.89V248.32a7.27,7.27,0,0,1-3.29,5.7L115.18,388.79C113.36,389.84,111.89,389,111.89,386.9Z" transform="translate(-61.1 -40.11)"/><path class="cls-15" d="M96.37,186l10,5.78a11.21,11.21,0,0,0-1.58,5.28V422c0,3.11,2.11,4.85,5.35,3.1a11.38,11.38,0,0,1-10.36.19,10.29,10.29,0,0,1-5-8.42V191.28A11.11,11.11,0,0,1,96.37,186Z" transform="translate(-61.1 -40.11)"/></g></g><g id="Window-2" data-name="Window"><g id="Window-3" data-name="Window"><path class="cls-4" d="M128.89,401.26a2.08,2.08,0,0,1-.41-.05,1,1,0,0,1-.21-.07l-.17-.1-.19-.12a2.13,2.13,0,0,1-1.14-1.91v-1.53h0V210.22c0-4.57,1.92-7.3,3.72-8.34L361.19,69a3.14,3.14,0,0,1,1.49-.46,1.64,1.64,0,0,1,.67.14l.24.14a.56.56,0,0,1,.17.18l.05.06.07,0,.06.11,0,.07,0,0a1,1,0,0,1,.16.35l.07.2,0,0,.07.22a1.19,1.19,0,0,1,0,.24c0,.14,0,.29,0,.45V261.6a8.25,8.25,0,0,1-3.71,6.44L133.83,398.69,129.91,401a2,2,0,0,1-1,.3Z" transform="translate(-61.1 -40.11)"/><path class="cls-1" d="M362.68,69.13a1,1,0,0,1,.45.1l.07,0,0,0,.07,0,.09.13h0v0l.09.13a.8.8,0,0,1,.08.16l0,.05.11.32v0l0,0,0,.06s0,.09,0,.11,0,.27,0,.41V261.6a7.69,7.69,0,0,1-3.43,5.94L133.55,398.2l-3.72,2.14h0l-.11.06-.1.06a1.47,1.47,0,0,1-.7.23h0a1.09,1.09,0,0,1-.27,0l-.07,0h0a.41.41,0,0,1-.11-.07l-.09-.06-.06,0,0,0,0,0a1.56,1.56,0,0,1-.84-1.4v-2h0V210.22c0-4.32,1.77-6.89,3.42-7.84L361.47,69.52a2.58,2.58,0,0,1,1.21-.39m0-1.14a3.59,3.59,0,0,0-1.78.54L130.19,201.38c-2.2,1.28-4,4.39-4,8.84V398.14h0V399a2.72,2.72,0,0,0,1.44,2.41l.17.11.21.12a2.06,2.06,0,0,0,.35.12,2.22,2.22,0,0,0,.51.06h0a2.6,2.6,0,0,0,1.27-.38l.11-.06h0l3.81-2.2L360.9,268.53a8.82,8.82,0,0,0,4-6.93V70.84c0-.17,0-.34,0-.5a2.2,2.2,0,0,0-.07-.37.11.11,0,0,0,0-.08,1.2,1.2,0,0,0-.09-.35,2,2,0,0,0-.24-.51.74.74,0,0,0-.13-.21.61.61,0,0,0-.12-.15,1.6,1.6,0,0,0-.26-.26l0,0a1.41,1.41,0,0,0-.34-.19,2.13,2.13,0,0,0-.91-.2Z" transform="translate(-61.1 -40.11)"/><path class="cls-1" d="M363.59,68.19a2.91,2.91,0,0,0-2.69.34L130.19,201.38a8.89,8.89,0,0,0-4,6.93v7.76l-5.1-3v-7.66a8.82,8.82,0,0,1,4-6.91L355.8,65.64a2.8,2.8,0,0,1,2.9-.24C359.42,65.84,362.74,67.74,363.59,68.19Z" transform="translate(-61.1 -40.11)"/><path class="cls-1" d="M364.89,70.81c0-2.52-1.79-3.55-4-2.28L130.19,201.39a8.82,8.82,0,0,0-4,6.92v7.76L364.89,78.62Z" transform="translate(-61.1 -40.11)"/><g class="cls-16"><path class="cls-14" d="M360.9,68.53,130.19,201.39a8.18,8.18,0,0,0-2.81,3l-5.08-2.94a8.07,8.07,0,0,1,2.78-2.92L355.79,65.64a2.81,2.81,0,0,1,2.91-.24c.71.44,4,2.33,4.88,2.78A2.89,2.89,0,0,0,360.9,68.53Z" transform="translate(-61.1 -40.11)"/></g><path class="cls-17" d="M121.08,213.09v-7.68a8.26,8.26,0,0,1,1.22-4l5.09,2.93a8.11,8.11,0,0,0-1.19,4v7.76Z" transform="translate(-61.1 -40.11)"/><path class="cls-4" d="M347.53,80.19a4.07,4.07,0,0,0-1.69,3.24c0,1.25.76,1.83,1.69,1.28a4.05,4.05,0,0,0,1.7-3.24C349.23,80.22,348.47,79.65,347.53,80.19Z" transform="translate(-61.1 -40.11)"/><path class="cls-4" d="M353.64,76.66A4.07,4.07,0,0,0,352,79.9c0,1.25.76,1.82,1.69,1.28a4.05,4.05,0,0,0,1.7-3.24C355.34,76.69,354.58,76.12,353.64,76.66Z" transform="translate(-61.1 -40.11)"/><path class="cls-4" d="M359.75,73.12a4.09,4.09,0,0,0-1.69,3.25c0,1.25.76,1.82,1.69,1.28a4.05,4.05,0,0,0,1.7-3.24C361.45,73.16,360.69,72.58,359.75,73.12Z" transform="translate(-61.1 -40.11)"/><path class="cls-1" d="M127.63,401.43l-.21-.11-4.21-2.44a4.24,4.24,0,0,1-2.09-3.1,3.77,3.77,0,0,1,0-.58V213.08l5.11,3V399a2.62,2.62,0,0,0,1.24,2.27,1,1,0,0,0,.13.09l0,0Z" transform="translate(-61.1 -40.11)"/><path class="cls-18" d="M127.63,401.43l-.21-.11-4.21-2.44a4.24,4.24,0,0,1-2.09-3.1,3.77,3.77,0,0,1,0-.58V213.08l5.11,3V399a2.62,2.62,0,0,0,1.24,2.27,1,1,0,0,0,.13.09l0,0Z" transform="translate(-61.1 -40.11)"/></g></g><g id="Color-2" data-name="Color"><g class="cls-16"><path d="M281,305.14l104.4-60.27c.68-.39,1.22-.08,1.22.7v32.48a2.69,2.69,0,0,1-1.22,2.12L281,340.45c-.67.39-1.22.07-1.22-.71V307.26A2.72,2.72,0,0,1,281,305.14Z" transform="translate(-61.1 -40.11)"/></g><g id="Speech_Bubble" data-name="Speech Bubble"><path class="cls-13" d="M288.87,311.84a3.36,3.36,0,0,1,.16-.33h0A3.41,3.41,0,0,0,288.87,311.84Z" transform="translate(-61.1 -40.11)"/><path class="cls-1" d="M394.19,251.47a.72.72,0,0,0-.7-.56,1.2,1.2,0,0,0-.61.19L290,310.49a2.83,2.83,0,0,0-1,1l-5-2.89a2.83,2.83,0,0,1,.93-1l102.87-59.38a3,3,0,0,1,2.74,0l2.3,1.29A2.93,2.93,0,0,1,394.19,251.47Z" transform="translate(-61.1 -40.11)"/><g class="cls-16"><path class="cls-14" d="M394.19,251.47a.72.72,0,0,0-.7-.56,1.2,1.2,0,0,0-.61.19L290,310.49a2.83,2.83,0,0,0-1,1l-5-2.89a2.83,2.83,0,0,1,.93-1l102.87-59.38a3,3,0,0,1,2.74,0l2.3,1.29A2.93,2.93,0,0,1,394.19,251.47Z" transform="translate(-61.1 -40.11)"/></g><path class="cls-1" d="M290,345.72a3.13,3.13,0,0,1-2.75,0L285,344.38a3,3,0,0,1-1.38-2.35V310a2.77,2.77,0,0,1,.44-1.4l5,2.89a2.77,2.77,0,0,0-.4,1.35v32.07C288.64,345.73,289.2,346.19,290,345.72Z" transform="translate(-61.1 -40.11)"/><g class="cls-16"><path d="M290,345.72a3.13,3.13,0,0,1-2.75,0L285,344.38a3,3,0,0,1-1.38-2.35V310a2.77,2.77,0,0,1,.44-1.4l5,2.89a2.77,2.77,0,0,0-.4,1.35v32.07C288.64,345.73,289.2,346.19,290,345.72Z" transform="translate(-61.1 -40.11)"/></g><path class="cls-4" d="M289.4,345.37c-.19,0-.22-.27-.22-.44V312.86a2.47,2.47,0,0,1,1.1-1.9l102.86-59.39a.76.76,0,0,1,.35-.12c.19,0,.22.28.22.44V284a2.53,2.53,0,0,1-1.1,1.91L289.74,345.26A.68.68,0,0,1,289.4,345.37Z" transform="translate(-61.1 -40.11)"/><path class="cls-1" d="M393.17,252.17V284a2,2,0,0,1-.83,1.44L289.72,344.65V312.86a2,2,0,0,1,.83-1.44l102.62-59.25m.32-1.26a1.2,1.2,0,0,0-.61.19L290,310.49a3,3,0,0,0-1.37,2.37v32.07c0,.62.31,1,.76,1a1.22,1.22,0,0,0,.61-.19l102.87-59.39a3,3,0,0,0,1.36-2.37V251.89c0-.62-.3-1-.75-1Z" transform="translate(-61.1 -40.11)"/><path class="cls-1" d="M393.49,251.52c.14,0,.14.31.14.37V284a2.39,2.39,0,0,1-1.06,1.84L289.7,345.19a.61.61,0,0,1-.3.11c-.14,0-.15-.31-.15-.37V312.86a2.45,2.45,0,0,1,1.06-1.84l102.87-59.39a.63.63,0,0,1,.31-.11m0-.61a1.2,1.2,0,0,0-.61.19L290,310.49a3,3,0,0,0-1.37,2.37v32.07c0,.62.31,1,.76,1a1.22,1.22,0,0,0,.61-.19l102.87-59.39a3,3,0,0,0,1.36-2.37V251.89c0-.62-.3-1-.75-1Z" transform="translate(-61.1 -40.11)"/></g><path class="cls-1" d="M309.73,316.68c0,4.41-2.68,9.53-6,11.43s-6-.11-6-4.52,2.68-9.52,6-11.43S309.73,312.28,309.73,316.68Z" transform="translate(-61.1 -40.11)"/><path class="cls-8" d="M309.73,316.68c0,4.41-2.68,9.53-6,11.43s-6-.11-6-4.52,2.68-9.52,6-11.43S309.73,312.28,309.73,316.68Z" transform="translate(-61.1 -40.11)"/><path class="cls-1" d="M328.58,305.8c0,4.41-2.68,9.52-6,11.43s-6-.12-6-4.52,2.68-9.53,6-11.43S328.58,301.39,328.58,305.8Z" transform="translate(-61.1 -40.11)"/><path class="cls-19" d="M328.58,305.8c0,4.41-2.68,9.52-6,11.43s-6-.12-6-4.52,2.68-9.53,6-11.43S328.58,301.39,328.58,305.8Z" transform="translate(-61.1 -40.11)"/><ellipse class="cls-1" cx="341.44" cy="298.37" rx="9.19" ry="5.2" transform="translate(-127.9 455.61) rotate(-66.95)"/><ellipse class="cls-20" cx="341.44" cy="298.37" rx="9.19" ry="5.2" transform="translate(-127.9 455.61) rotate(-66.95)"/><path class="cls-1" d="M366.27,284c0,4.4-2.68,9.52-6,11.43s-6-.12-6-4.52,2.68-9.53,6-11.44S366.27,279.63,366.27,284Z" transform="translate(-61.1 -40.11)"/><path class="cls-1" d="M385.12,273.15c0,4.41-2.68,9.53-6,11.44s-6-.12-6-4.53,2.68-9.52,6-11.43S385.12,268.75,385.12,273.15Z" transform="translate(-61.1 -40.11)"/><path class="cls-21" d="M385.12,273.15c0,4.41-2.68,9.53-6,11.44s-6-.12-6-4.53,2.68-9.52,6-11.43S385.12,268.75,385.12,273.15Z" transform="translate(-61.1 -40.11)"/></g><g id="Fonts-2" data-name="Fonts"><g class="cls-16"><path d="M281,249.66l104.4-60.28c.68-.38,1.22-.07,1.22.71v32.48a2.69,2.69,0,0,1-1.22,2.12L281,285c-.67.39-1.22.08-1.22-.7V251.78A2.72,2.72,0,0,1,281,249.66Z" transform="translate(-61.1 -40.11)"/></g><g id="Speech_Bubble-2" data-name="Speech Bubble"><path class="cls-13" d="M288.87,256.28c.05-.11.1-.22.16-.33h0C289,256.06,288.92,256.17,288.87,256.28Z" transform="translate(-61.1 -40.11)"/><path class="cls-1" d="M394.19,195.91a.73.73,0,0,0-.7-.56,1.2,1.2,0,0,0-.61.19L290,254.93a2.83,2.83,0,0,0-1,1l-5-2.89a2.71,2.71,0,0,1,.93-1L387.83,192.7a3,3,0,0,1,2.74,0l2.3,1.29A3,3,0,0,1,394.19,195.91Z" transform="translate(-61.1 -40.11)"/><g class="cls-16"><path class="cls-14" d="M394.19,195.91a.73.73,0,0,0-.7-.56,1.2,1.2,0,0,0-.61.19L290,254.93a2.83,2.83,0,0,0-1,1l-5-2.89a2.71,2.71,0,0,1,.93-1L387.83,192.7a3,3,0,0,1,2.74,0l2.3,1.29A3,3,0,0,1,394.19,195.91Z" transform="translate(-61.1 -40.11)"/></g><path class="cls-1" d="M290,290.16a3.13,3.13,0,0,1-2.75,0L285,288.82a3,3,0,0,1-1.38-2.35v-32a2.83,2.83,0,0,1,.44-1.4l5,2.89a2.8,2.8,0,0,0-.4,1.35v32.07C288.64,290.17,289.2,290.63,290,290.16Z" transform="translate(-61.1 -40.11)"/><g class="cls-16"><path d="M290,290.16a3.13,3.13,0,0,1-2.75,0L285,288.82a3,3,0,0,1-1.38-2.35v-32a2.83,2.83,0,0,1,.44-1.4l5,2.89a2.8,2.8,0,0,0-.4,1.35v32.07C288.64,290.17,289.2,290.63,290,290.16Z" transform="translate(-61.1 -40.11)"/></g><path class="cls-4" d="M289.4,289.81c-.19,0-.22-.27-.22-.44V257.3a2.47,2.47,0,0,1,1.1-1.9L393.14,196a.76.76,0,0,1,.35-.12c.19,0,.22.28.22.44V228.4a2.53,2.53,0,0,1-1.1,1.91L289.74,289.7A.68.68,0,0,1,289.4,289.81Z" transform="translate(-61.1 -40.11)"/><path class="cls-1" d="M393.17,196.62V228.4a2,2,0,0,1-.83,1.44L289.72,289.09V257.3a2,2,0,0,1,.83-1.44l102.62-59.24m.32-1.26a1.28,1.28,0,0,0-.61.18L290,254.93a3,3,0,0,0-1.37,2.37v32.07c0,.62.31,1,.76,1a1.22,1.22,0,0,0,.61-.19l102.87-59.38a3,3,0,0,0,1.36-2.38V196.33c0-.62-.3-1-.75-1Z" transform="translate(-61.1 -40.11)"/><path class="cls-1" d="M393.49,196c.14,0,.14.3.14.36V228.4a2.42,2.42,0,0,1-1.06,1.85L289.7,289.63a.61.61,0,0,1-.3.11c-.14,0-.15-.31-.15-.37V257.3a2.45,2.45,0,0,1,1.06-1.84l102.87-59.39a.69.69,0,0,1,.31-.1m0-.61a1.28,1.28,0,0,0-.61.18L290,254.93a3,3,0,0,0-1.37,2.37v32.07c0,.62.31,1,.76,1a1.22,1.22,0,0,0,.61-.19l102.87-59.38a3,3,0,0,0,1.36-2.38V196.33c0-.62-.3-1-.75-1Z" transform="translate(-61.1 -40.11)"/></g><path class="cls-11" d="M331.78,257l1.45-1.16,3.69-18.64,1.44-.84,3.69,14.52,1.2-.47v1.24l-5.1,3V253.3l1.55-1.2-.84-3.53L335,250.79l-.85,4.43,1.54-.53V256l-3.92,2.26Zm3.55-7.75,3.23-1.87L337,240.74Z" transform="translate(-61.1 -40.11)"/><path class="cls-11" d="M348.91,246.62c-.86,1.89-1.43,2.92-2.56,3.57-1.32.77-2.34.16-2.34-2.07,0-1.73.62-3.39,3.16-6.11.45-.51,1.07-1.14,1.69-1.74v-.76c0-2.52-.41-3-1.55-2.33a4.85,4.85,0,0,0-.73.52l-.21,1.62a3.07,3.07,0,0,1-1.11,2.54c-.55.32-.9.09-1-.65a7.49,7.49,0,0,1,3.72-5.73c2.05-1.19,2.95-.32,2.95,3.21v5.92c0,.87.19,1.11.51.93a1.69,1.69,0,0,0,.62-1l.41.31a4.12,4.12,0,0,1-1.82,2.76C349.72,248.19,349.12,247.78,348.91,246.62Zm-1.58,1c.47-.28.77-.72,1.53-2v-4.32c-.49.53-.95,1-1.25,1.37a5.6,5.6,0,0,0-1.54,3.63C346.07,247.77,346.62,248.06,347.33,247.65Z" transform="translate(-61.1 -40.11)"/><path class="cls-11" d="M302.55,256.87c.18-.11.31-.11.4,0a1.31,1.31,0,0,1,.24.53l4.12,14a.9.9,0,0,1,0,.18,1.32,1.32,0,0,1-.14.56,1,1,0,0,1-.32.4l-1.21.7c-.22.12-.38.14-.47.05a.88.88,0,0,1-.19-.32l-.72-2.46L299,273.54l-.73,3.29a2.21,2.21,0,0,1-.18.53,1.13,1.13,0,0,1-.47.5l-1.21.7a.24.24,0,0,1-.32,0,.53.53,0,0,1-.14-.41,1.11,1.11,0,0,1,0-.19l4.12-18.75a4,4,0,0,1,.24-.79,1,1,0,0,1,.4-.46Zm.92,10.83-1.85-6.31-1.85,8.45Z" transform="translate(-61.1 -40.11)"/><path class="cls-11" d="M308.7,261.29a7.18,7.18,0,0,1,.32-1.35,8.1,8.1,0,0,1,.69-1.56,8.59,8.59,0,0,1,1.09-1.53,6.09,6.09,0,0,1,1.5-1.21,3.73,3.73,0,0,1,1.55-.55,1.68,1.68,0,0,1,1.19.34,2.5,2.5,0,0,1,.76,1.25,7.51,7.51,0,0,1,.27,2.19v7.62a1.31,1.31,0,0,1-.13.57.86.86,0,0,1-.32.39l-1.28.73a.23.23,0,0,1-.32,0,.53.53,0,0,1-.14-.41v-.86a7.6,7.6,0,0,1-1,1.87,5.58,5.58,0,0,1-1.69,1.51,3,3,0,0,1-1.3.45,1.36,1.36,0,0,1-1-.29,2,2,0,0,1-.59-.94,4.65,4.65,0,0,1-.21-1.49,6.62,6.62,0,0,1,.82-3.27,9.24,9.24,0,0,1,2.2-2.65l2.74-2.31c0-.7-.15-1.12-.45-1.24a1.31,1.31,0,0,0-1.13.21,2.14,2.14,0,0,0-.65.56,5.87,5.87,0,0,0-.46.76,2.92,2.92,0,0,1-.27.44,1.23,1.23,0,0,1-.28.24l-1.57.9a.23.23,0,0,1-.28,0Q308.67,261.56,308.7,261.29Zm2.81,5.68a4.08,4.08,0,0,0,1-.84,5,5,0,0,0,.75-1.09,5.57,5.57,0,0,0,.45-1.19,4.85,4.85,0,0,0,.15-1.15v-.26l-2.28,1.94a4.39,4.39,0,0,0-1,1.11,2.13,2.13,0,0,0-.31,1.12c0,.36.12.56.36.59A1.37,1.37,0,0,0,311.51,267Z" transform="translate(-61.1 -40.11)"/><path class="cls-11" d="M377.63,229.18a5.75,5.75,0,0,1,.29,1.44,1.81,1.81,0,0,1-.75,1.45l-.09.06c-.55.31-.71-.34-.83-.95l-.49-2.13-.39-1.54c-.88.53-1.76,1.06-2.64,1.64l-1.65,1.17-.34.25c-.32,1.34-.64,2.71-.93,4.09-.2.84-.3,1.93-.92,2.29s-.85-.11-.85-.67a2.94,2.94,0,0,1,.16-.93l.95-4.11a1.24,1.24,0,0,1-.17-.77,1.9,1.9,0,0,1,.75-1.64c.35-1.43.69-2.86,1.06-4.3.56-2.26,1.2-4.66,1.66-6.88l.14-.61a2.19,2.19,0,0,1,.72-1.46c.08,0,.17-.12.25-.17s.35-.1.44,0,.24.2.28.61c.32,1.41.63,2.85,1,4.25.66,2.63,1.38,5.26,2.08,7.87Zm-2.75-3.73-.17-.65-1-3.75-.36-1.29-.13.5-1.36,5.48c-.17.7-.35,1.38-.5,2.08C372.54,227.06,373.72,226.24,374.88,225.45Z" transform="translate(-61.1 -40.11)"/><path class="cls-11" d="M387,224.87a2.43,2.43,0,0,1-.85,1.89c-.34.2-.64-.21-.81-.64a8.32,8.32,0,0,1-2.72,2.87c-2,1.15-3.92,0-3.92-3.77a13.09,13.09,0,0,1,.8-4.33,9.52,9.52,0,0,1,3.7-5,3.39,3.39,0,0,1,2-.47,2.36,2.36,0,0,1,.42-1.11,1.71,1.71,0,0,1,.53-.51c.54-.3.62.52.62.83s-.05.54-.07.74c-.11,1.15-.15,4.1-.15,4.85s.06,2.89.06,3.56S387,224.41,387,224.87Zm-2-1.53c0-.14.08-.29.12-.46v-4.39a1.72,1.72,0,0,0-.2-.15,1.53,1.53,0,0,0-1.87.06c-1.49.86-2.95,3.39-2.95,6.15,0,1.57.74,3.22,2.5,2.21A5.79,5.79,0,0,0,385,223.34Z" transform="translate(-61.1 -40.11)"/><path class="cls-11" d="M323.89,265.64a.47.47,0,0,1-.47-.47V240.59a.47.47,0,1,1,.94,0v24.58A.47.47,0,0,1,323.89,265.64Z" transform="translate(-61.1 -40.11)"/><path class="cls-11" d="M360.36,244.58a.47.47,0,0,1-.46-.47V219.53a.47.47,0,1,1,.93,0v24.58A.47.47,0,0,1,360.36,244.58Z" transform="translate(-61.1 -40.11)"/></g><g id="Controls-2" data-name="Controls"><g class="cls-16"><path d="M304.26,126.92l80.32-46.36c.67-.39,1.22-.07,1.22.71v85.67a2.72,2.72,0,0,1-1.22,2.11l-80.32,46.36c-.67.39-1.22.07-1.22-.7V129A2.72,2.72,0,0,1,304.26,126.92Z" transform="translate(-61.1 -40.11)"/></g><path class="cls-1" d="M393.53,85.55a1.59,1.59,0,0,0-1.44.2l-79.35,45.69a4.77,4.77,0,0,0-2.15,3.74v83.69a1.56,1.56,0,0,0,.58,1.38c-.37-.24-3.62-2.08-4-2.32a1.53,1.53,0,0,1-.61-1.39V132.85a4.72,4.72,0,0,1,2.16-3.73L388,83.41a1.53,1.53,0,0,1,1.55-.14C389.93,83.48,392.76,85.08,393.53,85.55Z" transform="translate(-61.1 -40.11)"/><g class="cls-16"><path class="cls-14" d="M393.53,85.55c-.77-.47-3.6-2.07-3.94-2.28a1.53,1.53,0,0,0-1.55.14L308.7,129.12a4.37,4.37,0,0,0-1.53,1.6l4.05,2.34a4.33,4.33,0,0,1,1.52-1.62l79.35-45.69A1.59,1.59,0,0,1,393.53,85.55Z" transform="translate(-61.1 -40.11)"/></g><path class="cls-4" d="M311.77,219.88c-.59,0-.65-.7-.65-1v-83.7a4.25,4.25,0,0,1,1.88-3.27l79.36-45.69a1.4,1.4,0,0,1,.69-.23c.59,0,.66.7.66,1v83.7a4.26,4.26,0,0,1-1.89,3.27l-79.35,45.69A1.41,1.41,0,0,1,311.77,219.88Z" transform="translate(-61.1 -40.11)"/><path class="cls-1" d="M393.05,85.46l0,1.07a.78.78,0,0,1,.1.46v83.7a3.69,3.69,0,0,1-1.62,2.8l-79.35,45.7a.9.9,0,0,1-.44.15s-.1-.16-.1-.47V135.18a3.68,3.68,0,0,1,1.61-2.8l79.36-45.7a1,1,0,0,1,.42-.15V85.46m0,0a1.94,1.94,0,0,0-1,.29l-79.35,45.7a4.74,4.74,0,0,0-2.16,3.73v83.69c0,1,.49,1.54,1.19,1.54a2,2,0,0,0,1-.29l79.35-45.7a4.73,4.73,0,0,0,2.15-3.73V87c0-1-.48-1.53-1.19-1.53Z" transform="translate(-61.1 -40.11)"/><path class="cls-1" d="M311.22,133.06l-4.05-2.34a4.43,4.43,0,0,0-.63,2.13v83.69a1.53,1.53,0,0,0,.61,1.39c.4.24,3.65,2.08,4,2.32a1.56,1.56,0,0,1-.58-1.38V135.18A4.36,4.36,0,0,1,311.22,133.06Z" transform="translate(-61.1 -40.11)"/><path class="cls-17" d="M311.22,133.06l-4.05-2.34a4.43,4.43,0,0,0-.63,2.13v83.69a1.53,1.53,0,0,0,.61,1.39c.4.24,3.65,2.08,4,2.32a1.56,1.56,0,0,1-.58-1.38V135.18A4.36,4.36,0,0,1,311.22,133.06Z" transform="translate(-61.1 -40.11)"/><path class="cls-1" d="M393.05,86.45c.19,0,.2.49.2.54v83.7a3.76,3.76,0,0,1-1.66,2.87l-79.35,45.7a1,1,0,0,1-.47.16c-.19,0-.19-.49-.19-.55V135.18a3.78,3.78,0,0,1,1.65-2.87l79.36-45.7a1,1,0,0,1,.46-.16m0-1a1.94,1.94,0,0,0-1,.29l-79.35,45.7a4.74,4.74,0,0,0-2.16,3.73v83.69c0,1,.49,1.54,1.19,1.54a2,2,0,0,0,1-.29l79.35-45.7a4.73,4.73,0,0,0,2.15-3.73V87c0-1-.48-1.53-1.19-1.53Z" transform="translate(-61.1 -40.11)"/><g id="Controls-3" data-name="Controls"><path class="cls-2" d="M352.66,186l.13-63.82c0-1.19-.79-1.71-1.76-1.15a4,4,0,0,0-1.75,3.18L349.15,188c0,1.2.79,1.71,1.75,1.15A4,4,0,0,0,352.66,186Z" transform="translate(-61.1 -40.11)"/><path class="cls-11" d="M352.64,168.4l0,17.62a4,4,0,0,1-1.76,3.17c-1,.56-1.75.05-1.75-1.15l0-17.61Z" transform="translate(-61.1 -40.11)"/><path class="cls-12" d="M350.77,176.57a4.12,4.12,0,0,1-1.63.58v-6.72l3.51-2V175A7.9,7.9,0,0,1,350.77,176.57Z" transform="translate(-61.1 -40.11)"/><path class="cls-1" d="M355.34,166.85c0-2.84-2-4-4.45-2.58a9.86,9.86,0,0,0-4.46,7.72c0,2.84,2,4,4.46,2.57A9.83,9.83,0,0,0,355.34,166.85Z" transform="translate(-61.1 -40.11)"/><path class="cls-22" d="M355.34,166.85c0-2.84-2-4-4.45-2.58a9.86,9.86,0,0,0-4.46,7.72c0,2.84,2,4,4.46,2.57A9.83,9.83,0,0,0,355.34,166.85Z" transform="translate(-61.1 -40.11)"/><path class="cls-2" d="M339.29,193.74l.13-63.82c0-1.19-.79-1.71-1.76-1.15a4,4,0,0,0-1.75,3.18l-.13,63.81c0,1.2.78,1.71,1.75,1.15A4,4,0,0,0,339.29,193.74Z" transform="translate(-61.1 -40.11)"/><path class="cls-11" d="M339.35,146.79l-.06,47a4,4,0,0,1-1.76,3.17c-1,.56-1.75.05-1.75-1.15l.06-46.95Z" transform="translate(-61.1 -40.11)"/><path class="cls-12" d="M337.48,154.73a4.1,4.1,0,0,1-1.65.58v-6.5l3.51-2v6.38A7.54,7.54,0,0,1,337.48,154.73Z" transform="translate(-61.1 -40.11)"/><path class="cls-1" d="M342.05,145c0-2.84-2-4-4.45-2.57a9.86,9.86,0,0,0-4.46,7.72c0,2.84,2,4,4.46,2.57A9.85,9.85,0,0,0,342.05,145Z" transform="translate(-61.1 -40.11)"/><path class="cls-22" d="M342.05,145c0-2.84-2-4-4.45-2.57a9.86,9.86,0,0,0-4.46,7.72c0,2.84,2,4,4.46,2.57A9.85,9.85,0,0,0,342.05,145Z" transform="translate(-61.1 -40.11)"/><path class="cls-2" d="M325.92,201.46l.12-63.82c0-1.19-.78-1.71-1.75-1.15a4,4,0,0,0-1.76,3.18l-.12,63.81c0,1.2.78,1.71,1.75,1.15A4,4,0,0,0,325.92,201.46Z" transform="translate(-61.1 -40.11)"/><path class="cls-11" d="M325.9,183.84l0,17.62a4,4,0,0,1-1.76,3.17c-1,.56-1.75.05-1.75-1.15l0-17.61Z" transform="translate(-61.1 -40.11)"/><path class="cls-12" d="M324,192a4.23,4.23,0,0,1-1.63.58v-6.72l3.51-2v6.6A8.05,8.05,0,0,1,324,192Z" transform="translate(-61.1 -40.11)"/><path class="cls-1" d="M328.6,182.29c0-2.84-2-4-4.46-2.58a9.87,9.87,0,0,0-4.45,7.72c0,2.84,2,4,4.45,2.57A9.84,9.84,0,0,0,328.6,182.29Z" transform="translate(-61.1 -40.11)"/><path class="cls-22" d="M328.6,182.29c0-2.84-2-4-4.46-2.58a9.87,9.87,0,0,0-4.45,7.72c0,2.84,2,4,4.45,2.57A9.84,9.84,0,0,0,328.6,182.29Z" transform="translate(-61.1 -40.11)"/></g><g id="Controls-4" data-name="Controls"><path class="cls-2" d="M379.41,170.57l.13-63.82c0-1.19-.79-1.7-1.76-1.14a4,4,0,0,0-1.75,3.17l-.13,63.82c0,1.19.79,1.7,1.75,1.14A4,4,0,0,0,379.41,170.57Z" transform="translate(-61.1 -40.11)"/><path class="cls-11" d="M379.39,153l0,17.61a4,4,0,0,1-1.76,3.17c-1,.56-1.75,0-1.75-1.14l0-17.62Z" transform="translate(-61.1 -40.11)"/><path class="cls-12" d="M377.52,161.13a4.29,4.29,0,0,1-1.63.58V155l3.51-2v6.59A7.71,7.71,0,0,1,377.52,161.13Z" transform="translate(-61.1 -40.11)"/><path class="cls-1" d="M382.09,151.4c0-2.84-2-4-4.45-2.57a9.84,9.84,0,0,0-4.46,7.71c0,2.84,2,4,4.46,2.57A9.83,9.83,0,0,0,382.09,151.4Z" transform="translate(-61.1 -40.11)"/><path class="cls-22" d="M382.09,151.4c0-2.84-2-4-4.45-2.57a9.84,9.84,0,0,0-4.46,7.71c0,2.84,2,4,4.46,2.57A9.83,9.83,0,0,0,382.09,151.4Z" transform="translate(-61.1 -40.11)"/><path class="cls-2" d="M366,178.29l.13-63.82c0-1.19-.79-1.7-1.76-1.14a4,4,0,0,0-1.75,3.17l-.13,63.82c0,1.19.78,1.7,1.75,1.14A4,4,0,0,0,366,178.29Z" transform="translate(-61.1 -40.11)"/><path class="cls-11" d="M366.1,131.34,366,178.29a4,4,0,0,1-1.76,3.17c-1,.56-1.75,0-1.75-1.14l.06-46.95Z" transform="translate(-61.1 -40.11)"/><path class="cls-12" d="M364.23,139.28a4.29,4.29,0,0,1-1.65.59v-6.5l3.51-2v6.39A7.49,7.49,0,0,1,364.23,139.28Z" transform="translate(-61.1 -40.11)"/><path class="cls-1" d="M368.8,129.56c0-2.84-2-4-4.45-2.57a9.84,9.84,0,0,0-4.46,7.71c0,2.84,2,4,4.46,2.57A9.83,9.83,0,0,0,368.8,129.56Z" transform="translate(-61.1 -40.11)"/><path class="cls-22" d="M368.8,129.56c0-2.84-2-4-4.45-2.57a9.84,9.84,0,0,0-4.46,7.71c0,2.84,2,4,4.46,2.57A9.83,9.83,0,0,0,368.8,129.56Z" transform="translate(-61.1 -40.11)"/></g></g><g id="Image-2" data-name="Image"><g class="cls-16"><path d="M193.86,190.55,288.41,136c.67-.39,1.22-.07,1.22.7v85.67a2.72,2.72,0,0,1-1.22,2.12L193.86,279c-.68.39-1.22.08-1.22-.7V192.67A2.69,2.69,0,0,1,193.86,190.55Z" transform="translate(-61.1 -40.11)"/></g><path class="cls-1" d="M296.89,141a1.66,1.66,0,0,0-1.44.2l-92.7,53.53a4.79,4.79,0,0,0-2.15,3.73v83.7a1.55,1.55,0,0,0,.59,1.37c-.37-.24-3.62-2.08-4-2.32a1.53,1.53,0,0,1-.62-1.38v-83.7a4.78,4.78,0,0,1,2.16-3.73l92.69-53.53a1.51,1.51,0,0,1,1.54-.14C293.29,138.93,296.12,140.54,296.89,141Z" transform="translate(-61.1 -40.11)"/><g class="cls-16"><path class="cls-14" d="M296.89,141c-.77-.46-3.6-2.07-3.95-2.27a1.51,1.51,0,0,0-1.54.14L198.71,192.4a4.38,4.38,0,0,0-1.52,1.61l4,2.33a4.38,4.38,0,0,1,1.52-1.61l92.7-53.53A1.66,1.66,0,0,1,296.89,141Z" transform="translate(-61.1 -40.11)"/></g><path class="cls-1" d="M202.75,194.73l92.7-53.53c1.19-.68,2.15-.13,2.15,1.25v83.69a4.77,4.77,0,0,1-2.15,3.74l-92.7,53.52c-1.19.69-2.15.13-2.15-1.24v-83.7A4.76,4.76,0,0,1,202.75,194.73Z" transform="translate(-61.1 -40.11)"/><g class="cls-23"><path class="cls-14" d="M202.75,194.73l92.7-53.53c1.19-.68,2.15-.13,2.15,1.25v83.69a4.77,4.77,0,0,1-2.15,3.74l-92.7,53.52c-1.19.69-2.15.13-2.15-1.24v-83.7A4.76,4.76,0,0,1,202.75,194.73Z" transform="translate(-61.1 -40.11)"/></g><path class="cls-1" d="M201.23,196.34l-4-2.33a4.38,4.38,0,0,0-.64,2.12v83.7a1.53,1.53,0,0,0,.62,1.38c.4.24,3.65,2.08,4,2.32a1.55,1.55,0,0,1-.59-1.37v-83.7A4.39,4.39,0,0,1,201.23,196.34Z" transform="translate(-61.1 -40.11)"/><path class="cls-17" d="M201.23,196.34l-4-2.33a4.38,4.38,0,0,0-.64,2.12v83.7a1.53,1.53,0,0,0,.62,1.38c.4.24,3.65,2.08,4,2.32a1.55,1.55,0,0,1-.59-1.37v-83.7A4.39,4.39,0,0,1,201.23,196.34Z" transform="translate(-61.1 -40.11)"/><path class="cls-24" d="M261.27,222.49l7.33,10.3-33.11-30.13L200.6,261.77v20.39c0,1.37,1,1.93,2.15,1.24l92.7-53.52a4.77,4.77,0,0,0,2.15-3.74v-11.2l-24.69-17.78Z" transform="translate(-61.1 -40.11)"/><path class="cls-24" d="M265.27,172.94c4.32-2.5,7.82-.47,7.82,4.52A17.28,17.28,0,0,1,265.27,191c-4.32,2.5-7.83.48-7.83-4.51A17.31,17.31,0,0,1,265.27,172.94Z" transform="translate(-61.1 -40.11)"/><path class="cls-1" d="M296.41,141.9c.19,0,.2.49.2.55v83.69A3.79,3.79,0,0,1,295,229l-92.69,53.53a.94.94,0,0,1-.47.16c-.19,0-.2-.49-.2-.54v-83.7a3.79,3.79,0,0,1,1.66-2.87L296,142.07a1,1,0,0,1,.46-.17m0-1a1.92,1.92,0,0,0-1,.29l-92.7,53.53a4.76,4.76,0,0,0-2.15,3.73v83.7c0,1,.48,1.54,1.19,1.54a1.94,1.94,0,0,0,1-.3l92.7-53.52a4.77,4.77,0,0,0,2.15-3.74V142.45c0-1-.48-1.54-1.19-1.54Z" transform="translate(-61.1 -40.11)"/></g><g id="Window-4" data-name="Window"><g class="cls-16"><path d="M142.33,329.85,265.11,259c2.39-1.38,4.33-.26,4.33,2.5v80.91a9.58,9.58,0,0,1-4.33,7.5L142.33,420.76c-2.39,1.38-4.33.26-4.33-2.5V337.35A9.58,9.58,0,0,1,142.33,329.85Z" transform="translate(-61.1 -40.11)"/></g><g id="Window-5" data-name="Window"><path class="cls-11" d="M273.42,268.41a1.51,1.51,0,0,0-.06-.37.08.08,0,0,0,0-.08,1.19,1.19,0,0,0-.09-.36,1.64,1.64,0,0,0-.24-.52,1,1,0,0,0-.13-.22.81.81,0,0,0-.12-.14,1.15,1.15,0,0,0-.27-.27l0,0a1.9,1.9,0,0,0-.34-.2,3,3,0,0,0-2.73.35L150.46,335c-2.24,1.3-4.06,4.45-4.06,9v79.65a2.76,2.76,0,0,0,1.46,2.44l.18.12.21.12a2.06,2.06,0,0,0,.35.12,2.24,2.24,0,0,0,.52.06,2.57,2.57,0,0,0,1.34-.38l.11-.06h0l3.87-2.23L269.39,357.6a9,9,0,0,0,4.06-7V268.91A4.07,4.07,0,0,0,273.42,268.41Z" transform="translate(-61.1 -40.11)"/><path class="cls-1" d="M272.12,266.22a3,3,0,0,0-2.73.35L150.46,335a9,9,0,0,0-4.06,7v7.87l-5-2.94v-7.78a9,9,0,0,1,4.05-7l118.94-68.45a2.8,2.8,0,0,1,2.94-.24C268,263.94,271.25,265.77,272.12,266.22Z" transform="translate(-61.1 -40.11)"/><path class="cls-1" d="M273.44,268.89c0-2.57-1.82-3.6-4.05-2.31L150.46,335a9,9,0,0,0-4.06,7v7.88l127-73.13Z" transform="translate(-61.1 -40.11)"/><g class="cls-16"><path class="cls-14" d="M269.38,266.57,150.46,335a8.28,8.28,0,0,0-2.85,3l-5-2.89a8.13,8.13,0,0,1,2.82-3l118.93-68.46a2.88,2.88,0,0,1,2.95-.24c.73.45,3.94,2.27,4.79,2.73A2.92,2.92,0,0,0,269.38,266.57Z" transform="translate(-61.1 -40.11)"/></g><path class="cls-17" d="M141.37,347v-7.8a8.38,8.38,0,0,1,1.23-4.06l5,2.88a8.08,8.08,0,0,0-1.21,4v7.88Z" transform="translate(-61.1 -40.11)"/><path class="cls-14" d="M257.45,277.22a4.06,4.06,0,0,0-1.55,3.27c0,1.31.69,2,1.55,1.48a4.06,4.06,0,0,0,1.54-3.26C259,277.4,258.3,276.73,257.45,277.22Z" transform="translate(-61.1 -40.11)"/><path class="cls-14" d="M263,274a4.07,4.07,0,0,0-1.54,3.27c0,1.31.69,2,1.54,1.48a4.06,4.06,0,0,0,1.54-3.26C264.54,274.18,263.85,273.52,263,274Z" transform="translate(-61.1 -40.11)"/><path class="cls-14" d="M268.55,270.8a4.06,4.06,0,0,0-1.54,3.26c0,1.32.69,2,1.54,1.49a4.07,4.07,0,0,0,1.54-3.27C270.09,271,269.4,270.31,268.55,270.8Z" transform="translate(-61.1 -40.11)"/><path class="cls-15" d="M147.86,426.1l-.21-.12-4.12-2.38a4.32,4.32,0,0,1-2.12-3.14c0-.2,0-.4,0-.6V347l5,2.94v73.71a2.66,2.66,0,0,0,1.26,2.3.51.51,0,0,0,.13.09l0,0Z" transform="translate(-61.1 -40.11)"/></g><g class="cls-25"><path class="cls-14" d="M154.09,387.71l5.25-3c.53-.31,1-.06,1,.55v1.93a2.09,2.09,0,0,1-1,1.65l-5.25,3c-.53.31-1,.06-1-.55v-1.93A2.06,2.06,0,0,1,154.09,387.71Z" transform="translate(-61.1 -40.11)"/><path class="cls-14" d="M154.09,395.39l5.25-3c.53-.3,1-.06,1,.55v1.93a2.13,2.13,0,0,1-1,1.66l-5.25,3c-.53.3-1,.06-1-.55v-1.93A2.09,2.09,0,0,1,154.09,395.39Z" transform="translate(-61.1 -40.11)"/><path class="cls-14" d="M154.09,403.08l5.25-3c.53-.31,1-.06,1,.55v1.93a2.09,2.09,0,0,1-1,1.65l-5.25,3c-.53.31-1,.06-1-.55v-1.93A2.06,2.06,0,0,1,154.09,403.08Z" transform="translate(-61.1 -40.11)"/><path class="cls-14" d="M154.09,410.76l5.25-3c.53-.3,1-.06,1,.55v1.93a2.13,2.13,0,0,1-1,1.66l-5.25,3c-.53.3-1,.06-1-.55v-1.93A2.09,2.09,0,0,1,154.09,410.76Z" transform="translate(-61.1 -40.11)"/></g><g class="cls-25"><path class="cls-14" d="M154.09,353.44l5.25-3c.53-.31,1-.06,1,.55v1.93a2.09,2.09,0,0,1-1,1.65l-5.25,3c-.53.3-1,.05-1-.55v-1.94A2.09,2.09,0,0,1,154.09,353.44Z" transform="translate(-61.1 -40.11)"/><path class="cls-14" d="M154.09,361.13l5.25-3c.53-.3,1,0,1,.55v1.94a2.12,2.12,0,0,1-1,1.65l-5.25,3c-.53.3-1,.06-1-.55v-1.93A2.06,2.06,0,0,1,154.09,361.13Z" transform="translate(-61.1 -40.11)"/><path class="cls-14" d="M154.09,368.81l5.25-3c.53-.31,1-.06,1,.55v1.93a2.09,2.09,0,0,1-1,1.65l-5.25,3c-.53.3-1,.05-1-.56v-1.93A2.07,2.07,0,0,1,154.09,368.81Z" transform="translate(-61.1 -40.11)"/><path class="cls-14" d="M154.09,376.5l5.25-3c.53-.3,1-.06,1,.55v1.93a2.13,2.13,0,0,1-1,1.66l-5.25,3c-.53.3-1,.06-1-.55v-1.93A2.06,2.06,0,0,1,154.09,376.5Z" transform="translate(-61.1 -40.11)"/></g><path class="cls-1" d="M167.69,347.06l29.38-17c.54-.31,1-.09,1,.49a2.05,2.05,0,0,1-1,1.6l-29.38,17c-.53.3-1,.08-1-.49A2.1,2.1,0,0,1,167.69,347.06Z" transform="translate(-61.1 -40.11)"/><path class="cls-1" d="M167.65,372.34l45.08-26.09c.53-.31,1-.09,1,.49a2.07,2.07,0,0,1-1,1.6l-45.08,26.1c-.53.3-1,.09-1-.49A2.08,2.08,0,0,1,167.65,372.34Z" transform="translate(-61.1 -40.11)"/><path class="cls-1" d="M200.82,327.9l12.5-7.21c.53-.31,1-.09,1,.49a2.05,2.05,0,0,1-1,1.6L200.82,330c-.54.31-1,.09-1-.49A2.05,2.05,0,0,1,200.82,327.9Z" transform="translate(-61.1 -40.11)"/><path class="cls-1" d="M167.69,353.07l10.56-6.14c.53-.31,1-.09,1,.48a2.1,2.1,0,0,1-1,1.61l-10.56,6.14c-.53.31-1,.09-1-.48A2.1,2.1,0,0,1,167.69,353.07Z" transform="translate(-61.1 -40.11)"/><path class="cls-26" d="M167.69,353.07l10.56-6.14c.53-.31,1-.09,1,.48a2.1,2.1,0,0,1-1,1.61l-10.56,6.14c-.53.31-1,.09-1-.48A2.1,2.1,0,0,1,167.69,353.07Z" transform="translate(-61.1 -40.11)"/><path class="cls-1" d="M167.69,359.05l11.59-6.68c.54-.31,1-.09,1,.49a2,2,0,0,1-1,1.6l-11.59,6.68c-.53.31-1,.09-1-.49A2.06,2.06,0,0,1,167.69,359.05Z" transform="translate(-61.1 -40.11)"/><path class="cls-26" d="M167.69,359.05l11.59-6.68c.54-.31,1-.09,1,.49a2,2,0,0,1-1,1.6l-11.59,6.68c-.53.31-1,.09-1-.49A2.06,2.06,0,0,1,167.69,359.05Z" transform="translate(-61.1 -40.11)"/><path class="cls-1" d="M182,344.76l8.78-5.1c.54-.31,1-.09,1,.49a2.07,2.07,0,0,1-1,1.6L182,346.86c-.53.3-1,.08-1-.49A2.08,2.08,0,0,1,182,344.76Z" transform="translate(-61.1 -40.11)"/><path class="cls-26" d="M182,344.76l8.78-5.1c.54-.31,1-.09,1,.49a2.07,2.07,0,0,1-1,1.6L182,346.86c-.53.3-1,.08-1-.49A2.08,2.08,0,0,1,182,344.76Z" transform="translate(-61.1 -40.11)"/><path class="cls-27" d="M177.74,381.58l35.58-20.75c.53-.3,1-.09,1,.49a2.08,2.08,0,0,1-1,1.61l-35.58,20.74c-.53.31-1,.09-1-.48A2.08,2.08,0,0,1,177.74,381.58Z" transform="translate(-61.1 -40.11)"/><path class="cls-27" d="M177.74,375.61l35.58-20.78c.53-.31,1-.09,1,.49a2.05,2.05,0,0,1-1,1.6L177.74,377.7c-.53.31-1,.09-1-.48A2.08,2.08,0,0,1,177.74,375.61Z" transform="translate(-61.1 -40.11)"/><path class="cls-1" d="M182.38,350.6l10.36-6.07c.54-.31,1-.09,1,.49a2,2,0,0,1-1,1.6l-10.36,6.08c-.53.3-1,.08-1-.49A2.08,2.08,0,0,1,182.38,350.6Z" transform="translate(-61.1 -40.11)"/><path class="cls-26" d="M182.38,350.6l10.36-6.07c.54-.31,1-.09,1,.49a2,2,0,0,1-1,1.6l-10.36,6.08c-.53.3-1,.08-1-.49A2.08,2.08,0,0,1,182.38,350.6Z" transform="translate(-61.1 -40.11)"/><path class="cls-1" d="M196.49,342.37l16.26-9.18c.53-.31,1-.09,1,.49a2.05,2.05,0,0,1-1,1.6l-16.26,9.18c-.54.31-1,.09-1-.49A2.07,2.07,0,0,1,196.49,342.37Z" transform="translate(-61.1 -40.11)"/><path class="cls-26" d="M196.49,342.37l16.26-9.18c.53-.31,1-.09,1,.49a2.05,2.05,0,0,1-1,1.6l-16.26,9.18c-.54.31-1,.09-1-.49A2.07,2.07,0,0,1,196.49,342.37Z" transform="translate(-61.1 -40.11)"/><path class="cls-1" d="M167.65,365.35l25.09-14.41c.54-.3,1-.08,1,.49a2.07,2.07,0,0,1-1,1.61l-25.09,14.41c-.53.3-1,.09-1-.49A2.08,2.08,0,0,1,167.65,365.35Z" transform="translate(-61.1 -40.11)"/><path class="cls-26" d="M167.65,365.35l25.09-14.41c.54-.3,1-.08,1,.49a2.07,2.07,0,0,1-1,1.61l-25.09,14.41c-.53.3-1,.09-1-.49A2.08,2.08,0,0,1,167.65,365.35Z" transform="translate(-61.1 -40.11)"/><path class="cls-1" d="M196.49,348.78l16.26-9.17c.53-.31,1-.09,1,.48a2.08,2.08,0,0,1-1,1.61l-16.26,9.18c-.54.3-1,.08-1-.49A2.07,2.07,0,0,1,196.49,348.78Z" transform="translate(-61.1 -40.11)"/><path class="cls-26" d="M196.49,348.78l16.26-9.17c.53-.31,1-.09,1,.48a2.08,2.08,0,0,1-1,1.61l-16.26,9.18c-.54.3-1,.08-1-.49A2.07,2.07,0,0,1,196.49,348.78Z" transform="translate(-61.1 -40.11)"/><path class="cls-28" d="M177.74,387.63,213.32,367c.53-.31,1-.09,1,.49a2.08,2.08,0,0,1-1,1.6l-35.58,20.6c-.53.31-1,.09-1-.49A2.08,2.08,0,0,1,177.74,387.63Z" transform="translate(-61.1 -40.11)"/><path class="cls-28" d="M177.74,393.62,213.32,373c.53-.3,1-.09,1,.49a2.08,2.08,0,0,1-1,1.61l-35.58,20.6c-.53.31-1,.09-1-.49A2.07,2.07,0,0,1,177.74,393.62Z" transform="translate(-61.1 -40.11)"/><path class="cls-28" d="M177.74,399.6,213.32,379c.53-.31,1-.09,1,.49a2.07,2.07,0,0,1-1,1.6L177.74,401.7c-.53.3-1,.08-1-.49A2.08,2.08,0,0,1,177.74,399.6Z" transform="translate(-61.1 -40.11)"/><path class="cls-1" d="M167.89,380.45l4.47-2.56c.53-.31,1-.09,1,.49a2.09,2.09,0,0,1-1,1.6l-4.47,2.57c-.53.3-1,.08-1-.49A2.08,2.08,0,0,1,167.89,380.45Z" transform="translate(-61.1 -40.11)"/><path class="cls-26" d="M167.89,380.45l4.47-2.56c.53-.31,1-.09,1,.49a2.09,2.09,0,0,1-1,1.6l-4.47,2.57c-.53.3-1,.08-1-.49A2.08,2.08,0,0,1,167.89,380.45Z" transform="translate(-61.1 -40.11)"/><path class="cls-1" d="M167.89,393.33l4.47-2.57c.53-.31,1-.09,1,.49a2.09,2.09,0,0,1-1,1.6l-4.47,2.57c-.53.31-1,.09-1-.49A2.05,2.05,0,0,1,167.89,393.33Z" transform="translate(-61.1 -40.11)"/><path class="cls-26" d="M167.89,393.33l4.47-2.57c.53-.31,1-.09,1,.49a2.09,2.09,0,0,1-1,1.6l-4.47,2.57c-.53.31-1,.09-1-.49A2.05,2.05,0,0,1,167.89,393.33Z" transform="translate(-61.1 -40.11)"/><path class="cls-1" d="M167.89,399.31l4.47-2.57c.53-.3,1-.08,1,.49a2.1,2.1,0,0,1-1,1.61l-4.47,2.56c-.53.31-1,.09-1-.48A2.08,2.08,0,0,1,167.89,399.31Z" transform="translate(-61.1 -40.11)"/><path class="cls-26" d="M167.89,399.31l4.47-2.57c.53-.3,1-.08,1,.49a2.1,2.1,0,0,1-1,1.61l-4.47,2.56c-.53.31-1,.09-1-.48A2.08,2.08,0,0,1,167.89,399.31Z" transform="translate(-61.1 -40.11)"/><path class="cls-1" d="M167.89,405.3l4.47-2.57c.53-.31,1-.09,1,.49a2.08,2.08,0,0,1-1,1.6l-4.47,2.57c-.53.31-1,.09-1-.49A2.07,2.07,0,0,1,167.89,405.3Z" transform="translate(-61.1 -40.11)"/><path class="cls-26" d="M167.89,405.3l4.47-2.57c.53-.31,1-.09,1,.49a2.08,2.08,0,0,1-1,1.6l-4.47,2.57c-.53.31-1,.09-1-.49A2.07,2.07,0,0,1,167.89,405.3Z" transform="translate(-61.1 -40.11)"/><path class="cls-12" d="M263,290.75l-37.68,21.76a5.59,5.59,0,0,0-2.53,4.38v56.76c0,1.61,1.13,2.27,2.53,1.46L263,353.35a5.58,5.58,0,0,0,2.53-4.38V292.21C265.54,290.6,264.41,290,263,290.75Z" transform="translate(-61.1 -40.11)"/><path class="cls-1" d="M259.51,333.88l-3.47,2a2.77,2.77,0,0,0-1.28,2.13c0,.76.58,1.05,1.28.64l3.47-2a2.74,2.74,0,0,0,1.28-2.13C260.79,333.77,260.22,333.48,259.51,333.88Z" transform="translate(-61.1 -40.11)"/><path class="cls-26" d="M259.51,333.88l-3.47,2a2.77,2.77,0,0,0-1.28,2.13c0,.76.58,1.05,1.28.64l3.47-2a2.74,2.74,0,0,0,1.28-2.13C260.79,333.77,260.22,333.48,259.51,333.88Z" transform="translate(-61.1 -40.11)"/><path class="cls-1" d="M259.51,298.25l-3.47,2a2.77,2.77,0,0,0-1.28,2.12c0,.77.58,1.06,1.28.65l3.47-2a2.74,2.74,0,0,0,1.28-2.13C260.79,298.13,260.22,297.84,259.51,298.25Z" transform="translate(-61.1 -40.11)"/><path class="cls-26" d="M259.51,298.25l-3.47,2a2.77,2.77,0,0,0-1.28,2.12c0,.77.58,1.06,1.28.65l3.47-2a2.74,2.74,0,0,0,1.28-2.13C260.79,298.13,260.22,297.84,259.51,298.25Z" transform="translate(-61.1 -40.11)"/><path class="cls-1" d="M254.64,308.18l-3.47,2a2.74,2.74,0,0,0-1.28,2.13c0,.77.57,1.06,1.28.65l3.47-2a2.77,2.77,0,0,0,1.28-2.12C255.92,308.06,255.34,307.77,254.64,308.18Z" transform="translate(-61.1 -40.11)"/><path class="cls-26" d="M254.64,308.18l-3.47,2a2.74,2.74,0,0,0-1.28,2.13c0,.77.57,1.06,1.28.65l3.47-2a2.77,2.77,0,0,0,1.28-2.12C255.92,308.06,255.34,307.77,254.64,308.18Z" transform="translate(-61.1 -40.11)"/><path class="cls-1" d="M254.64,315.29l-3.47,2a2.74,2.74,0,0,0-1.28,2.13c0,.76.57,1.05,1.28.65l3.47-2a2.77,2.77,0,0,0,1.28-2.13C255.92,315.17,255.34,314.88,254.64,315.29Z" transform="translate(-61.1 -40.11)"/><path class="cls-26" d="M254.64,315.29l-3.47,2a2.74,2.74,0,0,0-1.28,2.13c0,.76.57,1.05,1.28.65l3.47-2a2.77,2.77,0,0,0,1.28-2.13C255.92,315.17,255.34,314.88,254.64,315.29Z" transform="translate(-61.1 -40.11)"/><path class="cls-1" d="M259.51,319.63l-3.47,2a2.77,2.77,0,0,0-1.28,2.13c0,.77.58,1.06,1.28.65l3.47-2a2.74,2.74,0,0,0,1.28-2.13C260.79,319.51,260.22,319.22,259.51,319.63Z" transform="translate(-61.1 -40.11)"/><path class="cls-26" d="M259.51,319.63l-3.47,2a2.77,2.77,0,0,0-1.28,2.13c0,.77.58,1.06,1.28.65l3.47-2a2.74,2.74,0,0,0,1.28-2.13C260.79,319.51,260.22,319.22,259.51,319.63Z" transform="translate(-61.1 -40.11)"/><path class="cls-1" d="M254.64,329.56l-3.47,2a2.76,2.76,0,0,0-1.28,2.13c0,.77.57,1.06,1.28.65l3.47-2a2.77,2.77,0,0,0,1.28-2.12C255.92,329.44,255.34,329.15,254.64,329.56Z" transform="translate(-61.1 -40.11)"/><path class="cls-26" d="M254.64,329.56l-3.47,2a2.76,2.76,0,0,0-1.28,2.13c0,.77.57,1.06,1.28.65l3.47-2a2.77,2.77,0,0,0,1.28-2.12C255.92,329.44,255.34,329.15,254.64,329.56Z" transform="translate(-61.1 -40.11)"/><path class="cls-1" d="M250,303.74,228.83,316a2.74,2.74,0,0,0-1.28,2.13c0,.76.57,1,1.28.65L250,306.51a2.72,2.72,0,0,0,1.28-2.12C251.29,303.62,250.72,303.33,250,303.74Z" transform="translate(-61.1 -40.11)"/><path class="cls-29" d="M250,303.74,228.83,316a2.74,2.74,0,0,0-1.28,2.13c0,.76.57,1,1.28.65L250,306.51a2.72,2.72,0,0,0,1.28-2.12C251.29,303.62,250.72,303.33,250,303.74Z" transform="translate(-61.1 -40.11)"/><path class="cls-1" d="M250,339.37,228.83,351.6a2.74,2.74,0,0,0-1.28,2.13c0,.77.57,1.06,1.28.65L250,342.15a2.74,2.74,0,0,0,1.28-2.13C251.29,339.25,250.72,339,250,339.37Z" transform="translate(-61.1 -40.11)"/><path class="cls-29" d="M250,339.37,228.83,351.6a2.74,2.74,0,0,0-1.28,2.13c0,.77.57,1.06,1.28.65L250,342.15a2.74,2.74,0,0,0,1.28-2.13C251.29,339.25,250.72,339,250,339.37Z" transform="translate(-61.1 -40.11)"/><path class="cls-1" d="M245.14,313.66l-16.31,9.44a2.74,2.74,0,0,0-1.28,2.12c0,.77.57,1.06,1.28.65l16.31-9.43a2.74,2.74,0,0,0,1.28-2.13C246.42,313.55,245.85,313.26,245.14,313.66Z" transform="translate(-61.1 -40.11)"/><path class="cls-29" d="M245.14,313.66l-16.31,9.44a2.74,2.74,0,0,0-1.28,2.12c0,.77.57,1.06,1.28.65l16.31-9.43a2.74,2.74,0,0,0,1.28-2.13C246.42,313.55,245.85,313.26,245.14,313.66Z" transform="translate(-61.1 -40.11)"/><path class="cls-1" d="M245.14,320.79l-16.31,9.43a2.76,2.76,0,0,0-1.28,2.13c0,.77.57,1.06,1.28.65l16.31-9.44a2.72,2.72,0,0,0,1.28-2.12C246.42,320.67,245.85,320.38,245.14,320.79Z" transform="translate(-61.1 -40.11)"/><path class="cls-29" d="M245.14,320.79l-16.31,9.43a2.76,2.76,0,0,0-1.28,2.13c0,.77.57,1.06,1.28.65l16.31-9.44a2.72,2.72,0,0,0,1.28-2.12C246.42,320.67,245.85,320.38,245.14,320.79Z" transform="translate(-61.1 -40.11)"/><path class="cls-1" d="M250,325.12l-21.18,12.23a2.74,2.74,0,0,0-1.28,2.13c0,.76.57,1,1.28.65L250,327.89a2.72,2.72,0,0,0,1.28-2.12C251.29,325,250.72,324.71,250,325.12Z" transform="translate(-61.1 -40.11)"/><path class="cls-29" d="M250,325.12l-21.18,12.23a2.74,2.74,0,0,0-1.28,2.13c0,.76.57,1,1.28.65L250,327.89a2.72,2.72,0,0,0,1.28-2.12C251.29,325,250.72,324.71,250,325.12Z" transform="translate(-61.1 -40.11)"/><path class="cls-1" d="M245.14,335.05l-16.31,9.43a2.74,2.74,0,0,0-1.28,2.12c0,.77.57,1.06,1.28.65l16.31-9.43a2.74,2.74,0,0,0,1.28-2.13C246.42,334.93,245.85,334.64,245.14,335.05Z" transform="translate(-61.1 -40.11)"/><path class="cls-29" d="M245.14,335.05l-16.31,9.43a2.74,2.74,0,0,0-1.28,2.12c0,.77.57,1.06,1.28.65l16.31-9.43a2.74,2.74,0,0,0,1.28-2.13C246.42,334.93,245.85,334.64,245.14,335.05Z" transform="translate(-61.1 -40.11)"/><path class="cls-1" d="M259.51,348.21l-3.47,2a2.77,2.77,0,0,0-1.28,2.13c0,.76.58,1,1.28.65l3.47-2a2.74,2.74,0,0,0,1.28-2.13C260.79,348.1,260.22,347.81,259.51,348.21Z" transform="translate(-61.1 -40.11)"/><path class="cls-26" d="M259.51,348.21l-3.47,2a2.77,2.77,0,0,0-1.28,2.13c0,.76.58,1,1.28.65l3.47-2a2.74,2.74,0,0,0,1.28-2.13C260.79,348.1,260.22,347.81,259.51,348.21Z" transform="translate(-61.1 -40.11)"/><path class="cls-1" d="M254.64,343.89l-3.47,2a2.72,2.72,0,0,0-1.28,2.12c0,.77.57,1.06,1.28.65l3.47-2a2.75,2.75,0,0,0,1.28-2.12C255.92,343.77,255.34,343.48,254.64,343.89Z" transform="translate(-61.1 -40.11)"/><path class="cls-26" d="M254.64,343.89l-3.47,2a2.72,2.72,0,0,0-1.28,2.12c0,.77.57,1.06,1.28.65l3.47-2a2.75,2.75,0,0,0,1.28-2.12C255.92,343.77,255.34,343.48,254.64,343.89Z" transform="translate(-61.1 -40.11)"/><path class="cls-1" d="M250,353.7l-21.18,12.23a2.74,2.74,0,0,0-1.28,2.13c0,.77.57,1.06,1.28.65L250,356.48a2.74,2.74,0,0,0,1.28-2.13C251.29,353.58,250.72,353.29,250,353.7Z" transform="translate(-61.1 -40.11)"/><path class="cls-29" d="M250,353.7l-21.18,12.23a2.74,2.74,0,0,0-1.28,2.13c0,.77.57,1.06,1.28.65L250,356.48a2.74,2.74,0,0,0,1.28-2.13C251.29,353.58,250.72,353.29,250,353.7Z" transform="translate(-61.1 -40.11)"/><path class="cls-1" d="M245.14,349.38l-16.31,9.43a2.74,2.74,0,0,0-1.28,2.12c0,.77.57,1.06,1.28.65l16.31-9.43a2.74,2.74,0,0,0,1.28-2.13C246.42,349.26,245.85,349,245.14,349.38Z" transform="translate(-61.1 -40.11)"/><path class="cls-29" d="M245.14,349.38l-16.31,9.43a2.74,2.74,0,0,0-1.28,2.12c0,.77.57,1.06,1.28.65l16.31-9.43a2.74,2.74,0,0,0,1.28-2.13C246.42,349.26,245.85,349,245.14,349.38Z" transform="translate(-61.1 -40.11)"/></g><g id="Code_Icon-2" data-name="Code Icon"><g class="cls-16"><path d="M139.22,272.79l41.51-24c.67-.39,1.22-.07,1.22.71v36.13a2.68,2.68,0,0,1-1.22,2.11l-41.51,24c-.68.38-1.22.07-1.22-.71V274.91A2.69,2.69,0,0,1,139.22,272.79Z" transform="translate(-61.1 -40.11)"/></g><g id="Speach_Bubble" data-name="Speach Bubble"><path class="cls-1" d="M179,254.19l-36.44,21a3,3,0,0,0-1.34,2.33v33.77a2.91,2.91,0,0,0,1.35,2.31l2.56,1.46a3,3,0,0,0,2.7,0l36.43-21a3,3,0,0,0,1.35-2.33V258a3,3,0,0,0-1.35-2.32l-2.57-1.45A3,3,0,0,0,179,254.19Z" transform="translate(-61.1 -40.11)"/><path class="cls-21" d="M147.83,315.06a3.08,3.08,0,0,1-2.7,0l-2.56-1.46a2.92,2.92,0,0,1-1.35-2.31V277.54a2.72,2.72,0,0,1,.43-1.38l5.23,3a2.7,2.7,0,0,0-.4,1.33v33.77C146.48,315.07,147,315.52,147.83,315.06Z" transform="translate(-61.1 -40.11)"/><g class="cls-16"><path class="cls-14" d="M185.59,257.7c-.1-.67-.66-.92-1.33-.53l-36.43,21a2.7,2.7,0,0,0-1,1l-5.24-3a2.63,2.63,0,0,1,.92-1l36.44-21a3,3,0,0,1,2.7,0l2.56,1.46A3,3,0,0,1,185.59,257.7Z" transform="translate(-61.1 -40.11)"/></g><path class="cls-1" d="M184.26,257.17l-36.43,21a3,3,0,0,0-1.35,2.33v33.77c0,.86.61,1.2,1.35.77l36.43-21a3,3,0,0,0,1.35-2.33V258C185.61,257.09,185,256.74,184.26,257.17Z" transform="translate(-61.1 -40.11)"/></g><g id="_" data-name="&lt;/&gt;"><path class="cls-14" d="M150.09,295a2.09,2.09,0,0,1,.15-.83,5.28,5.28,0,0,1,.43-.78l7.94-12.84.13-.16.09-.06a.23.23,0,0,1,.3,0,.54.54,0,0,1,.12.39v4.95a2.22,2.22,0,0,1-.23,1c-.16.28-.29.5-.41.67l-3.48,5.34,3.48,1.36a1.8,1.8,0,0,1,.41.19c.15.1.23.35.23.76V300a1.24,1.24,0,0,1-.12.53.71.71,0,0,1-.3.35l-.09,0h-.13l-7.94-3.67a1.08,1.08,0,0,1-.43-.29,1,1,0,0,1-.15-.66Z" transform="translate(-61.1 -40.11)"/><path class="cls-14" d="M167.41,273.24a3.35,3.35,0,0,1,.3-.79,1.45,1.45,0,0,1,.57-.63l2.66-1.53a.24.24,0,0,1,.31,0,.51.51,0,0,1,.13.4,1.24,1.24,0,0,1,0,.3l-6.71,28.61a4.58,4.58,0,0,1-.28.77,1.45,1.45,0,0,1-.6.65l-2.6,1.5a.24.24,0,0,1-.31,0,.58.58,0,0,1-.13-.4,1.33,1.33,0,0,1,0-.3Z" transform="translate(-61.1 -40.11)"/><path class="cls-14" d="M182,277.87a2.3,2.3,0,0,1-.14.84,6.4,6.4,0,0,1-.43.78l-8,12.84a.69.69,0,0,1-.13.15l-.08.07a.24.24,0,0,1-.3,0,.54.54,0,0,1-.12-.39v-5a2,2,0,0,1,.23-1c.15-.27.29-.5.4-.67l3.48-5.37-3.48-1.32a2,2,0,0,1-.4-.21c-.16-.11-.23-.36-.23-.77v-4.95a1.21,1.21,0,0,1,.12-.53.79.79,0,0,1,.3-.36.19.19,0,0,1,.08,0,.28.28,0,0,1,.13,0l8,3.67a1.05,1.05,0,0,1,.43.29,1.11,1.11,0,0,1,.14.66Z" transform="translate(-61.1 -40.11)"/></g></g><g id="Chart-2" data-name="Chart"><g class="cls-16"><path d="M139.22,222.1l41.51-24c.67-.39,1.22-.07,1.22.7V235a2.7,2.7,0,0,1-1.22,2.11l-41.51,24c-.68.39-1.22.08-1.22-.7V224.22A2.69,2.69,0,0,1,139.22,222.1Z" transform="translate(-61.1 -40.11)"/></g><g id="Speach_Bubble-2" data-name="Speach Bubble"><path class="cls-1" d="M179,203.73l-36.44,21a3,3,0,0,0-1.34,2.33v33.77a2.93,2.93,0,0,0,1.35,2.32l2.56,1.45a3,3,0,0,0,2.7,0l36.43-21a3,3,0,0,0,1.35-2.33V207.49a3,3,0,0,0-1.35-2.32l-2.57-1.45A3,3,0,0,0,179,203.73Z" transform="translate(-61.1 -40.11)"/><path class="cls-21" d="M147.83,264.61a3.08,3.08,0,0,1-2.7,0l-2.56-1.45a3,3,0,0,1-1.35-2.32V227.08a2.65,2.65,0,0,1,.43-1.37l5.23,3a2.63,2.63,0,0,0-.4,1.32v33.77C146.48,264.61,147,265.07,147.83,264.61Z" transform="translate(-61.1 -40.11)"/><g class="cls-16"><path class="cls-14" d="M185.59,207.25c-.1-.68-.66-.92-1.33-.54l-36.43,21a2.73,2.73,0,0,0-1,1l-5.24-3a2.58,2.58,0,0,1,.92-1l36.44-21a3,3,0,0,1,2.7,0l2.56,1.45A3,3,0,0,1,185.59,207.25Z" transform="translate(-61.1 -40.11)"/></g><path class="cls-4" d="M147.23,264.25c-.18,0-.21-.26-.21-.42V230.06a2.46,2.46,0,0,1,1.08-1.86l36.43-21a.65.65,0,0,1,.34-.11c.17,0,.2.26.2.42v33.77a2.47,2.47,0,0,1-1.07,1.87l-36.44,21a.65.65,0,0,1-.33.11Z" transform="translate(-61.1 -40.11)"/><path class="cls-1" d="M184.53,207.8v33.46a2,2,0,0,1-.8,1.4l-36.17,20.86V230.06a1.94,1.94,0,0,1,.81-1.4l36.16-20.86m.34-1.27a1.28,1.28,0,0,0-.61.18l-36.43,21a3,3,0,0,0-1.35,2.33v33.77c0,.61.31,1,.75,1a1.27,1.27,0,0,0,.6-.18l36.43-21a3,3,0,0,0,1.35-2.33V207.49c0-.61-.3-1-.74-1Z" transform="translate(-61.1 -40.11)"/></g><g id="Bar_graph" data-name="Bar graph"><polygon class="cls-1" points="114.55 202.83 114.55 179.42 112.46 178.21 112.46 201.62 114.55 202.83"/><polygon class="cls-21" points="114.55 202.83 114.55 179.42 112.46 178.21 112.46 201.62 114.55 202.83"/><polygon class="cls-1" points="114.55 202.83 120.61 199.33 120.61 175.92 114.55 179.42 114.55 202.83"/><polygon class="cls-1" points="120.61 175.92 118.52 174.71 112.46 178.21 114.55 179.42 120.61 175.92"/><polygon class="cls-20" points="120.61 175.92 118.52 174.71 112.46 178.21 114.55 179.42 120.61 175.92"/><path class="cls-22" d="M181.71,216l-6.06,3.41-2.09-1.12,2,1.34c0,.68,0,22.58.08,23.28.09-.7.13-22.64.08-23.3Z" transform="translate(-61.1 -40.11)"/><polygon class="cls-1" points="103.18 209.39 103.18 190.59 101.09 189.38 101.09 208.18 103.18 209.39"/><polygon class="cls-30" points="103.18 209.39 103.18 190.59 101.09 189.38 101.09 208.18 103.18 209.39"/><polygon class="cls-1" points="103.18 209.39 109.24 205.89 109.24 187.09 103.18 190.59 103.18 209.39"/><polygon class="cls-22" points="103.18 209.39 109.24 205.89 109.24 187.09 103.18 190.59 103.18 209.39"/><polygon class="cls-1" points="109.24 187.09 107.15 185.88 101.09 189.38 103.18 190.59 109.24 187.09"/><polygon class="cls-31" points="109.24 187.09 107.15 185.88 101.09 189.38 103.18 190.59 109.24 187.09"/><path class="cls-22" d="M164.36,230.74l6-3.54-6.07,3.41c-.66-.37-2.09-1.12-2.09-1.12s1.34.86,2,1.25c0,.71,0,18,.08,18.76C164.33,248.78,164.38,231.43,164.36,230.74Z" transform="translate(-61.1 -40.11)"/><polygon class="cls-1" points="91.81 215.95 91.81 200.17 89.72 198.96 89.72 214.75 91.81 215.95"/><polygon class="cls-32" points="91.81 215.95 91.81 200.17 89.72 198.96 89.72 214.75 91.81 215.95"/><polygon class="cls-1" points="91.81 215.95 97.87 212.45 97.88 196.67 91.81 200.17 91.81 215.95"/><polygon class="cls-33" points="91.81 215.95 97.87 212.45 97.88 196.67 91.81 200.17 91.81 215.95"/><polygon class="cls-1" points="97.88 196.67 95.79 195.46 89.72 198.96 91.81 200.17 97.88 196.67"/><polygon class="cls-17" points="97.88 196.67 95.79 195.46 89.72 198.96 91.81 200.17 97.88 196.67"/><path class="cls-22" d="M159,236.78l-6.07,3.41-2.08-1.12,2,1.31s0,15.25.09,15.68c.09-.43.08-15.67.08-15.67Z" transform="translate(-61.1 -40.11)"/></g></g></g></svg>