<svg id="Group_1955" data-name="Group 1955" xmlns="http://www.w3.org/2000/svg" width="188.298" height="160.607" viewBox="0 0 188.298 160.607">
  <path id="Polygon_3" data-name="Polygon 3" d="M82.237,8.832a20,20,0,0,1,23.823,0l60.568,44.907a20,20,0,0,1,0,32.132l-60.568,44.907a20,20,0,0,1-23.823,0L21.669,85.871a20,20,0,0,1,0-32.132Z" transform="translate(0 20.997)" fill="#d973bd" opacity="0.5"/>
  <path id="Polygon_1" data-name="Polygon 1" d="M82.237,8.832a20,20,0,0,1,23.823,0l60.568,44.907a20,20,0,0,1,0,32.132l-60.568,44.907a20,20,0,0,1-23.823,0L21.669,85.871a20,20,0,0,1,0-32.132Z" fill="#d973bd"/>
  <g id="diagram" transform="translate(59.536 31.844)">
    <path id="Path_15924" data-name="Path 15924" d="M60.479,208.851H58.532V172.831a1.825,1.825,0,0,0-1.825-1.825h-7.3a1.825,1.825,0,0,0-1.825,1.825v36.019H43.929V185a1.825,1.825,0,0,0-1.825-1.825H34.8A1.825,1.825,0,0,0,32.977,185v23.851H29.327V191.693a1.825,1.825,0,0,0-1.825-1.825H20.2a1.825,1.825,0,0,0-1.825,1.825v17.158H14.724V196.074a1.825,1.825,0,0,0-1.825-1.825H5.6a1.825,1.825,0,0,0-1.825,1.825v12.777H1.825a1.825,1.825,0,1,0,0,3.651H60.479a1.825,1.825,0,0,0,0-3.651Z" transform="translate(0 -150.197)" fill="#fff"/>
    <path id="Path_15925" data-name="Path 15925" d="M1.825,39.224c11.392,0,23.746-4.091,34.786-11.521C45.258,21.885,52.466,14.452,56.943,6.84l1.773,6.616a1.977,1.977,0,0,0,2.236,1.291,1.808,1.808,0,0,0,1.291-2.236L59.253,1.356A1.825,1.825,0,0,0,57.017.066L45.862,3.055a1.825,1.825,0,1,0,.945,3.526l7.186-1.926c-4.177,7.258-11.08,14.407-19.42,20.019C24.129,31.7,12.5,35.573,1.825,35.573a1.825,1.825,0,0,0,0,3.651Z" transform="translate(0 -0.003)" fill="#fff"/>
  </g>
</svg>
