<svg width="16" height="16" viewBox="0 0 600.000000 980.000000" preserveAspectRatio="xMidYMid meet">
    <g transform="translate(0.000000,980.000000) scale(0.100000,-0.100000)" fill="currentColor" stroke="none">
        <path d="M5090 9794 c-149 -29 -289 -92 -380 -171 -162 -142 -4474 -4184 -4523 -4240 -117 -135 -177 -305 -177 -498 0 -181 55 -342 160 -473 59 -73 4536 -4221 4614 -4274 71 -49 161 -91 247 -114 98 -27 290 -25 393 4 341 98 566 392 566 741 -1 234 -73 402 -247 573 -43 42 -919 855 -1948 1807 -1028 952 -1871 1735 -1873 1739 -1 5 857 813 1908 1796 1051 984 1933 1814 1961 1845 64 71 142 229 165 335 25 116 16 294 -20 401 -84 248 -291 444 -541 511 -59 15 -256 27 -305 18z"/>
    </g>
</svg>
