<svg xmlns="http://www.w3.org/2000/svg" xmlns:xlink="http://www.w3.org/1999/xlink" viewBox="0 0 2808.83 2800"><defs><style>.cls-1{isolation:isolate;}.cls-2,.cls-3{opacity:0.3;}.cls-2{fill:url(#linear-gradient);}.cls-4{fill:url(#linear-gradient-2);}.cls-5{fill:url(#linear-gradient-3);}.cls-6{fill:url(#linear-gradient-4);}.cls-7{fill:url(#linear-gradient-5);}.cls-8{fill:url(#linear-gradient-6);}.cls-9{fill:url(#linear-gradient-7);}.cls-10,.cls-17,.cls-24,.cls-26,.cls-30,.cls-51{fill:#fff;}.cls-10{opacity:0.56;}.cls-11{fill:url(#linear-gradient-8);}.cls-12{fill:url(#linear-gradient-9);}.cls-13{fill:url(#linear-gradient-10);}.cls-14{fill:url(#linear-gradient-11);}.cls-15{fill:url(#linear-gradient-12);}.cls-16{fill:url(#linear-gradient-13);}.cls-17{mix-blend-mode:soft-light;}.cls-18{fill:url(#linear-gradient-14);}.cls-19{fill:url(#linear-gradient-15);}.cls-20{fill:url(#linear-gradient-16);}.cls-21{fill:url(#linear-gradient-17);}.cls-22{fill:url(#linear-gradient-18);}.cls-23{fill:url(#linear-gradient-19);}.cls-24{opacity:0.36;}.cls-25{fill:url(#linear-gradient-20);}.cls-26{opacity:0.57;}.cls-27{fill:url(#linear-gradient-21);}.cls-28{fill:url(#linear-gradient-22);}.cls-29{fill:url(#linear-gradient-23);}.cls-30{opacity:0.64;}.cls-31{fill:url(#linear-gradient-24);}.cls-32{fill:url(#linear-gradient-25);}.cls-33{fill:url(#linear-gradient-26);}.cls-34{fill:url(#linear-gradient-27);}.cls-35{fill:url(#linear-gradient-28);}.cls-36{fill:url(#linear-gradient-29);}.cls-37{fill:url(#linear-gradient-30);}.cls-38{fill:url(#linear-gradient-31);}.cls-39{fill:url(#linear-gradient-32);}.cls-40{fill:url(#linear-gradient-33);}.cls-41{fill:url(#linear-gradient-34);}.cls-42{fill:url(#linear-gradient-35);}.cls-43{fill:url(#linear-gradient-36);}.cls-44{fill:url(#linear-gradient-37);}.cls-45{fill:url(#linear-gradient-38);}.cls-46{fill:url(#linear-gradient-39);}.cls-47{fill:url(#linear-gradient-40);}.cls-48{fill:url(#linear-gradient-41);}.cls-49{fill:url(#linear-gradient-42);}.cls-50{fill:url(#linear-gradient-43);}.cls-52{fill:url(#linear-gradient-44);}.cls-53{fill:url(#linear-gradient-45);}.cls-54{fill:url(#linear-gradient-46);}.cls-55{fill:url(#linear-gradient-47);}.cls-56{fill:url(#linear-gradient-48);}.cls-57{fill:url(#linear-gradient-49);}.cls-58{fill:url(#linear-gradient-50);}.cls-59{fill:url(#linear-gradient-51);}.cls-60{fill:url(#linear-gradient-52);}.cls-61{fill:url(#linear-gradient-53);}.cls-62{fill:url(#linear-gradient-54);}.cls-63{fill:url(#linear-gradient-55);}.cls-64{fill:url(#linear-gradient-56);}.cls-65{fill:url(#linear-gradient-57);}.cls-66{fill:url(#linear-gradient-58);}</style><linearGradient id="linear-gradient" x1="3373.46" y1="3609.05" x2="1372.3" y2="1449.08" gradientUnits="userSpaceOnUse"><stop offset="0" stop-color="#b37cff"/><stop offset="1" stop-color="#f895e7"/></linearGradient><linearGradient id="linear-gradient-2" x1="1253.73" y1="191.97" x2="1745.15" y2="191.97" gradientTransform="translate(-388.85 261.59) rotate(10.31)" xlink:href="#linear-gradient"/><linearGradient id="linear-gradient-3" x1="1769.04" y1="62.51" x2="1797.74" y2="62.51" gradientTransform="translate(-388.85 261.59) rotate(10.31)" xlink:href="#linear-gradient"/><linearGradient id="linear-gradient-4" x1="1918.03" y1="281.82" x2="1937.72" y2="281.82" gradientTransform="translate(-388.85 261.59) rotate(10.31)" xlink:href="#linear-gradient"/><linearGradient id="linear-gradient-5" x1="1435.76" y1="505.85" x2="1941.93" y2="505.85" gradientTransform="translate(-388.85 261.59) rotate(10.31)" xlink:href="#linear-gradient"/><linearGradient id="linear-gradient-6" x1="1385.3" y1="612.56" x2="1413.64" y2="612.56" gradientTransform="translate(-388.85 261.59) rotate(10.31)" xlink:href="#linear-gradient"/><linearGradient id="linear-gradient-7" x1="2764.71" y1="851.55" x2="959.16" y2="58.87" gradientTransform="translate(-388.85 261.59) rotate(10.31)" gradientUnits="userSpaceOnUse"><stop offset="0" stop-color="#a737d5"/><stop offset="1" stop-color="#ef497a"/></linearGradient><linearGradient id="linear-gradient-8" x1="961.42" y1="601.29" x2="975.42" y2="601.29" gradientTransform="translate(-388.85 261.59) rotate(10.31)" xlink:href="#linear-gradient"/><linearGradient id="linear-gradient-9" x1="955.74" y1="443.92" x2="1230.27" y2="443.92" gradientTransform="translate(-388.85 261.59) rotate(10.31)" xlink:href="#linear-gradient"/><linearGradient id="linear-gradient-10" x1="1078.27" y1="707.1" x2="1391.61" y2="707.1" gradientTransform="translate(-388.85 261.59) rotate(10.31)" xlink:href="#linear-gradient"/><linearGradient id="linear-gradient-11" x1="1043.83" y1="726.71" x2="1065.26" y2="726.71" gradientTransform="translate(-388.85 261.59) rotate(10.31)" xlink:href="#linear-gradient"/><linearGradient id="linear-gradient-12" x1="2623.06" y1="1173.74" x2="817.51" y2="381.06" xlink:href="#linear-gradient-7"/><linearGradient id="linear-gradient-13" x1="1002.36" y1="3257.25" x2="2125.4" y2="3257.25" gradientTransform="matrix(-0.87, 0.5, 0.5, 0.87, 2450.07, -2246.18)" xlink:href="#linear-gradient-7"/><linearGradient id="linear-gradient-14" x1="-3262.63" y1="581.24" x2="-1929.57" y2="581.24" gradientTransform="matrix(-0.34, -0.94, -0.94, 0.34, 2747.15, -1232.62)" gradientUnits="userSpaceOnUse"><stop offset="0" stop-color="#ce1567"/><stop offset="1" stop-color="#7a1dbc"/></linearGradient><linearGradient id="linear-gradient-15" x1="1444.8" y1="2597.81" x2="1417.35" y2="2054.2" gradientUnits="userSpaceOnUse"><stop offset="0" stop-color="#2b3582"/><stop offset="1" stop-color="#150e42"/></linearGradient><linearGradient id="linear-gradient-16" x1="469.12" y1="1790.25" x2="3168.04" y2="1790.25" xlink:href="#linear-gradient-15"/><linearGradient id="linear-gradient-17" x1="1768.69" y1="2785.82" x2="2021.49" y2="-3928.44" gradientUnits="userSpaceOnUse"><stop offset="0" stop-color="#53d8ff"/><stop offset="1" stop-color="#3840f7"/></linearGradient><linearGradient id="linear-gradient-18" x1="1900.31" y1="2844.83" x2="1577.49" y2="3553.61" xlink:href="#linear-gradient-15"/><linearGradient id="linear-gradient-19" x1="1510.39" y1="5678.28" x2="1975.53" y2="-1278.63" xlink:href="#linear-gradient-17"/><linearGradient id="linear-gradient-20" x1="1988.92" y1="-1111.6" x2="1647.67" y2="2061.96" xlink:href="#linear-gradient-17"/><linearGradient id="linear-gradient-21" x1="727.81" y1="1058.45" x2="1177.72" y2="-53.69" gradientTransform="translate(1681.94 265.55) rotate(76.88)" xlink:href="#linear-gradient-17"/><linearGradient id="linear-gradient-22" x1="810.03" y1="1091.71" x2="1259.94" y2="-20.42" gradientTransform="translate(1755.9 172.37) rotate(76.88)" xlink:href="#linear-gradient-17"/><linearGradient id="linear-gradient-23" x1="890.32" y1="1124.19" x2="1340.23" y2="12.06" gradientTransform="translate(1095.73 -260.9) rotate(45)" xlink:href="#linear-gradient-17"/><linearGradient id="linear-gradient-24" x1="1785.03" y1="815.27" x2="2098.5" y2="-873.4" xlink:href="#linear-gradient-17"/><linearGradient id="linear-gradient-25" x1="-101.56" y1="3126.06" x2="-580.97" y2="3647.53" gradientTransform="matrix(-1, 0.01, 0.01, 1, 2356.98, -63.47)" xlink:href="#linear-gradient-15"/><linearGradient id="linear-gradient-26" x1="-257.17" y1="3164.79" x2="-214.59" y2="3164.79" gradientTransform="matrix(-1, 0.01, 0.01, 1, 2356.98, -63.47)" gradientUnits="userSpaceOnUse"><stop offset="0" stop-color="#f9b776"/><stop offset="1" stop-color="#f47960"/></linearGradient><linearGradient id="linear-gradient-27" x1="-63.78" y1="2536.29" x2="-471.75" y2="3089.24" gradientTransform="matrix(-1, 0.01, 0.01, 1, 2356.98, -63.47)" gradientUnits="userSpaceOnUse"><stop offset="0" stop-color="#cb236d"/><stop offset="1" stop-color="#4c246d"/></linearGradient><linearGradient id="linear-gradient-28" x1="-209.11" y1="3027.17" x2="-688.54" y2="3548.66" gradientTransform="matrix(-1, 0.01, 0.01, 1, 2356.98, -63.47)" xlink:href="#linear-gradient-15"/><linearGradient id="linear-gradient-29" x1="-410.65" y1="3162.6" x2="-373.88" y2="3162.6" xlink:href="#linear-gradient-26"/><linearGradient id="linear-gradient-30" x1="-136.49" y1="2482.65" x2="-544.45" y2="3035.59" xlink:href="#linear-gradient-27"/><linearGradient id="linear-gradient-31" x1="-5287.12" y1="2192.1" x2="-5679.4" y2="2749.55" gradientTransform="matrix(-1, 0, 0, 1, -2616.98, 0)" gradientUnits="userSpaceOnUse"><stop offset="0" stop-color="#fdf53f"/><stop offset="0.66" stop-color="#e57a58"/><stop offset="1" stop-color="#d93c65"/></linearGradient><linearGradient id="linear-gradient-32" x1="-81.89" y1="2053.79" x2="135.68" y2="2053.79" xlink:href="#linear-gradient-26"/><linearGradient id="linear-gradient-33" x1="10359.52" y1="2016.39" x2="10505.51" y2="2348.55" gradientTransform="translate(-8089.75 36.7) rotate(-0.54)" xlink:href="#linear-gradient-26"/><linearGradient id="linear-gradient-34" x1="134.64" y1="1906.7" x2="195.55" y2="1813.04" xlink:href="#linear-gradient-26"/><linearGradient id="linear-gradient-35" x1="-5411.82" y1="2104.35" x2="-5804.1" y2="2661.8" xlink:href="#linear-gradient-31"/><linearGradient id="linear-gradient-36" x1="-557.97" y1="2361.94" x2="-282.64" y2="2361.94" xlink:href="#linear-gradient-26"/><linearGradient id="linear-gradient-37" x1="-346.55" y1="2067.6" x2="-237.69" y2="2067.6" xlink:href="#linear-gradient-26"/><linearGradient id="linear-gradient-38" x1="-5848.01" y1="-1464.37" x2="-5888.69" y2="-1598.54" gradientTransform="matrix(-0.75, -0.66, -0.66, 0.75, -2776.43, -818.16)" xlink:href="#linear-gradient-26"/><linearGradient id="linear-gradient-39" x1="-5884.71" y1="-1698.14" x2="-5850.68" y2="-1504.06" gradientTransform="matrix(-0.75, -0.66, -0.66, 0.75, -2776.43, -818.16)" xlink:href="#linear-gradient-15"/><linearGradient id="linear-gradient-40" x1="-5889.59" y1="-1464.99" x2="-5926.19" y2="-1585.71" gradientTransform="matrix(-0.75, -0.66, -0.66, 0.75, -2776.43, -818.16)" xlink:href="#linear-gradient-26"/><linearGradient id="linear-gradient-41" x1="-499.54" y1="2118.22" x2="-347.62" y2="2751.24" gradientTransform="matrix(-1, 0, 0, 1, 2088.69, 0)" xlink:href="#linear-gradient-15"/><linearGradient id="linear-gradient-42" x1="-603.65" y1="2285.69" x2="-517.57" y2="2285.69" gradientTransform="matrix(-1, 0, 0, 1, 2088.69, 0)" xlink:href="#linear-gradient-26"/><linearGradient id="linear-gradient-43" x1="12713.64" y1="2185.74" x2="12736.34" y2="2280.34" gradientTransform="translate(-10186.64)" xlink:href="#linear-gradient-17"/><linearGradient id="linear-gradient-44" x1="1924.67" y1="2238.73" x2="1833.68" y2="2375.21" gradientTransform="translate(-772.81)" xlink:href="#linear-gradient-26"/><linearGradient id="linear-gradient-45" x1="1776.57" y1="3182.53" x2="1932.77" y2="3182.53" gradientTransform="translate(-772.81)" xlink:href="#linear-gradient-17"/><linearGradient id="linear-gradient-46" x1="1932.25" y1="2921.21" x2="1896.69" y2="3031.64" gradientTransform="translate(-772.81)" xlink:href="#linear-gradient-27"/><linearGradient id="linear-gradient-47" x1="1790.99" y1="3109.18" x2="1834.99" y2="3109.18" gradientTransform="translate(-772.81)" xlink:href="#linear-gradient-26"/><linearGradient id="linear-gradient-48" x1="1497.78" y1="3208.83" x2="1557.64" y2="3208.83" gradientTransform="translate(-772.81)" xlink:href="#linear-gradient-17"/><linearGradient id="linear-gradient-49" x1="1649.38" y1="2830.12" x2="1613.82" y2="2940.54" gradientTransform="translate(-772.81)" xlink:href="#linear-gradient-27"/><linearGradient id="linear-gradient-50" x1="1543.88" y1="3086.23" x2="1596.46" y2="3086.23" gradientTransform="translate(-772.81)" xlink:href="#linear-gradient-26"/><linearGradient id="linear-gradient-51" x1="845.4" y1="3357.52" x2="1106.92" y2="2394.02" xlink:href="#linear-gradient-15"/><linearGradient id="linear-gradient-52" x1="-3132.36" y1="1534" x2="-3510.88" y2="2263.51" gradientTransform="matrix(-1, 0, 0, 1, -2616.98, 0)" xlink:href="#linear-gradient-17"/><linearGradient id="linear-gradient-53" x1="1935.39" y1="2142.48" x2="1418.89" y2="2754.63" gradientTransform="translate(-772.81)" xlink:href="#linear-gradient-27"/><linearGradient id="linear-gradient-54" x1="1802.93" y1="2153.76" x2="1825.71" y2="2034.15" gradientTransform="translate(-772.81)" xlink:href="#linear-gradient-26"/><linearGradient id="linear-gradient-55" x1="1864.58" y1="1934.31" x2="1734.58" y2="2033.77" gradientTransform="translate(-772.81)" xlink:href="#linear-gradient-26"/><linearGradient id="linear-gradient-56" x1="1773.07" y1="1855.56" x2="1894.13" y2="2011.43" gradientTransform="translate(-772.81)" xlink:href="#linear-gradient-15"/><linearGradient id="linear-gradient-57" x1="1848.45" y1="1913.24" x2="1718.46" y2="2012.7" gradientTransform="translate(-772.81)" xlink:href="#linear-gradient-26"/><linearGradient id="linear-gradient-58" x1="1816.24" y1="2391.52" x2="1756.27" y2="2481.48" gradientTransform="translate(-772.81)" xlink:href="#linear-gradient-26"/></defs><g class="cls-1"><g id="Illustration"><path class="cls-2" d="M3094.58,2378.16c-275,642.72-1000.81,918.78-1569.52,871.71-155.28-12.85-467.71-38.71-711.65-269.4-468.48-443-396.33-1369.08,52.14-1914.29C923.3,996,1323.07,525.56,1946,531.86c456.1,4.61,776.22,262.25,815.15,294.35,49.18,40.54,157.63,136.9,255.38,289.76C3246.23,1475.13,3266.41,1976.53,3094.58,2378.16Z" transform="translate(-450.58 -455)"/><g class="cls-3"><path class="cls-4" d="M785.85,867.51a8.6,8.6,0,0,1-7-9.12c.73-9.71,1.9-19.52,3.46-29.18a8.63,8.63,0,0,1,9.89-7.13l.16,0a8.61,8.61,0,0,1,7,9.86c-1.49,9.17-2.59,18.5-3.29,27.72a8.61,8.61,0,0,1-9.24,7.94A6.5,6.5,0,0,1,785.85,867.51Zm14-73.75a8.9,8.9,0,0,1-1-.24,8.62,8.62,0,0,1-5.72-10.76c2.87-9.35,6.16-18.66,9.79-27.69a8.62,8.62,0,1,1,16,6.43c-3.45,8.58-6.58,17.43-9.3,26.31A8.62,8.62,0,0,1,799.82,793.76Zm29.86-68.84a8.48,8.48,0,0,1-2.75-1,8.6,8.6,0,0,1-3.17-11.76c4.86-8.46,10.15-16.81,15.72-24.82a8.62,8.62,0,1,1,14.15,9.85c-5.3,7.6-10.32,15.53-14.94,23.56A8.59,8.59,0,0,1,829.68,724.92Zm44.52-60.44a8.62,8.62,0,0,1-4.77-14.34c6.63-7.15,13.66-14.11,20.88-20.67a8.62,8.62,0,1,1,11.59,12.75c-6.86,6.23-13.53,12.84-19.84,19.64A8.59,8.59,0,0,1,874.2,664.48Zm56.87-49a8.62,8.62,0,0,1-3.32-15.59c8-5.49,16.43-10.72,24.93-15.53a8.61,8.61,0,1,1,8.49,15c-8.08,4.58-16.06,9.54-23.7,14.76A8.56,8.56,0,0,1,931.07,615.48Zm66.29-35.2a8.62,8.62,0,0,1-1.63-16.49c9.07-3.58,18.41-6.83,27.75-9.63a8.62,8.62,0,1,1,5,16.51c-8.88,2.66-17.75,5.74-26.36,9.15A8.62,8.62,0,0,1,997.36,580.28Zm314.3,36.29a8.73,8.73,0,0,1-3.36-1.4c-7.61-5.28-15.55-10.29-23.6-14.9a8.62,8.62,0,0,1,8.57-14.95c8.48,4.85,16.84,10.13,24.85,15.69a8.62,8.62,0,0,1-6.46,15.56Zm-241.9-55.9a8.62,8.62,0,0,1,.24-17c9.64-1.48,19.46-2.56,29.19-3.2a8.61,8.61,0,1,1,1.14,17.19c-9.24.61-18.56,1.64-27.72,3A8.78,8.78,0,0,1,1069.76,560.67ZM1245.56,581a8.51,8.51,0,0,1-1.67-.47c-8.6-3.45-17.46-6.56-26.34-9.26a8.62,8.62,0,0,1,5-16.49c9.34,2.85,18.67,6.12,27.72,9.74a8.62,8.62,0,0,1-4.73,16.48Zm-100.83-23.31a8.62,8.62,0,0,1,2.18-17.07c9.72.72,19.54,1.86,29.18,3.41l.18,0a8.61,8.61,0,0,1-2.91,17c-9.16-1.46-18.48-2.55-27.71-3.23A7,7,0,0,1,1144.73,557.71Z" transform="translate(-450.58 -455)"/><path class="cls-5" d="M1358.06,655.4a8.58,8.58,0,0,1-4.56-2.39c-3.13-3.15-6.39-6.28-9.66-9.32a8.62,8.62,0,0,1,11.7-12.65c3.45,3.2,6.87,6.49,10.17,9.81a8.61,8.61,0,0,1-7.65,14.55Z" transform="translate(-450.58 -455)"/></g><g class="cls-3"><path class="cls-6" d="M1456,899.14a8.62,8.62,0,0,1-7.07-8.66c.1-4.44.1-9,0-13.43a8.61,8.61,0,1,1,17.22-.35c.1,4.71.1,9.47,0,14.14a8.61,8.61,0,0,1-8.79,8.43A7.67,7.67,0,0,1,1456,899.14Z" transform="translate(-450.58 -455)"/><path class="cls-7" d="M1060.83,1222.58q-5.85-1.07-11.71-2.34a8.62,8.62,0,1,1,3.65-16.84c9,1.95,18.08,3.54,27.07,4.72a8.61,8.61,0,1,1-2.25,17.08C1072,1224.48,1066.39,1223.59,1060.83,1222.58Zm-55.4-15a8.06,8.06,0,0,1-1.42-.38c-9-3.29-18-7-26.73-11a8.62,8.62,0,1,1,7.23-15.64c8.27,3.82,16.81,7.34,25.4,10.47a8.61,8.61,0,0,1-4.48,16.57Zm117.41,20.4a8.62,8.62,0,0,1,1.5-17.1c9.1-.05,18.33-.5,27.42-1.33a8.62,8.62,0,1,1,1.56,17.16c-9.57.88-19.29,1.35-28.87,1.41A9.45,9.45,0,0,1,1122.84,1228Zm-183.63-53.16a8.8,8.8,0,0,1-3.11-1.23c-8.08-5.19-16-10.78-23.66-16.63a8.62,8.62,0,0,1,10.5-13.67c7.23,5.56,14.79,10.87,22.47,15.8a8.62,8.62,0,0,1-6.2,15.73Zm257,44.52a8.61,8.61,0,0,1-.41-16.87c8.86-2.06,17.76-4.52,26.45-7.33a8.62,8.62,0,1,1,5.29,16.4c-9.15,3-18.52,5.55-27.85,7.71A8.36,8.36,0,0,1,1196.16,1219.35Zm69.64-24.51a8.61,8.61,0,0,1-2.2-16.24c8.22-4,16.38-8.31,24.23-12.93a8.62,8.62,0,1,1,8.74,14.85c-8.27,4.86-16.85,9.44-25.5,13.6A8.6,8.6,0,0,1,1265.8,1194.84Zm62.65-39.11a8.62,8.62,0,0,1-3.8-15.24c7.18-5.66,14.19-11.68,20.84-17.9a8.61,8.61,0,1,1,11.76,12.59c-7,6.54-14.38,12.88-21.92,18.84A8.64,8.64,0,0,1,1328.45,1155.73Zm52.61-51.84a8.62,8.62,0,0,1-5.13-13.91c5.76-7.09,11.27-14.49,16.4-22a8.62,8.62,0,0,1,14.25,9.7c-5.41,7.93-11.22,15.74-17.28,23.19A8.62,8.62,0,0,1,1381.06,1103.89Zm40-62.15a8.83,8.83,0,0,1-2.29-.77,8.61,8.61,0,0,1-3.9-11.54c4.05-8.16,7.8-16.6,11.15-25.09a8.61,8.61,0,1,1,16,6.33c-3.52,8.94-7.47,17.82-11.73,26.41A8.61,8.61,0,0,1,1421,1041.74Zm25.32-69.37-.52-.11a8.63,8.63,0,0,1-6.32-10.42c1.61-6.53,3-13.18,4.22-19.77.44-2.39.84-4.78,1.22-7.16a8.62,8.62,0,0,1,9.87-7.15,8.51,8.51,0,0,1,7.15,9.86c-.4,2.51-.82,5-1.28,7.53-1.26,6.94-2.76,13.94-4.44,20.8A8.62,8.62,0,0,1,1446.36,972.37Z" transform="translate(-450.58 -455)"/><path class="cls-8" d="M881.69,1128.14a8.59,8.59,0,0,1-4.59-2.43c-3.28-3.32-6.54-6.77-9.71-10.26a8.62,8.62,0,1,1,12.76-11.59c3,3.32,6.11,6.6,9.22,9.75a8.62,8.62,0,0,1-7.68,14.53Z" transform="translate(-450.58 -455)"/></g><path class="cls-9" d="M911,1031.89a4,4,0,0,0,4.22,2l48.28-8.42a213.52,213.52,0,0,0,54,43.17l2.51,48.91a4,4,0,0,0,2.91,3.66l56.49,16.29a4,4,0,0,0,4.41-1.55l28.17-40.06a213.72,213.72,0,0,0,68.73-7.75l36.39,32.83a4,4,0,0,0,4.65.54l51.46-28.43a4,4,0,0,0,2-4.21l-8.42-48.29a213.09,213.09,0,0,0,43.16-54L1359,984a4,4,0,0,0,3.66-2.91l16.29-56.48a4,4,0,0,0-1.55-4.41l-40.07-28.18a213.16,213.16,0,0,0-7.75-68.73l32.84-36.39a4,4,0,0,0,.53-4.64l-28.42-51.47a4,4,0,0,0-4.22-2L1282,737.23a213.71,213.71,0,0,0-54-43.16l-2.51-48.92a4,4,0,0,0-2.91-3.66L1166,625.2a4,4,0,0,0-4.41,1.55l-28.17,40.07a213.53,213.53,0,0,0-68.74,7.75l-36.38-32.84a4,4,0,0,0-4.65-.53l-51.46,28.42a4,4,0,0,0-2,4.22l8.42,48.28a213.32,213.32,0,0,0-43.16,54.06l-48.92,2.51a4,4,0,0,0-3.66,2.9l-16.29,56.49a4,4,0,0,0,1.55,4.41l40.07,28.17A213.22,213.22,0,0,0,916,939.4l-32.84,36.38a4,4,0,0,0-.53,4.65Z" transform="translate(-450.58 -455)"/><path class="cls-10" d="M1112.13,939.5a59.14,59.14,0,1,1,8.63.92A59.19,59.19,0,0,1,1112.13,939.5Zm18.81-102.71a47.71,47.71,0,0,0-6.68-.71,45,45,0,1,0,6.68.71Z" transform="translate(-450.58 -455)"/><path class="cls-10" d="M1098.05,1023.69a146.93,146.93,0,0,1-14.53-3.41h0c-1.52-.43-3-.9-4.53-1.38a146.52,146.52,0,0,1-21.5-8.9l-.28-.14-.8-.42-1.55-.82a3.44,3.44,0,0,1-1.76-3.65,3.37,3.37,0,0,1,.36-1,3.45,3.45,0,0,1,4.67-1.4,138.54,138.54,0,0,0,157.32-18.23,138.37,138.37,0,0,0-53.32-236.64c-73.36-21.15-150.19,21.31-171.34,94.64q-1.95,6.78-3.21,13.69a138,138,0,0,0,2.36,60,3.33,3.33,0,0,1,.06,1.5,3.44,3.44,0,0,1-6.72.26,145.25,145.25,0,0,1,.89-77.39c22.2-77,102.91-121.55,179.87-99.35a145.34,145.34,0,0,1,102.77,165.31,149.08,149.08,0,0,1-3.42,14.56,145.33,145.33,0,0,1-165.34,102.76Z" transform="translate(-450.58 -455)"/><g class="cls-3"><path class="cls-11" d="M456,1038.32a5.31,5.31,0,0,1-4.34-4.68c-.48-4.49-.82-9.06-1-13.57a5.32,5.32,0,1,1,10.63-.49c.2,4.3.53,8.66,1,12.95a5.33,5.33,0,0,1-4.73,5.85A5.42,5.42,0,0,1,456,1038.32Z" transform="translate(-450.58 -455)"/><path class="cls-12" d="M455.39,997.39a5.32,5.32,0,0,1-4.34-5.65,229.27,229.27,0,0,1,3-23.22c.29-1.61.6-3.22.93-4.84a5.5,5.5,0,0,1,6.28-4.15,5.31,5.31,0,0,1,4.15,6.27c-.31,1.55-.61,3.09-.89,4.63a222.27,222.27,0,0,0-2.88,22.14,5.32,5.32,0,0,1-5.72,4.89Zm11-54.14a7.33,7.33,0,0,1-.74-.19,5.33,5.33,0,0,1-3.36-6.74,231.69,231.69,0,0,1,10.61-26.26,5.32,5.32,0,1,1,9.61,4.59,221.2,221.2,0,0,0-10.13,25.05A5.32,5.32,0,0,1,466.42,943.25Zm23.83-49.85a5.71,5.71,0,0,1-1.92-.76,5.32,5.32,0,0,1-1.6-7.35,229.51,229.51,0,0,1,16.75-22.87,5.32,5.32,0,0,1,8.18,6.81,219.48,219.48,0,0,0-16,21.8A5.35,5.35,0,0,1,490.25,893.4Zm35.36-42.47a5.33,5.33,0,0,1-2.68-9.12,230.6,230.6,0,0,1,21.83-18.06,5.32,5.32,0,0,1,6.27,8.6,219.5,219.5,0,0,0-20.82,17.23A5.32,5.32,0,0,1,525.61,850.93Zm44.66-32.55a5.31,5.31,0,0,1-1.64-9.88,230.83,230.83,0,0,1,25.55-12.21,5.32,5.32,0,0,1,4,9.86A223.15,223.15,0,0,0,573.8,817.8,5.25,5.25,0,0,1,570.27,818.38Zm51.19-20.71a5.32,5.32,0,0,1-.42-10.38,230.74,230.74,0,0,1,27.75-5.61,5.33,5.33,0,0,1,1.46,10.55,216.73,216.73,0,0,0-26.46,5.34A5.13,5.13,0,0,1,621.46,797.67Zm54.7-7.57a5.32,5.32,0,0,1,.88-10.55,229.19,229.19,0,0,1,28.3,1.37,5.32,5.32,0,0,1-1.17,10.58,219.83,219.83,0,0,0-27-1.31A5.69,5.69,0,0,1,676.16,790.1Zm81.41,14.11a4.89,4.89,0,0,1-.91-.24,217.1,217.1,0,0,0-22.44-7q-1.72-.45-3.42-.84a5.33,5.33,0,0,1,2.44-10.37l3.63.9A231.7,231.7,0,0,1,760.36,794a5.32,5.32,0,0,1-2.79,10.22Z" transform="translate(-450.58 -455)"/></g><g class="cls-3"><path class="cls-13" d="M642.21,1236.09a5.32,5.32,0,0,1,1.83-10.48,219.84,219.84,0,0,0,26.42,2.82,5.32,5.32,0,1,1-.48,10.63,230.28,230.28,0,0,1-27.7-3ZM615.68,1230a5.73,5.73,0,0,1-.56-.14,231.35,231.35,0,0,1-26.21-9.47,5.32,5.32,0,0,1,4.21-9.78,222,222,0,0,0,25,9,5.33,5.33,0,0,1-2.45,10.35Zm80.81,8.59A5.31,5.31,0,0,1,697,1228a221.42,221.42,0,0,0,26.33-3.66,5.32,5.32,0,0,1,2.09,10.44,230.13,230.13,0,0,1-27.6,3.82A5.11,5.11,0,0,1,696.49,1238.56Zm-130.72-30.14a5.18,5.18,0,0,1-1.74-.65,227.59,227.59,0,0,1-23.16-15.53,5.32,5.32,0,0,1,6.46-8.46,218.59,218.59,0,0,0,22.08,14.81,5.32,5.32,0,0,1-3.64,9.83Zm184,19.42a5.32,5.32,0,0,1-.73-10.29,217.59,217.59,0,0,0,24.67-9.87,5.33,5.33,0,0,1,4.55,9.63,231.71,231.71,0,0,1-25.87,10.35A5.23,5.23,0,0,1,749.75,1227.84Zm49.14-23.18a5.32,5.32,0,0,1-1.89-9.74,223.43,223.43,0,0,0,21.61-15.49,5.32,5.32,0,1,1,6.71,8.25,232.69,232.69,0,0,1-22.65,16.24A5.28,5.28,0,0,1,798.89,1204.66Zm42.17-34.3a5.27,5.27,0,0,1-2.74-1.4,5.33,5.33,0,0,1-.13-7.53,218.15,218.15,0,0,0,17.25-20.22,5.32,5.32,0,1,1,8.5,6.41,230.59,230.59,0,0,1-18.09,21.2A5.33,5.33,0,0,1,841.06,1170.36Z" transform="translate(-450.58 -455)"/><path class="cls-14" d="M522.36,1175.27a5.27,5.27,0,0,1-2.76-1.43c-3.26-3.19-6.43-6.48-9.44-9.8a5.32,5.32,0,1,1,7.88-7.15c2.87,3.16,5.9,6.3,9,9.35a5.32,5.32,0,0,1-4.68,9Z" transform="translate(-450.58 -455)"/></g><path class="cls-15" d="M539,1108.43a2.7,2.7,0,0,0,2.82,1.35l32.31-5.63A143.08,143.08,0,0,0,610.31,1133l1.68,32.73a2.69,2.69,0,0,0,2,2.45l37.79,10.9a2.69,2.69,0,0,0,2.95-1l18.86-26.81a142.86,142.86,0,0,0,46-5.18l24.35,22a2.71,2.71,0,0,0,3.11.36l34.43-19a2.72,2.72,0,0,0,1.36-2.83l-5.64-32.3A142.65,142.65,0,0,0,806,1078.09l32.74-1.68a2.69,2.69,0,0,0,2.45-2l10.9-37.8a2.69,2.69,0,0,0-1-3l-26.81-18.85a142.58,142.58,0,0,0-5.19-46l22-24.35a2.71,2.71,0,0,0,.35-3.11l-19-34.44a2.69,2.69,0,0,0-2.82-1.35l-32.31,5.63a142.91,142.91,0,0,0-36.17-28.88l-1.68-32.73a2.7,2.7,0,0,0-1.94-2.45l-37.8-10.9a2.69,2.69,0,0,0-2.95,1l-18.85,26.81a142.92,142.92,0,0,0-46,5.18l-24.35-22a2.69,2.69,0,0,0-3.1-.36L580,866a2.69,2.69,0,0,0-1.35,2.82l5.63,32.31a142.86,142.86,0,0,0-28.88,36.17L522.64,939a2.68,2.68,0,0,0-2.45,2l-10.91,37.8a2.71,2.71,0,0,0,1,3l26.82,18.85a142.86,142.86,0,0,0,5.18,46l-22,24.35A2.71,2.71,0,0,0,520,1074Z" transform="translate(-450.58 -455)"/><path class="cls-10" d="M673.41,1047.29a40.27,40.27,0,0,1-32.94-40.94,40.23,40.23,0,1,1,32.94,40.94ZM686,978.57a30.69,30.69,0,0,0-4.32-.47,29.61,29.61,0,1,0-2,59.19h0a29.61,29.61,0,0,0,6.3-58.72Z" transform="translate(-450.58 -455)"/><path class="cls-10" d="M663.54,1105.88q-5-.9-9.93-2.32a100.91,100.91,0,0,1-19-7.62l-.81-.43a5.32,5.32,0,0,1-2.72-5.63,5.51,5.51,0,0,1,.55-1.58,5.33,5.33,0,0,1,7.21-2.16,90.22,90.22,0,0,0,17.67,7.19h0l1,.28a88.79,88.79,0,0,0,43.87,1,90.23,90.23,0,0,0,22.56-8.55l.18-.1.53-.29A89.6,89.6,0,1,0,595.3,982.41a87.56,87.56,0,0,0-2.08,8.86,89.3,89.3,0,0,0,1.53,38.86,5.22,5.22,0,0,1,.09,2.32,5.32,5.32,0,0,1-10.38.41A100.26,100.26,0,1,1,780.07,1025a102.08,102.08,0,0,1-2.36,10A100.38,100.38,0,0,1,663.54,1105.88Z" transform="translate(-450.58 -455)"/><path class="cls-16" d="M2859.63,469.06c.88-12.83-15.39-19.11-23.52-9.16C2753.57,561,2562.2,856.22,2680.18,1312.15c148,572,55.06,800.25-78.52,949.68,0,0,199-88.34,300.65-320.91C3152,1369.9,2844.07,697,2859.63,469.06Z" transform="translate(-450.58 -455)"/><path class="cls-17" d="M2812,660.18c-3.21,66.3-5.11,132.62-4.57,198.91q.27,99.43,6.63,198.63c4.5,66.06,10.25,132,18.79,197.66,8.25,65.67,19.3,130.9,30.63,196.36,11,65.49,22.37,131.39,27.07,198.67,4.75,67.13,1.56,135.91-14.1,202.06-3.92,16.49-8.16,33-13.32,49-4.87,16.17-10.46,32.13-16.33,48a723.17,723.17,0,0,1-42.18,92.32c-32.66,59.4-74.35,113.78-121.9,161.44a12.83,12.83,0,0,1-18.43-17.85l0,0c11.23-11.92,22.32-24,32.83-36.43,5.36-6.16,10.43-12.55,15.62-18.83,4.95-6.48,10.15-12.76,14.89-19.38a676.43,676.43,0,0,0,52.37-82.29c31.1-57.08,53.83-119.1,68.9-182.28a647,647,0,0,0,14.36-96.25,732.66,732.66,0,0,0,.11-97.73c-4.06-65.37-14.81-130.69-25.3-196.25s-20.41-131.57-27.68-197.86q-5.6-49.69-9.39-99.56c-1.36-16.6-2.4-33.24-3.47-49.86q-1.37-25-2.41-49.93-3.91-99.87-1.66-199.76c1.85-66.55,5.46-133,11.63-199.25a3.44,3.44,0,0,1,6.87.48Z" transform="translate(-450.58 -455)"/><path class="cls-18" d="M2942.58,2134.45c9.34,20.92,37,25.52,52.82,8.93,87.25-91.49,310.53-372.48,255.37-805.42-46.59-365.59-37.11-568.26-26.43-660,2.26-19.39-21.55-30.39-34.88-16.13C3042.35,819.19,2604.43,1376.19,2942.58,2134.45Z" transform="translate(-450.58 -455)"/><path class="cls-17" d="M2973.54,2132.4a9.32,9.32,0,0,0,1.58.69,8.94,8.94,0,0,0,11.31-5.66c1.77-5.32,176.21-537.31,134.4-1048.57a8.94,8.94,0,1,0-17.83,1.46c41.51,507.54-131.79,1036.19-133.54,1041.46A9,9,0,0,0,2973.54,2132.4Z" transform="translate(-450.58 -455)"/><polygon class="cls-19" points="1154.31 1983.75 1096.04 2385.93 1772.17 2385.93 1684.1 1983.75 1154.31 1983.75"/><path class="cls-20" d="M469.12,1151v1197A181.59,181.59,0,0,0,646,2529.59c437.22,11.28,1966.39,38.61,2382.6,32.48a133.61,133.61,0,0,0,131.54-129.81c8-278.09,21.06-946.8-27.17-1257.26a137.5,137.5,0,0,0-131.48-116.38c-366.33-11.72-1987.36-48.93-2403.37-39.59A132,132,0,0,0,469.12,1151Z" transform="translate(-450.58 -455)"/><path class="cls-21" d="M544.23,1145.18V2282.46a105.21,105.21,0,0,0,103.64,105.2l2320.88,28.67a102.39,102.39,0,0,0,103.92-102l3.89-1127.11a74.9,74.9,0,0,0-73.07-75.15l-2376.15-48A81.14,81.14,0,0,0,544.23,1145.18Z" transform="translate(-450.58 -455)"/><path class="cls-22" d="M2368.39,2947.86H1378.83c-26.89,0-47.08-19.14-41.88-39.69l12.7-50.22c3.82-15.1,20.43-26.19,40.17-26.81l954-29.76c20.62-.65,38.87,10.3,43.36,26l22.89,80C2416,2928.14,2395.71,2947.86,2368.39,2947.86Z" transform="translate(-450.58 -455)"/><path class="cls-23" d="M3076.21,1285.52l.35-101.22a75.11,75.11,0,0,0-73.11-75.37l-2378-48.12c-45.6-1.11-83.65,35.41-83.65,81v143.71Z" transform="translate(-450.58 -455)"/><rect class="cls-24" x="154.8" y="882.99" width="721.73" height="1005.77" rx="14.61"/><rect class="cls-25" x="980.28" y="886.26" width="1527.11" height="562.83" rx="18.54"/><rect class="cls-26" x="980.28" y="1495.88" width="477.45" height="396.26" rx="15.56"/><rect class="cls-26" x="1503.24" y="1495.88" width="477.45" height="396.26" rx="13.38"/><rect class="cls-26" x="2029.94" y="1495.88" width="477.45" height="396.26" rx="13.62"/><circle class="cls-27" cx="673.7" cy="1192.21" r="29.19" transform="translate(-1090.87 1122.8) rotate(-76.88)"/><circle class="cls-28" cx="769.38" cy="1192.21" r="29.19" transform="translate(-1016.9 1215.99) rotate(-76.88)"/><circle class="cls-29" cx="862.8" cy="1192.21" r="29.19" transform="translate(-1040.89 504.28) rotate(-45)"/><rect class="cls-30" x="226.49" y="946.58" width="575.2" height="274.65"/><rect class="cls-30" x="226.49" y="1256.07" width="575.2" height="274.65"/><rect class="cls-30" x="226.49" y="1565.62" width="575.2" height="274.65"/><rect class="cls-31" x="980.28" y="974.32" width="1527.11" height="125.82"/><path class="cls-32" d="M2640.15,3099s5.23,28.06,7.93,55.86a19.18,19.18,0,0,1-18.14,20.95c-37,1.9-116.27,5.65-144.73,4.65a6.24,6.24,0,0,1-5.57-8.49h0a14,14,0,0,1,7.08-7.59L2617.06,3103Z" transform="translate(-450.58 -455)"/><path class="cls-33" d="M2644.06,3082.47l-3.67,33.66s-22.84,10.89-38.61-1l9.14-37.56Z" transform="translate(-450.58 -455)"/><path class="cls-34" d="M2635,2450.4c1.8,8.76,13.43,438.06-30.63,630.91a6.53,6.53,0,0,0,3.9,7.56,113.79,113.79,0,0,0,37.45,7.24,11.26,11.26,0,0,0,11.08-8.18c12.69-44.77,73.43-269,79.59-482.79,6.88-238.84-.08-8.13-.08-8.13l-6.78-147.53Z" transform="translate(-450.58 -455)"/><path class="cls-35" d="M2790.89,3112.25s8,14.11,16.05,51.75a11.69,11.69,0,0,1-10.16,14.1c-12.22,1.32-31,3.05-46.13,3.09a11.66,11.66,0,0,1-11.67-12.9c1.54-13.78,6.53-36.41,22.45-54.16Z" transform="translate(-450.58 -455)"/><path class="cls-36" d="M2797.42,3068.94l-8.84,50.93s-9.15,6.94-27.43,2.15l3.93-54.75Z" transform="translate(-450.58 -455)"/><path class="cls-37" d="M2816.81,2461.84c39.7,226.18-2.8,560-17.58,625.38a10.19,10.19,0,0,1-8.15,7.81c-6.86,1.2-18.17,2.24-29.37-.9a9.32,9.32,0,0,1-6.78-8.52c-2.57-52.73-1.94-376.61-38.14-504.26a29.06,29.06,0,0,0-11.37-15.93l-68.34-47.61-5.95-78Z" transform="translate(-450.58 -455)"/><path class="cls-38" d="M2573.53,2034.88c112.47-2.93,236.89,27.28,236.89,27.28,35.4,195.33,9.89,421.27,9.89,421.27-86.87,23.67-185.46-12.2-185.46-12.2-15.26-81.64-85-311.14-85-311.14-55-6.3-100.45-21.72-137.94-42.33,28.13-33.24,41.13-75.32,46.72-100.17C2498.53,2029.57,2538.84,2035.79,2573.53,2034.88Z" transform="translate(-450.58 -455)"/><path class="cls-39" d="M2239.67,1872.36c10.93-13.45,25-7.27,25-7.27,17.22,69.77,104.56,125.64,194,152.5-5.59,24.85-18.59,66.93-46.72,100.17C2263.13,2036,2239.67,1872.36,2239.67,1872.36Z" transform="translate(-450.58 -455)"/><path class="cls-40" d="M2242.39,1875.73c-1.12,3.69,12.32,9.16,20.06-6,.21-7.21,4.29-38.12-.07-44-23.23-31-68.06-69.81-68.06-69.81-7.44,7.49-1.18,14.71-1.18,14.71l21.78,22.26c-4.43,8.2-9.87,15.13-12.35,25a30.16,30.16,0,0,0,3.22,22.21c3.85,6.78,9.1,15.6,14.05,22.49C2229.21,1875.76,2242.39,1875.73,2242.39,1875.73Z" transform="translate(-450.58 -455)"/><path class="cls-41" d="M2224.49,1807.48l19.82,16.47,6.32,16.53-17.33,19.61s-6.21-32.86-10.66-39.94S2220.43,1809.6,2224.49,1807.48Z" transform="translate(-450.58 -455)"/><path class="cls-42" d="M2768.32,2171.5l42.1-109.34s105.76,70.39,123.9,160.74c-19.84,1.66-55.92,7.16-91.11,25.36C2835,2205.59,2768.32,2171.5,2768.32,2171.5Z" transform="translate(-450.58 -455)"/><path class="cls-43" d="M2677.47,2274.87s118.61,65.54,157.87,8.23c8.15-11.9,10-23.66,7.87-34.84,35.19-18.2,71.27-23.7,91.11-25.36,5.47,27.24,3,56.29-12.76,85.78-68.51,128.21-259.42-4.58-259.42-4.58Z" transform="translate(-450.58 -455)"/><path class="cls-44" d="M2686.6,1942.47l36.78,103.17a3.73,3.73,0,0,1-1.65,4.51c-9.71,5.48-44.71,21.41-87.33-5a17.57,17.57,0,0,1-8.21-12.47l-12.44-89.47Z" transform="translate(-450.58 -455)"/><path class="cls-45" d="M2607.81,1847.36s-38.6,74.36-33.28,104.2,54,27.23,96.32,2.55l29-80.17Z" transform="translate(-450.58 -455)"/><path class="cls-46" d="M2668.6,1914.89a3,3,0,0,1-1.38-4.45c3.11-4.84,8.92-14.71,10.72-23.32,0,0,7-4.59-18.09-10.35s-62.55-14.7-70.6-36c-7.85-20.71,11.76-73.18,44.25-31.84a3,3,0,0,0,4.83,0c5.19-6.9,18.89-21.24,38.17-12.81,18.05,7.89,20.2,21,20,27.68a3,3,0,0,0,3.62,3.07c9.07-1.82,30.86-3.51,41.25,18.75,8.56,18.34,3.21,28.82-1.7,34a3,3,0,0,0,1.34,5c6,1.77,13.75,6.76,13.11,20.75-.88,19.35-22.52,17.85-28.68,17a3.08,3.08,0,0,0-2.7,1c-5.22,5.89-28.77,30.92-54.48,34.16a3.07,3.07,0,0,1-3.26-4l10.83-32.49a3.07,3.07,0,0,0-1.69-3.78Z" transform="translate(-450.58 -455)"/><path class="cls-47" d="M2664.16,1919.53s27.81-19.46,30-3.31-25,23.66-38.52,17.76Z" transform="translate(-450.58 -455)"/><path class="cls-48" d="M2701.71,2378.45l-64.61-225.63a6.56,6.56,0,0,0-5.56-4.73c-11.71-1.37-45.63-5.2-84.79-8.52-47.18-4-102-7.22-134.7-4.47a6.6,6.6,0,0,0-5.39,9.5c18.61,37.66,95.19,190.87,133.53,241.05a6.61,6.61,0,0,0,5.33,2.62l149.91-1.4A6.6,6.6,0,0,0,2701.71,2378.45Z" transform="translate(-450.58 -455)"/><path class="cls-49" d="M2686.1,2323.94s9-37,5.37-50.14-10.66-30-34.11-26.26-51.1,13.63-51.1,13.63,1.39,17.1,19.21,11.59l-11,8.55s1.58,13.69,16.63,6.37L2620.78,2299s6.46,11.25,17.53,4S2654.7,2328.4,2686.1,2323.94Z" transform="translate(-450.58 -455)"/><path class="cls-50" d="M2551.05,2206.93a19,19,0,1,1-19-19A19,19,0,0,1,2551.05,2206.93Z" transform="translate(-450.58 -455)"/><path class="cls-51" d="M2629.79,2219.43l4.84-1.43-13.16-44.62a20.3,20.3,0,0,0-15.3-14.24c-41.7-8.71-151.52-10.48-156.17-10.55l-.08,5c1.14,0,114,1.84,155.22,10.44a15.3,15.3,0,0,1,11.5,10.74Z" transform="translate(-450.58 -455)"/><path class="cls-52" d="M1024.84,2458.18l100.51,1.25-35.17-33.11a26.26,26.26,0,0,0-32.19-3,76.3,76.3,0,0,0-17.87,15.92S977.42,2416.31,947,2365a310.23,310.23,0,0,0-30.13,57C944.15,2438.05,979.47,2450.63,1024.84,2458.18Z" transform="translate(-450.58 -455)"/><path class="cls-53" d="M1155.55,3175c-26.76,2.32-73.2,6.07-109.81,7.69-22,1-34.68-1.19-42-4.11,0,.82,0,1.6.07,2.32a7.58,7.58,0,0,0,7.2,7.15,1287.43,1287.43,0,0,0,143.78.15,5.4,5.4,0,0,0,4.4-8.1A45.47,45.47,0,0,0,1155.55,3175Z" transform="translate(-450.58 -455)"/><path class="cls-54" d="M1045.74,3182.66c36.61-1.62,83-5.37,109.81-7.69-26.31-32.27-109.81-54-109.81-54h-23.58c-16.22,23.38-18.57,45.65-18.4,57.61C1011.06,3181.47,1023.73,3183.62,1045.74,3182.66Z" transform="translate(-450.58 -455)"/><path class="cls-55" d="M1018.18,3082.44l2.21,43.67a10,10,0,0,0,8.52,9.38,38.78,38.78,0,0,0,17.71-1.46,11.8,11.8,0,0,0,7.94-9.08l7.62-42.51Z" transform="translate(-450.58 -455)"/><path class="cls-56" d="M744.46,3212.52c-11.6-1.89-16.85-8.91-19.05-16.41l0,.2c-1.7,7.92,2.25,16.12,10.17,20,9.56,4.72,20,5.52,28.13,5.13,8.71-.42,16.71-4.61,21.1-11.33l.07-.1C776.09,3215.07,763.81,3215.66,744.46,3212.52Z" transform="translate(-450.58 -455)"/><path class="cls-57" d="M799.17,3095.9H779.72c-29.62-.71-48.22,72-54.31,100.21,2.2,7.5,7.45,14.52,19.05,16.41,19.35,3.14,31.63,2.55,40.37-2.49,16-24.52,23.94-60.43,27.75-81.39C816.92,3104.8,799.17,3095.9,799.17,3095.9Z" transform="translate(-450.58 -455)"/><path class="cls-58" d="M782.22,3055.36l-10.8,42.95a11.67,11.67,0,0,0,6.07,13.22c6,3.1,14.55,6.36,22.37,5.41a9.73,9.73,0,0,0,7.94-6.49l15.86-45.2Z" transform="translate(-450.58 -455)"/><path class="cls-59" d="M1162.14,2489.62s-96.51,603.29-94.92,606.61c0,0-26.66,12.11-55.72,1.54,0,0,8.73-322.5,29.18-446.15,0,0-164.72,288.25-217,431.88,0,0-27.28-3.26-49.87-18.12,0,0,177.35-518.84,224.67-588Z" transform="translate(-450.58 -455)"/><path class="cls-60" d="M1044.53,2650.29a4.66,4.66,0,0,1-4-7.14l36.07-57.61a4.66,4.66,0,0,1,3-2.1l26.54-5.34a4.67,4.67,0,1,1,1.84,9.15l-24.57,4.94-35,55.91A4.66,4.66,0,0,1,1044.53,2650.29Z" transform="translate(-450.58 -455)"/><path class="cls-61" d="M1172,2099.78c-16.23-34.05-156.38-37.64-259.06-3.71a79.75,79.75,0,0,0-48.13,43.81c-27.77,63.74-72.74,208.89,52.09,282.18A310.23,310.23,0,0,1,947,2365c-20.1-33.9-26.06-80.22,9.62-140.53,26,70.24,38.21,172.73,40.76,218.09a97.46,97.46,0,0,1-7.64,43.62l-.63,1.51a5.15,5.15,0,0,0,3.62,7c70.28,15.79,143.37,11.5,165.21,9.7a9,9,0,0,0,8-6.88C1200.17,2353.6,1196.45,2151,1172,2099.78Z" transform="translate(-450.58 -455)"/><path class="cls-62" d="M1018.59,1984.5s-7.11,75.17-13.37,97.4a7.6,7.6,0,0,0,3.58,8.68c10.63,6.08,36.11,16,71-1.11a15.8,15.8,0,0,0,8.78-14.88l-3.07-72.64Z" transform="translate(-450.58 -455)"/><path class="cls-63" d="M1087,1888.33s22.74,52.24,24.27,79.65,7.43,45.21-24.27,50.73-58.4-10.27-72.87-37.58c0,0-22.67-42.08-17.58-59.32S1087,1888.33,1087,1888.33Z" transform="translate(-450.58 -455)"/><path class="cls-64" d="M1025,1961.49l1.81-.79a4.35,4.35,0,0,0,2.12-6c-4.47-8.64-13.18-28.43-1.92-33,14.5-6,72-17.68,84.38-38.07,11.91-19.6,1.35-44.9-14.52-52.09a2.18,2.18,0,0,0-2.85.93l-1.33,2.5a2.15,2.15,0,0,1-4-.41h0a2.14,2.14,0,0,0-3.88-.55c-3.81,6.1-14.1,16-41.62,21.07-39.11,7.22-65,23-65.61,50.07a2.16,2.16,0,0,1-3.33,1.78c-2.89-1.76-7.51-2.59-13.69,2.6-10.74,9-6.34,32.46,17.2,51.73a2.14,2.14,0,0,1-.1,3.45c-4.27,2.78-10.63,9.39,5.86,18.21,17,9.11,29.79,8.36,34.69,7.55a2.14,2.14,0,0,0,1.74-2.59l-5.23-23.75a2.15,2.15,0,0,1,2.1-2.62Z" transform="translate(-450.58 -455)"/><path class="cls-65" d="M1026,1966.51s-8.68-33.37-23.64-24,7.76,37.38,19.79,38.63Z" transform="translate(-450.58 -455)"/><path class="cls-66" d="M982.75,2417.71s8.55-14.25,28.5-14.25,42.76,37.05,42.76,37.05-31.36,14.25-42.76,25.66S982.75,2440.51,982.75,2417.71Z" transform="translate(-450.58 -455)"/></g></g></svg>