<svg xmlns="http://www.w3.org/2000/svg" viewBox="0 0 500 437.46"><defs><style>.cls-1{fill:#e0e0e0;}.cls-2,.cls-8{fill:none;}.cls-3{fill:#f0f0f0;}.cls-4{fill:#f5f5f5;}.cls-5{isolation:isolate;}.cls-6{fill:#ebebeb;}.cls-7{fill:#fafafa;}.cls-8{stroke:gray;stroke-linecap:round;stroke-linejoin:round;stroke-width:0;}.cls-14,.cls-17,.cls-24,.cls-9{fill:#fff;}.cls-10{fill:#cacaca;}.cls-11{opacity:0.15;}.cls-12{fill:#ba68c8;}.cls-13,.cls-14,.cls-22{opacity:0.2;}.cls-15,.cls-24{opacity:0.1;}.cls-16{fill:#455a64;}.cls-17,.cls-19,.cls-26{opacity:0.3;}.cls-18,.cls-28{opacity:0.4;}.cls-20{opacity:0.6;}.cls-21{opacity:0.7;}.cls-23{fill:#37474f;}.cls-25{fill:#ffa8a7;}.cls-27{fill:#263238;}.cls-29{fill:#f28f8f;}</style></defs><g id="Character"><path class="cls-1" d="M27.53,376.93c7.32-4.23,19.17-4.23,26.45,0s7.24,11.09-.09,15.32-19.17,4.23-26.45,0S20.2,381.16,27.53,376.93Z" transform="translate(0 -31.27)"/><path class="cls-1" d="M457.06,346.71c7.69-4.44,20.11-4.44,27.74,0s7.6,11.63-.09,16.07-20.1,4.44-27.74,0S449.37,351.15,457.06,346.71Z" transform="translate(0 -31.27)"/><polygon class="cls-1" points="335.82 239.07 54.34 403.44 42.42 396.55 323.9 232.18 335.82 239.07"/><path class="cls-1" d="M410.66,357.5c-27.43-15.84-71.77-15.84-99,0-24.09,14-26.76,35.67-8.14,51.46-15-.93-30.6,1.93-42.08,8.6-20.14,11.71-20,30.68.24,42.39s53,11.7,73.18,0c16-9.31,19.22-23.23,9.65-34.42,23.1,3.34,48.51-.21,66.5-10.67C438.25,399,438.1,373.34,410.66,357.5Z" transform="translate(0 -31.27)"/><polygon class="cls-2" points="100.18 55.29 61.66 77.53 61.74 106.97 100.26 84.73 100.18 55.29"/><polygon class="cls-3" points="100.18 55.29 100.26 84.73 103.83 86.81 103.73 53.24 100.18 55.29"/><polygon class="cls-4" points="61.74 106.97 61.75 111.1 103.83 86.81 100.26 84.73 61.74 106.97"/><path class="cls-1" d="M108,77.07l-50.7,29.28.12,43.47,50.71-29.28Zm-46.28,65.3v-4.12l-.08-29.45,38.52-22.24,3.55-2,.1,33.57Z" transform="translate(0 -31.27)"/><polygon class="cls-4" points="108.03 45.8 104.46 43.73 53.76 73 57.33 75.08 108.03 45.8"/><polygon class="cls-3" points="53.76 73 53.88 116.47 57.45 118.55 57.33 75.08 53.76 73"/><g class="cls-5"><polygon class="cls-1" points="87.94 66.47 98.44 74.74 98.47 82.82 63.53 103 63.5 94.92 70.16 81.69 76.14 86.33 74.03 92.9 77.09 87.07 87.94 66.47"/><path class="cls-1" d="M76.46,101.82c1.65-.95,3-.19,3,1.7a6.54,6.54,0,0,1-3,5.14c-1.64,1-3,.19-3-1.7A6.57,6.57,0,0,1,76.46,101.82Z" transform="translate(0 -31.27)"/></g><polygon class="cls-2" points="402.74 139.06 441.26 161.3 441.18 190.74 402.66 168.5 402.74 139.06"/><polygon class="cls-3" points="402.74 139.06 402.66 168.5 399.09 170.58 399.18 137.01 402.74 139.06"/><polygon class="cls-4" points="441.18 190.74 441.17 194.87 399.09 170.58 402.66 168.5 441.18 190.74"/><path class="cls-1" d="M394.76,204.31l50.7,29.28.13-43.47-50.7-29.28Zm4.33-2.46.09-33.57,3.56,2.05,38.52,22.24L441.18,222v4.13Z" transform="translate(0 -31.27)"/><polygon class="cls-4" points="394.89 129.57 398.45 127.5 449.16 156.77 445.59 158.84 394.89 129.57"/><polygon class="cls-3" points="449.16 156.77 449.03 200.24 445.46 202.31 445.59 158.84 449.16 156.77"/><g class="cls-5"><polygon class="cls-1" points="414.98 150.24 404.48 158.51 404.45 166.59 439.39 186.76 439.42 178.68 432.76 165.46 426.78 170.1 428.89 176.67 425.82 170.84 414.98 150.24"/><path class="cls-1" d="M426.46,185.58c-1.65-1-3-.18-3,1.71a6.52,6.52,0,0,0,3,5.14c1.64.95,3,.19,3-1.7A6.59,6.59,0,0,0,426.46,185.58Z" transform="translate(0 -31.27)"/></g><path class="cls-2" d="M159.69,104.72h0c.46-.22.92-.44,1.38-.68h0C160.62,104.28,160.16,104.5,159.69,104.72Z" transform="translate(0 -31.27)"/><path class="cls-2" d="M159.19,105h0c.17-.07.34-.16.51-.24h0C159.53,104.8,159.36,104.89,159.19,105Z" transform="translate(0 -31.27)"/><polygon class="cls-2" points="175.41 16.09 164.88 22.17 154.17 28.35 164.88 22.17 175.41 16.09"/><polygon class="cls-2" points="175.51 50.81 175.48 41.04 175.46 32.11 175.48 41.04 175.51 50.81"/><path class="cls-2" d="M161.08,104l.29-.14-.29.14Z" transform="translate(0 -31.27)"/><polygon class="cls-2" points="175.63 93.66 175.61 85.48 175.59 78.33 175.61 85.48 175.63 93.66"/><path class="cls-2" d="M155.1,106.65c1.36-.49,2.72-1.05,4.09-1.69h0C157.82,105.6,156.46,106.16,155.1,106.65Z" transform="translate(0 -31.27)"/><polygon class="cls-2" points="144.13 46.24 144.22 77.64 144.27 95.83 144.22 77.64 144.13 46.24"/><path class="cls-6" d="M175.61,116.75l0-7.15-.33.19-.6.35c-5.28,3.19-10.58,8.2-15.51,13.62-.82.9-1.63,1.8-2.43,2.72-4.16,4.76-8.23,9.81-12.41,14.53l0,11.55,5-2.91C156.18,136.81,165.53,125.09,175.61,116.75Z" transform="translate(0 -31.27)"/><path class="cls-6" d="M175.66,134.48l0-9.55a60.29,60.29,0,0,0-10.72,15.75Z" transform="translate(0 -31.27)"/><path class="cls-7" d="M164.91,140.68a60.29,60.29,0,0,1,10.72-15.75l0-8.18c-10.08,8.34-19.43,20.06-26.23,32.9l15.53-9Z" transform="translate(0 -31.27)"/><path class="cls-8" d="M159.19,105h0" transform="translate(0 -31.27)"/><path class="cls-8" d="M159.69,104.72h0" transform="translate(0 -31.27)"/><path class="cls-7" d="M154.37,106.9l.73-.25c1.36-.49,2.72-1.05,4.09-1.69.17-.07.34-.16.5-.24.47-.22.93-.44,1.39-.68.8-.4,1.6-.83,2.4-1.28-.8.45-1.6.88-2.4,1.28l.29-.14c.7-.36,1.4-.74,2.11-1.14l.45-.26.36-.21a76,76,0,0,0,10.79-7.73l.46-.4,0-12.08c-7.67,3.92-15.21,5.14-21.3,3.25a18.72,18.72,0,0,1-10.08-7.81l.09,31.39A37.25,37.25,0,0,0,154.37,106.9Z" transform="translate(0 -31.27)"/><path class="cls-7" d="M159.15,123.76c4.93-5.42,10.23-10.43,15.51-13.62l.6-.35.33-.19,0-6.92a150.18,150.18,0,0,0-28.24,21.5c-1,1-2,2-3.06,2.92l0,13.91c4.18-4.72,8.25-9.77,12.41-14.53C157.52,125.56,158.33,124.66,159.15,123.76Z" transform="translate(0 -31.27)"/><path class="cls-6" d="M175.57,102.68l0-8.52-.46.4a76,76,0,0,1-10.79,7.73l-.36.21-.45.26c-.71.4-1.41.78-2.11,1.14l-.29.14-.19.11h0l.19-.11c-.46.24-.92.46-1.38.68-.17.08-.34.17-.51.24-1.37.64-2.73,1.2-4.09,1.69l.77-.29-.77.29-.73.25a37.25,37.25,0,0,1-10.15,2l.05,18.19c1-.95,2-1.95,3.06-2.92A150.18,150.18,0,0,1,175.57,102.68Z" transform="translate(0 -31.27)"/><path class="cls-7" d="M175.48,72.31l0-8.93c-4.85-1.14-8.61-4.66-10.58-9.94l-10.71,6.18C158.41,68,166.12,72.67,175.48,72.31Z" transform="translate(0 -31.27)"/><path class="cls-6" d="M154.21,85.33c6.09,1.89,13.63.67,21.3-3.25l0-9.77c-9.36.36-17.07-4.29-21.31-12.69l-10.08,5.82,0,12.08A18.72,18.72,0,0,0,154.21,85.33Z" transform="translate(0 -31.27)"/><path class="cls-9" d="M177.17,44.32,142.32,64.44l.25,91.17,34.86-20.12ZM144.34,152.56l0-11.55,0-13.91-.05-18.19-.09-31.39,0-12.08,10.08-5.82,10.71-6.18,10.53-6.08.05,16,0,8.93,0,9.77,0,12.08,0,8.52,0,6.92,0,7.15,0,8.18,0,9.55-10.75,6.2h0l-15.53,9Z" transform="translate(0 -31.27)"/><path class="cls-8" d="M160.87,104.16h0" transform="translate(0 -31.27)"/><path class="cls-8" d="M160.89,104.15l.19-.11" transform="translate(0 -31.27)"/><path class="cls-8" d="M163.48,102.76c-.8.45-1.6.88-2.4,1.28" transform="translate(0 -31.27)"/><line class="cls-8" x1="161.08" y1="72.77" x2="161.08" y2="72.77"/><path class="cls-8" d="M155.1,106.65l.77-.29" transform="translate(0 -31.27)"/><path class="cls-6" d="M175.46,63.38l-.05-16-10.53,6.08C166.85,58.72,170.61,62.24,175.46,63.38Z" transform="translate(0 -31.27)"/><polygon class="cls-10" points="177.43 104.21 142.57 124.33 142.58 126.76 179.52 105.43 177.43 104.21"/><polygon class="cls-3" points="177.17 13.04 177.43 104.21 179.52 105.43 179.26 11.84 177.17 13.04"/><path class="cls-1" d="M184.86,33.41,136.68,61.23l.3,106.5,48.18-27.81ZM142.58,158v-2.42l-.25-91.17,34.85-20.12,2.09-1.21.26,93.59Z" transform="translate(0 -31.27)"/><polygon class="cls-4" points="184.86 2.13 180.88 0 132.7 27.82 136.68 29.95 184.86 2.13"/><polygon class="cls-3" points="132.7 27.82 133 134.33 136.98 136.46 136.68 29.95 132.7 27.82"/><path class="cls-9" d="M23,352.58l17.74.52,17.74-.52c.77,12-1.57,24.2-4.8,30.16h0a8.07,8.07,0,0,1-3.51,3.57c-5.24,3-13.7,3-18.9,0a7.86,7.86,0,0,1-3.51-3.66C24.52,376.65,22.21,364.51,23,352.58Z" transform="translate(0 -31.27)"/><path class="cls-6" d="M28.2,345.32c-6.95,4-7,10.52-.08,14.53s18.14,4,25.1,0,7-10.52.08-14.53S35.16,341.3,28.2,345.32Z" transform="translate(0 -31.27)"/><path class="cls-1" d="M31,346.91c-5.42,3.13-5.45,8.21-.06,11.34s14.15,3.13,19.58,0,5.45-8.21.06-11.34S36.38,343.78,31,346.91Z" transform="translate(0 -31.27)"/><g class="cls-11"><path d="M31,346.91c-5.42,3.13-5.45,8.21-.06,11.34s14.15,3.13,19.58,0,5.45-8.21.06-11.34S36.38,343.78,31,346.91Z" transform="translate(0 -31.27)"/></g><path class="cls-12" d="M11.54,276.87c40,13.09,40.34,39.84,31.33,58.89-2.27,3.86-9.15,5.93-15.14-17.76l10.5,1.34L26,313.14l-3.18-9.51,10.21.76-13-5.45A192.16,192.16,0,0,0,11.54,276.87Z" transform="translate(0 -31.27)"/><path class="cls-13" d="M11.54,276.87c40,13.09,40.34,39.84,31.33,58.89-2.27,3.86-9.15,5.93-15.14-17.76l10.5,1.34L26,313.14l-3.18-9.51,10.21.76-13-5.45A192.16,192.16,0,0,0,11.54,276.87Z" transform="translate(0 -31.27)"/><path class="cls-14" d="M11.54,276.87c40,13.09,40.34,39.84,31.33,58.89-2.27,3.86-9.15,5.93-15.14-17.76l10.5,1.34L26,313.14l-3.18-9.51,10.21.76-13-5.45A192.16,192.16,0,0,0,11.54,276.87Z" transform="translate(0 -31.27)"/><path class="cls-9" d="M22.85,283.56c21.08,16,23,34.35,17,53.5C42,320.2,44.26,303.14,22.85,283.56Z" transform="translate(0 -31.27)"/><path class="cls-12" d="M79.26,304c-39.41,5.55-44.19,30.4-39,49.64,1.47,4,7.54,7,17.05-14l-10-.49,12.43-3.74,4.54-8.32-9.63-1,13-2.93A182.53,182.53,0,0,1,79.26,304Z" transform="translate(0 -31.27)"/><path class="cls-14" d="M79.26,304c-39.41,5.55-44.19,30.4-39,49.64,1.47,4,7.54,7,17.05-14l-10-.49,12.43-3.74,4.54-8.32-9.63-1,13-2.93A182.53,182.53,0,0,1,79.26,304Z" transform="translate(0 -31.27)"/><path class="cls-15" d="M79.26,304c-39.41,5.55-44.19,30.4-39,49.64,1.47,4,7.54,7,17.05-14l-10-.49,12.43-3.74,4.54-8.32-9.63-1,13-2.93A182.53,182.53,0,0,1,79.26,304Z" transform="translate(0 -31.27)"/><path class="cls-9" d="M67.62,308.39c-22.3,11.4-27.12,28.17-24.76,47C43.7,339.34,44.42,323.07,67.62,308.39Z" transform="translate(0 -31.27)"/><path class="cls-12" d="M0,313.35c36.15.59,43.24,22.46,40.68,40.39-.89,3.74-6,7.19-16.94-10.74l9-1.56-11.62-2-5-7,8.57-2-12-1.18A165.55,165.55,0,0,0,0,313.35Z" transform="translate(0 -31.27)"/><path class="cls-9" d="M11,316c21.37,7.78,27.6,22.36,27.57,39.6C36,341.19,33.54,326.61,11,316Z" transform="translate(0 -31.27)"/><path class="cls-14" d="M0,313.35c36.15.59,43.24,22.46,40.68,40.39-.89,3.74-6,7.19-16.94-10.74l9-1.56-11.62-2-5-7,8.57-2-12-1.18A165.55,165.55,0,0,0,0,313.35Z" transform="translate(0 -31.27)"/><path class="cls-9" d="M452.28,321.18l18.61.54,18.6-.54c.81,12.57-1.65,25.37-5,31.63h0a8.46,8.46,0,0,1-3.69,3.75c-5.49,3.17-14.36,3.17-19.82,0a8.27,8.27,0,0,1-3.68-3.84C453.91,346.42,451.48,333.68,452.28,321.18Z" transform="translate(0 -31.27)"/><path class="cls-6" d="M457.77,313.56c-7.29,4.21-7.33,11-.08,15.24s19,4.21,26.31,0,7.33-11,.09-15.24S465.06,309.35,457.77,313.56Z" transform="translate(0 -31.27)"/><path class="cls-1" d="M460.65,315.23c-5.68,3.29-5.71,8.61-.06,11.9s14.84,3.28,20.53,0,5.72-8.61.06-11.9S466.34,312,460.65,315.23Z" transform="translate(0 -31.27)"/><g class="cls-11"><path d="M460.65,315.23c-5.68,3.29-5.71,8.61-.06,11.9s14.84,3.28,20.53,0,5.72-8.61.06-11.9S466.34,312,460.65,315.23Z" transform="translate(0 -31.27)"/></g><path class="cls-12" d="M480.38,283.1c3-3.76,6.54-7.13,9.31-11.09,1.9-2.69,3.48-6,2.68-9.19a8.23,8.23,0,0,0-6.51-5.73,12.5,12.5,0,0,0-8.75,2,27,27,0,0,0-6.61,6.29,65.66,65.66,0,0,0-13.82,46.89,9.88,9.88,0,0,0,1.72,5.39,5.43,5.43,0,0,0,5.57,1.7c5.06-1.51,4.39-8.35,5.22-12.38A56.84,56.84,0,0,1,475,291.12,55.26,55.26,0,0,1,480.38,283.1Z" transform="translate(0 -31.27)"/><path class="cls-14" d="M480.38,283.1c3-3.76,6.54-7.13,9.31-11.09,1.9-2.69,3.48-6,2.68-9.19a8.23,8.23,0,0,0-6.51-5.73,12.5,12.5,0,0,0-8.75,2,27,27,0,0,0-6.61,6.29,65.66,65.66,0,0,0-13.82,46.89,9.88,9.88,0,0,0,1.72,5.39,5.43,5.43,0,0,0,5.57,1.7c5.06-1.51,4.39-8.35,5.22-12.38A56.84,56.84,0,0,1,475,291.12,55.26,55.26,0,0,1,480.38,283.1Z" transform="translate(0 -31.27)"/><path class="cls-3" d="M463.65,314.21a.45.45,0,0,0,.36-.42c.35-8.14,3-35.91,22.14-51.67a.44.44,0,1,0-.57-.68c-19.42,16-22.1,44.08-22.46,52.31a.44.44,0,0,0,.43.46Z" transform="translate(0 -31.27)"/><path class="cls-12" d="M460.85,315.09a13.6,13.6,0,0,0,6.22,8.61,17.53,17.53,0,0,0,9.4,1.58A41.49,41.49,0,0,0,486,323c1.53-.52,3.24-1.22,3.4-3.12a3.4,3.4,0,0,0-1.08-2.68,11.89,11.89,0,0,0-1-.85,1,1,0,0,1,.52-1.76,22.71,22.71,0,0,0,2.72-.34,11.92,11.92,0,0,0,5.71-2.58,9.5,9.5,0,0,0,2.64-3.91c.47-1.28.59-2.88-.37-3.84a4.33,4.33,0,0,0-2.12-.92c-.68-.14-1.36-.27-2.05-.37a.91.91,0,0,1-.21-1.74l2.89-1.2a5.45,5.45,0,0,0,2.19-1.36,4.82,4.82,0,0,0,.56-4c-.36-1.81-1-3.55-1.41-5.34a11.65,11.65,0,0,1-.19-5.47,46.07,46.07,0,0,0-16.17,1.08,11.52,11.52,0,0,0-4.41,1.94c-1.8,1.44-2.27,3.6-2.08,5.94a.42.42,0,0,1-.78.22l-1.85-3.4a2.19,2.19,0,0,0-2.87-.92,13.15,13.15,0,0,0-4.21,3.32,7.31,7.31,0,0,0-1.81,5.4,47,47,0,0,0,1.35,7.92.74.74,0,0,1-1.15.78l-.09-.06a2.44,2.44,0,0,0-1.74-.51c-1.63.2-2.05,1.85-2.16,3.26A27.86,27.86,0,0,0,460.85,315.09Z" transform="translate(0 -31.27)"/><path class="cls-13" d="M460.85,315.09a13.6,13.6,0,0,0,6.22,8.61,17.53,17.53,0,0,0,9.4,1.58A41.49,41.49,0,0,0,486,323c1.53-.52,3.24-1.22,3.4-3.12a3.4,3.4,0,0,0-1.08-2.68,11.89,11.89,0,0,0-1-.85,1,1,0,0,1,.52-1.76,22.71,22.71,0,0,0,2.72-.34,11.92,11.92,0,0,0,5.71-2.58,9.5,9.5,0,0,0,2.64-3.91c.47-1.28.59-2.88-.37-3.84a4.33,4.33,0,0,0-2.12-.92c-.68-.14-1.36-.27-2.05-.37a.91.91,0,0,1-.21-1.74l2.89-1.2a5.45,5.45,0,0,0,2.19-1.36,4.82,4.82,0,0,0,.56-4c-.36-1.81-1-3.55-1.41-5.34a11.65,11.65,0,0,1-.19-5.47,46.07,46.07,0,0,0-16.17,1.08,11.52,11.52,0,0,0-4.41,1.94c-1.8,1.44-2.27,3.6-2.08,5.94a.42.42,0,0,1-.78.22l-1.85-3.4a2.19,2.19,0,0,0-2.87-.92,13.15,13.15,0,0,0-4.21,3.32,7.31,7.31,0,0,0-1.81,5.4,47,47,0,0,0,1.35,7.92.74.74,0,0,1-1.15.78l-.09-.06a2.44,2.44,0,0,0-1.74-.51c-1.63.2-2.05,1.85-2.16,3.26A27.86,27.86,0,0,0,460.85,315.09Z" transform="translate(0 -31.27)"/><path class="cls-14" d="M460.85,315.09a13.6,13.6,0,0,0,6.22,8.61,17.53,17.53,0,0,0,9.4,1.58A41.49,41.49,0,0,0,486,323c1.53-.52,3.24-1.22,3.4-3.12a3.4,3.4,0,0,0-1.08-2.68,11.89,11.89,0,0,0-1-.85,1,1,0,0,1,.52-1.76,22.71,22.71,0,0,0,2.72-.34,11.92,11.92,0,0,0,5.71-2.58,9.5,9.5,0,0,0,2.64-3.91c.47-1.28.59-2.88-.37-3.84a4.33,4.33,0,0,0-2.12-.92c-.68-.14-1.36-.27-2.05-.37a.91.91,0,0,1-.21-1.74l2.89-1.2a5.45,5.45,0,0,0,2.19-1.36,4.82,4.82,0,0,0,.56-4c-.36-1.81-1-3.55-1.41-5.34a11.65,11.65,0,0,1-.19-5.47,46.07,46.07,0,0,0-16.17,1.08,11.52,11.52,0,0,0-4.41,1.94c-1.8,1.44-2.27,3.6-2.08,5.94a.42.42,0,0,1-.78.22l-1.85-3.4a2.19,2.19,0,0,0-2.87-.92,13.15,13.15,0,0,0-4.21,3.32,7.31,7.31,0,0,0-1.81,5.4,47,47,0,0,0,1.35,7.92.74.74,0,0,1-1.15.78l-.09-.06a2.44,2.44,0,0,0-1.74-.51c-1.63.2-2.05,1.85-2.16,3.26A27.86,27.86,0,0,0,460.85,315.09Z" transform="translate(0 -31.27)"/><path class="cls-3" d="M469.43,323.26a65.42,65.42,0,0,1,4.35-12.6.45.45,0,0,1,.15-.34c.1-.21.2-.43.31-.65a41.06,41.06,0,0,0-4.31-14.44.43.43,0,0,1,.16-.6.45.45,0,0,1,.61.16,41.58,41.58,0,0,1,4.24,13.42c3.68-7.39,9.56-16,18.62-22.33a.45.45,0,0,1,.51.73c-9.35,6.51-15.25,15.53-18.84,23a27.17,27.17,0,0,1,15.42-2.08.45.45,0,0,1,.35.52.46.46,0,0,1-.35.35h-.17c-.09,0-8.55-1.56-15.87,2.54a64.5,64.5,0,0,0-4.31,12.48.45.45,0,0,1-.35.35.49.49,0,0,1-.17,0A.44.44,0,0,1,469.43,323.26Z" transform="translate(0 -31.27)"/><polygon class="cls-12" points="50.17 196.8 50.13 181.14 41.95 176.48 42 191.79 42 191.79 42 192.13 50.17 196.8 50.17 196.8"/><path class="cls-12" d="M50.68,409.5l-.51-181.43L42,223.41l.51,181.08a3.43,3.43,0,0,0,1.37,3.07h0l0,0,0,0L52,412.53A3.44,3.44,0,0,1,50.68,409.5Z" transform="translate(0 -31.27)"/><path class="cls-14" d="M50.68,409.5l-.51-181.43L42,223.41l.51,181.08a3.43,3.43,0,0,0,1.37,3.07h0l0,0,0,0L52,412.53A3.44,3.44,0,0,1,50.68,409.5Z" transform="translate(0 -31.27)"/><path class="cls-16" d="M55.54,412.27a5.53,5.53,0,0,1-.94.43A5.91,5.91,0,0,0,55.54,412.27Z" transform="translate(0 -31.27)"/><path class="cls-16" d="M53.93,412.86l-.19,0Z" transform="translate(0 -31.27)"/><path class="cls-16" d="M52.26,412.68h0l-.06,0Z" transform="translate(0 -31.27)"/><path class="cls-12" d="M50.16,212.38l0-9A10.65,10.65,0,0,1,55,195L328.34,37.15a3.42,3.42,0,0,1,3.38-.35l-8.07-5h0a3.36,3.36,0,0,0-3.49.29L46.78,190A10.61,10.61,0,0,0,42,198.34l0,9h0l0,0v.37l8.18,4.65Z" transform="translate(0 -31.27)"/><path class="cls-17" d="M50.16,212.38l0-9A10.65,10.65,0,0,1,55,195L328.34,37.15a3.42,3.42,0,0,1,3.38-.35l-8.07-5h0a3.36,3.36,0,0,0-3.49.29L46.78,190A10.61,10.61,0,0,0,42,198.34l0,9h0l0,0v.37l8.18,4.65Z" transform="translate(0 -31.27)"/><polygon class="cls-13" points="50.17 196.8 50.13 181.14 41.95 176.48 42 191.79 42 191.79 42 192.13 50.17 196.8 50.17 196.8"/><polygon class="cls-14" points="50.17 196.8 50.13 181.14 41.95 176.48 42 191.79 42 191.79 42 192.13 50.17 196.8 50.17 196.8"/><path class="cls-12" d="M328.34,37.15c2.66-1.54,4.84-.3,4.85,2.78l0,9-283,163.43,0-9A10.65,10.65,0,0,1,55,195Z" transform="translate(0 -31.27)"/><path class="cls-9" d="M310,52.08c1.43-.82,2.59-.16,2.6,1.48A5.68,5.68,0,0,1,310,58c-1.43.83-2.6.16-2.6-1.48A5.68,5.68,0,0,1,310,52.08Z" transform="translate(0 -31.27)"/><path class="cls-9" d="M317.91,47.52c1.43-.82,2.59-.16,2.59,1.48a5.65,5.65,0,0,1-2.58,4.47c-1.43.83-2.59.17-2.59-1.48A5.68,5.68,0,0,1,317.91,47.52Z" transform="translate(0 -31.27)"/><path class="cls-9" d="M325.8,43c1.43-.83,2.59-.16,2.59,1.48a5.68,5.68,0,0,1-2.58,4.47c-1.43.82-2.59.16-2.59-1.48A5.65,5.65,0,0,1,325.8,43Z" transform="translate(0 -31.27)"/><path class="cls-1" d="M107.08,170.56c1.07-.61,2-.51,2.56.28l2.57,4c.51.79,1.49.9,2.56.29L333.18,49l.05,15.69L50.17,228.09l0-15.68,8.38-4.84a6.43,6.43,0,0,0,2.56-3.25l2.53-6.89a6.27,6.27,0,0,1,2.55-3.23Z" transform="translate(0 -31.27)"/><path class="cls-12" d="M333.23,64.65l.51,181.43a10.63,10.63,0,0,1-4.82,8.35L55.54,412.27c-2.68,1.54-4.85.3-4.86-2.77l-.51-181.43Z" transform="translate(0 -31.27)"/><g class="cls-18"><path class="cls-9" d="M333.23,64.65l.51,181.43a10.63,10.63,0,0,1-4.82,8.35L55.54,412.27c-2.68,1.54-4.85.3-4.86-2.77l-.51-181.43Z" transform="translate(0 -31.27)"/></g><path class="cls-9" d="M322,58.62c1.9-1.1,3.44-.22,3.45,2a7.52,7.52,0,0,1-3.42,5.94L82.45,204.86c-1.9,1.1-3.45.21-3.45-2A7.53,7.53,0,0,1,82.43,197Z" transform="translate(0 -31.27)"/><path class="cls-1" d="M54.7,213.8a.32.32,0,0,1,.35,0c.19.12.17.48,0,.8l-1.51,2.47,4-2.29c.27-.16.49,0,.49.27a1,1,0,0,1-.49.84l-4,2.29,1.52.72c.19.1.21.44,0,.77a1,1,0,0,1-.36.38.34.34,0,0,1-.33.05L52,218.92l-.1-.1v0l-.05-.19,0-.25,0,0,.09-.2,2.42-4A1.1,1.1,0,0,1,54.7,213.8Z" transform="translate(0 -31.27)"/><path class="cls-1" d="M63.28,208.85a.37.37,0,0,1,.33,0L66,210l.1.1,0,0,0,.2,0,.24,0,0-.09.2-2.42,4a1.08,1.08,0,0,1-.33.34.34.34,0,0,1-.35,0c-.19-.12-.18-.47,0-.8l1.51-2.46-4,2.29c-.26.15-.48,0-.48-.29a1.07,1.07,0,0,1,.48-.83l4-2.29L63,210c-.2-.09-.21-.44,0-.77A.87.87,0,0,1,63.28,208.85Z" transform="translate(0 -31.27)"/><path class="cls-1" d="M71.43,204.14a2.14,2.14,0,0,1,1.64-.31l.37-.48a.84.84,0,0,1,.26-.24.43.43,0,0,1,.26-.06c.17,0,.24.2.22.44L74,205a1,1,0,0,1-.2.5,1,1,0,0,1-.27.24l-.12.05-1.18.33a.26.26,0,0,1-.35-.24.93.93,0,0,1,.21-.68l.12-.16a1.57,1.57,0,0,0-.75.23,3.81,3.81,0,0,0-1.73,3c0,1.11.79,1.55,1.75,1A3.93,3.93,0,0,0,73,207.34a1,1,0,0,1,.42-.53.39.39,0,0,1,.23-.07c.24,0,.32.31.19.65a5.88,5.88,0,0,1-2.37,3c-1.49.86-2.72.17-2.72-1.55A6,6,0,0,1,71.43,204.14Z" transform="translate(0 -31.27)"/><g class="cls-19"><path d="M54.7,213.8a.32.32,0,0,1,.35,0c.19.12.17.48,0,.8l-1.51,2.47,4-2.29c.27-.16.49,0,.49.27a1,1,0,0,1-.49.84l-4,2.29,1.52.72c.19.1.21.44,0,.77a1,1,0,0,1-.36.38.34.34,0,0,1-.33.05L52,218.92l-.1-.1v0l-.05-.19,0-.25,0,0,.09-.2,2.42-4A1.1,1.1,0,0,1,54.7,213.8Z" transform="translate(0 -31.27)"/></g><g class="cls-19"><path d="M63.28,208.85a.37.37,0,0,1,.33,0L66,210l.1.1,0,0,0,.2,0,.24,0,0-.09.2-2.42,4a1.08,1.08,0,0,1-.33.34.34.34,0,0,1-.35,0c-.19-.12-.18-.47,0-.8l1.51-2.46-4,2.29c-.26.15-.48,0-.48-.29a1.07,1.07,0,0,1,.48-.83l4-2.29L63,210c-.2-.09-.21-.44,0-.77A.87.87,0,0,1,63.28,208.85Z" transform="translate(0 -31.27)"/></g><g class="cls-19"><path d="M71.43,204.14a2.14,2.14,0,0,1,1.64-.31l.37-.48a.84.84,0,0,1,.26-.24.43.43,0,0,1,.26-.06c.17,0,.24.2.22.44L74,205a1,1,0,0,1-.2.5,1,1,0,0,1-.27.24l-.12.05-1.18.33a.26.26,0,0,1-.35-.24.93.93,0,0,1,.21-.68l.12-.16a1.57,1.57,0,0,0-.75.23,3.81,3.81,0,0,0-1.73,3c0,1.11.79,1.55,1.75,1A3.93,3.93,0,0,0,73,207.34a1,1,0,0,1,.42-.53.39.39,0,0,1,.23-.07c.24,0,.32.31.19.65a5.88,5.88,0,0,1-2.37,3c-1.49.86-2.72.17-2.72-1.55A6,6,0,0,1,71.43,204.14Z" transform="translate(0 -31.27)"/></g><g class="cls-20"><path class="cls-9" d="M320.67,117.69l.24,65.24a16.81,16.81,0,0,1-8.37,14.59l-141.32,82a5.61,5.61,0,0,1-8.42-4.83l-.24-65.23a16.81,16.81,0,0,1,8.37-14.59l141.32-82A5.61,5.61,0,0,1,320.67,117.69Z" transform="translate(0 -31.27)"/></g><polygon class="cls-12" points="263.36 125.92 235 179.79 226.97 195.04 232.5 177.86 216.86 165.72 199.45 200.31 199.51 221.45 290.89 168.69 290.83 147.55 263.36 125.92"/><path class="cls-12" d="M233.39,185.74c4.3-2.48,7.78-8.5,7.76-13.44s-3.51-6.94-7.81-4.46-7.78,8.51-7.77,13.45S229.09,188.23,233.39,185.74Z" transform="translate(0 -31.27)"/><g class="cls-19"><polygon class="cls-9" points="263.36 125.92 235 179.79 226.97 195.04 232.5 177.86 216.86 165.72 199.45 200.31 199.51 221.45 290.89 168.69 290.83 147.55 263.36 125.92"/><path class="cls-9" d="M233.39,185.74c4.3-2.48,7.78-8.5,7.76-13.44s-3.51-6.94-7.81-4.46-7.78,8.51-7.77,13.45S229.09,188.23,233.39,185.74Z" transform="translate(0 -31.27)"/></g><g class="cls-20"><path class="cls-9" d="M237.31,253.83l.11,39.4a7.6,7.6,0,0,1-3.79,6.6l-67.15,39a2.53,2.53,0,0,1-3.81-2.18l-.11-39.4a7.61,7.61,0,0,1,3.79-6.6l67.15-39A2.54,2.54,0,0,1,237.31,253.83Z" transform="translate(0 -31.27)"/></g><polygon class="cls-12" points="193.33 255.57 214.13 257.36 193.41 283.12 193.33 255.57"/><g class="cls-19"><polygon class="cls-9" points="193.33 255.57 214.13 257.36 193.41 283.12 193.33 255.57"/></g><g class="cls-20"><path class="cls-9" d="M319.89,205.91l.12,39.4a7.62,7.62,0,0,1-3.79,6.59L249.4,290.22a2.53,2.53,0,0,1-3.8-2.18l-.11-39.4a7.59,7.59,0,0,1,3.78-6.6l66.82-38.32A2.53,2.53,0,0,1,319.89,205.91Z" transform="translate(0 -31.27)"/></g><polygon class="cls-12" points="275.22 206.26 296.02 208.04 275.3 233.81 275.22 206.26"/><g class="cls-19"><polygon class="cls-9" points="275.22 206.26 296.02 208.04 275.3 233.81 275.22 206.26"/></g><g class="cls-21"><polygon class="cls-9" points="124.7 171.77 124.73 181.71 67.88 214.52 67.86 204.59 124.7 171.77"/><polygon class="cls-9" points="101.89 200.32 101.91 205.26 67.91 224.89 67.9 219.94 101.89 200.32"/><polygon class="cls-9" points="193.9 131.87 193.92 137.66 177.46 147.17 177.44 141.37 193.9 131.87"/><polygon class="cls-9" points="225.47 113.64 225.48 119.44 203.54 132.11 203.53 126.31 225.47 113.64"/><polygon class="cls-9" points="288.92 77.01 288.94 82.81 272.47 92.31 272.46 86.51 288.92 77.01"/><polygon class="cls-9" points="320.49 58.78 320.5 64.58 298.56 77.25 298.54 71.45 320.49 58.78"/><polygon class="cls-9" points="261.16 93.03 261.18 98.83 234.99 113.95 234.97 108.16 261.16 93.03"/></g><g class="cls-21"><polygon class="cls-9" points="125.14 227.59 125.15 231.97 67.98 264.97 67.97 260.6 125.14 227.59"/><polygon class="cls-9" points="90.44 255.24 90.45 259.61 68 272.57 67.99 268.2 90.44 255.24"/><polygon class="cls-9" points="125.21 253.26 125.22 257.64 68.05 290.64 68.04 286.27 125.21 253.26"/><polygon class="cls-9" points="125.19 245.66 125.2 250.04 68.03 283.04 68.02 278.67 125.19 245.66"/><polygon class="cls-9" points="125.12 219.99 125.13 224.37 67.96 257.37 67.95 253 125.12 219.99"/><polygon class="cls-9" points="112.89 267.98 112.9 272.36 68.08 298.24 68.06 293.86 112.89 267.98"/></g><g class="cls-21"><path class="cls-12" d="M123.46,326.72c4.92-2.84,8.93-.57,9,5.1s-4,12.55-8.89,15.39L75.66,374.84c-4.92,2.84-8.93.56-8.94-5.1s4-12.55,8.89-15.39Z" transform="translate(0 -31.27)"/></g><polygon class="cls-9" points="92.61 319.64 92.66 327.3 90.61 328.48 90.58 325 89.14 328.64 88.15 329.21 86.69 327.37 86.7 330.74 84.65 331.92 84.63 324.25 86.48 323.18 88.66 326.01 90.77 320.71 92.61 319.64"/><path class="cls-9" d="M97.23,348.08c2.17-1.26,3.77-.49,3.77,1.83a7.66,7.66,0,0,1-3.75,6.19c-2.17,1.26-3.77.48-3.78-1.84A7.64,7.64,0,0,1,97.23,348.08Zm0,5.92a3.29,3.29,0,0,0,1.49-2.78c0-1.19-.67-1.53-1.5-1.05A3.28,3.28,0,0,0,95.75,353c0,1.19.67,1.53,1.5,1.05" transform="translate(0 -31.27)"/><path class="cls-9" d="M106.83,348l1.41,1.55-2.4,1.39-1.15-1.27-.6.36V352l-2.25,1.3,0-7.67,3.22-1.86c1.85-1.07,3-.64,3,1.14A4.88,4.88,0,0,1,106.83,348Zm-1.93-.4a1.63,1.63,0,0,0,.91-1.43c0-.56-.3-.72-.92-.36l-.81.47v1.79l.82-.47" transform="translate(0 -31.27)"/><polygon class="cls-9" points="114.35 307.09 114.36 309.05 111.14 310.9 111.15 311.8 113.97 310.17 113.97 312.03 111.15 313.66 111.16 314.67 114.49 312.74 114.5 314.69 108.95 317.89 108.93 310.22 114.35 307.09"/><polygon class="cls-12" points="252.98 421.64 252.97 426.44 220.32 407.59 220.33 402.79 252.98 421.64"/><polygon class="cls-12" points="253 414.39 252.99 419.21 239.71 411.54 239.72 406.72 253 414.39"/><g class="cls-5"><polygon class="cls-12" points="198.87 397.64 198.85 402.44 175.35 388.87 175.36 384.07 198.87 397.64"/><polygon class="cls-12" points="213.06 398.59 213.05 403.39 175.37 381.64 175.38 376.83 213.06 398.59"/><polygon class="cls-12" points="233.39 403.07 233.38 407.88 196.09 386.36 192.46 384.26 175.14 374.26 175.15 369.44 192.47 379.44 196.1 381.54 233.39 403.07"/><polygon class="cls-12" points="222.53 379.68 222.51 384.48 175.44 357.3 175.45 352.5 222.53 379.68"/><polygon class="cls-12" points="219.82 370.85 219.81 375.66 210.61 370.34 210.62 365.54 219.82 370.85"/></g><polygon class="cls-12" points="217.15 408.2 217.13 413 203.86 405.34 203.88 400.53 217.15 408.2"/><polygon class="cls-12" points="253.07 390.05 253.06 394.85 226.88 379.74 226.89 374.94 253.07 390.05"/><polygon class="cls-12" points="253.09 382.81 253.08 387.62 234.78 377.05 230.74 374.72 206.48 360.71 206.49 355.91 230.75 369.92 234.79 372.25 253.09 382.81"/><polygon class="cls-12" points="233.52 357.01 233.51 361.81 203.04 344.22 203.05 339.42 233.52 357.01"/><polygon class="cls-12" points="202.99 361.14 202.98 365.94 175.46 350.05 175.47 345.25 202.99 361.14"/><g class="cls-5"><polygon class="cls-12" points="199 351.58 198.98 356.39 175.48 342.81 175.49 338.01 199 351.58"/><polygon class="cls-12" points="196.23 335.48 196.22 340.28 175.27 328.19 175.28 323.38 196.23 335.48"/><polygon class="cls-12" points="213.19 352.53 213.18 357.33 175.5 335.58 175.51 330.78 213.19 352.53"/><polygon class="cls-12" points="206.26 334.02 206.25 338.82 175.29 320.95 175.3 316.15 206.26 334.02"/></g><polygon class="cls-12" points="253.11 375.58 253.1 380.38 220.45 361.53 220.46 356.73 253.11 375.58"/><polygon class="cls-12" points="253.13 368.33 253.12 373.13 239.84 365.47 239.85 360.66 253.13 368.33"/><g class="cls-20"><polygon class="cls-9" points="252.98 421.64 252.97 426.44 220.32 407.59 220.33 402.79 252.98 421.64"/><polygon class="cls-9" points="253 414.39 252.99 419.21 239.71 411.54 239.72 406.72 253 414.39"/><g class="cls-5"><polygon class="cls-9" points="198.87 397.64 198.85 402.44 175.35 388.87 175.36 384.07 198.87 397.64"/><polygon class="cls-9" points="213.06 398.59 213.05 403.39 175.37 381.64 175.38 376.83 213.06 398.59"/><polygon class="cls-9" points="233.39 403.07 233.38 407.88 196.09 386.36 192.46 384.26 175.14 374.26 175.15 369.44 192.47 379.44 196.1 381.54 233.39 403.07"/><polygon class="cls-9" points="222.53 379.68 222.51 384.48 175.44 357.3 175.45 352.5 222.53 379.68"/><polygon class="cls-9" points="219.82 370.85 219.81 375.66 210.61 370.34 210.62 365.54 219.82 370.85"/></g><polygon class="cls-9" points="217.15 408.2 217.13 413 203.86 405.34 203.88 400.53 217.15 408.2"/><polygon class="cls-9" points="253.07 390.05 253.06 394.85 226.88 379.74 226.89 374.94 253.07 390.05"/><polygon class="cls-9" points="253.09 382.81 253.08 387.62 234.78 377.05 230.74 374.72 206.48 360.71 206.49 355.91 230.75 369.92 234.79 372.25 253.09 382.81"/><polygon class="cls-9" points="233.52 357.01 233.51 361.81 203.04 344.22 203.05 339.42 233.52 357.01"/><polygon class="cls-9" points="202.99 361.14 202.98 365.94 175.46 350.05 175.47 345.25 202.99 361.14"/><g class="cls-5"><polygon class="cls-9" points="199 351.58 198.98 356.39 175.48 342.81 175.49 338.01 199 351.58"/><polygon class="cls-9" points="196.23 335.48 196.22 340.28 175.27 328.19 175.28 323.38 196.23 335.48"/><polygon class="cls-9" points="213.19 352.53 213.18 357.33 175.5 335.58 175.51 330.78 213.19 352.53"/><polygon class="cls-9" points="206.26 334.02 206.25 338.82 175.29 320.95 175.3 316.15 206.26 334.02"/></g><polygon class="cls-9" points="253.11 375.58 253.1 380.38 220.45 361.53 220.46 356.73 253.11 375.58"/><polygon class="cls-9" points="253.13 368.33 253.12 373.13 239.84 365.47 239.85 360.66 253.13 368.33"/></g><path class="cls-12" d="M159.33,359.4l-11.14-6.54a.57.57,0,0,1-.28-.48V283l-14.36-8.32.57-1,14.63,8.48a.54.54,0,0,1,.28.48v69.43l10.87,6.39Z" transform="translate(0 -31.27)"/><path class="cls-12" d="M162.57,356.05a8.73,8.73,0,0,1,4,6.87c0,2.53-1.79,3.55-4,2.28a8.74,8.74,0,0,1-4-6.88C158.58,355.8,160.37,354.78,162.57,356.05Z" transform="translate(0 -31.27)"/><path class="cls-12" d="M136,270.74a8.77,8.77,0,0,1,4,6.88c0,2.52-1.8,3.54-4,2.27a8.72,8.72,0,0,1-4-6.87C132,270.49,133.75,269.47,136,270.74Z" transform="translate(0 -31.27)"/><g class="cls-22"><path class="cls-9" d="M159.33,359.4l-11.14-6.54a.57.57,0,0,1-.28-.48V283l-14.36-8.32.57-1,14.63,8.48a.54.54,0,0,1,.28.48v69.43l10.87,6.39Z" transform="translate(0 -31.27)"/><path class="cls-9" d="M162.57,356.05a8.73,8.73,0,0,1,4,6.87c0,2.53-1.79,3.55-4,2.28a8.74,8.74,0,0,1-4-6.88C158.58,355.8,160.37,354.78,162.57,356.05Z" transform="translate(0 -31.27)"/><path class="cls-9" d="M136,270.74a8.77,8.77,0,0,1,4,6.88c0,2.52-1.8,3.54-4,2.27a8.72,8.72,0,0,1-4-6.87C132,270.49,133.75,269.47,136,270.74Z" transform="translate(0 -31.27)"/></g><polygon class="cls-12" points="447.17 97.38 447.16 102.18 414.5 83.33 414.52 78.53 447.17 97.38"/><polygon class="cls-12" points="447.19 90.13 447.18 94.95 433.9 87.28 433.91 82.47 447.19 90.13"/><g class="cls-5"><polygon class="cls-12" points="393.05 73.38 393.04 78.19 369.53 64.61 369.55 59.81 393.05 73.38"/><polygon class="cls-12" points="407.25 74.33 407.24 79.14 369.56 57.38 369.57 52.58 407.25 74.33"/><polygon class="cls-12" points="427.58 78.81 427.57 83.63 390.28 62.1 386.64 60 369.32 50 369.34 45.18 386.66 55.18 390.29 57.28 427.58 78.81"/></g><polygon class="cls-12" points="411.33 83.94 411.32 88.74 398.05 81.08 398.06 76.28 411.33 83.94"/><g class="cls-20"><polygon class="cls-9" points="447.17 97.38 447.16 102.18 414.5 83.33 414.52 78.53 447.17 97.38"/><polygon class="cls-9" points="447.19 90.13 447.18 94.95 433.9 87.28 433.91 82.47 447.19 90.13"/><g class="cls-5"><polygon class="cls-9" points="393.05 73.38 393.04 78.19 369.53 64.61 369.55 59.81 393.05 73.38"/><polygon class="cls-9" points="407.25 74.33 407.24 79.14 369.56 57.38 369.57 52.58 407.25 74.33"/><polygon class="cls-9" points="427.58 78.81 427.57 83.63 390.28 62.1 386.64 60 369.32 50 369.34 45.18 386.66 55.18 390.29 57.28 427.58 78.81"/></g><polygon class="cls-9" points="411.33 83.94 411.32 88.74 398.05 81.08 398.06 76.28 411.33 83.94"/></g><polygon class="cls-12" points="447.19 116.1 447.18 120.91 433.9 113.25 433.91 108.43 447.19 116.1"/><g class="cls-5"><polygon class="cls-12" points="407.25 100.3 407.24 105.1 369.56 83.34 369.57 78.54 407.25 100.3"/><polygon class="cls-12" points="427.58 104.78 427.57 109.59 390.28 88.06 386.64 85.96 369.32 75.97 369.34 71.15 386.66 81.15 390.29 83.25 427.58 104.78"/></g><g class="cls-20"><polygon class="cls-9" points="447.19 116.1 447.18 120.91 433.9 113.25 433.91 108.43 447.19 116.1"/><g class="cls-5"><polygon class="cls-9" points="407.25 100.3 407.24 105.1 369.56 83.34 369.57 78.54 407.25 100.3"/><polygon class="cls-9" points="427.58 104.78 427.57 109.59 390.28 88.06 386.64 85.96 369.32 75.97 369.34 71.15 386.66 81.15 390.29 83.25 427.58 104.78"/></g></g><path class="cls-12" d="M389.16,132.34c-2.2-1.27-4-.25-4,2.27a7.71,7.71,0,0,0,.95,3.5l-56,32.41-17.65-10.3a8.78,8.78,0,0,0-4-6.8c-2.2-1.27-4-.25-4,2.28a8.74,8.74,0,0,0,4,6.87c1.82,1.05,3.35.51,3.82-1.14l17.82,10.39,56.59-32.75a7.84,7.84,0,0,0,2.45,2.42c2.2,1.27,4,.25,4-2.28A8.73,8.73,0,0,0,389.16,132.34Z" transform="translate(0 -31.27)"/><path class="cls-14" d="M389.16,132.34c-2.2-1.27-4-.25-4,2.27a7.71,7.71,0,0,0,.95,3.5l-56,32.41-17.65-10.3a8.78,8.78,0,0,0-4-6.8c-2.2-1.27-4-.25-4,2.28a8.74,8.74,0,0,0,4,6.87c1.82,1.05,3.35.51,3.82-1.14l17.82,10.39,56.59-32.75a7.84,7.84,0,0,0,2.45,2.42c2.2,1.27,4,.25,4-2.28A8.73,8.73,0,0,0,389.16,132.34Z" transform="translate(0 -31.27)"/><path class="cls-23" d="M324.89,302.93c-9.35,6.49-19.89,11-27.71,19.7-14.59,16.27-14.93,42.45-3.47,61.06S326.49,413.48,348.2,416c22.77,2.68,46.67-3.61,64.54-18S442,361.22,442,338.29,430.21,292.52,411,280c-17.52-11.43-42.7-14.69-60.28-1.61-8.89,6.61-14.82,16.36-23.69,23C326.33,301.91,325.61,302.43,324.89,302.93Z" transform="translate(0 -31.27)"/><path class="cls-13" d="M324.89,302.93c-9.35,6.49-19.89,11-27.71,19.7-14.59,16.27-14.93,42.45-3.47,61.06S326.49,413.48,348.2,416c22.77,2.68,46.67-3.61,64.54-18S442,361.22,442,338.29,430.21,292.52,411,280c-17.52-11.43-42.7-14.69-60.28-1.61-8.89,6.61-14.82,16.36-23.69,23C326.33,301.91,325.61,302.43,324.89,302.93Z" transform="translate(0 -31.27)"/><path class="cls-24" d="M324.89,302.93c-9.35,6.49-19.89,11-27.71,19.7-14.59,16.27-14.93,42.45-3.47,61.06S326.49,413.48,348.2,416c22.77,2.68,46.67-3.61,64.54-18S442,361.22,442,338.29,430.21,292.52,411,280c-17.52-11.43-42.7-14.69-60.28-1.61-8.89,6.61-14.82,16.36-23.69,23C326.33,301.91,325.61,302.43,324.89,302.93Z" transform="translate(0 -31.27)"/><path class="cls-15" d="M328.7,398.26c0-.16.05-.31.07-.47a24.63,24.63,0,0,1,20-20.52,77.85,77.85,0,0,0,25.57-9.79c5.58-3.38,10.86-7.52,17.13-9.35a27.92,27.92,0,0,1,18.46,1.07c-5.27-5.53-14.29-8-21.51-5.46,5-7.64,9.39-15.88,11.11-24.85s.5-18.8-4.91-26.16a26.32,26.32,0,0,0-40.64-2.17c-5.36,5.85-8.38,14.1-11.89,21.21-2.53,5.11-5.14,10.34-9.31,14.24-6.28,5.87-15.31,8-21.83,13.61-7.38,6.38-10.57,16.57-10.6,26.33a76.7,76.7,0,0,0,2.86,19.46,73.8,73.8,0,0,0,26.71,16.33A29,29,0,0,1,328.7,398.26Z" transform="translate(0 -31.27)"/><g class="cls-22"><path class="cls-9" d="M429.74,335.14a66.93,66.93,0,0,0-57.09-65,48.4,48.4,0,0,0-6.46,1.09A65.25,65.25,0,0,1,428,335.18c.42,21.34-10,43.09-27.92,58.19-14,11.83-32.67,19.67-53.16,22.5l1.31.17q2.76.31,5.54.47c18.21-3.53,34.69-11,47.45-21.79C419.49,379.28,430.17,357,429.74,335.14Z" transform="translate(0 -31.27)"/></g><path class="cls-25" d="M304.85,391.12A65.69,65.69,0,0,1,306,401.77l2.53-.95a6.54,6.54,0,0,1,7,1.6l.12.13a2.56,2.56,0,0,0,3.52.16h0a2.59,2.59,0,0,0,.87-1.84l.33-10.75Z" transform="translate(0 -31.27)"/><path class="cls-4" d="M314.6,431.09c-5.24,5.61-14.89,10.51-21.9,5.73l.78,1.78c7,4.78,16.67-.12,21.91-5.73s1.84-9.49,6.56-14.46a17.15,17.15,0,0,0,4.08-6.06c-.21-.54-.41-1.24-.66-2a21.31,21.31,0,0,1-4.21,6.31C316.45,421.6,319.85,425.48,314.6,431.09Z" transform="translate(0 -31.27)"/><path class="cls-16" d="M322.79,404.45a10.17,10.17,0,0,1-1.65-3.82,2.19,2.19,0,0,0-1-1.56l-.05,1.8a2.59,2.59,0,0,1-.87,1.84,2.56,2.56,0,0,1-3.52-.16l-.12-.13a6.54,6.54,0,0,0-7-1.6l-2.57,1a2,2,0,0,0-1.27,1.89c.16,7.35-3.28,17.12-6.88,22.48-3.7,1.54-6.9,6.59-5.27,10.29l.17.37c7,4.78,16.66-.12,21.9-5.73s1.85-9.49,6.56-14.47a21.31,21.31,0,0,0,4.21-6.31A22.82,22.82,0,0,0,322.79,404.45Z" transform="translate(0 -31.27)"/><path class="cls-9" d="M312.53,415.07a.9.9,0,0,0,.83-1.59,10.24,10.24,0,0,0-10.07,0c-.16.58-.33,1.16-.5,1.73A9.86,9.86,0,0,1,312.53,415.07Z" transform="translate(0 -31.27)"/><path class="cls-9" d="M313.82,411.09a.9.9,0,0,0,.83-1.59,10.75,10.75,0,0,0-10.48.09c-.11.59-.23,1.2-.36,1.8C306.86,409.78,310,409.13,313.82,411.09Z" transform="translate(0 -31.27)"/><path class="cls-9" d="M311.12,419a.89.89,0,0,0,.82-1.59,10.24,10.24,0,0,0-9.86-.09c-.22.62-.45,1.23-.7,1.83A9.88,9.88,0,0,1,311.12,419Z" transform="translate(0 -31.27)"/><path class="cls-9" d="M297.8,426.16c-3.7,1.54-6.9,6.59-5.27,10.29l.17.37c6.91,4.71,16.37,0,21.66-5.48C310,422.68,300.72,424.84,297.8,426.16Z" transform="translate(0 -31.27)"/><path class="cls-9" d="M309.56,422.89a.89.89,0,0,0,1.19-.4.88.88,0,0,0-.36-1.19,10.23,10.23,0,0,0-9.88-.09c-.31.69-.63,1.34-1,2C302.61,421.57,305.69,420.93,309.56,422.89Z" transform="translate(0 -31.27)"/><path class="cls-25" d="M293.83,412.5a65.53,65.53,0,0,1-3.25,10.21l2.69.15a6.51,6.51,0,0,1,5.78,4.29l.06.17a2.54,2.54,0,0,0,3.15,1.56h0a2.56,2.56,0,0,0,1.54-1.32l4.65-9.71Z" transform="translate(0 -31.27)"/><path class="cls-4" d="M286.62,453c-7.06,3-17.87,3.6-22.35-3.61v2c4.48,7.21,15.29,6.62,22.35,3.61s5.52-7.95,11.84-10.59a17.18,17.18,0,0,0,6.18-3.9c0-.58.12-1.3.22-2.13a21.33,21.33,0,0,1-6.4,4.08C292.14,445.06,293.68,450,286.62,453Z" transform="translate(0 -31.27)"/><path class="cls-16" d="M304.86,431.94a10.12,10.12,0,0,1,0-4.17,2.23,2.23,0,0,0-.32-1.84l-.78,1.63a2.55,2.55,0,0,1-4.69-.24l-.06-.17a6.51,6.51,0,0,0-5.78-4.29l-2.74-.15a2,2,0,0,0-1.93,1.21c-2.81,6.79-9.9,14.34-15.36,17.8-4-.09-9,3.23-9,7.28v.4c4.48,7.21,15.29,6.62,22.35,3.61s5.52-7.95,11.84-10.59a21.33,21.33,0,0,0,6.4-4.08A22.62,22.62,0,0,0,304.86,431.94Z" transform="translate(0 -31.27)"/><path class="cls-9" d="M291.19,437.51a.89.89,0,0,0,1.25.11.88.88,0,0,0,.15-1.23,10.21,10.21,0,0,0-9.22-4.05c-.38.47-.76.93-1.16,1.38A9.86,9.86,0,0,1,291.19,437.51Z" transform="translate(0 -31.27)"/><path class="cls-9" d="M294,434.39a.89.89,0,0,0,1.25.12.9.9,0,0,0,.15-1.24,10.79,10.79,0,0,0-9.63-4.15c-.33.5-.69,1-1.05,1.5C288.14,430.38,291.22,431,294,434.39Z" transform="translate(0 -31.27)"/><path class="cls-9" d="M288.3,440.56a.9.9,0,0,0,1.4-1.12,10.21,10.21,0,0,0-9-4.07c-.46.48-.92.94-1.38,1.4A9.84,9.84,0,0,1,288.3,440.56Z" transform="translate(0 -31.27)"/><path class="cls-9" d="M273.24,441.72c-4-.09-9,3.23-9,7.28v.4c4.42,7.1,15,6.63,22,3.73C285.76,443.43,276.44,441.68,273.24,441.72Z" transform="translate(0 -31.27)"/><path class="cls-9" d="M285.32,443.47a.9.9,0,0,0,1.25.11.88.88,0,0,0,.15-1.23,10.22,10.22,0,0,0-9-4.07c-.56.5-1.13,1-1.68,1.42C279.49,439.45,282.57,440.11,285.32,443.47Z" transform="translate(0 -31.27)"/><path class="cls-12" d="M335.31,320.67,300,340.36a17.51,17.51,0,0,0-8.7,18.49l6.86,36.94-5.62,17.87c4.85,6.51,16,6.84,16,6.84,6.22-12.46,10.78-17.76,14.31-28.2s5.88-17.65,5.88-17.65l29.35-8A34.78,34.78,0,0,0,383.47,337c.5-4.44.53-7.47.53-7.47Z" transform="translate(0 -31.27)"/><path class="cls-26" d="M335.31,320.67,300,340.36a17.51,17.51,0,0,0-8.7,18.49l6.86,36.94-5.62,17.87c4.85,6.51,16,6.84,16,6.84,6.22-12.46,10.78-17.76,14.31-28.2s5.88-17.65,5.88-17.65l29.35-8A34.78,34.78,0,0,0,383.47,337c.5-4.44.53-7.47.53-7.47Z" transform="translate(0 -31.27)"/><path class="cls-24" d="M335.31,320.67,300,340.36a17.51,17.51,0,0,0-8.7,18.49l6.86,36.94-5.62,17.87c4.85,6.51,16,6.84,16,6.84,6.22-12.46,10.78-17.76,14.31-28.2s5.88-17.65,5.88-17.65l29.35-8A34.78,34.78,0,0,0,383.47,337c.5-4.44.53-7.47.53-7.47Z" transform="translate(0 -31.27)"/><path class="cls-13" d="M335.58,330.6a16.74,16.74,0,0,0,3.95,10.77L314.59,357a17.9,17.9,0,0,0-7.63,9.95l-8.83,28.86,8-32.14a14.58,14.58,0,0,1,6.49-8.89l23-14.24C333.25,334.64,335.58,330.6,335.58,330.6Z" transform="translate(0 -31.27)"/><path class="cls-25" d="M311.92,280.08,304,287.27c-5.08-6.49-11.9-10.87-17.86-20-1.72-2.17-1.54-6.51-2.7-8.72-.92-1.74-2.52-4.35-3.2-5.81a1,1,0,0,0-1.46-.39c-1.63,1.26-.75,4.17.14,7.24,1,3.63-4.43-1.29-5.16-2.12-3.48-3.22-6.46-11.14-8.82-10.35s-.49,4.73-.49,4.73c-2.18.46-1.36,3.93-1.36,3.93-1.29,2.28-.92,5.78,1.72,9,1.92,2.36,7.12,5.6,9.82,7.2a8.82,8.82,0,0,1,2.81,2.66l17,25.31A10.18,10.18,0,0,0,309,302.49l11.57-8.64Z" transform="translate(0 -31.27)"/><path class="cls-26" d="M311.92,280.08,304,287.27c-5.08-6.49-11.9-10.87-17.86-20-1.72-2.17-1.54-6.51-2.7-8.72-.92-1.74-2.52-4.35-3.2-5.81a1,1,0,0,0-1.46-.39c-1.63,1.26-.75,4.17.14,7.24,1,3.63-4.43-1.29-5.16-2.12-3.48-3.22-6.46-11.14-8.82-10.35s-.49,4.73-.49,4.73c-2.18.46-1.36,3.93-1.36,3.93-1.29,2.28-.92,5.78,1.72,9,1.92,2.36,7.12,5.6,9.82,7.2a8.82,8.82,0,0,1,2.81,2.66l17,25.31A10.18,10.18,0,0,0,309,302.49l11.57-8.64Z" transform="translate(0 -31.27)"/><path class="cls-16" d="M337.65,260.2c-8.63-.38-20.08,12.44-27.47,20.11a28.28,28.28,0,0,0,9.64,15.45,210,210,0,0,0,17.83-14.07Z" transform="translate(0 -31.27)"/><path class="cls-17" d="M337.65,260.2c-8.63-.38-20.08,12.44-27.47,20.11a28.28,28.28,0,0,0,9.64,15.45,210,210,0,0,0,17.83-14.07Z" transform="translate(0 -31.27)"/><path class="cls-16" d="M384.56,332.32c-6.27,6-36.38,7.13-51.75-7.49,1.48-10.33,1-21.39,0-32.33s-7.37-30.07,4.84-32.3c16.31-3.18,27-2.93,37.86,3.21C387.14,282.79,385.54,311.8,384.56,332.32Z" transform="translate(0 -31.27)"/><path class="cls-16" d="M384.56,332.32c-6.27,6-36.38,7.13-51.75-7.49,1.48-10.33,1-21.39,0-32.33s-7.37-30.07,4.84-32.3c16.31-3.18,27-2.93,37.86,3.21C387.14,282.79,385.54,311.8,384.56,332.32Z" transform="translate(0 -31.27)"/><path class="cls-14" d="M384.56,332.32c-6.27,6-36.38,7.13-51.75-7.49,1.48-10.33,1-21.39,0-32.33s-7.37-30.07,4.84-32.3c16.31-3.18,27-2.93,37.86,3.21C387.14,282.79,385.54,311.8,384.56,332.32Z" transform="translate(0 -31.27)"/><path class="cls-1" d="M360.25,345.31a1.26,1.26,0,0,1-.05.47,0,0,0,0,1,0,0,1.35,1.35,0,0,1-.18.36l0,0a1.76,1.76,0,0,1-.32.36l0,0a2.69,2.69,0,0,1-.48.34l-25.86,15a5,5,0,0,1-.74.33l-.28.08-.38.1a3.4,3.4,0,0,1-.46.07l-.11,0-.63,0h-.1l-.63,0h-.09a6,6,0,0,1-.61-.1l-.1,0c-.18-.05-.36-.1-.52-.16l-.1,0A5,5,0,0,1,328,362l-42.67-24.64a2.93,2.93,0,0,1-.48-.34,1.42,1.42,0,0,1-.12-.13,1.79,1.79,0,0,1-.23-.25.8.8,0,0,1-.08-.16,1.41,1.41,0,0,1-.13-.24,1.13,1.13,0,0,1,0-.18,2,2,0,0,1,0-.24v1.52a2,2,0,0,0,0,.24,1.22,1.22,0,0,0,0,.17,1.41,1.41,0,0,0,.13.24,1.3,1.3,0,0,0,.08.17,2.55,2.55,0,0,0,.23.24l.12.14a3.69,3.69,0,0,0,.48.34L328,363.47a3.72,3.72,0,0,0,.57.27l.1,0a4,4,0,0,0,.52.16l.1,0a6,6,0,0,0,.61.1H330c.21,0,.42,0,.63,0h.1a4.44,4.44,0,0,0,.63,0h.11l.46-.08.38-.09.28-.09a4.15,4.15,0,0,0,.74-.33l25.86-15a2.27,2.27,0,0,0,.48-.34s0,0,0,0a1.72,1.72,0,0,0,.32-.35s0,0,0,0a1.41,1.41,0,0,0,.18-.37,0,0,0,0,0,0,0,1,1,0,0,0,0-.34h0v-1.64Z" transform="translate(0 -31.27)"/><path class="cls-13" d="M360.25,345.31a1.26,1.26,0,0,1-.05.47,0,0,0,0,1,0,0,1.35,1.35,0,0,1-.18.36l0,0a1.76,1.76,0,0,1-.32.36l0,0a2.69,2.69,0,0,1-.48.34l-25.86,15a5,5,0,0,1-.74.33l-.28.08-.38.1a3.4,3.4,0,0,1-.46.07l-.11,0-.63,0h-.1l-.63,0h-.09a6,6,0,0,1-.61-.1l-.1,0c-.18-.05-.36-.1-.52-.16l-.1,0A5,5,0,0,1,328,362l-42.67-24.64a2.93,2.93,0,0,1-.48-.34,1.42,1.42,0,0,1-.12-.13,1.79,1.79,0,0,1-.23-.25.8.8,0,0,1-.08-.16,1.41,1.41,0,0,1-.13-.24,1.13,1.13,0,0,1,0-.18,2,2,0,0,1,0-.24v1.52a2,2,0,0,0,0,.24,1.22,1.22,0,0,0,0,.17,1.41,1.41,0,0,0,.13.24,1.3,1.3,0,0,0,.08.17,2.55,2.55,0,0,0,.23.24l.12.14a3.69,3.69,0,0,0,.48.34L328,363.47a3.72,3.72,0,0,0,.57.27l.1,0a4,4,0,0,0,.52.16l.1,0a6,6,0,0,0,.61.1H330c.21,0,.42,0,.63,0h.1a4.44,4.44,0,0,0,.63,0h.11l.46-.08.38-.09.28-.09a4.15,4.15,0,0,0,.74-.33l25.86-15a2.27,2.27,0,0,0,.48-.34s0,0,0,0a1.72,1.72,0,0,0,.32-.35s0,0,0,0a1.41,1.41,0,0,0,.18-.37,0,0,0,0,0,0,0,1,1,0,0,0,0-.34h0v-1.64Z" transform="translate(0 -31.27)"/><path class="cls-1" d="M284.28,336.2a1.41,1.41,0,0,0,.13.24.8.8,0,0,0,.08.16,1.79,1.79,0,0,0,.23.25,1.42,1.42,0,0,0,.12.13,2.93,2.93,0,0,0,.48.34L328,362a5,5,0,0,0,.57.27l.1,0c.16.06.34.11.52.16l.1,0a6,6,0,0,0,.61.1H330l.63,0h.1l.63,0,.11,0a3.4,3.4,0,0,0,.46-.07l.38-.1.28-.08a5,5,0,0,0,.74-.33l25.86-15a2.69,2.69,0,0,0,.48-.34l0,0a1.76,1.76,0,0,0,.32-.36l0,0a1.35,1.35,0,0,0,.18-.36,0,0,0,0,0,0,0,1.26,1.26,0,0,0,.05-.47,2,2,0,0,0-1.1-1.46l-42.67-24.63a5.85,5.85,0,0,0-5.31,0l-25.86,15a1.87,1.87,0,0,0-1.1,1.53,2,2,0,0,0,0,.24A1.13,1.13,0,0,0,284.28,336.2Z" transform="translate(0 -31.27)"/><path class="cls-1" d="M287.84,335.78l41.45,23.93a.79.79,0,0,0,.16.08l.09,0a2.31,2.31,0,0,0,.33.1,1,1,0,0,1,.22.05h.16l.4,0h0l.43,0,.27,0,.33-.09a2.52,2.52,0,0,0,.29-.12L345.34,352l-42.81-24.72Z" transform="translate(0 -31.27)"/><path class="cls-27" d="M330.7,360h0Z" transform="translate(0 -31.27)"/><path class="cls-1" d="M327.27,329.2l-7.8,4.59a.79.79,0,0,0,0,1.36l11.66,6.73a1.33,1.33,0,0,0,1.31,0l7.79-4.59a.79.79,0,0,0,0-1.36l-11.66-6.74A1.31,1.31,0,0,0,327.27,329.2Z" transform="translate(0 -31.27)"/><path class="cls-28" d="M287.84,335.78l41.45,23.93a.79.79,0,0,0,.16.08l.09,0a2.31,2.31,0,0,0,.33.1,1,1,0,0,1,.22.05h.16l.4,0h0l.43,0,.27,0,.33-.09a2.52,2.52,0,0,0,.29-.12L345.34,352l-42.81-24.72Z" transform="translate(0 -31.27)"/><path class="cls-28" d="M327.27,329.2l-7.8,4.59a.79.79,0,0,0,0,1.36l11.66,6.73a1.33,1.33,0,0,0,1.31,0l7.79-4.59a.79.79,0,0,0,0-1.36l-11.66-6.74A1.31,1.31,0,0,0,327.27,329.2Z" transform="translate(0 -31.27)"/><path class="cls-1" d="M330.39,360.43,326,332.34a5.2,5.2,0,0,0-2.52-3.68l-43-25a1.28,1.28,0,0,0-1.14-.07h0l-1,.51.35.13a1.25,1.25,0,0,0-.11.77L283,333.09a5.16,5.16,0,0,0,2.52,3.68l43,25a1.62,1.62,0,0,0,.28.11l0,.42,1-.49h0A1.28,1.28,0,0,0,330.39,360.43Z" transform="translate(0 -31.27)"/><path class="cls-26" d="M330.39,360.43,326,332.34a5.2,5.2,0,0,0-2.52-3.68l-43-25a1.28,1.28,0,0,0-1.14-.07h0l-1,.51.35.13a1.25,1.25,0,0,0-.11.77L283,333.09a5.16,5.16,0,0,0,2.52,3.68l43,25a1.62,1.62,0,0,0,.28.11l0,.42,1-.49h0A1.28,1.28,0,0,0,330.39,360.43Z" transform="translate(0 -31.27)"/><path class="cls-1" d="M322.6,329.09l-43-25a1.29,1.29,0,0,0-1.93,1.32l4.42,28.09a5.15,5.15,0,0,0,2.51,3.67l43,25a1.29,1.29,0,0,0,1.93-1.32l-4.42-28.09A5.19,5.19,0,0,0,322.6,329.09Z" transform="translate(0 -31.27)"/><path class="cls-9" d="M301.78,329.82A9.49,9.49,0,0,1,306,336c.28,2.19-1.17,3-3.25,1.81a9.52,9.52,0,0,1-4.26-6.15C298.25,329.43,299.7,328.62,301.78,329.82Z" transform="translate(0 -31.27)"/><path class="cls-25" d="M394.4,311.73l-4.61-17.15-16.18,3.55,3.88,13.29-23.71,16.84-8,3.36a12.48,12.48,0,0,0-5.28,4.2l-6.5,9a.74.74,0,0,0-.07.39,1.24,1.24,0,0,0,2.17.6c1.45-1.65,2.65-3.18,4.16-4.62q-1.92,2.58-3.83,5.18a1.52,1.52,0,0,0,.47,2.23,6,6,0,0,0,1.39.6,5.82,5.82,0,0,0,5.38-1.35l5-4.59,1.38-.49a21,21,0,0,0,10.09-7.56L388,324.41A10.65,10.65,0,0,0,394.4,311.73Z" transform="translate(0 -31.27)"/><path class="cls-26" d="M394.4,311.73l-4.61-17.15-16.18,3.55,3.88,13.29-23.71,16.84-8,3.36a12.48,12.48,0,0,0-5.28,4.2l-6.5,9a.74.74,0,0,0-.07.39,1.24,1.24,0,0,0,2.17.6c1.45-1.65,2.65-3.18,4.16-4.62q-1.92,2.58-3.83,5.18a1.52,1.52,0,0,0,.47,2.23,6,6,0,0,0,1.39.6,5.82,5.82,0,0,0,5.38-1.35l5-4.59,1.38-.49a21,21,0,0,0,10.09-7.56L388,324.41A10.65,10.65,0,0,0,394.4,311.73Z" transform="translate(0 -31.27)"/><path class="cls-16" d="M392.32,296.82l-.5-2.28C386,267.85,381.26,266,373.39,262.29c-7.66,6.68-6.38,18-6.38,18l6.86,20.55.21.59A23.87,23.87,0,0,0,392.32,296.82Z" transform="translate(0 -31.27)"/><path class="cls-17" d="M392.32,296.82l-.5-2.28C386,267.85,381.26,266,373.39,262.29c-7.66,6.68-6.38,18-6.38,18l6.86,20.55.21.59A23.87,23.87,0,0,0,392.32,296.82Z" transform="translate(0 -31.27)"/><path class="cls-16" d="M362.44,240.92a48.86,48.86,0,0,0,2.55-15c0-2.72-.27-5.7-2.17-7.65-2.3-2.35-6.23-2.33-9.16-.85s-5.08,4.11-7.15,6.66A60.09,60.09,0,0,0,351,236.92c1,2,2.28,4,4.27,5.06S360.65,242.3,362.44,240.92Z" transform="translate(0 -31.27)"/><path class="cls-25" d="M347.93,272.29c-3.94,2.49-9.07-2.13-4.48-8.87a.23.23,0,0,0,.05-.12V252l14.87-8.21.34,15C357.11,263.52,351.35,270.12,347.93,272.29Z" transform="translate(0 -31.27)"/><path class="cls-26" d="M347.93,272.29c-3.94,2.49-9.07-2.13-4.48-8.87a.23.23,0,0,0,.05-.12V252l14.87-8.21.34,15C357.11,263.52,351.35,270.12,347.93,272.29Z" transform="translate(0 -31.27)"/><path class="cls-13" d="M351.15,255.65c-2.48,1.2-5.57,2.41-7.65,3.19V252l14.87-8.21C358.25,251.3,355.28,253.66,351.15,255.65Z" transform="translate(0 -31.27)"/><path class="cls-25" d="M330.53,223.25a125.68,125.68,0,0,0,.3,22.21,10.92,10.92,0,0,0,13,9.69c2.45-.5,4.78-1.08,6.75-1.61a10.12,10.12,0,0,0,7.2-7.43l.55-2.28c1.15,1.75,3.69,2.13,5.62,1.32a6.28,6.28,0,0,0,3.57-4.84,5.83,5.83,0,0,0-.27-3.07,4,4,0,0,0-2.06-2.22,4.48,4.48,0,0,0-5,1.41,9.69,9.69,0,0,0-2,5,15.56,15.56,0,0,1-3.91-11.24,5.57,5.57,0,0,1-3.59-1.85,4.88,4.88,0,0,1-.93-3.65C344,227.68,336,226.88,330.53,223.25Z" transform="translate(0 -31.27)"/><path class="cls-26" d="M330.53,223.25a125.68,125.68,0,0,0,.3,22.21,10.92,10.92,0,0,0,13,9.69c2.45-.5,4.78-1.08,6.75-1.61a10.12,10.12,0,0,0,7.2-7.43l.55-2.28c1.15,1.75,3.69,2.13,5.62,1.32a6.28,6.28,0,0,0,3.57-4.84,5.83,5.83,0,0,0-.27-3.07,4,4,0,0,0-2.06-2.22,4.48,4.48,0,0,0-5,1.41,9.69,9.69,0,0,0-2,5,15.56,15.56,0,0,1-3.91-11.24,5.57,5.57,0,0,1-3.59-1.85,4.88,4.88,0,0,1-.93-3.65C344,227.68,336,226.88,330.53,223.25Z" transform="translate(0 -31.27)"/><polygon class="cls-29" points="340.9 204.42 335.74 210.67 340.48 212.34 340.9 204.42"/><polygon class="cls-26" points="340.9 204.42 335.74 210.67 340.48 212.34 340.9 204.42"/><path class="cls-29" d="M344.81,246.71l-4,1.23a2.46,2.46,0,0,0,2.69,1.24A2.22,2.22,0,0,0,344.81,246.71Z" transform="translate(0 -31.27)"/><path class="cls-28" d="M344.81,246.71l-4,1.23a2.46,2.46,0,0,0,2.69,1.24A2.22,2.22,0,0,0,344.81,246.71Z" transform="translate(0 -31.27)"/><path class="cls-29" d="M342.2,249.1a2.36,2.36,0,0,0,1.31.08,2,2,0,0,0,1.29-1.8,2.33,2.33,0,0,0-1.53.28A2.37,2.37,0,0,0,342.2,249.1Z" transform="translate(0 -31.27)"/><path class="cls-27" d="M347.92,237.06a1.42,1.42,0,1,1-1.34-1.49A1.42,1.42,0,0,1,347.92,237.06Z" transform="translate(0 -31.27)"/><path class="cls-27" d="M336.06,236a1.42,1.42,0,1,1-1.33-1.49A1.4,1.4,0,0,1,336.06,236Z" transform="translate(0 -31.27)"/><path class="cls-27" d="M335,230.26l-3.25,2a2,2,0,0,1,.73-2.19A2.38,2.38,0,0,1,335,230.26Z" transform="translate(0 -31.27)"/><path class="cls-27" d="M347.12,230.74l3,2.33a2,2,0,0,0-.49-2.25A2.4,2.4,0,0,0,347.12,230.74Z" transform="translate(0 -31.27)"/><path class="cls-27" d="M350.49,224.27a5,5,0,0,1-1.36,2.64,3.9,3.9,0,0,1-2.79,1.16,3.08,3.08,0,0,1-2.57-1.49,3.63,3.63,0,0,1-3.35,1.48,4,4,0,0,1-3.23-2.11,3.82,3.82,0,0,1-4,1.57,3.68,3.68,0,0,1-2.7-3.18,4.74,4.74,0,0,1-3.56-.5,3.49,3.49,0,0,1-1.68-3.08,2.77,2.77,0,0,1,2.23-2.57,3.67,3.67,0,0,1,.92-4.42,3.62,3.62,0,0,1,4.46-.09,2.73,2.73,0,0,1,4.64-1.94,4.47,4.47,0,0,1,8.29-1.79A3.84,3.84,0,0,1,349.4,208a3.58,3.58,0,0,1,3.12,2.38,4.48,4.48,0,0,1,8.22,2.23,2.78,2.78,0,0,1,3.81.23,3.45,3.45,0,0,1,.32,4,4.56,4.56,0,0,1-3.5,2.12,3.6,3.6,0,0,1-6.19,3.55,2.67,2.67,0,0,1-1.69,2.83A2.49,2.49,0,0,1,350.49,224.27Z" transform="translate(0 -31.27)"/></g></svg>