<svg id="Layer_1" data-name="Layer 1" xmlns="http://www.w3.org/2000/svg" viewBox="0 0 200 200"><defs><style>.cls-1{fill:#fff;}</style></defs><path class="cls-1" d="M39.15,115.46l-1.17,0a6.38,6.38,0,0,1-1.08-.09,36.86,36.86,0,0,1-1.39,5.82,27.26,27.26,0,0,1-2.3,5.13A19.17,19.17,0,0,1,30,130.37a13,13,0,0,1-9.11,3.69A16.64,16.64,0,0,1,15,133a8.45,8.45,0,0,1-3.32-2.09,9.63,9.63,0,0,1-2-3,8.28,8.28,0,0,1-.61-3.3,5.94,5.94,0,0,1,.83-3,6.62,6.62,0,0,1,1.57-1.77,5.67,5.67,0,0,1,2.2-1,6.77,6.77,0,0,1,2.77,0,10.89,10.89,0,0,1,3.34,1.3,6.69,6.69,0,0,0,3,1,5.11,5.11,0,0,0,2.69-.59,7.6,7.6,0,0,0,2.32-2,16.67,16.67,0,0,0,2-3.18,25.42,25.42,0,0,1-11.46-3,17,17,0,0,1-7.09-7.51,15.61,15.61,0,0,1-1.2-5,16.69,16.69,0,0,1,.41-5.07,14.78,14.78,0,0,1,1.88-4.47A10.45,10.45,0,0,1,15.61,87,9.55,9.55,0,0,1,20,85.5a12.26,12.26,0,0,1,5.48,1,14.61,14.61,0,0,1,5,3.31,20.28,20.28,0,0,1,3.63,5,26.89,26.89,0,0,1,2.27,6.24,36.74,36.74,0,0,1,.94,6.91,7.77,7.77,0,0,0,.8.09c.31,0,.65,0,1,0ZM21.49,100.37a4.5,4.5,0,0,0,.1,2.14,5.51,5.51,0,0,0,1,1.82,7.39,7.39,0,0,0,1.59,1.45,11,11,0,0,0,2,1,11.37,11.37,0,0,0,2.1.6,7.88,7.88,0,0,0,2,.13,12.78,12.78,0,0,0-.43-3.38,11.93,11.93,0,0,0-1.12-2.83,8,8,0,0,0-1.76-2.12,4.82,4.82,0,0,0-2.08-1.09,2.74,2.74,0,0,0-1.95.29A3.32,3.32,0,0,0,21.49,100.37Z"/><path class="cls-1" d="M38.39,108.05H39a7.66,7.66,0,0,0,2.77-1,6.45,6.45,0,0,0,2.12-2A8.35,8.35,0,0,0,45.06,102,12.17,12.17,0,0,0,45,97.79a11.42,11.42,0,0,1,.15-5A8.48,8.48,0,0,1,47,89.3a6.57,6.57,0,0,1,2.84-1.86A5.46,5.46,0,0,1,53,87.31,5.08,5.08,0,0,1,55.59,89a7.1,7.1,0,0,1,1.46,3.73,14.27,14.27,0,0,1-.33,5,23.49,23.49,0,0,1-2.3,5.9,8.7,8.7,0,0,0,1.52,1.88,9.46,9.46,0,0,0,1.91,1.38,9.37,9.37,0,0,0,2.12.84,8.24,8.24,0,0,0,2.18.3h.29v7.41a11.74,11.74,0,0,1-4-.38A14.42,14.42,0,0,1,55,113.67a14.17,14.17,0,0,1-2.77-2.09,14,14,0,0,1-2-2.42,20.09,20.09,0,0,1-2.74,3A12.07,12.07,0,0,1,44.75,114a12.65,12.65,0,0,1-3,1,31.71,31.71,0,0,1-3.45.5Zm5.42-30.32a5.46,5.46,0,0,1,.46-2.23,5.9,5.9,0,0,1,1.21-1.83,5.66,5.66,0,0,1,6.27-1.23,5.73,5.73,0,0,1,3.06,3.06,5.66,5.66,0,0,1,0,4.47,5.65,5.65,0,0,1-1.23,1.8A6.1,6.1,0,0,1,51.75,83a5.78,5.78,0,0,1-4.47,0,6,6,0,0,1-1.8-1.22A5.76,5.76,0,0,1,44.27,80,5.44,5.44,0,0,1,43.81,77.73Z"/><path class="cls-1" d="M61.24,108.05h.59a7.6,7.6,0,0,0,2.77-1,6.35,6.35,0,0,0,2.12-2A8.35,8.35,0,0,0,67.91,102a12.17,12.17,0,0,0,0-4.16,11.42,11.42,0,0,1,.15-5,8.48,8.48,0,0,1,1.86-3.5,6.57,6.57,0,0,1,2.84-1.86,5.46,5.46,0,0,1,3.09-.13A5.08,5.08,0,0,1,78.44,89a7.19,7.19,0,0,1,1.47,3.73,14.53,14.53,0,0,1-.34,5,23.49,23.49,0,0,1-2.3,5.9,9,9,0,0,0,1.52,1.88,9.46,9.46,0,0,0,1.91,1.38,9.37,9.37,0,0,0,2.12.84,8.24,8.24,0,0,0,2.18.3h.3v7.41a11.77,11.77,0,0,1-4-.38,14.42,14.42,0,0,1-3.43-1.44,14.42,14.42,0,0,1-4.77-4.51,20.09,20.09,0,0,1-2.74,3A12.07,12.07,0,0,1,67.6,114a12.65,12.65,0,0,1-3,1,31.71,31.71,0,0,1-3.45.5Zm10.58,14.29a4.71,4.71,0,0,1-.4,1.94,5.07,5.07,0,0,1-1.07,1.58,4.9,4.9,0,0,1-5.44,1.07,5,5,0,0,1-1.59-1.07,5.25,5.25,0,0,1-1.07-1.58,5,5,0,0,1,0-3.87,5.25,5.25,0,0,1,1.07-1.58,5,5,0,0,1,1.59-1.07,4.94,4.94,0,0,1,5.44,1.07,5.07,5.07,0,0,1,1.07,1.58A4.7,4.7,0,0,1,71.82,122.34Zm11,.15a4.87,4.87,0,0,1-.39,1.94A5.07,5.07,0,0,1,81.4,126a5.25,5.25,0,0,1-1.58,1.07,5,5,0,0,1-3.87,0A5.25,5.25,0,0,1,74.37,126a5.07,5.07,0,0,1-1.07-1.58,4.88,4.88,0,0,1,0-3.87A5,5,0,0,1,74.37,119,5.07,5.07,0,0,1,76,117.91a4.88,4.88,0,0,1,3.87,0A5.07,5.07,0,0,1,81.4,119a5,5,0,0,1,1.07,1.58A4.82,4.82,0,0,1,82.86,122.49Z"/><path class="cls-1" d="M82,78.75a4.82,4.82,0,0,1,.39-1.93,5,5,0,0,1,1.07-1.58A5.07,5.07,0,0,1,85,74.17a4.88,4.88,0,0,1,3.87,0,5.07,5.07,0,0,1,1.58,1.07,5,5,0,0,1,1.07,1.58,4.88,4.88,0,0,1,0,3.87,5.07,5.07,0,0,1-1.07,1.58,5.25,5.25,0,0,1-1.58,1.07,5,5,0,0,1-3.87,0,5.25,5.25,0,0,1-1.58-1.07,5.07,5.07,0,0,1-1.07-1.58A4.87,4.87,0,0,1,82,78.75Zm2.31,29.3h.59a7.61,7.61,0,0,0,2.76-1,6.48,6.48,0,0,0,2.13-2A8.35,8.35,0,0,0,91,102a12.42,12.42,0,0,0,0-4.16,11.42,11.42,0,0,1,.15-5,8.48,8.48,0,0,1,1.86-3.5,6.51,6.51,0,0,1,2.84-1.86,5.45,5.45,0,0,1,3.09-.13A5.08,5.08,0,0,1,101.5,89,7.1,7.1,0,0,1,103,92.76a14.27,14.27,0,0,1-.33,5,23.87,23.87,0,0,1-2.3,5.9,8.41,8.41,0,0,0,1.52,1.88,9.21,9.21,0,0,0,4,2.22,8.24,8.24,0,0,0,2.18.3h.29v7.41a11.74,11.74,0,0,1-4-.38,14.42,14.42,0,0,1-3.43-1.44,14.17,14.17,0,0,1-2.77-2.09,13.57,13.57,0,0,1-2-2.42,20.09,20.09,0,0,1-2.74,3A12.07,12.07,0,0,1,90.66,114a12.57,12.57,0,0,1-3,1,31.15,31.15,0,0,1-3.44.5ZM93,78.9a4.71,4.71,0,0,1,.4-1.94,5.07,5.07,0,0,1,1.07-1.58,5,5,0,0,1,1.58-1.07,5,5,0,0,1,3.86,0,5.17,5.17,0,0,1,1.59,1.07A5.25,5.25,0,0,1,102.6,77a5,5,0,0,1,0,3.87,5.13,5.13,0,0,1-1.07,1.58,5,5,0,0,1-1.59,1.07,4.86,4.86,0,0,1-3.86,0,4.85,4.85,0,0,1-1.58-1.07,5,5,0,0,1-1.07-1.58A4.67,4.67,0,0,1,93,78.9Z"/><path class="cls-1" d="M104.57,125.83a5,5,0,0,1,1.47-3.51,5.07,5.07,0,0,1,1.58-1.07,4.88,4.88,0,0,1,3.87,0,5.07,5.07,0,0,1,1.58,1.07,5,5,0,0,1,1.07,5.44,5,5,0,0,1-1.07,1.59,5.25,5.25,0,0,1-1.58,1.07,5,5,0,0,1-3.87,0,5.25,5.25,0,0,1-1.58-1.07,5,5,0,0,1-1.07-1.59A4.83,4.83,0,0,1,104.57,125.83Zm2.23-17.78a9.91,9.91,0,0,0,1.88-.13,8.12,8.12,0,0,0,1.78-.52,6.6,6.6,0,0,0,1.57-.9,5.27,5.27,0,0,0,1.22-1.35,4.22,4.22,0,0,0,.55-2.2,5.11,5.11,0,0,0-.5-2,8.63,8.63,0,0,0-1.14-1.78c-.47-.58-.92-1.17-1.36-1.76a11.91,11.91,0,0,1-1.13-1.85,4.55,4.55,0,0,1-.47-2,8.63,8.63,0,0,1,.68-3.56,6.72,6.72,0,0,1,1.77-2.44,6.18,6.18,0,0,1,2.5-1.27,7.69,7.69,0,0,1,2.87-.15,8.7,8.7,0,0,1,5.42,3.11,11.74,11.74,0,0,1,1.84,3.27,16.79,16.79,0,0,1,1,4,20,20,0,0,1,0,4.38,17.9,17.9,0,0,1-1,4.39,17.15,17.15,0,0,1-2.11,4,13.87,13.87,0,0,1-3.27,3.26,14.88,14.88,0,0,1-4.53,2.17,18.56,18.56,0,0,1-5.87.69c-.27,0-.55,0-.82,0a3.75,3.75,0,0,1-.82,0ZM115.62,126A4.87,4.87,0,0,1,116,124a5.25,5.25,0,0,1,1.07-1.58,5.17,5.17,0,0,1,1.59-1.07,5,5,0,0,1,3.86,0,5,5,0,0,1,1.58,1.07,5.07,5.07,0,0,1,1.07,1.58,4.88,4.88,0,0,1,0,3.87,5,5,0,0,1-1.07,1.58,4.85,4.85,0,0,1-1.58,1.07,4.86,4.86,0,0,1-3.86,0,5,5,0,0,1-1.59-1.07,5.13,5.13,0,0,1-1.07-1.58A4.82,4.82,0,0,1,115.62,126Z"/><path class="cls-1" d="M127.54,90.68Q127.48,76,130,71T136.16,66c2.44-.16,4.22,1,5.36,3.63q2.52,5.6-1.26,16.32t-2,16.32c1.22,3.75,3.75,5.69,7.62,5.83l-.06,7.35q-5.76.46-11.6-5.12T127.54,90.68Z"/><path class="cls-1" d="M144.89,108a9.74,9.74,0,0,0,3.37-.4,6.71,6.71,0,0,0,2.28-1.23,5.62,5.62,0,0,0,1.42-1.78,13.1,13.1,0,0,0,.84-2.13,17.91,17.91,0,0,0,.49-2.21c.12-.73.26-1.42.41-2a8.65,8.65,0,0,1,.59-1.66,2.2,2.2,0,0,1,1-1,1.84,1.84,0,0,1,1.81-.18,3.61,3.61,0,0,1,1.31,1.45,17,17,0,0,1,1.08,2.52c.34,1,.73,2,1.17,3a17.38,17.38,0,0,0,1.6,2.89,7.4,7.4,0,0,0,2.34,2.22,3.68,3.68,0,0,0,1.54.56,1,1,0,0,0,1-.75,6.08,6.08,0,0,0,.16-2.63,32.51,32.51,0,0,0-1-5.12,14.27,14.27,0,0,1-.35-4,6.53,6.53,0,0,1,.66-2.53,2.55,2.55,0,0,1,1.26-1.22,2.17,2.17,0,0,1,1.46-.07,2.86,2.86,0,0,1,1.31.86,3.21,3.21,0,0,1,.76,1.58c.08.41.21,1,.4,1.6a17.83,17.83,0,0,0,.76,2.17,19.92,19.92,0,0,0,1.24,2.5,18.68,18.68,0,0,0,1.85,2.61,19.22,19.22,0,0,0,2.53,2.48,16.68,16.68,0,0,0,3.33,2.09,28.85,28.85,0,0,1-2.65-6.61,20.39,20.39,0,0,1-.71-5.55,10.68,10.68,0,0,1,.88-4.2,6,6,0,0,1,2.08-2.58,4.39,4.39,0,0,1,2.9-.69,6.47,6.47,0,0,1,3.33,1.47,7,7,0,0,1,2.22,3,16.34,16.34,0,0,1,1.1,4.21,27,27,0,0,1,.21,4.79,40.33,40.33,0,0,1-.47,4.72,31.59,31.59,0,0,1-.91,4,10.46,10.46,0,0,1-1.13,2.66,5.37,5.37,0,0,1-3.07,2.47,5.88,5.88,0,0,1-3.78-.39c-.53-.22-1.17-.53-1.94-.94a18.42,18.42,0,0,1-2.4-1.57,20,20,0,0,1-2.46-2.21,15.07,15.07,0,0,1-2.11-2.84,11,11,0,0,1-.35,5.26,7.81,7.81,0,0,1-2.33,3.51,7,7,0,0,1-3.6,1.55,7.78,7.78,0,0,1-4.16-.6,11.23,11.23,0,0,1-4-3,16.47,16.47,0,0,1-3.12-5.55c-.12.33-.26.7-.44,1.1s-.37.79-.58,1.18-.44.77-.68,1.12-.45.64-.64.88a6.1,6.1,0,0,1-1.82,1.43,10.49,10.49,0,0,1-2.09.81,13.55,13.55,0,0,1-2.08.36c-.68.06-1.25.09-1.72.09Z"/></svg>