<svg id="Layer_1" data-name="Layer 1" xmlns="http://www.w3.org/2000/svg" viewBox="0 0 181.79 68.13"><defs><style>.cls-1{fill:#f75f9e;}</style></defs><path class="cls-1" d="M39.15,100.89l-1.17,0a6.59,6.59,0,0,1-1.09-.09,35.42,35.42,0,0,1-1.39,5.81,25.53,25.53,0,0,1-2.3,5.13A19.19,19.19,0,0,1,30,115.8a13.57,13.57,0,0,1-4.12,2.71,13.34,13.34,0,0,1-5,1A16.63,16.63,0,0,1,15,118.38a8.39,8.39,0,0,1-3.33-2.1,9.48,9.48,0,0,1-2-3A8.07,8.07,0,0,1,9.11,110a5.81,5.81,0,0,1,.83-3,6.18,6.18,0,0,1,1.57-1.77,5.46,5.46,0,0,1,2.2-1,6.72,6.72,0,0,1,2.76,0,10.85,10.85,0,0,1,3.34,1.31,6.73,6.73,0,0,0,3.05,1,5.15,5.15,0,0,0,2.68-.59,7.62,7.62,0,0,0,2.33-2,16.65,16.65,0,0,0,2-3.18,25.64,25.64,0,0,1-11.45-3,17,17,0,0,1-7.09-7.52,15,15,0,0,1-1.2-5,16.69,16.69,0,0,1,.41-5.07,14.59,14.59,0,0,1,1.87-4.46,10.62,10.62,0,0,1,3.21-3.29A9.54,9.54,0,0,1,20,70.93a12.1,12.1,0,0,1,5.48.95,14.71,14.71,0,0,1,5,3.31,20.43,20.43,0,0,1,3.64,5,27.7,27.7,0,0,1,2.27,6.24,36.83,36.83,0,0,1,.93,6.92l.81.08c.3,0,.65,0,1,0ZM21.48,85.8a4.51,4.51,0,0,0,.11,2.14,5.27,5.27,0,0,0,1,1.81,7,7,0,0,0,1.6,1.45,10.83,10.83,0,0,0,4.07,1.64,8.54,8.54,0,0,0,2,.14,13.28,13.28,0,0,0-.43-3.39,11.69,11.69,0,0,0-1.13-2.83,8.13,8.13,0,0,0-1.75-2.12,4.67,4.67,0,0,0-2.09-1.08,2.65,2.65,0,0,0-1.94.29A3.31,3.31,0,0,0,21.48,85.8Z" transform="translate(-9.1 -51.36)"/><path class="cls-1" d="M38.39,93.47H39a7.24,7.24,0,0,0,2.77-1,6.48,6.48,0,0,0,2.13-2,8.29,8.29,0,0,0,1.18-3.1,12.14,12.14,0,0,0,0-4.16,11.47,11.47,0,0,1,.15-5A8.55,8.55,0,0,1,47,74.72a6.6,6.6,0,0,1,2.84-1.86A5.54,5.54,0,0,1,53,72.73a5.08,5.08,0,0,1,2.64,1.73,7.1,7.1,0,0,1,1.46,3.72,14.29,14.29,0,0,1-.34,5,23.17,23.17,0,0,1-2.3,5.91A8.68,8.68,0,0,0,55.94,91a9,9,0,0,0,1.9,1.38,10,10,0,0,0,2.13.85,8.65,8.65,0,0,0,2.18.29h.29v7.41a11.49,11.49,0,0,1-4-.38A14.83,14.83,0,0,1,55,99.1,14.31,14.31,0,0,1,52.23,97a14,14,0,0,1-2-2.41,20.07,20.07,0,0,1-2.73,3,12.59,12.59,0,0,1-2.74,1.83,13.06,13.06,0,0,1-3,1,31.26,31.26,0,0,1-3.44.49Zm5.42-30.32a5.66,5.66,0,0,1,.45-2.23,6.1,6.1,0,0,1,1.22-1.83,6,6,0,0,1,1.8-1.23,5.57,5.57,0,0,1,2.24-.45,5.66,5.66,0,0,1,2.23.45,6.13,6.13,0,0,1,1.83,1.23,5.78,5.78,0,0,1,1.23,1.83,5.66,5.66,0,0,1,.45,2.23,5.57,5.57,0,0,1-.45,2.24,5.43,5.43,0,0,1-1.23,1.8,5.92,5.92,0,0,1-1.83,1.22,5.66,5.66,0,0,1-2.23.45,5.57,5.57,0,0,1-2.24-.45,5.79,5.79,0,0,1-1.8-1.22,5.72,5.72,0,0,1-1.22-1.8A5.57,5.57,0,0,1,43.81,63.15Z" transform="translate(-9.1 -51.36)"/><path class="cls-1" d="M61.24,93.47h.59a7.2,7.2,0,0,0,2.76-1,6.48,6.48,0,0,0,2.13-2,8.3,8.3,0,0,0,1.19-3.1,12.42,12.42,0,0,0,0-4.16,11.47,11.47,0,0,1,.15-5,8.55,8.55,0,0,1,1.86-3.5,6.66,6.66,0,0,1,2.84-1.86,5.54,5.54,0,0,1,3.09-.13,5,5,0,0,1,2.64,1.73,7.1,7.1,0,0,1,1.46,3.72,14.27,14.27,0,0,1-.33,5,23.54,23.54,0,0,1-2.3,5.91A8.36,8.36,0,0,0,78.79,91a9.29,9.29,0,0,0,1.9,1.38,10,10,0,0,0,2.13.85A8.65,8.65,0,0,0,85,93.5h.29v7.41a11.49,11.49,0,0,1-4-.38,14.83,14.83,0,0,1-3.43-1.43A14.62,14.62,0,0,1,75.08,97a13.52,13.52,0,0,1-2-2.41,20.09,20.09,0,0,1-2.74,3,12.36,12.36,0,0,1-2.74,1.83,13.06,13.06,0,0,1-3,1,31.26,31.26,0,0,1-3.44.49Zm10.58,14.3a4.83,4.83,0,0,1-.4,1.93,5,5,0,0,1-1.07,1.59,5.25,5.25,0,0,1-1.58,1.07,5,5,0,0,1-3.87,0,5.25,5.25,0,0,1-1.58-1.07,5,5,0,0,1-1.07-1.59,5,5,0,0,1,0-3.86,5,5,0,0,1,2.65-2.65,4.88,4.88,0,0,1,3.87,0,5,5,0,0,1,2.65,2.65A4.83,4.83,0,0,1,71.82,107.77Zm11,.15a4.82,4.82,0,0,1-.39,1.93,5.13,5.13,0,0,1-1.07,1.58,5,5,0,0,1-1.59,1.07,4.86,4.86,0,0,1-3.86,0,4.85,4.85,0,0,1-1.58-1.07,5,5,0,0,1-1.07-1.58,4.88,4.88,0,0,1,0-3.87,5.07,5.07,0,0,1,1.07-1.58A5,5,0,0,1,76,103.33a5,5,0,0,1,3.86,0,5.17,5.17,0,0,1,1.59,1.07A5.25,5.25,0,0,1,82.47,106,4.87,4.87,0,0,1,82.86,107.92Z" transform="translate(-9.1 -51.36)"/><path class="cls-1" d="M82,64.18a4.71,4.71,0,0,1,.4-1.94,5.07,5.07,0,0,1,1.07-1.58A5,5,0,0,1,85,59.59a5,5,0,0,1,3.87,0,5.07,5.07,0,0,1,1.58,1.07,5.25,5.25,0,0,1,1.07,1.58,5,5,0,0,1,0,3.87,5.13,5.13,0,0,1-1.07,1.58,5.07,5.07,0,0,1-1.58,1.07,4.88,4.88,0,0,1-3.87,0,5,5,0,0,1-2.65-2.65A4.7,4.7,0,0,1,82,64.18ZM84.3,93.47h.58a7.24,7.24,0,0,0,2.77-1,6.48,6.48,0,0,0,2.13-2A8.29,8.29,0,0,0,91,87.38a12.14,12.14,0,0,0,0-4.16,11.48,11.48,0,0,1,.14-5,8.55,8.55,0,0,1,1.86-3.5,6.63,6.63,0,0,1,2.85-1.86,5.54,5.54,0,0,1,3.09-.13,5.05,5.05,0,0,1,2.63,1.73A7.1,7.1,0,0,1,103,78.18a14.53,14.53,0,0,1-.34,5,23.17,23.17,0,0,1-2.3,5.91A8.68,8.68,0,0,0,101.85,91a9,9,0,0,0,1.9,1.38,9.89,9.89,0,0,0,2.12.85,8.73,8.73,0,0,0,2.19.29h.29v7.41a11.45,11.45,0,0,1-4-.38,14.65,14.65,0,0,1-3.43-1.43A14.31,14.31,0,0,1,98.14,97a14,14,0,0,1-2-2.41,19.57,19.57,0,0,1-2.74,3,12.36,12.36,0,0,1-2.74,1.83,12.82,12.82,0,0,1-3,1,31.26,31.26,0,0,1-3.44.49ZM93,64.32a4.82,4.82,0,0,1,.39-1.93,5.13,5.13,0,0,1,1.07-1.58,5.07,5.07,0,0,1,1.58-1.07,4.88,4.88,0,0,1,3.87,0,5,5,0,0,1,2.65,2.65,4.88,4.88,0,0,1,0,3.87,5.07,5.07,0,0,1-1.07,1.58,5.13,5.13,0,0,1-1.58,1.07,5,5,0,0,1-3.87,0,5,5,0,0,1-2.65-2.65A4.87,4.87,0,0,1,93,64.32Z" transform="translate(-9.1 -51.36)"/><path class="cls-1" d="M104.57,111.26a4.71,4.71,0,0,1,.4-1.94,5.07,5.07,0,0,1,1.07-1.58,5.13,5.13,0,0,1,1.58-1.07,5,5,0,0,1,3.86,0,5.17,5.17,0,0,1,1.59,1.07,5.25,5.25,0,0,1,1.07,1.58,5,5,0,0,1,0,3.87,5.25,5.25,0,0,1-1.07,1.58,5,5,0,0,1-1.59,1.07,4.86,4.86,0,0,1-3.86,0,5,5,0,0,1-1.58-1.07,5.07,5.07,0,0,1-1.07-1.58A4.7,4.7,0,0,1,104.57,111.26Zm2.23-17.79a9.06,9.06,0,0,0,1.87-.13,8.78,8.78,0,0,0,1.79-.51,7,7,0,0,0,1.57-.91,5.23,5.23,0,0,0,1.21-1.35,4.2,4.2,0,0,0,.56-2.19,5.2,5.2,0,0,0-.5-1.95,8.69,8.69,0,0,0-1.14-1.79c-.47-.58-.92-1.16-1.36-1.76A11.82,11.82,0,0,1,109.67,81a4.62,4.62,0,0,1-.47-2,8.67,8.67,0,0,1,.67-3.56A6.59,6.59,0,0,1,111.65,73a6.14,6.14,0,0,1,2.5-1.28,7.48,7.48,0,0,1,2.87-.14,8.47,8.47,0,0,1,2.89,1,8.89,8.89,0,0,1,2.53,2.12A12,12,0,0,1,124.27,78a16.92,16.92,0,0,1,1,4,20,20,0,0,1,0,4.38,18,18,0,0,1-1,4.4,16.91,16.91,0,0,1-2.11,4A14.05,14.05,0,0,1,118.9,98a15.11,15.11,0,0,1-4.53,2.17,19.2,19.2,0,0,1-5.87.69l-.82,0a4.47,4.47,0,0,1-.82,0Zm8.82,17.93a4.82,4.82,0,0,1,.39-1.93,5,5,0,0,1,1.07-1.58,5.07,5.07,0,0,1,1.58-1.07,4.88,4.88,0,0,1,3.87,0,5.07,5.07,0,0,1,1.58,1.07,5,5,0,0,1,1.07,1.58,4.88,4.88,0,0,1,0,3.87,5.07,5.07,0,0,1-1.07,1.58,5.25,5.25,0,0,1-1.58,1.07,5,5,0,0,1-3.87,0,5.25,5.25,0,0,1-1.58-1.07,5.07,5.07,0,0,1-1.07-1.58A4.87,4.87,0,0,1,115.62,111.4Z" transform="translate(-9.1 -51.36)"/><path class="cls-1" d="M127.54,76.1q-.06-14.68,2.46-19.66t6.15-5.07q3.66-.23,5.36,3.64,2.52,5.6-1.26,16.31t-2,16.32q1.82,5.63,7.62,5.83l-.06,7.36q-5.78.47-11.6-5.13T127.54,76.1Z" transform="translate(-9.1 -51.36)"/><path class="cls-1" d="M144.88,93.44a10,10,0,0,0,3.37-.39,6.66,6.66,0,0,0,2.29-1.23A5.92,5.92,0,0,0,152,90a11.81,11.81,0,0,0,.83-2.12,18.12,18.12,0,0,0,.5-2.22c.12-.73.25-1.41.41-2a7.92,7.92,0,0,1,.59-1.65,2.2,2.2,0,0,1,1-1,1.83,1.83,0,0,1,1.82-.17,3.47,3.47,0,0,1,1.3,1.45,16.08,16.08,0,0,1,1.09,2.52c.34,1,.73,2,1.17,3a17.69,17.69,0,0,0,1.6,2.88,7.43,7.43,0,0,0,2.34,2.23,3.65,3.65,0,0,0,1.54.55c.46,0,.79-.2,1-.74a6.31,6.31,0,0,0,.16-2.64,33.64,33.64,0,0,0-1-5.11,14.29,14.29,0,0,1-.35-4,6.25,6.25,0,0,1,.66-2.54,2.52,2.52,0,0,1,1.26-1.21,2.17,2.17,0,0,1,1.46-.08,2.93,2.93,0,0,1,1.3.87,3.1,3.1,0,0,1,.77,1.58c.07.41.21.94.39,1.6a22.89,22.89,0,0,0,.76,2.16,21.64,21.64,0,0,0,1.25,2.51,18.58,18.58,0,0,0,1.84,2.61,19.27,19.27,0,0,0,2.54,2.47A17.09,17.09,0,0,0,181.5,93a29.69,29.69,0,0,1-2.65-6.61,20.34,20.34,0,0,1-.7-5.55,10.78,10.78,0,0,1,.88-4.21A5.93,5.93,0,0,1,181.11,74a4.38,4.38,0,0,1,2.9-.69,6.42,6.42,0,0,1,3.32,1.46,7,7,0,0,1,2.23,3,16.84,16.84,0,0,1,1.1,4.22,28,28,0,0,1,.2,4.79,38.72,38.72,0,0,1-.46,4.72,32,32,0,0,1-.91,4,10.53,10.53,0,0,1-1.13,2.65,5.38,5.38,0,0,1-3.08,2.48,5.83,5.83,0,0,1-3.78-.4,20.34,20.34,0,0,1-1.93-.94,19.37,19.37,0,0,1-2.4-1.56,20.9,20.9,0,0,1-2.46-2.22,14.35,14.35,0,0,1-2.11-2.84,11.1,11.1,0,0,1-.35,5.26,7.87,7.87,0,0,1-2.33,3.52,7,7,0,0,1-3.61,1.55,7.81,7.81,0,0,1-4.16-.6,11.53,11.53,0,0,1-4-3,16.42,16.42,0,0,1-3.12-5.56c-.12.34-.26.7-.44,1.1s-.37.8-.59,1.19-.44.76-.67,1.11a10.26,10.26,0,0,1-.64.88,6.26,6.26,0,0,1-1.82,1.44,9.76,9.76,0,0,1-2.1.8,12.14,12.14,0,0,1-2.08.37q-1,.09-1.71.09Z" transform="translate(-9.1 -51.36)"/></svg>